<?xml version="1.0" encoding="UTF-8"?>
<svg width="87px" height="113px" viewBox="0 0 87 113" version="1.1" xmlns="http://www.w3.org/2000/svg" xmlns:xlink="http://www.w3.org/1999/xlink">
    <!-- Generator: Sketch 48.2 (47327) - http://www.bohemiancoding.com/sketch -->
    <title>actividad virtual</title>
    <desc>Created with Sketch.</desc>
	<style>
		circle{
	  		-ms-transform: rotate(45deg); /* IE 9 */
			-webkit-transform: rotate(45deg); /* Safari */
			transform: rotate(45deg);
	  		transform-origin: 37.5px 37.5px;
	  
	  		animation: dash 1s linear infinite;
		}
	  @keyframes dash {
	  	to {
	  		stroke-dashoffset: 12;
	  	}
	  }
	</style>
    <defs>
        <path d="M32.0678212,81.1629735 C32.0231112,80.8413559 32,80.5128281 32,80.1789024 L32,34.0819672 C32,30.1707047 35.1707047,27 39.0819672,27 C42.9932297,27 46.1639344,30.1707047 46.1639344,34.0819672 L46.1639344,58.6465592 C49.9816816,56.5147712 54.3537896,55.3043478 59,55.3043478 C73.9116882,55.3043478 86,67.7722443 86,83.1521739 C86,98.5321036 73.9116882,111 59,111 C44.0883118,111 32,98.5321036 32,83.1521739 C32,82.483338 32.022861,81.8200092 32.0678212,81.1629735 Z" id="path-1"></path>
        <rect id="path-3" x="44.3934426" y="48" width="14.1639344" height="33.7826087" rx="7"></rect>
        <rect id="path-4" x="57.6721311" y="51.6521739" width="14.1639344" height="30.1304348" rx="7"></rect>
        <rect id="path-5" x="70.9508197" y="56.2173913" width="14.1639344" height="25.5652174" rx="7"></rect>
    </defs>
    <g id="iconos" stroke="none" stroke-width="1" fill="none" fill-rule="evenodd" transform="translate(-243.000000, -111.000000)">
        <g id="actividad-virtual" transform="translate(244.000000, 112.000000)">
            
			<circle id="Oval-inner" stroke="#23937A" stroke-width="2" stroke-linecap="round" cx="37.5" cy="37.5" r="25.5" stroke-dasharray="6" stroke-dashoffset="0"></circle>
            
			<circle id="Oval-outer" stroke="#23937A" stroke-width="2" stroke-linecap="round" cx="37.5" cy="37.5" r="37.5" stroke-dasharray="6" stroke-dashoffset="0"></circle>
            
		  <mask id="mask-2" fill="white">
			  <use xlink:href="#path-1"></use>
		  </mask>
            <g id="hand-index">
                <use fill="#8A7861" fill-rule="evenodd" xlink:href="#path-1"></use>
                <path stroke="#41423F" stroke-width="2" d="M33.0582963,81.0252815 L33.0654881,81.2312426 C33.021899,81.8682429 33,82.5088063 33,83.1521739 C33,97.9866194 44.6476337,110 59,110 C73.3523663,110 85,97.9866194 85,83.1521739 C85,68.3177285 73.3523663,56.3043478 59,56.3043478 C54.6274083,56.3043478 50.4128088,57.4193722 46.6514667,59.5196642 L45.1639344,60.3502859 L45.1639344,34.0819672 C45.1639344,30.7229895 42.440945,28 39.0819672,28 C35.7229895,28 33,30.7229895 33,34.0819672 L33,80.1789024 C33,80.4641928 33.0195733,80.746731 33.0582963,81.0252815 Z"></path>
            </g>
            <g id="middle">
                <use fill="#8A7861" fill-rule="evenodd" xlink:href="#path-3"></use>
                <rect stroke="#41423F" stroke-width="2" x="45.3934426" y="49" width="12.1639344" height="31.7826087" rx="6.08196721"></rect>
            </g>
            <g id="ring">
                <use fill="#8A7861" fill-rule="evenodd" xlink:href="#path-4"></use>
                <rect stroke="#41423F" stroke-width="2" x="58.6721311" y="52.6521739" width="12.1639344" height="28.1304348" rx="6.08196721"></rect>
            </g>
            <g id="pinky">
                <use fill="#8A7861" fill-rule="evenodd" xlink:href="#path-5"></use>
                <rect stroke="#41423F" stroke-width="2" x="71.9508197" y="57.2173913" width="12.1639344" height="23.5652174" rx="6.08196721"></rect>
            </g>
            <path d="M66.4754563,109.186826 C64.3137875,109.76196 62.0472285,110.067892 59.7113905,110.067892 C46.7868065,110.067892 35.9832598,100.701492 33.3334496,88.1908235 L49.4372659,66.8203374 C51.7911224,63.6966643 56.2315375,63.0726047 59.3552106,65.4264612 C62.4788838,67.7803177 63.1029434,72.2207329 60.7490869,75.344406 L51.0596956,88.2026625 C59.7759231,91.0598387 66.1527207,99.3316514 66.4754563,109.186826 Z" id="gordo" stroke="#41423F" stroke-width="2" fill="#8A7861" stroke-linecap="round" stroke-linejoin="round"></path>
        </g>
    </g>
</svg>