<?xml version="1.0" encoding="UTF-8"?>
<svg width="89px" height="115px" viewBox="0 0 89 115" version="1.1" xmlns="http://www.w3.org/2000/svg" xmlns:xlink="http://www.w3.org/1999/xlink">
    <!-- Generator: Sketch 48.1 (47250) - http://www.bohemiancoding.com/sketch -->
    <title>actividad virtual copy</title>
    <desc>Created with Sketch.</desc>
    <defs>
        <path d="M0.0678211742,54.1629735 C0.0231111502,53.8413559 2.70542936e-15,53.5128281 2.66453526e-15,53.1789024 L0,7.08196721 C-4.78991509e-16,3.17070472 3.17070472,7.18487263e-16 7.08196721,0 C10.9932297,-7.18487263e-16 14.1639344,3.17070472 14.1639344,7.08196721 L14.1639344,31.6465592 C17.9816816,29.5147712 22.3537896,28.3043478 27,28.3043478 C41.9116882,28.3043478 54,40.7722443 54,56.1521739 C54,71.5321036 41.9116882,84 27,84 C12.0883118,84 0,71.5321036 0,56.1521739 C0,55.483338 0.0228610482,54.8200092 0.0678211742,54.1629735 Z" id="path-1"></path>
        <rect id="path-3" x="12.3934426" y="21" width="14.1639344" height="33.7826087" rx="7"></rect>
        <rect id="path-4" x="25.6721311" y="24.6521739" width="14.1639344" height="30.1304348" rx="7"></rect>
        <rect id="path-5" x="38.9508197" y="29.2173913" width="14.1639344" height="25.5652174" rx="7"></rect>
    </defs>
    <g id="iconos" stroke="none" stroke-width="1" fill="none" fill-rule="evenodd" transform="translate(-241.000000, -109.000000)">
        <g id="actividad-virtual-copy" transform="translate(233.000000, 101.000000)">
            <g id="hand" transform="translate(43.000000, 38.000000)">
                <mask id="mask-2" fill="white">
                    <use xlink:href="#path-1"></use>
                </mask>
                <g id="Combined-Shape">
                    <use fill="#8A7861" fill-rule="evenodd" xlink:href="#path-1"></use>
                    <path stroke="#41423F" stroke-width="2" d="M1.05829627,54.0252815 L1.06548812,54.2312426 C1.02189899,54.8682429 1,55.5088063 1,56.1521739 C1,70.9866194 12.6476337,83 27,83 C41.3523663,83 53,70.9866194 53,56.1521739 C53,41.3177285 41.3523663,29.3043478 27,29.3043478 C22.6274083,29.3043478 18.4128088,30.4193722 14.6514667,32.5196642 L13.1639344,33.3502859 L13.1639344,7.08196721 C13.1639344,3.72298947 10.440945,1 7.08196721,1 C3.72298947,1 1,3.72298947 1,7.08196721 L1,53.1789024 C1,53.4641928 1.01957327,53.746731 1.05829627,54.0252815 Z"></path>
                </g>
                <g id="Rectangle-6-Copy">
                    <use fill="#8A7861" fill-rule="evenodd" xlink:href="#path-3"></use>
                    <rect stroke="#41423F" stroke-width="2" x="13.3934426" y="22" width="12.1639344" height="31.7826087" rx="6.08196721"></rect>
                </g>
                <g id="Rectangle-6-Copy-2">
                    <use fill="#8A7861" fill-rule="evenodd" xlink:href="#path-4"></use>
                    <rect stroke="#41423F" stroke-width="2" x="26.6721311" y="25.6521739" width="12.1639344" height="28.1304348" rx="6.08196721"></rect>
                </g>
                <g id="Rectangle-6-Copy-3">
                    <use fill="#8A7861" fill-rule="evenodd" xlink:href="#path-5"></use>
                    <rect stroke="#41423F" stroke-width="2" x="39.9508197" y="30.2173913" width="12.1639344" height="23.5652174" rx="6.08196721"></rect>
                </g>
                <path d="M34.4754563,82.1868256 C32.3137875,82.76196 30.0472285,83.067892 27.7113905,83.067892 C14.7868065,83.067892 3.98325978,73.7014919 1.33344955,61.1908235 L17.4372659,39.8203374 C19.7911224,36.6966643 24.2315375,36.0726047 27.3552106,38.4264612 C30.4788838,40.7803177 31.1029434,45.2207329 28.7490869,48.344406 L19.0596956,61.2026625 C27.7759231,64.0598387 34.1527207,72.3316514 34.4754563,82.1868256 Z" id="Combined-Shape" stroke="#41423F" stroke-width="2" fill="#8A7861" stroke-linecap="round" stroke-linejoin="round"></path>
            </g>
            <path d="M62.7739448,24.0894578 C58.9205513,21.5056693 54.2937325,20 49.3178602,20 C44.8163263,20 40.600469,21.232288 36.9844984,23.3803002 M31.943233,27.3584218 C27.6480541,31.7768784 25,37.8268799 25,44.5 M25.7131076,50.413572 C26.6564761,54.2483772 28.4964164,57.7267159 30.9958793,60.6097635 M35.9284661,64.9551007 C38.1024637,66.4024552 40.5207317,67.5074476 43.1075888,68.1938298 M49.3178602,69 C51.706284,69 54.0142856,68.6530923 56.1949324,68.0065608 M58.8297859,67.0548741 C60.2643923,66.4399917 61.6283339,65.6902394 62.9059284,64.8214171 M64.7419428,63.4421652 C65.5385206,62.7830107 66.292782,62.0738513 67,61.3194495" id="Oval-17" stroke="#23937A" stroke-width="3" stroke-linecap="round" stroke-linejoin="round" transform="translate(46.000000, 44.500000) rotate(74.000000) translate(-46.000000, -44.500000) "></path>
            <path d="M73.3590561,11.4262908 C67.3037234,7.36605182 60.0330082,5 52.2137803,5 C45.1399413,5 38.5150227,6.93645251 32.8327833,10.3119003 M24.9107948,16.5632342 C18.1612279,23.5065232 14,33.0136684 14,43.5 M15.1205977,52.792756 C16.6030339,58.8188784 19.4943687,64.2848393 23.422096,68.8153426 M31.1733039,75.6437296 C34.5895859,77.9181439 38.3897212,79.6545605 42.4547824,80.7331611 M52.2137803,82 C55.9670178,82 59.5938773,81.4548593 63.0206081,80.4388813 M67.1610922,78.9433735 C69.4154736,77.9771298 71.5588104,76.7989477 73.566459,75.4336555 M76.4516244,73.2662596 C77.7033895,72.2304453 78.8886574,71.116052 80,69.9305635" id="Oval-17-Copy" stroke="#23937A" stroke-width="3" stroke-linecap="round" stroke-linejoin="round" transform="translate(47.000000, 43.500000) rotate(-288.000000) translate(-47.000000, -43.500000) "></path>
        </g>
    </g>
</svg>