<?xml version="1.0" encoding="UTF-8"?>
<svg width="321px" height="345px" viewBox="0 0 321 345" version="1.1" xmlns="http://www.w3.org/2000/svg" xmlns:xlink="http://www.w3.org/1999/xlink">
    <!-- Generator: Sketch 49.3 (51167) - http://www.bohemiancoding.com/sketch -->
    <title>avatar_comentario</title>
    <desc>Created with Sketch.</desc>
    <defs>
        <circle id="path-1" cx="154.5" cy="226.5" r="154.5"></circle>
        <path d="M154.5,380.867187 C239.827994,380.867187 309,311.695181 309,226.367187 C309,141.039194 254.640494,0.7265625 169.3125,0.7265625 C83.9845062,0.7265625 0,141.039194 0,226.367187 C0,311.695181 69.1720062,380.867187 154.5,380.867187 Z" id="path-2"></path>
    </defs>
    <g id="metafora" stroke="none" stroke-width="1" fill="none" fill-rule="evenodd">
        <g id="Desktop-HD" transform="translate(-144.000000, -944.000000)">
            <g id="avatar_comentario" transform="translate(150.000000, 902.000000)">
                <g id="Oval-25" stroke-linecap="round" stroke-linejoin="round">
                    <use fill="#B0F7E7" fill-rule="evenodd" xlink:href="#path-1"></use>
                    <circle stroke="#41423F" stroke-width="6" cx="154.5" cy="226.5" r="157.5"></circle>
                </g>
                <mask id="mask-3" fill="white">
                    <use xlink:href="#path-2"></use>
                </mask>
                <g id="Oval-25"></g>
                <g id="Page-1" mask="url(#mask-3)">
                    <g transform="translate(-3.000000, 42.000000)">
                        <path d="M71,343.585398 C71,343.585398 60.4663197,328.849966 47.8574167,330.072016 C47.8574167,330.072016 33.0407917,368.758017 30.1947464,382.203259 C30.1947464,382.203259 13.242916,440.125567 12.8346755,475.972073 C12.8346755,475.972073 10.7997396,550.925976 9.98594432,559.481224 C9.98594432,559.481224 1.85425826,604.698873 0.634012961,608.768488 C-0.588918135,612.84169 -0.179782329,615.28579 3.0736083,625.878983 C3.0736083,625.878983 5.91965366,644.614993 8.76569901,649.098833 C11.6144302,653.576396 29.1034192,672.313303 30.731905,673.131888 C32.3594956,673.944197 32.3594956,671.908941 32.3594956,671.908941 C32.3594956,671.908941 35.6137815,675.575092 37.2395815,675.983936 C38.8653816,676.387401 39.6800721,669.056893 39.6800721,669.056893 C39.6800721,669.056893 42.934358,665.391639 41.3058722,662.942159 C39.6800721,660.498956 30.3227692,653.576396 30.731905,652.355242 C31.1401455,651.133192 32.3594956,650.728831 31.5430145,649.098833 C30.731905,647.467938 29.1034192,645.427303 25.851819,640.94974 C22.5975332,636.4659 23.4113284,633.618335 22.5975332,627.101033 C21.7828426,620.581938 19.748802,612.432845 22.1892926,612.02938 C24.6315737,611.620536 26.4337409,642.204964 28.2914144,644.206149 C30.9333395,647.059094 34.7999862,651.340304 37.2395815,643.191211 C40.1321806,633.537642 34.7999862,627.504498 36.0202315,617.72989 C37.2395815,607.955282 39.6800721,603.062599 38.4598268,590.031581 C37.2395815,576.995184 35.2082267,575.77403 33.5797409,565.180837 C31.951255,554.59123 38.0542721,513.044215 40.8994222,497.561027 C40.8994222,497.561027 62.4600734,434.422367 66.1199141,414.870462 C66.1199141,414.870462 70.9973142,348.472702 71,343.585398" id="Fill-1" stroke="none" fill="#CEA395" fill-rule="evenodd"></path>
                        <path d="M71,343.585398 C71,343.585398 60.4663197,328.849966 47.8574167,330.072016 C47.8574167,330.072016 33.0407917,368.758017 30.1947464,382.203259 C30.1947464,382.203259 13.242916,440.125567 12.8346755,475.972073 C12.8346755,475.972073 10.7997396,550.925976 9.98594432,559.481224 C9.98594432,559.481224 1.85425826,604.698873 0.634012961,608.768488 C-0.588918135,612.84169 -0.179782329,615.28579 3.0736083,625.878983 C3.0736083,625.878983 5.91965366,644.614993 8.76569901,649.098833 C11.6144302,653.576396 29.1034192,672.313303 30.731905,673.131888 C32.3594956,673.944197 32.3594956,671.908941 32.3594956,671.908941 C32.3594956,671.908941 35.6137815,675.575092 37.2395815,675.983936 C38.8653816,676.387401 39.6800721,669.056893 39.6800721,669.056893 C39.6800721,669.056893 42.934358,665.391639 41.3058722,662.942159 C39.6800721,660.498956 30.3227692,653.576396 30.731905,652.355242 C31.1401455,651.133192 32.3594956,650.728831 31.5430145,649.098833 C30.731905,647.467938 29.1034192,645.427303 25.851819,640.94974 C22.5975332,636.4659 23.4113284,633.618335 22.5975332,627.101033 C21.7828426,620.581938 19.748802,612.432845 22.1892926,612.02938 C24.6315737,611.620536 26.4337409,642.204964 28.2914144,644.206149 C30.9333395,647.059094 34.7999862,651.340304 37.2395815,643.191211 C40.1321806,633.537642 34.7999862,627.504498 36.0202315,617.72989 C37.2395815,607.955282 39.6800721,603.062599 38.4598268,590.031581 C37.2395815,576.995184 35.2082267,575.77403 33.5797409,565.180837 C31.951255,554.59123 38.0542721,513.044215 40.8994222,497.561027 C40.8994222,497.561027 62.4600734,434.422367 66.1199141,414.870462 C66.1199141,414.870462 70.9973142,348.472702 71,343.585398 Z" id="Stroke-3" stroke="#AE7D74" stroke-width="3" fill="none"></path>
                        <path d="M178.556471,154 C184.773278,188.669972 188.343299,193.379777 207,205.937764 L206.301069,205.964642 L206.274153,205.266727 C202.611719,255.671587 152.160388,326.014952 94.6784767,303.772164 C75.5354847,296.822581 68.7184406,283.120515 67.272129,263.623695 C66.0922905,251.105128 68.2429163,252.418534 83.9029173,241.348655 C92.5215704,229.150824 106.353046,225.132662 109.92845,208.939963 C112.887467,194.861614 120.763226,177.447788 116.631548,160.851033 C143.556988,188.44689 162.360832,169.277974 178.556471,154" id="Fill-11" stroke="none" fill="#CEA395" fill-rule="evenodd"></path>
                        <path d="M176.203467,153.611275 C178.27399,165.111518 179.997044,177.740588 185.851319,188.067282 C190.267482,195.858145 197.634007,200.995106 204.891557,205.908448 L206.445789,203.911089 C206.214441,203.920033 205.982199,203.929873 205.750851,203.938817 C206.259102,204.148124 206.767354,204.356536 207.276499,204.566738 C207.267567,204.334175 207.258634,204.101612 207.248809,203.869943 C207.198788,202.590846 203.880413,203.337731 203.788409,204.512175 C202.14128,225.551977 193.813633,246.005005 182.149745,263.434712 C170.177691,281.325074 153.104361,297.941705 131.855149,303.74952 C111.524184,309.305094 83.3416665,303.414093 73.649153,282.747286 C71.3374559,277.818738 70.0735257,272.458159 69.3651888,267.078797 C68.8328197,263.035777 67.7171668,257.719922 69.1186555,253.735938 C70.4183151,250.039079 74.7067455,247.878926 77.7455374,245.829688 C80.1242272,244.225003 83.0209945,242.719604 85.1058094,240.738345 C87.0896885,238.85369 88.5965792,236.359898 90.586711,234.411735 C94.9055114,230.184454 99.8719085,226.63429 103.890581,222.098415 C107.948557,217.518712 110.254894,212.408586 111.630479,206.493433 C115.239156,190.98416 121.649024,175.67346 118.004617,159.525532 C116.89879,159.918206 115.792963,160.309985 114.686242,160.702659 C124.251023,170.32272 136.510699,177.88907 150.446981,173.904191 C161.980456,170.606268 170.873523,161.548831 179.339622,153.530772 C180.84294,152.105876 177.470077,151.865263 176.519673,152.766892 C169.246938,159.654336 161.757147,167.436255 152.231669,171.11254 C139.001937,176.219983 127.012912,168.469371 117.871525,159.275974 C117.084583,158.483471 114.232478,159.028205 114.55315,160.451312 C118.193984,176.580456 111.605468,192.029799 108.015549,207.516711 C104.898153,220.965118 93.8845416,226.618189 85.3166133,236.189054 C83.0504713,238.720414 81.0558733,240.825109 78.2028747,242.766117 C75.798281,244.401214 73.3311607,245.960281 71.0033853,247.705398 C68.6407737,249.476456 66.4050018,251.446086 65.5662523,254.379958 C64.3666352,258.578616 65.3617011,263.79429 65.9137215,268.005471 C66.6417096,273.554784 67.9672731,279.097835 70.4218881,284.150715 C79.916103,303.702113 105.677055,310.506372 125.740049,307.200399 C147.206318,303.662757 165.378329,289.505032 178.669694,272.845466 C194.132518,253.463123 205.307805,229.066363 207.258634,204.153491 C206.105466,204.36727 204.951404,204.581049 203.798235,204.796617 C203.807167,205.027391 203.816099,205.259955 203.825032,205.492518 C203.850042,206.11686 204.969268,206.135644 205.35068,206.120438 C205.582922,206.110599 205.81427,206.102548 206.046512,206.092709 C206.862931,206.061403 208.843237,204.93705 207.600744,204.09535 C200.503977,199.290239 193.325925,194.2794 189.036602,186.641492 C183.332391,176.485641 181.685262,163.965698 179.654935,152.685495 C179.409295,151.325001 175.945322,152.176539 176.203467,153.611275" id="Fill-13" stroke="none" fill="#BA8D80" fill-rule="evenodd"></path>
                        <path d="M223.90476,222.562784 C217.123096,227.703144 200.318464,226.254929 191.749606,221 C184.401161,229.652597 182.146576,243.685431 174.830365,253.034388 C165.554151,265.945706 151.266454,275.556022 136.874891,282.384476 C114.257404,293.013376 78.4589189,287.404897 77.2062718,254.667882 C77.2062718,254.667882 71.1480804,260.477752 64.9600577,262.808502 C81.1656751,285.210197 55.5101386,325.94641 49.4197132,349.192152 C45.770114,363.284956 49.7895082,377.083283 51.7128005,390.95769 C53.689816,406.225715 52.1864604,421.629789 54.8609827,436.871857 C58.7398011,465.323298 57.5247604,488.383762 51.6259479,516.508504 C48.0578289,532.685915 45.1272258,547.449123 42.9541205,563.571935 C41.2922814,574.794264 36.1661883,586.849899 38.6831224,597.914696 C92.5120248,618.878917 109.208314,617.545269 171.164649,613.782415 C195.535304,612.307347 251.26601,610.031196 269.411036,591.898067 C262.901569,585.869802 276.11122,572.48589 273.702628,564.208326 C268.964238,549.74586 271.31463,542.645307 260.210035,520.445897 C249.621183,499.276707 233.34483,487.95413 228.981607,465.100427 C226.197847,447.070231 218.806424,436.196977 218.441106,408.305847 C218.206514,390.760776 228.7694,381.694659 230.244999,352.056361 C231.433178,328.298642 231.868336,303.169683 230.315734,299.040746 C221.371709,275.300033 225.991013,240.618937 223.90476,222.562784" id="Fill-15" stroke="none" fill="#C6CCD5" fill-rule="evenodd"></path>
                        <path d="M223.144961,221.74935 C214.708708,227.60686 200.241581,224.910631 191.910804,220.062975 C191.613149,219.890037 191.050911,220.102402 190.852474,220.347921 C183.561256,229.376568 181.666273,241.334418 175.130367,250.811989 C167.375236,262.054787 156.509472,270.623758 144.702473,277.268004 C128.597794,286.330701 107.739566,291.014379 91.2406952,279.89882 C82.4174013,273.954393 78.2216216,264.318221 77.6853055,253.891729 C77.6647467,253.503737 76.7208303,253.838861 76.5840697,253.968789 C73.0944396,257.277919 69.0550854,260.130957 64.6099187,261.971454 C64.4409791,262.042242 64.1263404,262.222349 64.2774027,262.440987 C74.3163464,276.957969 68.0575374,296.629058 62.5960517,311.686361 C56.6813789,327.993661 46.9481354,344.52587 47.2556233,362.315244 C47.4692558,374.722018 51.0277132,386.793667 51.7973268,399.164598 C52.5776668,411.704884 52.3747605,424.158252 54.1526484,436.625957 C57.5359092,460.343629 56.8413799,484.244992 52.5803484,507.795998 C50.3394409,520.183955 47.3646742,532.423166 45.166672,544.822771 C44.073481,550.9939 43.2278893,557.19191 42.2669896,563.383648 C41.3641908,569.20442 39.7212758,574.863901 38.5708777,580.633597 C37.7261798,584.87104 36.043935,592.035893 37.7065149,596.330684 C38.6003751,598.641609 38.1391432,597.984801 41.0200546,599.09322 C43.7695685,600.151461 46.5262333,601.190884 49.2927306,602.203426 C57.588647,605.237468 65.9766309,608.044807 74.5156773,610.312721 C107.491967,619.067176 141.346922,615.613781 174.963215,613.643357 C192.296058,612.628127 209.671806,611.449815 226.790123,608.413981 C241.24563,605.848577 258.493556,602.396078 269.437086,591.746468 C269.52379,591.662239 269.627478,591.539479 269.519321,591.423888 C265.621197,587.283219 269.148369,580.94632 271.002235,576.623753 C272.945487,572.089716 274.938795,567.684711 273.520239,562.752826 C270.62592,552.685651 269.530941,542.248406 265.855388,532.389116 C260.665636,518.468906 252.549385,506.820195 243.912908,494.904459 C239.675117,489.056806 235.623249,483.025462 232.790606,476.349854 C230.222546,470.299693 229.329579,464.041647 227.878844,457.695788 C225.260728,446.244208 221.295564,435.243345 219.767063,423.53639 C218.833873,416.388562 218.094651,408.828548 219.04393,401.65115 C219.674102,396.885035 221.143608,392.307987 222.689092,387.775743 C226.955487,375.265923 229.890924,363.084955 230.543442,349.809009 C231.27015,335.016938 232.054959,320.047448 231.354173,305.238351 C231.092272,299.693565 229.231255,295.119206 227.964655,289.741085 C226.093806,281.795768 225.344751,273.612997 224.985419,265.473236 C224.343627,250.94102 225.691569,236.228698 224.13357,221.751142 C224.093347,221.373007 222.860713,221.636447 222.908088,222.079994 C224.565305,237.476902 223.017139,253.114849 223.898485,268.567313 C224.382957,277.066391 225.34922,285.635363 227.720631,293.834263 C229.326898,299.38801 230.140311,303.840506 230.2583,309.692639 C230.449586,319.247271 230.164445,328.813551 229.814946,338.361014 C229.455614,348.179085 229.215165,358.039271 227.326439,367.707701 C224.927318,379.996196 218.552307,391.566054 217.578,404.101859 C216.404361,419.189629 220.100473,434.277398 224.187202,448.653699 C226.102744,455.392031 227.119063,462.303301 228.928236,469.04432 C230.975176,476.675122 234.698998,483.635675 239.093214,490.148201 C243.743075,497.04155 248.998973,503.503 253.516542,510.488643 C258.660708,518.44292 262.875258,527.157052 265.84198,536.16509 C267.746796,541.948227 268.792613,547.887278 269.992173,553.840666 C271.258773,560.126489 273.938566,565.586151 271.736094,571.948139 C270.010944,576.930203 265.615834,582.986637 266.597292,588.503646 C267.08087,591.218692 268.665685,591.614748 266.086898,593.695387 C263.407999,595.855775 260.381388,597.577096 257.279694,599.045729 C244.085423,605.293919 229.092707,607.76255 214.7391,609.632616 C201.28561,611.384403 187.748098,612.256264 174.211479,613.051065 C157.584786,614.02866 140.943791,615.301058 124.281343,615.443531 C110.662489,615.560914 97.1017364,614.596759 83.768024,611.720423 C76.4964714,610.152328 69.3366514,608.105739 62.268005,605.79571 C58.2447403,604.481197 54.2482915,603.080664 50.2732952,601.627263 C45.8987435,600.027805 39.1116631,599.120102 38.6602637,593.705243 C37.7744483,583.078931 42.0935807,572.740251 43.6077798,562.357666 C45.1613088,551.698199 46.9409845,541.097872 49.0835673,530.538763 C53.1667206,510.410686 57.3499863,490.616837 57.5966917,469.978009 C57.7209383,459.586463 57.0210458,449.203877 55.7177976,438.89656 C54.3484038,428.057882 53.7039306,417.426193 53.3606883,406.504182 C53.0183399,395.640415 51.2905081,385.225571 49.6770905,374.509653 C48.145908,364.340328 47.9724991,354.440715 51.1305071,344.566193 C55.6105344,330.558169 62.255491,317.345843 66.6076962,303.279576 C68.7842458,296.248235 70.540681,288.946285 70.7221347,281.552937 C70.7954312,278.554738 70.6059328,275.542202 69.9954263,272.602247 C69.3169864,269.333439 67.6535126,266.78954 66.583562,263.734889 C65.9462397,261.921275 65.9024405,262.43113 67.6731776,261.275219 C69.1748627,260.295832 70.7766601,259.497447 72.2506356,258.456231 C74.1098647,257.144407 75.9074176,255.71072 77.5601651,254.14352 C77.1927885,254.170402 76.8263058,254.195491 76.4589293,254.220581 C77.0640727,265.982195 82.412932,276.373741 92.9274093,282.097739 C102.300427,287.198978 113.722173,288.015284 124.07218,286.099519 C137.331702,283.646121 149.910996,275.971413 160.327149,267.674842 C166.701266,262.5969 172.597167,256.606774 177.001217,249.708049 C181.560797,242.565597 183.785615,234.26813 187.740053,226.816539 C188.438158,225.501131 189.77716,222.03788 191.193929,221.338957 C192.244214,220.820141 194.667469,222.522645 195.808035,222.938415 C199.251184,224.194683 202.892771,224.933929 206.536145,225.263677 C212.317632,225.786973 218.961695,225.507404 223.896697,222.081786 C224.575137,221.611358 223.515913,221.492182 223.144961,221.74935" id="Fill-17" stroke="none" fill="#A1AAB5" fill-rule="evenodd"></path>
                        <path d="M190.266425,188 C202.260231,204.601564 226.763918,206.552847 245.347933,208.627595 C252.690825,209.447116 267.351608,208.416452 273.523958,212.845982 C282.521322,219.300157 282.336499,239.110916 281.792747,248.636506 C279.569522,287.574492 260.863184,323.334597 248.928307,360.457291 C244.793466,373.320908 242.330955,386.792904 241.027377,400.164696 C237.68629,434.398488 254.416726,459.337516 269.424832,488.130798 C277.339155,501.090145 291.065112,520.461619 294.42227,535.488557 C297.779429,550.521759 285.953481,556.656536 273.23735,563.775454 C247.838123,578.96075 221.189784,585.666328 192.297685,582.031269 C157.768059,576.724065 159.473424,572.865338 151.124278,548.557055 C146.915329,535.450086 150.717133,513.516268 149.212661,498.411492 C147.854619,487.096555 149.27784,475.676941 147.914441,464.361108 C142.085842,408.686463 124.53576,361.987183 147.490332,307.11148 C156.817161,284.01727 169.880615,261.722897 182.020851,239.473258 C188.962848,226.889674 195.366449,200.11567 190.266425,188" id="Fill-19" stroke="none" fill="#D96C70" fill-rule="evenodd"></path>
                        <path d="M188.588152,189.11318 C196.908171,200.171604 210.112886,204.910672 223.267437,207.423014 C230.0279,208.714999 236.885107,209.449183 243.724399,210.182472 C250.55742,210.91576 257.479123,210.546878 264.283479,211.586375 C271.611868,212.705558 275.892808,216.259188 278.143011,223.350331 C280.168373,229.734151 280.51504,236.612202 280.437107,243.264625 C280.235556,260.542125 276.466108,277.563555 271.29924,293.984208 C265.655817,311.923368 258.42059,329.301146 252.047104,346.982447 C245.649433,364.733584 240.905374,382.703186 239.261615,401.557391 C237.807762,418.228741 241.319225,434.488231 247.791247,449.813875 C254.098444,464.748253 261.889951,479.842898 270.545888,493.542593 C278.944735,506.833115 289.578557,520.891844 292.931467,536.540708 C296.538779,553.375011 277.029554,561.24421 264.934713,567.576995 C248.694194,576.080995 230.896808,581.423527 212.523434,582.169351 C203.374817,582.54092 194.365943,581.703771 185.368714,580.09931 C179.758434,579.098313 173.952874,578.040909 168.722406,575.687938 C160.769658,572.111925 158.046482,564.771875 155.420051,557.001164 C153.342734,550.853715 151.307518,544.979348 150.830067,538.450482 C150.236164,530.32969 150.795131,522.157864 151.014598,514.032595 C151.245709,505.501735 150.271995,497.158897 150.113442,488.651316 C149.942347,479.416713 150.090151,470.328947 149.044774,461.132844 C146.943271,442.652895 143.479284,424.373503 140.820604,405.971448 C138.256878,388.225683 136.563851,370.265034 138.046369,352.341095 C139.677587,332.60587 145.676636,314.203815 153.887369,296.279876 C162.010315,278.550227 171.706254,261.604006 181.113751,244.536913 C187.937815,232.156063 192.463303,218.738402 193.57228,204.563278 C194.006734,199.015711 193.953883,193.112693 191.896273,187.863277 C191.249519,186.212258 187.802552,187.17386 188.435869,188.790856 C193.444184,201.569239 188.675939,218.769739 184.090433,231.000171 C181.197955,238.717161 176.825645,245.778758 172.844793,252.965704 C167.903662,261.88604 162.971489,270.814434 158.311634,279.886084 C149.343965,297.344443 141.041862,315.433126 137.065488,334.752015 C133.412491,352.502257 133.381139,370.672417 135.113581,388.649182 C136.910518,407.303724 140.45423,425.731743 143.214133,444.255565 C146.17469,464.125092 146.852797,484.02327 147.532695,504.062018 C148.053144,519.352743 144.616031,535.803838 149.513268,550.634356 C152.064454,558.3603 154.071004,568.023773 160.171276,573.882025 C167.387692,580.81111 179.426995,582.037735 188.784328,583.545498 C206.149948,586.343456 224.180238,585.04968 241.051387,580.138705 C256.8682,575.536625 272.731595,567.838437 286.193399,558.313742 C290.799507,555.055576 295.029388,550.867146 296.456367,545.238998 C298.193288,538.387808 295.448613,531.140874 292.723646,524.924484 C286.147714,509.921165 276.014634,496.918944 268.322558,482.5361 C259.95148,466.880968 250.865569,451.323429 245.996996,434.130988 C235.016507,395.359803 252.133099,356.086329 265.580571,320.266206 C272.177106,302.694138 278.447576,284.856151 281.696576,266.317109 C284.083834,252.689937 285.762528,237.018689 281.913355,223.460459 C280.495333,218.466216 277.965646,213.413777 273.10424,211.030365 C267.346156,208.208233 260.239026,208.292395 253.981097,208.059605 C239.560806,207.523293 223.997499,206.099692 210.428201,200.941602 C203.052336,198.138272 196.520297,193.888958 191.743095,187.540057 C190.729966,186.193456 187.457676,187.609894 188.588152,189.11318" id="Fill-21" stroke="none" fill="#AD363F" fill-rule="evenodd"></path>
                        <path d="M111,197 C110.425617,206.315053 107.877301,212.919476 104.465163,221.412665 C97.6849321,239.322858 97.5635837,260.699367 89.8862736,279.572723 C80.5514339,304.088233 61.8601815,328.026918 57.2615258,354.223716 C54.3141075,374.777467 62.5217551,393.978138 64.2008577,413.42832 C67.4547932,449.542931 70.9271558,491.222785 64.8192852,526.765938 C60.9361358,547.353672 52.7500612,577.407596 30.5810529,583.822427 C0.0947339641,592.4122 20.0102571,551.695509 25.0358795,536.640824 C39.319937,495.211374 42.3158947,453.220302 38.777914,409.67851 C36.0606083,387.481926 33.479033,367.204515 38.2206102,344.724437 C42.8848839,320.387788 39.056566,293.587335 44.7275822,271.067908 C50.3329804,246.694592 113.968991,225.69369 109.205841,198.926327 L111,197 Z" id="Fill-23" stroke="none" fill="#D96C70" fill-rule="evenodd"></path>
                        <path d="M108.544064,198.238388 C107.923453,206.542624 105.328332,214.026367 102.353154,221.73201 C99.5353651,229.029645 97.8702671,236.681602 96.4099529,244.347876 C93.3399843,260.474968 90.2056296,275.88357 83.2072101,290.856426 C76.5083652,305.187741 68.1506821,318.700354 61.9526186,333.273254 C58.9541902,340.323935 56.285741,347.751309 55.0972795,355.351371 C53.898087,363.023909 54.4516292,370.940714 55.5980608,378.580146 C56.8044074,386.617743 58.7494064,394.516654 60.2320769,402.504146 C61.7469405,410.669694 62.3729172,418.919349 63.0749053,427.18511 C64.4931897,443.897372 65.6682374,460.64453 65.9016372,477.419425 C66.2888485,505.306302 64.8634102,535.663602 52.6568646,561.32164 C47.4299592,572.308355 38.7405084,583.591235 25.7631173,585.053267 C16.1981934,586.132344 14.7575527,577.746685 15.9138211,570.171677 C17.2230067,561.594541 20.4879223,553.354728 23.5426885,545.282234 C28.2223115,532.91491 32.0130475,520.254999 34.8245771,507.327557 C42.0563964,474.081089 43.5891451,438.784733 39.5310276,405.00678 C37.4232746,387.462394 35.7215123,369.748899 38.3497201,352.156196 C39.5507011,344.118598 41.1049118,336.26353 41.6629254,328.131983 C42.2432952,319.659533 42.3184124,311.16561 42.5974191,302.680634 C42.8817914,294.031022 43.3351774,285.346515 44.9242639,276.823959 C45.8211991,272.016433 46.9425917,267.747549 49.7934684,263.726513 C55.3736035,255.859814 63.6248706,249.970526 71.3047104,244.326402 C79.5416694,238.27248 88.0397502,232.509353 95.7356865,225.756625 C101.578732,220.62967 107.940444,214.374427 109.904222,206.567677 C110.279808,205.074328 110.481909,203.530873 110.467601,201.989208 C110.446139,199.734421 110.284279,199.397993 111.851904,197.705113 C112.66925,196.822883 109.326535,197.159312 108.691616,197.84559 C107.559492,199.067828 107.066759,199.412309 106.867341,200.857341 C106.58118,202.933176 107.016681,204.980379 106.479235,207.112583 C105.454422,211.177462 103.13026,214.777068 100.477907,217.968664 C93.7638599,226.047421 84.8964529,232.236452 76.4564986,238.360166 C68.1515763,244.386351 59.5497623,250.247901 52.2142097,257.469481 C49.2864273,260.351492 46.5169275,263.515351 44.5647745,267.153431 C41.8060057,272.294702 41.1469417,278.563366 40.4485306,284.262965 C38.3023248,301.770666 39.5185081,319.498477 37.484978,337.018705 C36.5075601,345.441048 34.5142715,353.664755 33.8882948,362.140784 C33.2202882,371.189457 33.5368536,380.27213 34.3005452,389.304697 C35.8189858,407.269619 38.0349433,424.926744 38.041203,443.0053 C38.0474628,461.460548 36.6130819,479.921165 33.3428008,498.09188 C30.6162252,513.236529 26.7011881,528.250544 21.3106345,542.67044 C18.159289,551.099941 14.6752815,559.531232 12.9037675,568.388427 C11.7975772,573.919812 10.5760284,582.583739 16.7240138,585.682281 C23.9370539,589.315887 34.7297863,584.722207 40.6711994,580.52222 C50.1556406,573.817809 55.8019504,562.849884 59.630245,552.170965 C64.0684198,539.787534 66.5615955,526.699036 67.9119167,513.640959 C69.6941618,496.414212 69.6726997,479.03804 68.9251047,461.752239 C68.1918177,444.778707 67.1258688,427.653962 65.1263204,410.778854 C63.1240892,393.884061 57.0995107,377.459016 58.0009171,360.263585 C58.8871213,343.370581 67.4039813,327.393809 75.1285337,312.727855 C82.8226816,298.121849 90.92282,283.58295 95.0462179,267.474648 C99.1857124,251.306398 100.538716,234.646926 106.643778,218.999424 C109.402546,211.927268 111.431605,204.907903 111.999455,197.312315 C112.049533,196.644827 108.629912,197.090416 108.544064,198.238388" id="Fill-25" stroke="none" fill="#AD363F" fill-rule="evenodd"></path>
                        <path d="M111,197 C105.76388,205.551654 96.8871795,221.583325 89.7308807,228.348026 C77.2403567,240.892416 66.606689,249.172588 55,260.749827 C59.7366778,263.352115 66.0858417,261.890226 71.6680045,262.607329 C67.1489409,265.562364 59.2274247,273.212951 55.7010033,277.987088 C62.5692308,287.93544 59.612709,307.531193 58.1857302,318.718178 C57.6809365,329.877479 60.0630992,343.703366 57.6755853,354 C62.6994426,339.890129 64.8434783,323.108313 72.709699,310.742529 C81.3910814,295.563701 90.2954292,285.942198 95.2104794,269.05679 C97.5979933,258.755691 98.135786,248.5305 99.5948718,238.268694 C101.021851,227.077244 109.610479,209.114842 111,197" id="Fill-27" stroke="none" fill="#D96C70" fill-rule="evenodd"></path>
                        <path d="M109.548364,197.927181 C103.023177,208.594049 97.1433983,220.330474 88.2256137,229.258412 C76.9494365,240.547094 64.5282686,250.610989 53.171978,261.81443 C53.0828632,261.902364 52.877629,262.14104 53.099966,262.245125 C55.8553247,263.529133 58.6754942,263.912271 61.6972973,263.98854 C63.6488222,264.037891 65.605748,263.991232 67.558173,264.004691 C70.5187659,264.025329 68.909298,264.37796 67.1693083,265.762463 C62.2229848,269.697037 57.5791117,274.282139 53.7354718,279.300627 C53.7264703,279.349977 53.7174688,279.400225 53.7084673,279.449576 C60.0788279,289.281972 58.3514403,302.92781 57.0354212,313.94013 C55.3836462,327.766321 58.6088831,342.022309 55.7284036,355.674427 C55.5771784,356.387765 58.8825287,355.816198 59.1534738,355.042742 C63.8945631,341.474968 65.7776766,326.617802 72.904163,313.95987 C79.6687892,301.946185 88.5289642,291.041539 93.957768,278.302851 C100.09409,263.903298 98.8068753,248.322925 102.519993,233.398463 C105.554399,221.206219 111.363066,209.681552 112.999538,197.147445 C113.045446,196.796608 109.654581,197.058614 109.521359,198.07613 C107.84798,210.897367 101.702657,222.628408 98.8221778,235.161619 C95.3502998,250.267331 96.4223783,265.817197 89.9521011,280.260717 C84.2910587,292.899806 75.2319505,303.597181 68.8147822,315.81724 C62.277894,328.265209 60.3290695,342.509532 55.7284036,355.674427 C56.8697936,355.463567 58.0111836,355.252706 59.1534738,355.042742 C61.0140836,346.222478 60.0653256,337.181482 59.7385712,328.258928 C59.4406216,320.162768 60.8151504,312.402192 61.3516398,304.352691 C61.8440217,296.94654 62.0105495,288.739118 58.974344,281.796861 C57.8977648,279.333826 57.1470398,278.552295 59.1021653,276.279485 C60.4325868,274.730779 61.839521,273.248472 63.2842615,271.805645 C66.2592568,268.835648 69.3989795,265.919487 72.8879603,263.555154 C73.1174985,263.399027 73.5963783,262.936928 72.9977786,262.879502 C68.9345022,262.484698 63.8864618,263.565921 60.0275193,262.30614 C59.2065827,262.037853 57.4359879,261.614337 57.4782949,260.362631 C57.4935975,259.89784 59.9005982,258.019832 60.374077,257.5685 C62.0735599,255.950704 63.7928462,254.354442 65.5256346,252.77164 C72.4720911,246.426074 79.6057787,240.285986 86.4136121,233.790574 C97.6114763,223.105761 104.9612,210.393095 112.973434,197.296393 C113.179568,196.959016 110.06865,197.07656 109.548364,197.927181" id="Fill-29" stroke="none" fill="#AD363F" fill-rule="evenodd"></path>
                        <path d="M201.066173,90.079784 C212.745973,92.8482247 200.841562,124.281226 194.556033,117.843929 C196.539802,124.849249 190.461814,138.158371 187.406199,144.3018 C183.678546,153.583692 175.704836,161.492115 169.162352,168.719626 C161.701655,176.786629 152.114337,179.664374 142.401236,178.874159 C129.731349,177.85548 122.904955,174.192 116.537667,163.635192 C111.672582,155.485763 108.616966,149.86108 103.877663,140.169746 C100.029618,132.298952 100.265011,127.132092 99.1994542,119.255923 C98.5867139,114.694716 94.4547603,119.022084 91.7926644,115.157019 C90.2841734,112.748744 89.2842028,105.275746 89.1206857,102.070985 C88.9176368,99.3132952 88.1746219,85.1521388 95.5319971,88.5916352 C92.0882532,83.5493102 92.7225561,63.0610573 94.6524184,55.0003256 C98.2866329,41.6069859 109.278223,31.9989736 120.040709,25.1137093 C136.552352,15.4940499 162.078104,15.2817132 178.169274,26.618881 C189.828409,34.8650713 194.779746,47.1295323 197.863213,61.523632 C198.967403,68.9150998 201.158713,83.6971395 200.185696,90.4614525 L201.066173,90.079784 Z" id="Fill-31" stroke="none" fill="#CEA395" fill-rule="evenodd"></path>
                        <path d="M199.622941,90.0872243 C205.496953,91.8001158 204.447768,100.120131 203.381631,104.662472 C202.849008,106.9323 198.418518,120.594244 194.480503,117.004604 C194.111147,116.667935 192.666732,116.909692 192.820184,117.580343 C194.186981,123.56248 191.624683,130.187512 189.421036,135.672704 C186.89621,141.95659 184.019871,148.324643 180.02208,153.801777 C175.241861,160.351595 169.267034,167.949026 162.569553,172.628363 C155.264507,177.731222 146.573038,178.683027 137.962756,177.338143 C131.807711,176.376488 126.241495,174.067263 121.918064,169.455081 C117.194052,164.4149 113.97869,157.769275 110.738347,151.731623 C107.206267,145.151361 103.126398,138.297109 101.517824,130.940539 C100.788926,127.605191 100.531982,124.191048 100.134969,120.806453 C99.9038983,118.837478 100.026125,116.884621 98.0205385,116.0913 C96.9365583,115.66151 95.6295368,116.234564 94.5482331,115.855811 C92.2910562,115.066968 91.6272856,112.5133 91.1410558,110.490601 C90.4237553,107.505353 90.0445853,104.414448 89.8447404,101.35309 C89.6609544,98.537967 88.9757719,86.271944 94.666891,88.5435624 C95.067473,88.7038382 96.5627412,88.4558137 96.1487767,87.7690453 C93.8139815,83.9045184 93.8933842,78.3100873 93.7961382,73.9539882 C93.6694508,68.2449465 93.9112275,62.4042817 94.8765498,56.767767 C97.2720122,42.7852709 109.361737,31.0081339 121.28552,24.3508684 C134.016711,17.243219 150.57975,16.2645517 164.362804,20.5785672 C178.417968,24.9776453 188.030151,35.6024082 192.850518,49.3485199 C195.182636,56.0013085 196.395088,62.7964649 197.299743,69.7617465 C198.160682,76.4011041 199.211653,83.3941429 198.408704,90.0845381 C198.338223,90.6692313 199.335663,90.4838845 199.61848,90.3603199 C199.910218,90.2331737 200.201063,90.1060276 200.492801,89.9788814 C201.590164,89.5007402 200.593616,88.8757542 199.799589,89.2222722 C199.507851,89.3494184 199.217006,89.4765645 198.925268,89.6037107 C199.328526,89.6959364 199.732677,89.7881622 200.135043,89.8803879 C200.902305,83.491741 199.972669,76.8586512 199.178642,70.5183557 C198.282909,63.3587733 197.119526,56.3720022 194.789192,49.5177497 C190.07767,35.6632951 180.672468,24.7564826 166.637824,20.0064095 C153.469472,15.5500261 138.3107,16.0989035 125.437654,21.3136869 C112.718953,26.466688 100.093929,37.7030061 94.9586289,50.6110276 C92.3044387,57.281724 92.0510639,64.8800502 92.0474952,71.9814319 C92.0448187,77.1809936 91.7628947,83.8400499 94.5509096,88.4584999 C95.0442767,88.2006259 95.538536,87.9418566 96.0319032,87.6830874 C86.7471443,83.97615 87.7713494,99.321438 88.3628547,104.60069 C88.705446,107.664733 89.0043212,111.463001 90.4389221,114.253949 C91.8315914,116.965206 93.3607618,116.162037 95.7410574,116.963416 C99.5853955,118.255471 98.8716637,126.558474 99.5318656,130.096181 C100.475776,135.153375 102.616971,139.633039 104.893776,144.203137 C111.274538,157.009084 117.808753,173.536294 132.936299,177.502896 C139.80686,179.304432 147.419703,179.633042 154.275989,177.641682 C162.225177,175.333353 167.550509,170.136477 172.988253,164.146281 C179.646479,156.812992 184.889731,149.401804 189.029376,140.378903 C192.164443,133.545245 196.303195,124.816929 194.543846,117.116528 C193.989812,117.309038 193.43667,117.501548 192.882636,117.694058 C197.720845,122.103881 202.427907,112.346756 203.674261,109.108111 C205.822594,103.523529 208.729267,91.4643425 200.66945,89.1139294 C200.093111,88.9464904 198.644236,89.8024885 199.622941,90.0872243" id="Fill-33" stroke="none" fill="#BA8D80" fill-rule="evenodd"></path>
                        <path d="M127.140632,77.9207542 C130.23507,78.9806413 130.980751,81.3042033 128.572048,82.5897806 C127.052531,83.65062 122.001704,82.2764806 120.294177,82.1203068 C114.321467,81.5641756 111.348736,82.7926161 106,85 C108.845575,81.9584193 116.305105,75.660995 124.527572,77.2541586 L127.140632,77.9207542 Z" id="Fill-35" stroke="none" fill="#302729" fill-rule="evenodd"></path>
                        <path d="M126.876791,78.0535011 C126.643397,79.5703043 126.410002,81.0861717 126.175717,82.6029749 C125.824735,82.5730318 125.474643,82.5430888 125.123661,82.5131457 C124.427041,82.6544395 123.208401,82.2118436 122.476149,82.0939428 C120.82279,81.8281982 119.201501,81.6045609 117.516963,81.6354397 C114.937153,81.6831615 112.505219,82.2268152 110.071504,83.0970354 C109.081805,83.4507378 106.620474,85.1359707 107.741123,83.7183539 C109.012321,82.1079787 111.334684,80.7633481 113.067326,79.7733556 C117.572194,77.1991881 121.98798,76.804314 126.876791,78.0535011 C127.11464,78.1133872 127.598354,77.7437775 127.236682,77.6511412 C119.091039,75.5710342 111.964493,78.6196121 106.070839,84.7289322 C105.819628,84.9890625 106.306015,85.0367843 106.452109,84.9768982 C111.108416,83.0596066 115.507277,81.6185968 120.567125,82.2399153 C122.828022,82.5168886 125.578869,83.6051317 127.854019,82.9098913 C131.58922,81.7692478 129.834308,78.8095634 127.236682,77.6511412 C127.005069,77.5482119 126.527591,77.8981715 126.876791,78.0535011" id="Fill-37" stroke="none" fill="#302729" fill-rule="evenodd"></path>
                        <path d="M165.967905,77.6883122 C162.819765,78.5760329 161.995927,80.7241748 164.371433,82.0014964 C165.872811,83.0457691 170.990481,81.9312259 172.714963,81.8396074 C178.745163,81.520277 181.693972,82.7646872 187,85 C184.246864,82.0610929 176.942961,75.9404452 168.621376,77.1581703 L165.967905,77.6883122 Z" id="Fill-39" stroke="none" fill="#302729" fill-rule="evenodd"></path>
                        <path d="M165.911065,77.475432 C163.020261,78.5562449 161.377086,81.4572825 165.389949,82.4004899 C167.699543,82.9430736 170.32665,82.0617017 172.630862,81.9075486 C177.645595,81.5722441 181.985837,83.0989685 186.494702,84.987996 C186.640902,85.0489605 187.150358,84.8678089 186.956621,84.668368 C181.249458,78.7774588 174.211252,75.8076184 165.990892,77.4475625 C165.606109,77.5242036 165.716432,77.904796 166.095833,77.8290259 C170.366115,76.9772652 174.406782,77.1497076 178.395428,79.0483152 C180.110358,79.8643681 181.739182,80.901635 183.226291,82.0643144 C183.935762,82.6182201 184.73672,83.1956407 185.331385,83.8636371 C186.170014,84.8068445 185.684775,84.0700453 184.85063,83.7713195 C181.56428,82.5955762 178.565845,81.5408909 175.022076,81.4616371 C173.718837,81.4328967 172.44161,81.5313108 171.14734,81.6706581 C170.453117,81.7455574 169.764275,81.8735827 169.069155,81.93716 C168.380313,82.0320903 167.689677,82.0695399 166.994556,82.0495088 C164.870627,82.3848133 164.597064,80.9686959 166.17566,77.8011564 C166.570309,77.6530999 166.219609,77.3595995 165.911065,77.475432" id="Fill-41" stroke="none" fill="#302729" fill-rule="evenodd"></path>
                        <path d="M172,137.413757 C172,137.413757 150.494095,141.614692 144.667447,141.409677 C138.840799,141.205594 125.291666,137.719415 121,137 C121,137 125.422723,146.479128 145.066004,147.958029 C145.066004,147.958029 160.362862,149.256144 172,137.413757" id="Fill-43" stroke="none" fill="#6F3328" fill-rule="evenodd"></path>
                        <path d="M172,137.413757 C172,137.413757 150.494095,141.614692 144.667447,141.409677 C138.840799,141.205594 125.291666,137.719415 121,137 C121,137 125.422723,146.479128 145.066004,147.958029 C145.066004,147.958029 160.362862,149.256144 172,137.413757 Z" id="Stroke-45" stroke="#6F3328" stroke-width="0.355" fill="none"></path>
                        <path d="M171.488995,138.453271 C158.196375,150.893964 139.993644,149.452268 125.082708,141.588388 C123.322932,140.658379 121.580951,138.23633 120.189501,137.2395 C120.189501,137.2395 120.211742,137.027136 120,137.011575 C124.362961,142.607186 127.296217,145.258992 130.97146,149.061408 C134.262364,152.392413 140.713391,155.799392 145.119056,155.98338 C150.575427,156.268058 155.922368,152.853755 160.685683,148.956141 C164.755942,145.614152 168.603782,140.140284 172.642012,137.255061 C173.529017,136.687536 172.435608,137.2395 172.852865,137.272453 L171.488995,138.453271 Z" id="Fill-47" stroke="none" fill="#CB9397" fill-rule="evenodd"></path>
                        <path d="M171.957793,138.482544 C163.832187,145.575419 153.567698,148.4038 142.901944,147.011531 C138.230079,146.403085 133.659425,145.071661 129.331501,143.223058 C126.031817,141.812894 124.378393,140.182615 121.676127,138.028894 C121.283819,137.716618 120.973914,137.31218 120.561901,137.035695 C120.389931,136.920269 119.843566,137.101013 120.043303,137.345286 C126.264694,144.967867 134.801417,155.439409 145.54599,155.978063 C158.108794,156.607089 164.954473,143.548756 173.883504,137.338128 C174.228341,137.097434 173.721386,136.902373 173.476865,137.062538 C173.414168,137.104592 173.35147,137.145752 173.287877,137.186911 C173.221597,137.230755 173.158899,137.323812 173.183978,137.407026 C173.234136,137.573454 172.125285,138.342065 171.957793,138.482544 C171.639826,138.750082 172.130659,138.95409 172.363536,138.758135 C172.821228,138.373382 173.27892,137.988629 173.736613,137.604771 C173.79931,137.551979 173.868278,137.474134 173.841407,137.383762 C173.603156,136.599045 169.55558,140.349938 169.047729,140.853696 C166.711797,143.177424 164.584558,145.715899 162.101734,147.891989 C156.801101,152.536762 149.757476,156.990948 142.455896,154.963389 C136.568593,153.329532 132.333819,149.55448 128.118751,145.365147 C126.417855,143.674919 124.757265,141.951584 123.178182,140.145929 C121.393092,138.105844 118.19462,135.718587 122.563746,139.717333 C128.734979,145.366937 139.181291,147.645032 147.363324,147.818618 C156.706159,148.016363 165.333346,144.894496 172.363536,138.758135 C172.677024,138.485229 172.187982,138.28122 171.957793,138.482544" id="Fill-49" stroke="none" fill="#CB9397" fill-rule="evenodd"></path>
                        <path d="M155.957668,86 C154.702207,91.7608481 151.062968,111.533565 155.990567,115.911279 L158.056032,116.53515 C160.409579,117.046635 162.714223,121.972116 159.187015,124.137522 C157.294042,125.294117 155.357501,124.195927 153.345383,124.373797 C151.738712,124.513615 150.477916,125.380839 149.239347,126.327707 C146.45368,128.448867 145.020391,128.708149 142.397436,126.198508 C139.94075,123.857002 132.130568,123.754351 134.412983,120.530577 C136.149469,118.080225 135.435491,121.046487 135.435491,121.046487 C133.460717,122.769432 142.050673,123.539314 143.954315,125.359601 C146.004666,127.313511 146.172713,126.586104 148.342208,124.939262 C149.304254,124.201237 151.154549,123.146409 152.403787,123.034023 C153.96689,122.893321 156.401348,123.495953 157.866646,122.596872 C160.614969,120.911978 159.132778,118.220043 157.077092,117.778466 L155.189454,117.159905 C151.354605,113.752067 153.659249,91.5776691 154.631965,87.0981893 L155.957668,86 Z" id="Fill-51" stroke="none" fill="#AE7D74" fill-rule="evenodd"></path>
                        <path d="M199.51814,98.0721166 C197.705936,100.032045 203.871165,112.311948 196.892312,110.08455 C195.778835,110.856836 195.892798,111.023891 196.244963,111.923066 C202.899675,113.205646 203.200463,98.027386 200.098232,98 L199.51814,98.0721166 Z" id="Fill-53" stroke="none" fill="#AE7D74" fill-rule="evenodd"></path>
                        <path d="M146.57291,140.436645 C144.554535,139.385355 142.905157,139.017541 141.109069,140.369853 C141.109069,140.369853 140.687611,140.331425 140.481328,140.308551 C139.789567,138.516142 137.079431,138.271848 135.72703,139.228897 C132.914641,137.675293 127.699763,136.986328 124,136 C126.012152,137.046715 133.611737,144.238308 135.051274,142.201605 C136.705987,144.951062 141.699467,146.131362 144.420273,145.868768 C146.75163,145.651922 152.966805,146.865161 154.005335,144.577758 C156.855957,145.70865 159.392709,143.120226 161.804979,142.039657 C164.418198,140.982877 166.133373,138.10441 169,136.634983 C164.53112,137.091548 157.748666,137.665229 152.949911,139.719316 C150.91642,138.883957 148.579727,139.100802 146.973029,140.692834 L146.57291,140.436645 Z" id="Fill-55" stroke="none" fill="#F6F7F1" fill-rule="evenodd"></path>
                        <path d="M154.875319,140 C154.875319,140 155.210567,143.629652 154.781603,145 L154,144.784406 C154,144.784406 154.94005,143.98799 154.875319,140" id="Fill-57" stroke="none" fill="#D6D6D6" fill-rule="evenodd"></path>
                        <path d="M159.990729,140 C159.990729,140 160.073666,142.318426 159.743423,143.569767 L159,144 C159,144 160.041245,143.624329 159.990729,140" id="Fill-59" stroke="none" fill="#D6D6D6" fill-rule="evenodd"></path>
                        <path d="M145.905135,141 C145.905135,141 145.947781,144.078278 146,145.988258 L145,146 C145,146 145.963446,144.964775 145.905135,141" id="Fill-61" stroke="none" fill="#D6D6D6" fill-rule="evenodd"></path>
                        <path d="M135.73,140 L135,143 L135.432,142.688903 C135.432,142.688903 135.061,142.544736 135.73,140" id="Fill-63" stroke="none" fill="#D6D6D6" fill-rule="evenodd"></path>
                        <path d="M116.418274,11.5101581 C132.725942,-1.98649588 153.859721,0.300086644 166.118385,3.26772173 C187.653224,8.48345673 204.015378,20.7495624 208.161744,42.6855405 C211.384511,60.3096774 204.341407,74.1383557 203.401731,91 C201.434842,89.1492553 200.462117,90.7664196 198.011098,89.7211247 C198.293358,89.8410472 197.869075,80.264249 197.588601,79.252962 C196.75254,76.2396847 195.171526,73.5047352 193.001875,71.260215 C190.545497,68.7176784 187.596057,67.1873238 184.492983,65.6068523 C180.539555,63.5923328 176.959496,60.8493287 172.856005,58.9824751 C173.561656,59.9382755 174.267306,60.8958658 174.972063,61.8516663 C168.754302,62.129099 162.490985,60.6774994 156.969942,57.8163627 C151.171104,54.8120349 147.118528,50.1440058 142.387991,45.8106858 C138.839196,42.5602484 131.090441,32.9718158 126.438508,33.0210378 C121.678495,39.7671274 137.839673,64.1051359 156.10351,64.2894944 C141.725216,64.3933079 120.265408,57.9908768 112.918606,44.2597475 C118.303879,56.1329726 113.646587,61.4149335 106.599016,70.1585387 C103.832689,72.897068 102.593781,75.6087491 100.404479,78.8207039 C98.4804652,81.6353035 94.5404356,86.8179256 93.3988899,90.5373138 C93.3988899,90.5373138 92.1439043,90.2106592 89.0578008,90.3091031 C87.4705343,86.3722434 87.8135339,80.8298537 86.7702434,70.8449609 C85.9172104,62.6938088 85.8948797,53.6888799 86.1235462,46.3172242 C86.3834756,37.8671608 91.0568456,26.2588391 97.5836641,19.6496759 C104.984953,12.1419888 116.418274,11.5101581 116.418274,11.5101581" id="Fill-65" stroke="none" fill="#C6B68B" fill-rule="evenodd"></path>
                        <path d="M118.707293,11.4186088 C138.855226,-4.72114095 172.195492,0.101446867 191.525066,15.6925621 C200.971594,23.3113874 206.785256,34.3488357 208.190717,46.3963112 C209.982501,61.7616768 203.942065,76.4839707 202.923823,91.6730537 L206.282409,90.5982696 C205.066076,89.7105608 204.346314,89.5621597 202.86825,89.5054974 C200.44365,89.4146579 201.067502,89.5873429 201.06571,87.5016321 C201.063021,84.7350749 201.133832,81.6537273 200.5539,78.936637 C199.475602,73.8856014 195.433109,69.7537535 191.199694,67.1769698 C186.194531,64.1306988 180.898954,60.9729022 175.630267,58.4213017 C175.02703,58.1289964 171.6792,58.6929208 172.376553,59.6390906 C173.084661,60.6014496 173.79277,61.5620098 174.500879,62.5234694 L176.862735,61.1590782 C163.119152,61.4549811 154.12169,53.9162024 144.788101,44.9302877 C140.339565,40.6482398 135.227738,32.7416062 128.534766,32.184877 C127.666213,32.112925 126.207867,32.4232183 125.712191,33.2290815 C122.222739,38.903402 128.592132,47.56913 132.017944,51.7333564 C138.006392,59.0140069 146.450812,64.7782675 156.081986,65.1191405 C156.822363,64.6154759 157.56274,64.1127108 158.303117,63.6081469 C143.011555,63.5586799 123.62103,57.9868911 115.588926,43.7691611 C115.112073,42.9237242 111.811749,43.9643311 112.126364,44.700041 C113.983581,49.0423488 115.239354,53.5483474 113.808795,58.2225341 C112.527925,62.403849 109.544905,65.9690744 106.810171,69.2797692 C104.132804,72.5203108 101.937667,75.7698463 99.5865666,79.2568238 C97.0275156,83.0522957 94.1233737,86.6750827 92.5583639,91.0317808 C93.5999111,90.6999019 94.6423547,90.3680229 95.6839018,90.036144 C93.3014299,89.5081956 91.7803407,90.435478 90.9646713,87.7867422 C89.9885569,84.6181527 90.1776847,80.8361718 89.9491179,77.5596542 C89.2401129,67.4180093 88.3688704,57.4310613 88.6610772,47.2444463 C89.1182107,31.2566953 99.2163781,13.2012215 116.634059,12.0769703 C117.623618,12.0131129 120.384346,10.4202738 118.104056,10.5668761 C103.269628,11.5238387 92.5798761,21.3165161 87.6706214,35.0215876 C84.4052545,44.1388149 84.870455,54.0223317 85.3096616,63.5631769 C85.571393,69.2213081 86.2373736,74.8497592 86.6210072,80.4997959 C86.86033,84.0182523 86.9598237,87.6347435 88.1815353,90.9787162 C88.3106083,91.3303819 88.9039854,91.2719209 89.1782655,91.2683233 C90.3255808,91.2548322 91.6933958,91.1909748 92.8568452,91.4482034 C93.6250087,91.6190896 95.6543226,91.3690562 95.9823831,90.4543654 C99.2280305,81.4234806 106.679306,73.5096518 112.392577,66.0140444 C117.898795,58.7918549 119.238823,52.3017777 115.588926,43.7691611 C114.43444,44.078555 113.279954,44.3888483 112.126364,44.700041 C120.395102,59.3395901 140.318949,65.0669752 156.081986,65.1191405 C156.836704,65.1218387 160.069803,63.6720044 158.303117,63.6081469 C149.060954,63.2816644 140.990308,57.4679367 135.271658,50.5155675 C132.076206,46.6310548 125.826923,38.0345807 129.137107,32.6516661 C128.19595,32.9997343 127.254792,33.3478024 126.313635,33.6958706 C130.508507,34.0439388 134.374422,38.8008703 137.107363,41.6070012 C140.211388,44.7944781 143.358438,47.9001096 146.588848,50.960771 C154.732098,58.6767316 164.079132,62.91291 175.392737,62.6691723 C175.868694,62.6592789 178.341696,62.1025497 177.754593,61.3047811 C177.046484,60.3433215 176.338376,59.3827613 175.630267,58.4213017 C174.545696,58.8278309 173.461124,59.2334608 172.376553,59.6390906 C176.640442,61.7041151 180.528766,64.4293 184.716467,66.6382287 C189.154246,68.9775705 193.173435,71.569644 195.612377,76.1457959 C196.891454,78.546297 197.248197,80.7120545 197.405057,83.353595 C197.502758,84.9887059 198.348007,88.7652905 197.533233,90.2106278 C197.412228,90.4273834 197.676648,90.5829798 197.831715,90.6279498 C199.356389,91.0794491 201.753203,90.8860779 203.028695,91.8169578 C203.717084,92.319723 206.320952,91.7297159 206.387281,90.7421737 C207.283621,77.3644842 212.147162,64.4859622 211.996577,51.0138356 C211.873779,40.042943 208.294693,29.2069605 201.220777,20.768781 C188.899686,6.07256968 167.485225,-0.296987747 148.855692,0.010607373 C136.959467,0.207576178 125.390405,3.72783144 116.030822,11.2252376 C114.634324,12.3440924 118.053861,11.9420602 118.707293,11.4186088" id="Fill-67" stroke="none" fill="#9B804B" fill-rule="evenodd"></path>
                        <path d="M93.4840382,98.0666664 C95.2955183,100.027388 89.1327511,112.316832 96.1032143,110.089445 C97.2162474,110.862044 97.1079321,111.028253 96.7615098,111.922313 C90.1038538,113.211805 89.797583,98.0219177 92.8995091,98 L93.4840382,98.0666664 Z" id="Fill-69" stroke="none" fill="#AE7D74" fill-rule="evenodd"></path>
                        <path d="M180.166313,155 C180.166313,155 166.125717,177.426912 147.957754,178.611211 C147.957754,178.611211 131.583947,176.678406 145.810517,182 C145.810517,182 176.774756,172.571197 182,167.61246 L180.166313,155 Z" id="Fill-71" stroke="none" fill="#BA8D80" fill-rule="evenodd"></path>
                        <path d="M109,96.12784 C109,96.12784 117.375601,89.999387 122.596168,89.0613113 C122.596168,89.0613113 128.11371,87.9069699 135,95.6158262 C135,95.6158262 130.642879,99.64262 124.278734,100.777553 C124.278734,100.777553 114.619489,102.542799 109,96.12784" id="Fill-73" stroke="none" fill="#614537" fill-rule="evenodd"></path>
                        <path d="M112,96.3854757 C112,96.3854757 119.428021,90.7398969 123.06583,90.1122084 C123.06583,90.1122084 128.337678,88.7094059 134,95.8238121 C134,95.8238121 130.351369,99.2959969 124.744056,99.9345388 C124.744056,99.9345388 117.403509,100.781104 112,96.3854757" id="Fill-75" stroke="none" fill="#FFFFFF" fill-rule="evenodd"></path>
                        <path d="M128.35991,99.9641346 C130.61267,97.7564677 130.385995,94.6409751 128.643488,91.9597008 C128.643488,91.9597008 125.063326,88.4559439 120.886159,90.8183539 C117.652074,92.6499484 119.013057,99.4051841 121.697712,100.985438 C121.697712,100.985438 127.095007,101.202079 128.35991,99.9641346" id="Fill-77" stroke="none" fill="#614537" fill-rule="evenodd"></path>
                        <path d="M127.465311,99.7238293 C129.924767,96.9962608 129.398751,92.4421388 126.098554,90.7336619 C123.713359,89.4983994 119.786362,89.6627983 118.486794,92.4702955 C117.747719,94.0661456 117.93956,96.0798051 118.469112,97.707445 C118.807708,98.7483353 119.553855,100.510401 120.696945,100.863722 C121.743672,101.186162 123.426923,100.852823 124.483376,100.718397 C125.513306,100.587605 126.632526,100.407765 127.465311,99.7238293 C127.590848,99.6202852 127.033006,99.6747821 126.91631,99.7710599 C125.68393,100.782885 121.611063,101.311505 120.391944,99.9772397 C118.888157,98.3332507 118.279924,95.4521828 118.773229,93.2941066 C119.613087,89.622834 124.445361,89.6055766 126.824368,91.7945343 C129.046011,93.8372588 128.82146,97.6593061 126.91631,99.7710599 C126.794309,99.9063938 127.364528,99.8355479 127.465311,99.7238293" id="Fill-79" stroke="none" fill="#614537" fill-rule="evenodd"></path>
                        <path d="M125.964278,94.0800828 C126.195843,95.4435568 125.27722,96.729773 123.914979,96.9623956 C122.557827,97.2001121 121.267685,96.2857525 121.036121,94.9273724 C120.803709,93.5638983 121.717241,92.2666453 123.074393,92.0348717 C124.436634,91.8073431 125.726777,92.7166088 125.964278,94.0800828" id="Fill-81" stroke="none" fill="#302729" fill-rule="evenodd"></path>
                        <path d="M125.964278,94.0800828 C126.195843,95.4435568 125.27722,96.729773 123.914979,96.9623956 C122.557827,97.2001121 121.267685,96.2857525 121.036121,94.9273724 C120.803709,93.5638983 121.717241,92.2666453 123.074393,92.0348717 C124.436634,91.8073431 125.726777,92.7166088 125.964278,94.0800828 Z" id="Stroke-83" stroke="#302729" stroke-width="0.355" fill="none"></path>
                        <path d="M115,92.764915 C115,92.764915 111.106221,96.9100826 108.440079,91 C108.440079,91 109.544859,91.9857105 113.956647,93.3652035 C113.956647,93.3652035 110.978782,96.426842 108.22279,93.0282728 C108.22279,93.0282728 108.803143,92.7088992 112.172495,93.8016249 C112.172495,93.8016249 111.503209,96.3306955 108,94.0407371 C108,94.0407371 109.00943,94.4487326 111.892862,94.4537489 L115,92.764915 Z" id="Fill-85" stroke="none" fill="#614537" fill-rule="evenodd"></path>
                        <path d="M115,92.764915 C115,92.764915 111.106221,96.9100826 108.440079,91 C108.440079,91 109.544859,91.9857105 113.956647,93.3652035 C113.956647,93.3652035 110.978782,96.426842 108.22279,93.0282728 C108.22279,93.0282728 108.803143,92.7088992 112.172495,93.8016249 C112.172495,93.8016249 111.503209,96.3306955 108,94.0407371 C108,94.0407371 109.00943,94.4487326 111.892862,94.4537489 L115,92.764915 Z" id="Stroke-87" stroke="#614537" stroke-width="0.355" fill="none"></path>
                        <path d="M124,93.9965837 C124,94.5490483 124.449198,95 124.999514,95 C125.555664,95 126,94.5490483 126,93.9965837 C126,93.4450952 125.555664,93 124.999514,93 C124.449198,93 124,93.4450952 124,93.9965837" id="Fill-89" stroke="none" fill="#FFFFFF" fill-rule="evenodd"></path>
                        <path d="M183,95.6407571 C183,95.6407571 174.423183,89.786763 169.168741,89.0356074 C169.168741,89.0356074 163.619036,88.0789995 157,96.0823399 C157,96.0823399 161.482147,99.9664097 167.880401,100.871887 C167.880401,100.871887 177.594823,102.297037 183,95.6407571" id="Fill-91" stroke="none" fill="#614537" fill-rule="evenodd"></path>
                        <path d="M181,95.9744401 C181,95.9744401 173.377711,90.5731631 169.723523,90.0761186 C169.723523,90.0761186 164.405962,88.8561828 159,96.1839606 C159,96.1839606 162.758826,99.5399178 168.389397,99.9752852 C168.389397,99.9752852 175.759113,100.565752 181,95.9744401" id="Fill-93" stroke="none" fill="#FFFFFF" fill-rule="evenodd"></path>
                        <path d="M165.755063,100.159082 C163.458411,98.0348962 163.570488,94.9265816 165.196518,92.1954851 C165.196518,92.1954851 168.929955,88.4970669 173.126398,90.7006183 C176.368352,92.4046357 174.937997,99.2729933 172.35013,100.931259 C172.35013,100.931259 167.04027,101.341157 165.755063,100.159082" id="Fill-95" stroke="none" fill="#614537" fill-rule="evenodd"></path>
                        <path d="M165.204851,98.8320451 C163.196785,96.7445095 162.821957,92.6152492 165.383134,90.7486834 C168.031277,88.8183417 172.684008,88.7249236 173.308431,92.7311236 C173.604118,94.6282299 173.012743,98.6146683 171.079468,99.521902 C170.432434,99.8246126 169.120973,99.5874743 168.41654,99.557832 C167.33989,99.5120212 166.061476,99.4868702 165.163977,98.7997081 C164.990043,98.6658687 164.4465,98.9263615 164.694356,99.1158925 C165.83884,99.9925855 167.636447,99.947673 168.987044,99.9575538 C169.68104,99.9629433 170.704641,100.114748 171.362111,99.8093423 C173.924157,98.6173631 174.622501,93.3383413 173.445838,91.072952 C171.876085,88.05393 167.573831,88.8066645 165.274425,90.3453686 C162.389732,92.2766085 162.323637,96.6609722 164.653481,99.0835554 C164.81437,99.2506301 165.380525,99.0152883 165.204851,98.8320451" id="Fill-97" stroke="none" fill="#614537" fill-rule="evenodd"></path>
                        <path d="M166.021768,94.1620867 C165.841893,95.5308902 166.796416,96.7918537 168.159052,96.9769648 C169.531868,97.1629251 170.7859,96.2025549 170.976804,94.8337515 C171.163467,93.464948 170.203004,92.2090793 168.835278,92.0231191 C167.467552,91.8371588 166.207582,92.7932833 166.021768,94.1620867" id="Fill-99" stroke="none" fill="#302729" fill-rule="evenodd"></path>
                        <path d="M166.021768,94.1620867 C165.841893,95.5308902 166.796416,96.7918537 168.159052,96.9769648 C169.531868,97.1629251 170.7859,96.2025549 170.976804,94.8337515 C171.163467,93.464948 170.203004,92.2090793 168.835278,92.0231191 C167.467552,91.8371588 166.207582,92.7932833 166.021768,94.1620867 Z" id="Stroke-101" stroke="#302729" stroke-width="0.355" fill="none"></path>
                        <path d="M178,92.7599448 C178,92.7599448 181.898363,96.9122099 184.559921,91 C184.559921,91 183.455141,91.9862048 179.043353,93.3655531 C179.043353,93.3655531 182.015717,96.4295635 184.77721,93.0242711 C184.77721,93.0242711 184.196857,92.7089198 180.822921,93.8030299 C180.822921,93.8030299 181.496791,96.3325323 185,94.0372431 C185,94.0372431 183.99057,94.4496256 181.10072,94.4546444 L178,92.7599448 Z" id="Fill-103" stroke="none" fill="#614537" fill-rule="evenodd"></path>
                        <path d="M178,92.7599448 C178,92.7599448 181.898363,96.9122099 184.559921,91 C184.559921,91 183.455141,91.9862048 179.043353,93.3655531 C179.043353,93.3655531 182.015717,96.4295635 184.77721,93.0242711 C184.77721,93.0242711 184.196857,92.7089198 180.822921,93.8030299 C180.822921,93.8030299 181.496791,96.3325323 185,94.0372431 C185,94.0372431 183.99057,94.4496256 181.10072,94.4546444 L178,92.7599448 Z" id="Stroke-105" stroke="#614537" stroke-width="0.355" fill="none"></path>
                        <path d="M170,93.9965837 C170,94.5549048 170.444878,95 171.002927,95 C171.555122,95 172,94.5549048 172,93.9965837 C172,93.4499756 171.555122,93 171.002927,93 C170.444878,93 170,93.4499756 170,93.9965837" id="Fill-107" stroke="none" fill="#FFFFFF" fill-rule="evenodd"></path>
                        <path d="M164.711919,137.760716 C157.586311,137.175407 155.263151,137.180382 146.274732,138.405716 C142.502719,138.91641 140.689868,137.15551 136.635935,137.609 C131.713047,137.811288 124.880065,136.837985 120,137.023691 C127.582389,137.256654 137.769859,141.235259 146.665494,140.989031 C149.612268,140.90281 170.617065,137.851082 173,137.265774 L164.711919,137.760716 Z" id="Fill-109" stroke="none" fill="#CB9397" fill-rule="evenodd"></path>
                        <path d="M164.462524,136.920838 C161.579617,136.647662 158.693114,136.389333 155.797623,136.494249 C151.332578,136.65657 146.685947,138.246137 142.272143,137.489954 C134.839691,136.218103 126.890348,135.870695 119.331145,136.039945 C119.064159,136.045884 118.813355,136.502167 119.195405,136.526911 C130.018665,137.228656 139.817132,142.306162 150.807596,140.680964 C158.090823,139.603108 165.609573,138.713307 172.760656,136.801076 C173.069892,136.718926 173.098658,136.303223 172.733688,136.328957 C169.950564,136.526911 167.166541,136.722885 164.383417,136.919848 C164.038223,136.943603 163.90518,137.436507 164.326783,137.406814 C166.550766,137.250431 170.564541,137.872994 172.554799,136.825821 C172.807401,136.693192 170.342503,136.853534 170.057538,136.909951 C168.220101,137.276165 166.376371,137.604768 164.53354,137.932381 C157.22694,139.231945 149.386369,141.401515 141.95122,140.57407 C136.045172,139.915874 130.372849,137.874974 124.547705,136.722885 C123.649662,136.544727 121.244094,135.791514 120.589664,136.310152 C120.613036,136.291346 124.440731,136.651622 125.354056,136.714967 C128.037398,136.903022 130.723436,137.190055 133.41307,137.242513 C138.750987,137.348418 143.549539,138.466855 148.852397,137.695826 C154.035696,136.941623 159.040106,136.91193 164.246777,137.405824 C164.544327,137.434528 164.878734,136.960429 164.462524,136.920838" id="Fill-111" stroke="none" fill="#CB9397" fill-rule="evenodd"></path>
                        <path d="M200.129472,194 C210.76121,202.010622 216.807199,214.212173 229.824922,220.253014 C221.742116,222.2711 213.147195,226.668668 198.68087,229.074091 C202.863731,231.859694 208.441476,235.114932 212.624338,237.900535 C204.720592,242.080729 198.620884,247.424722 191.709136,253.220458 C180.090773,262.977226 175.706468,269.00286 168.936178,278.302516 C161.4962,288.51729 158.783428,295.907994 154.99271,308.484358 C151.817066,319.031006 141.468244,366.785227 141,377 C148.505335,354.007591 160.608058,296.250604 176.332286,280.539766 C182.378275,274.498925 196.435447,260.849111 206.021469,253.927146 C214.388087,247.892567 226.977855,247.862153 231.160716,244.613177 C227.908971,245.075655 209.720866,233.136205 206.932889,231.280925 C212.509739,230.812185 225.056532,227.076579 239,224.290081 C218.895944,216.741937 215.936068,206.070053 200.129472,194" id="Fill-113" stroke="none" fill="#AD363F" fill-rule="evenodd"></path>
                        <path d="M282.208053,213.00376 C299.676193,214.205179 307.332735,236.535965 309.074529,251.048105 C309.722659,256.450454 309.698455,261.907535 309.829336,267.346671 C310.048069,276.371223 311.186555,285.670333 311.981702,294.78461 C312.772367,303.851333 313.407947,312.857939 315.638304,321.738034 C316.958768,326.995925 318.827857,332.136277 319.557564,337.508119 C320.047023,341.114171 320.015648,344.768675 319.982479,348.407029 C319.943932,352.730882 320.104396,357.107673 319.865941,361.424348 C319.709063,364.283887 318.711319,366.835669 318.684426,369.730201 C318.619882,376.789773 318.597471,383.835886 318.328537,390.892766 C317.981613,399.997173 317.474224,409.100683 316.766929,418.184453 C316.762447,418.237391 316.758861,418.290329 316.754379,418.343267 C298.140582,401.574541 274.686874,419.8991 273.010521,423 C261.397068,404.380245 255.147049,406.38919 254.743648,397.966694 C254.053385,379.25183 257.950235,361.75992 258.13042,344.03921 C258.081116,335.187828 252.845873,332.605539 251.932395,323.905792 C248.611064,292.226547 243.683302,253.159336 265.656081,224.095578 C274.445731,212.470793 282.205364,213.00376 282.208053,213.00376" id="Fill-115" stroke="none" fill="#D96C70" fill-rule="evenodd"></path>
                        <path d="M282.123843,214.596371 C293.465034,215.675969 300.17328,225.795746 303.832648,235.699067 C308.389948,248.032602 307.862223,260.610321 308.648026,273.539557 C309.107227,281.089587 309.966893,288.607417 310.620098,296.141347 C311.304449,304.018745 311.910487,311.930132 313.599563,319.67068 C315.369622,327.778845 318.273443,335.340503 318.465667,343.740258 C318.630303,350.921776 318.972034,358.429767 317.714571,365.512001 C316.215049,373.955584 317.120102,383.04138 316.78994,391.61108 C316.449099,400.457165 315.952522,409.300566 315.260161,418.126078 C316.281794,417.745938 317.303426,417.366692 318.325059,416.986552 C309.863662,409.686073 299.1205,408.118106 288.661224,411.674429 C283.048474,413.582285 275.224263,417.098358 271.929764,422.427475 C273.003013,422.243219 274.077151,422.058963 275.150399,421.873812 C271.555996,416.18781 267.542439,410.980338 262.697693,406.323845 C259.914011,403.647658 257.58597,401.601163 257.189954,397.569889 C256.259094,388.10753 257.755056,378.060203 258.717063,368.651511 C259.618556,359.84031 261.400184,350.253624 260.402579,341.398595 C259.630125,334.54355 255.01587,329.101732 254.240746,322.131304 C253.3704,314.306679 252.570359,306.459692 252.046194,298.602866 C250.956037,282.254158 251.063718,265.417081 255.637927,249.558529 C258.181329,240.740173 262.15128,232.205356 267.724874,224.901299 C270.520125,221.238537 273.900946,217.623181 278.169911,215.709958 C279.11768,215.28599 280.089477,214.943416 281.10666,214.735905 C281.378087,214.681343 282.776157,214.626782 282.123843,214.596371 C283.836057,214.677766 285.614125,212.126802 283.295873,212.01589 C272.061473,211.479222 263.466588,224.658009 258.861231,233.120376 C250.592058,248.317036 248.045096,265.84731 248.000599,282.966138 C247.979241,291.327432 248.530994,299.677992 249.28565,307.99993 C250.012717,316.031173 249.892578,325.015002 253.384639,332.402243 C254.815637,335.429947 256.423729,338.295757 256.893609,341.667823 C257.669623,347.227708 256.721854,353.370773 256.219937,358.936918 C255.261489,369.573686 253.825152,380.178254 253.641827,390.870478 C253.543936,396.542169 253.132791,401.384707 257.190844,405.610076 C262.674555,411.319333 267.724874,416.641295 272.008078,423.417628 C272.754724,424.597404 274.67251,423.763779 275.227822,422.863965 C277.852208,418.618024 284.892396,415.657403 289.313539,414.120743 C298.756522,410.838121 308.080255,412.459754 315.684655,419.02142 C316.553221,419.770966 318.653441,419.101025 318.749553,417.882788 C319.375169,409.906107 319.83615,401.916008 320.175211,393.921438 C320.53919,385.354421 319.888655,376.520859 320.750992,368.004826 C321.12565,364.304497 321.913232,360.850141 321.960398,357.092568 C322.013794,352.82516 322.012014,348.54344 321.962178,344.275137 C321.872296,336.491656 319.748047,329.489028 317.820472,322.022182 C315.698894,313.800422 314.929999,305.346105 314.203821,296.907889 C313.430477,287.910643 312.333201,278.923236 311.961213,269.896473 C311.432598,257.076359 311.432598,244.78218 306.473942,232.727713 C302.273501,222.515808 294.934298,213.12411 283.295873,212.01589 C281.567641,211.851312 279.805591,214.375442 282.123843,214.596371" id="Fill-117" stroke="none" fill="#AD363F" fill-rule="evenodd"></path>
                        <path d="M186.797092,177.498571 C198.634552,193.812527 214.574886,207.742508 230,220.195841 C223.539525,222.306363 208.15847,229.015383 201.626962,229.265526 C206.467147,233.739401 214.716953,237.311329 220.455402,240.818704 C155.277888,266.813804 151.42678,335.981356 137.42324,384.956398 C137.45561,385.883449 135.033269,371.730223 135,370.802275 C138.101208,305.469345 154.490223,228.812759 183.963835,169 L186.797092,177.498571 Z" id="Fill-123" stroke="none" fill="#D96C70" fill-rule="evenodd"></path>
                        <path d="M184.519126,178.188049 C196.547954,194.60592 211.860305,208.114023 227.590379,220.878101 C228.050234,220.368936 228.510985,219.859771 228.97084,219.351503 C219.988884,222.368842 210.712013,227.668457 201.152774,228.32822 C200.736843,228.356009 198.438467,229.187883 199.303496,229.946252 C204.932008,234.889093 211.926638,237.839201 218.302751,241.65435 C218.536712,241.144289 218.76888,240.634228 219.002841,240.125063 C196.512098,249.268513 178.339325,265.131503 166.259403,286.190124 C154.863435,306.057407 148.918492,328.434656 143.6835,350.561806 C142.282423,356.485327 140.929751,362.420502 139.512539,368.339541 C138.172417,373.935871 136.211087,379.551921 135.167675,385.19845 C136.322241,384.969863 137.476808,384.742174 138.630478,384.513587 C136.053321,376.277311 136.304313,367.547109 136.892353,359.095692 C137.980586,343.448739 139.750085,327.851985 142.127345,312.350252 C146.96792,280.788317 154.270016,249.534749 164.461219,219.261861 C170.232259,202.119685 176.969622,185.301115 184.914439,169.047288 C183.800211,169.191611 182.685982,169.336831 181.571754,169.481154 C182.513873,172.312934 183.455096,175.145611 184.396319,177.978287 C184.792529,179.168729 188.239197,178.190738 187.860019,177.0496 C186.918796,174.217819 185.976676,171.385143 185.035454,168.553362 C184.667032,167.446288 182.070154,168.21631 181.692768,168.987228 C153.508074,226.65461 138.708465,291.396512 133.751358,355.18373 C132.967006,365.284553 132.078671,375.570038 135.166778,385.441379 C135.530718,386.604031 138.446716,385.742575 138.629582,384.756516 C140.419698,375.064459 143.573243,365.400191 145.816939,355.779847 C148.297285,345.151034 150.823348,334.524015 153.946415,324.061039 C160.342248,302.638473 169.465835,281.406844 185.125094,265.055308 C195.050961,254.691834 207.09951,246.914523 220.363581,241.52168 C220.936382,241.289508 221.952006,240.523969 221.063671,239.992394 C214.851601,236.27585 208.005773,233.412695 202.521581,228.598041 C201.905753,229.13858 201.289028,229.678223 200.672302,230.217866 C210.600859,229.5339 220.128723,224.1805 229.428005,221.055591 C229.708579,220.962364 231.598196,220.170828 230.808465,219.52989 C215.07839,206.765813 199.766039,193.258606 187.737211,176.839838 C187.056842,175.910254 183.706088,177.078285 184.519126,178.188049" id="Fill-125" stroke="none" fill="#AD363F" fill-rule="evenodd"></path>
                        <path d="M265.207746,151.902204 C265.207746,151.902204 259.890066,141.235662 255.640745,151.370624 C255.640745,151.370624 252.982352,164.167964 253.515638,171.104488 C254.045352,178.035634 258.830639,191.90151 258.830639,197.235229 C258.830639,202.568948 258.298245,215.900556 256.702852,217.504258 C255.107459,219.104373 245.545817,223.366867 250.325745,229.768226 C250.325745,229.768226 251.920245,232.435982 251.387851,235.636213 C250.858138,238.837341 251.198477,253.550337 263.423871,260.484172 C263.423871,260.484172 271.05246,272.969557 271.584853,311.904809 C271.584853,311.904809 270.520067,348.165134 266.269853,368.970223 C262.017852,389.768142 259.793592,409.397124 272.114567,421.76687 C274.242354,423.90215 281.682461,432.436101 288.591962,436.703972 C295.502356,440.969155 305.066677,438.836564 308.786284,434.037113 C312.506784,429.235869 318.354178,423.90215 319.416285,416.967419 C320.479285,410.036274 323.135892,394.570282 324.731285,388.16713 C326.323106,381.767563 320.479285,364.171669 316.758785,347.63714 C313.039178,331.100819 304.534283,287.90397 304.00189,280.43497 C303.471283,272.969557 299.574807,262.943061 299.042414,257.610239 C298.512701,252.27652 299.219283,244.17106 300.813783,238.303073 C302.409177,232.435982 303.471283,218.032251 294.436676,214.836502 C294.436676,214.836502 298.68689,206.835923 293.371889,202.568948 C293.371889,202.568948 291.779176,198.835345 288.591962,198.835345 C288.591962,198.835345 291.779176,189.234651 286.464175,185.501944 C286.464175,185.501944 277.962854,180.70339 274.242354,188.703072 C274.242354,188.703072 266.80046,175.903043 266.269853,168.969208 C265.73746,162.035373 265.207746,151.902204 265.207746,151.902204" id="Fill-127" stroke="none" fill="#CEA395" fill-rule="evenodd"></path>
                        <path d="M265.207746,151.902204 C265.207746,151.902204 259.890066,141.235662 255.640745,151.370624 C255.640745,151.370624 252.982352,164.167964 253.515638,171.104488 C254.045352,178.035634 258.830639,191.90151 258.830639,197.235229 C258.830639,202.568948 258.298245,215.900556 256.702852,217.504258 C255.107459,219.104373 245.545817,223.366867 250.325745,229.768226 C250.325745,229.768226 251.920245,232.435982 251.387851,235.636213 C250.858138,238.837341 251.198477,253.550337 263.423871,260.484172 C263.423871,260.484172 271.05246,272.969557 271.584853,311.904809 C271.584853,311.904809 270.520067,348.165134 266.269853,368.970223 C262.017852,389.768142 259.793592,409.397124 272.114567,421.76687 C274.242354,423.90215 281.682461,432.436101 288.591962,436.703972 C295.502356,440.969155 305.066677,438.836564 308.786284,434.037113 C312.506784,429.235869 318.354178,423.90215 319.416285,416.967419 C320.479285,410.036274 323.135892,394.570282 324.731285,388.16713 C326.323106,381.767563 320.479285,364.171669 316.758785,347.63714 C313.039178,331.100819 304.534283,287.90397 304.00189,280.43497 C303.471283,272.969557 299.574807,262.943061 299.042414,257.610239 C298.512701,252.27652 299.219283,244.17106 300.813783,238.303073 C302.409177,232.435982 303.471283,218.032251 294.436676,214.836502 C294.436676,214.836502 298.68689,206.835923 293.371889,202.568948 C293.371889,202.568948 291.779176,198.835345 288.591962,198.835345 C288.591962,198.835345 291.779176,189.234651 286.464175,185.501944 C286.464175,185.501944 277.962854,180.70339 274.242354,188.703072 C274.242354,188.703072 266.80046,175.903043 266.269853,168.969208 C265.73746,162.035373 265.207746,151.902204 265.207746,151.902204 Z" id="Stroke-129" stroke="#AE7D74" stroke-width="3" fill="none"></path>
                        <path d="M299,258 C299,258 291.59483,268.946504 280,266.694807" id="Stroke-131" stroke="#AE7D74" stroke-width="1" fill="none"></path>
                        <path d="M274.492622,189 C274.492622,189 270.306759,198.408297 267.411424,202.814267 C264.517896,207.214053 259.696252,218.856698 260.015046,221.686521 C260.340161,224.516343 265.161805,228.289733 269.340443,224.20182 C273.519081,220.112139 273.519081,218.226769 276.414416,214.764368 C279.307041,211.306383 288.398536,199.878426 289,198.986983" id="Stroke-133" stroke="#AE7D74" stroke-width="1" fill="none"></path>
                        <path d="M266.368509,226.225624 C266.368509,226.225624 261.517099,235.520451 263.458571,237.761795 C265.399135,240.004039 270.898308,240.966287 272.83978,238.724943 C274.780344,236.483599 277.690281,231.352811 278.98399,229.428315 C280.27679,227.50742 291.4423,215.637298 295,215" id="Stroke-135" stroke="#AE7D74" stroke-width="1" fill="none"></path>
                        <path d="M272,239.302348 C272,239.302348 272.640784,243.835271 277.152519,242.863411 C281.666063,241.890641 283.274359,238.330488 284.887179,236.390405 C286.500905,234.444866 296.48736,227.324559 301,227" id="Stroke-137" stroke="#AE7D74" stroke-width="1" fill="none"></path>
                        <path d="M251,221.764279 C251,221.764279 254.383984,219.896894 259,222" id="Stroke-139" stroke="#AE7D74" stroke-width="1" fill="none"></path>
                        <path d="M251,233 C251,233 254.475318,238.606308 263,237.945925" id="Stroke-141" stroke="#AE7D74" stroke-width="1" fill="none"></path>
                        <path d="M263,259.997106 C263,259.997106 270.498464,260.289354 273,255" id="Stroke-143" stroke="#AE7D74" stroke-width="1" fill="none"></path>
                    </g>
                </g>
            </g>
        </g>
    </g>
</svg>