<?xml version="1.0" encoding="UTF-8"?>
<svg width="222px" height="235px" viewBox="0 0 222 235" version="1.1" xmlns="http://www.w3.org/2000/svg" xmlns:xlink="http://www.w3.org/1999/xlink">
    <!-- Generator: Sketch 50.2 (55047) - http://www.bohemiancoding.com/sketch -->
    <title>avatar_feedback</title>
    <desc>Created with Sketch.</desc>
    <defs>
        <path d="M105,258 C162.989899,258 210,211.053222 210,153.141436 C210,95.2296504 173.056646,0 115.066748,0 C57.0768488,0 0,95.2296504 0,153.141436 C0,211.053222 47.0101013,258 105,258 Z" id="path-1"></path>
    </defs>
    <g id="metafora" stroke="none" stroke-width="1" fill="none" fill-rule="evenodd">
        <g id="Desktop-HD" transform="translate(-617.000000, -1022.000000)">
            <g id="avatar_feedback" transform="translate(623.000000, 992.000000)">
                <circle id="Oval-25" stroke="#41423F" stroke-width="6" fill="#B0F7E7" stroke-linecap="round" stroke-linejoin="round" cx="105" cy="154" r="108"></circle>
                <mask id="mask-2" fill="white">
                    <use xlink:href="#path-1"></use>
                </mask>
                <g id="Oval-25"></g>
                <g id="Page-1" mask="url(#mask-2)">
                    <g transform="translate(90.000000, 332.522523) scale(-1, 1) translate(-90.000000, -332.522523) translate(-56.000000, 30.000000)">
                        <path d="M159.703482,137.835706 C165.263883,168.866615 168.456961,173.082065 185.143784,184.321929 L184.51865,184.345985 L184.494575,183.721326 C181.218842,228.835543 136.094445,291.79546 84.6817943,271.887341 C67.5600263,265.667207 61.4627638,253.40335 60.1691619,235.952974 C59.1138973,224.748393 61.037448,225.92394 75.0439787,216.015988 C82.7526262,205.098477 95.1236974,201.502073 98.3215904,187.009008 C100.968178,174.408364 108.01237,158.822345 104.316938,143.967634 C128.399439,168.666948 145.217869,151.510058 159.703482,137.835706" id="Fill-11" stroke="none" fill="#CEA395" fill-rule="evenodd"></path>
                        <path d="M157.598921,137.487782 C159.450827,147.780926 160.991951,159.084411 166.228099,168.327185 C170.177979,175.300296 176.766705,179.898066 183.257962,184.295689 L184.648089,182.507979 C184.441168,182.515985 184.233448,182.524791 184.026527,182.532797 C184.481114,182.720135 184.935702,182.906671 185.391089,183.094809 C185.383099,182.886657 185.37511,182.678504 185.366322,182.471152 C185.321582,181.326313 182.35358,181.994803 182.271291,183.045973 C180.798075,201.877376 173.349707,220.183593 162.917358,235.783827 C152.20938,251.796364 136.938748,266.668864 117.933146,271.867074 C99.7488375,276.839519 74.5419879,271.566854 65.872864,253.069297 C63.8052489,248.658063 62.6747715,243.860147 62.0412248,239.045418 C61.5650661,235.426766 60.5672101,230.668878 61.8207217,227.103065 C62.9831561,223.79424 66.81879,221.860823 69.5367293,220.026678 C71.6642638,218.590426 74.2551742,217.243038 76.1198627,215.469738 C77.8942728,213.782902 79.2420575,211.550866 81.0220601,209.807188 C84.8848574,206.023615 89.3268746,202.846086 92.9212334,198.78631 C96.550745,194.687306 98.6135666,190.113554 99.8439095,184.819273 C103.071562,170.937899 108.804641,157.234255 105.545031,142.781262 C104.555963,143.132719 103.566895,143.483376 102.577028,143.834834 C111.131906,152.445145 122.097137,159.217308 134.561949,155.650694 C144.877655,152.698931 152.831742,144.592189 160.403943,137.415729 C161.748532,136.140394 158.731795,135.925036 157.88174,136.732028 C151.376901,142.896546 144.677924,149.861651 136.158199,153.152063 C124.325336,157.723413 113.602179,150.786329 105.425991,142.557898 C104.722139,141.848578 102.171175,142.336135 102.457989,143.609869 C105.714403,158.04605 99.8215396,171.873785 96.6106643,185.735144 C93.8224197,197.771967 83.9716873,202.831675 76.3084087,211.397954 C74.2815387,213.663614 72.4975415,215.547395 69.9457784,217.284668 C67.7950751,218.748141 65.5884471,220.143564 63.5064513,221.705509 C61.3932974,223.290671 59.3935908,225.053563 58.6434012,227.679487 C57.5704463,231.437442 58.4604476,236.105663 58.9541826,239.874826 C59.6053056,244.841666 60.7909088,249.802903 62.9863518,254.325417 C71.4781145,271.824643 94.5190813,277.914707 112.463712,274.955738 C131.663453,271.789417 147.916762,259.11773 159.80475,244.206801 C173.634923,226.858886 183.63026,205.022881 185.37511,182.724938 C184.343699,182.916278 183.31149,183.107619 182.280079,183.30056 C182.288068,183.507111 182.296057,183.715264 182.304046,183.923417 C182.326416,184.482226 183.327468,184.499038 183.668609,184.485428 C183.876329,184.476622 184.08325,184.469417 184.29097,184.46061 C185.021187,184.43259 186.792401,183.426252 185.681098,182.6729 C179.333647,178.372148 172.913494,173.887261 169.077061,167.05105 C163.975133,157.961188 162.501917,146.755374 160.685963,136.659174 C160.466259,135.441482 157.368032,136.203641 157.598921,137.487782" id="Fill-13" stroke="none" fill="#BA8D80" fill-rule="evenodd"></path>
                        <path d="M200.263645,199.201937 C194.198026,203.80275 179.167722,202.506544 171.503612,197.803188 C164.931057,205.547582 162.914523,218.107489 156.370799,226.475152 C148.074019,238.03126 135.294896,246.632849 122.422876,252.744568 C102.193469,262.257828 70.174788,257.238031 69.0544024,227.93719 C69.0544024,227.93719 63.6358686,233.137238 58.101212,235.223346 C72.5957498,255.273693 49.6490681,291.734113 44.2017039,312.539913 C40.9374497,325.153494 44.5324539,337.503508 46.2526742,349.921617 C48.0209453,363.587065 46.6763224,377.374282 49.0684537,391.016497 C52.5377248,416.481592 51.4509749,437.121561 46.174992,462.294248 C42.9836149,476.77363 40.3624412,489.987247 38.4187845,504.417761 C36.9324117,514.462162 32.3475601,525.252401 34.5987422,535.155805 C82.7440885,553.919559 97.6774907,552.725895 153.092129,549.358001 C174.889595,548.037761 224.735941,546.000521 240.965114,529.770699 C235.142953,524.375179 246.957856,512.396082 244.803576,504.987355 C240.565491,492.042913 242.667716,485.687654 232.735606,465.81836 C223.264784,446.87115 208.706979,436.737025 204.80445,416.282114 C202.314615,400.14442 195.70362,390.412455 195.376874,365.44886 C195.167052,349.745372 204.614649,341.630861 205.934446,315.103486 C206.99717,293.839448 207.386382,271.348098 205.997713,267.652547 C197.998047,246.403729 202.129619,215.362863 200.263645,199.201937" id="Fill-15" stroke="none" fill="#C6CCD5" fill-rule="evenodd"></path>
                        <path d="M199.584069,198.473884 C192.038564,203.716572 179.098957,201.303348 171.64779,196.964516 C171.381562,196.809729 170.878689,196.999804 170.701204,197.219553 C164.179834,205.300526 162.484933,216.003245 156.639125,224.486022 C149.702824,234.548743 139.984328,242.21829 129.423977,248.165136 C115.01972,256.276586 96.3638212,260.468651 81.6069929,250.519814 C73.7153117,245.199332 69.9625459,236.574601 69.482857,227.242503 C69.4644689,226.895237 68.6202165,227.195185 68.4978959,227.311476 C65.3767204,230.27327 61.7638638,232.826844 57.7880426,234.474157 C57.6369406,234.537515 57.3555232,234.698718 57.4906355,234.894406 C66.4696115,247.887643 60.8716425,265.493997 55.9868109,278.970841 C50.6966423,293.566478 41.991089,308.363418 42.2661106,324.285567 C42.4571867,335.390089 45.6399222,346.194662 46.3282758,357.267104 C47.026223,368.491124 46.8447408,379.63735 48.4349093,390.796408 C51.4609466,412.024603 50.8397495,433.417209 47.0286215,454.496232 C45.0243215,465.583912 42.3636473,476.538459 40.3977225,487.636565 C39.4199567,493.159954 38.6636473,498.707403 37.8042047,504.249238 C36.9967285,509.459044 35.5272816,514.52449 34.498349,519.688581 C33.742839,523.48125 32.238215,529.894059 33.7252505,533.738055 C34.5247319,535.806419 34.1121995,535.218551 36.6889281,536.210628 C39.148133,537.157793 41.6137338,538.088115 44.0881288,538.994377 C51.508116,541.709957 59.0104497,544.22263 66.6478958,546.252497 C96.1423649,554.088058 126.422724,550.997142 156.489622,549.233539 C171.992366,548.324871 187.533486,547.270238 202.844355,544.553054 C215.773569,542.256922 231.200362,539.166808 240.988413,529.635012 C241.065963,529.559624 241.158703,529.44975 241.061966,529.346291 C237.575427,525.640239 240.730181,519.96848 242.388305,516.099622 C244.126378,512.041491 245.909222,508.098848 244.640445,503.684628 C242.051724,494.674134 241.072359,485.332413 237.784891,476.507983 C233.143102,464.04888 225.883811,453.622851 218.159221,442.957827 C214.36888,437.723961 210.74483,432.325684 208.211274,426.350768 C205.914363,420.935649 205.115682,415.334466 203.818123,409.654687 C201.476442,399.405099 197.929942,389.558919 196.562829,379.080761 C195.728171,372.683189 195.066999,365.916697 195.916049,359.49266 C196.479683,355.22681 197.794031,351.130183 199.176334,347.073656 C202.992259,335.876904 205.617756,324.974487 206.201377,313.092023 C206.851356,299.852571 207.5533,286.454323 206.926507,273.199633 C206.692259,268.236844 205.027739,264.142623 203.894873,259.329006 C202.221559,252.217653 201.551593,244.893769 201.230202,237.608381 C200.656174,224.60151 201.861792,211.433437 200.468296,198.475488 C200.432319,198.137043 199.329834,198.372832 199.372207,198.769823 C200.854445,212.550626 199.469744,226.547168 200.258032,240.377695 C200.691351,247.984685 201.555591,255.654232 203.676615,262.992552 C205.113283,267.963361 205.840811,271.94851 205.946343,277.186386 C206.117432,285.738135 205.862397,294.30031 205.5498,302.845643 C205.228408,311.633181 205.013348,320.458413 203.324044,329.112016 C201.178235,340.110674 195.476334,350.466125 194.604899,361.686136 C193.55518,375.190248 196.861036,388.69436 200.516265,401.561683 C202.229554,407.592739 203.138564,413.778582 204.756714,419.812044 C206.587527,426.641895 209.918166,432.871848 213.848417,438.700799 C218.00732,444.870602 222.70827,450.653839 226.74885,456.906248 C231.349865,464.025621 235.11942,471.825092 237.772899,479.88762 C239.476594,485.063742 240.411987,490.379412 241.484891,495.707915 C242.617757,501.33396 245.014602,506.220559 243.04468,511.914775 C241.50168,516.373907 237.57063,521.794639 238.448461,526.732566 C238.88098,529.162633 240.298461,529.517118 237.991957,531.379367 C235.595911,533.312994 232.888867,534.85364 230.114666,536.168122 C218.313521,541.760483 204.903819,543.969999 192.065746,545.643777 C180.032751,547.211692 167.924605,547.99204 155.817258,548.703416 C140.946104,549.5784 126.062158,550.717243 111.159025,550.844761 C98.9781255,550.949824 86.8491927,550.086869 74.9233282,547.512442 C68.4195467,546.108939 62.0157004,544.277166 55.6934013,542.209604 C52.0949353,541.033067 48.5204538,539.779538 44.9651599,538.47869 C41.0524978,537.047116 34.9820353,536.234688 34.5782971,531.388189 C33.786011,521.877245 37.6491053,512.623744 39.0034269,503.330945 C40.3929256,493.790328 41.9846931,484.302642 43.9010501,474.851849 C47.5530813,456.836474 51.2946544,439.120246 51.5153113,420.647731 C51.6264392,411.346912 51.0004453,402.054112 49.8348013,392.828682 C48.6099958,383.127663 48.0335697,373.611908 47.7265688,363.836304 C47.4203674,354.112829 45.8749698,344.791158 44.4319058,335.200014 C43.0623941,326.098092 42.9072947,317.237572 45.7318626,308.399508 C49.7388636,295.861808 55.6822085,284.036286 59.5748836,271.446457 C61.5216209,265.153146 63.0926019,258.61763 63.2548966,252.00031 C63.3204541,249.316811 63.1509641,246.62048 62.6049182,243.989111 C61.9981118,241.063407 60.5102769,238.786523 59.5532976,236.052497 C58.9832674,234.429245 58.9440928,234.885584 60.5278655,233.851001 C61.8709943,232.974413 63.303665,232.259829 64.6220099,231.327902 C66.2849313,230.153771 67.8926884,228.870568 69.3709296,227.467866 C69.0423427,227.491926 68.7145554,227.514382 68.3859685,227.536838 C68.9272174,238.063919 73.7113143,247.364738 83.1156144,252.487927 C91.4989767,257.053726 101.71475,257.78435 110.971946,256.069669 C122.831454,253.873787 134.082556,247.004639 143.398913,239.578901 C149.100015,235.033954 154.373394,229.67257 158.31244,223.497955 C162.390594,217.105196 164.380504,209.678656 167.917409,203.009206 C168.541804,201.831867 169.739428,198.732129 171.006606,198.106567 C171.945996,197.642208 174.113391,199.166012 175.133529,199.538141 C178.213131,200.662548 181.470219,201.3242 184.728905,201.619336 C189.899951,202.087706 195.842496,201.837481 200.256433,198.771427 C200.86324,198.350376 199.915854,198.243709 199.584069,198.473884" id="Fill-17" stroke="none" fill="#A1AAB5" fill-rule="evenodd"></path>
                        <path d="M222.645066,190.415636 C238.866785,195.950181 238.866785,201.107275 244.387424,205.071868 C252.434796,210.848594 252.525835,214.013128 252.039495,222.538884 C250.05101,257.389825 233.319792,289.396444 222.645066,322.62263 C218.946805,334.136044 216.744299,346.193979 215.578361,358.162229 C212.590044,388.802741 227.553987,411.124095 240.977453,436.895149 C248.056137,448.494245 260.332831,465.832432 263.335522,479.282098 C266.338213,492.73737 255.760915,498.228223 244.387424,504.599918 C221.66999,518.191321 197.835331,524.193062 171.993821,520.93955 C141.110026,516.189406 142.635329,512.735702 135.167732,490.978888 C131.403188,479.247665 134.803576,459.616085 133.457955,446.096751 C132.243303,435.969463 133.516252,425.748485 132.296808,415.620396 C127.083626,365.789525 111.386579,323.99194 131.917479,274.876153 C140.25953,254.205979 151.943671,234.25169 162.802073,214.337439 C169.011095,203.074664 174.738568,179.110939 170.177033,168.266965 C180.904466,183.12598 206.160994,184.79158 222.645066,190.415636 Z" id="Fill-19" stroke="none" fill="#D96C70" fill-rule="evenodd"></path>
                        <path d="M99.28,176.322299 C98.766264,184.659616 96.4870127,190.570819 93.4351474,198.172538 C87.3708114,214.202825 87.2622756,233.335592 80.3955787,250.227945 C72.0463636,272.170235 55.328638,293.596245 51.2155341,317.04335 C48.5793206,335.439718 55.920359,352.62503 57.4221726,370.033663 C60.3325393,402.357578 63.4382705,439.662592 57.9753031,471.47503 C54.5021582,489.901815 47.1804151,516.801191 27.3521345,522.542702 C0.084731423,530.230868 17.8974624,493.787921 22.3924515,480.313419 C35.1683184,443.232527 37.8479462,405.648962 34.6835253,366.677445 C32.2531278,346.81068 29.9441297,328.661645 34.1850647,308.541143 C38.3568584,286.75894 34.9327556,262.771542 40.0049942,242.61582 C45.0185432,220.8008 101.935509,202.004215 97.6752784,178.046433 L99.28,176.322299 Z" id="Fill-23" stroke="none" fill="#D96C70" fill-rule="evenodd"></path>
                        <path d="M97.0833754,177.430702 C96.5282918,184.8633 94.2071786,191.561528 91.5461367,198.458364 C89.0258653,204.990017 87.5365776,211.838803 86.2304515,218.700402 C83.4846274,233.134747 80.6812153,246.926017 74.4217281,260.327277 C68.4301847,273.154335 60.9549524,285.248625 55.411315,298.29191 C52.7294775,304.602531 50.342778,311.250306 49.279801,318.052643 C48.2072259,324.919848 48.7023221,332.005682 49.727707,338.843256 C50.8066807,346.037204 52.5463159,353.107022 53.8724378,360.256123 C55.2273536,367.564591 55.7872362,374.948338 56.4151045,382.3465 C57.6836385,397.304594 58.7346181,412.293921 58.9433743,427.308074 C59.2897017,452.267861 58.014769,479.438769 47.0970587,502.403664 C42.4220392,512.237181 34.6500692,522.335777 23.0429035,523.64435 C14.4878977,524.610163 13.1993679,517.104688 14.233551,510.324775 C15.4045054,502.64792 18.324693,495.272982 21.05692,488.047802 C25.2424422,476.978588 28.6329311,465.647499 31.1476037,454.07696 C37.6158472,424.320139 38.9867597,392.728593 35.3571209,362.496073 C33.4719163,346.793197 31.9498355,330.938963 34.3005425,315.192842 C35.3747172,307.998894 36.7648257,300.968318 37.263921,293.690282 C37.7830121,286.107125 37.850198,278.504749 38.0997457,270.910381 C38.3540924,263.168658 38.7596073,255.395703 40.1809092,247.7677 C40.983141,243.464785 41.9861306,239.643976 44.5359959,236.045 C49.5269491,229.004013 56.9070014,223.732882 63.7759608,218.681182 C71.1432157,213.262697 78.7440216,208.104485 85.627378,202.060544 C90.853482,197.471729 96.5434886,191.873055 98.2999203,184.885724 C98.6358498,183.549121 98.8166119,182.167672 98.8038146,180.787824 C98.7846186,178.769707 98.639849,178.468591 100.041955,176.953401 C100.773002,176.163773 97.7832286,176.464889 97.2153477,177.079133 C96.2027601,178.173081 95.7620525,178.481404 95.5836899,179.774761 C95.3277436,181.632711 95.7172619,183.465033 95.2365627,185.373436 C94.319955,189.011653 92.2411909,192.233433 89.8688885,195.09003 C83.8637479,202.320817 75.9326112,207.860229 68.3837944,213.341179 C60.9557522,218.734838 53.2621658,223.981143 46.7011418,230.444724 C44.082491,233.024231 41.6054105,235.856002 39.8593767,239.112218 C37.3918941,243.713846 36.8024178,249.324533 36.1777488,254.425885 C34.2581514,270.095926 35.3459232,285.962974 33.5271047,301.644227 C32.652888,309.182536 30.8700619,316.543059 30.3101794,324.129418 C29.7127047,332.228316 29.9958453,340.357645 30.678902,348.442127 C32.0370172,364.521398 34.0190015,380.325179 34.0246003,396.506156 C34.0301992,413.024287 32.7472682,429.547223 29.8222817,445.810687 C27.3835931,459.365708 23.8819275,472.803808 19.0605387,485.710149 C16.2419298,493.254865 13.1257833,500.801183 11.5413156,508.7287 C10.5519231,513.679495 9.45935227,521.434031 14.958199,524.20734 C21.409646,527.459553 31.0628215,523.348039 36.376907,519.588895 C44.8599279,513.588199 49.9100688,503.771499 53.3341507,494.213471 C57.3037182,483.129842 59.5336505,471.415151 60.7413972,459.727688 C62.3354629,444.309111 62.3162669,428.756794 61.6476071,413.285361 C60.9917447,398.093422 60.0383446,382.76614 58.2499197,367.662293 C56.4590953,352.540828 51.0706254,337.839803 51.8768563,322.449256 C52.6694901,307.329392 60.2870925,293.029588 67.1960435,279.903016 C74.0778002,266.8301 81.3226808,253.817247 85.0107073,239.39972 C88.7131309,224.928537 89.9232771,210.017692 95.3837319,196.012598 C97.8512144,189.682757 99.6660338,183.400165 100.173927,176.601832 C100.218718,176.004406 97.1601593,176.403224 97.0833754,177.430702" id="Fill-25" stroke="none" fill="#AD363F" fill-rule="evenodd"></path>
                        <path d="M99.28,176.322299 C94.5967384,183.976345 86.6572899,198.325285 80.2565931,204.379943 C69.0848884,215.607637 59.5739827,223.018698 49.1927928,233.380755 C53.4293457,235.7099 59.1081294,234.401455 64.1008962,235.043288 C60.0589807,237.688155 52.9738624,244.535713 49.8197803,248.808743 C55.9628219,257.712887 53.3184662,275.251812 52.0421558,285.264577 C51.590661,295.252565 53.7213017,307.627247 51.5858748,316.843115 C56.0792852,304.214258 57.9969416,289.193911 65.0326029,278.126076 C72.7973564,264.540463 80.7615334,255.928861 85.1576252,240.815795 C87.293052,231.59593 87.7740615,222.444005 89.0790889,213.259309 C90.3553994,203.242547 98.0371927,187.165532 99.28,176.322299" id="Fill-27" stroke="none" fill="#D96C70" fill-rule="evenodd"></path>
                        <path d="M97.9816354,177.15216 C92.1454147,186.699402 86.8864557,197.203937 78.9102606,205.194772 C68.8246852,215.298561 57.7150136,224.30612 47.5577836,234.333615 C47.478078,234.412319 47.2945136,234.625943 47.493375,234.719102 C49.9578076,235.868337 52.4802078,236.21126 55.182952,236.279524 C56.928424,236.323694 58.6787267,236.281933 60.4250038,236.29398 C63.0730007,236.312451 61.6334694,236.628069 60.0771975,237.867251 C55.6531345,241.38884 51.4995875,245.492676 48.0617806,249.984409 C48.0537295,250.028579 48.0456784,250.073553 48.0376274,250.117723 C53.7353696,258.918083 52.1903693,271.131613 51.0133029,280.988047 C49.5359315,293.363 52.4206299,306.122638 49.8442875,318.34179 C49.7090295,318.980254 52.6653824,318.46868 52.9077196,317.776408 C57.1482182,305.632748 58.8325021,292.335034 65.2065343,281.005716 C71.2569134,270.253023 79.1815817,260.49296 84.0371821,249.091363 C89.5255965,236.203229 88.3742935,222.258218 91.6953599,208.900271 C94.4093756,197.987762 99.6047311,187.672758 101.068416,176.454267 C101.109476,176.140255 98.076638,176.37476 97.9574822,177.285475 C96.4607883,188.760957 90.9643227,199.260674 88.3879803,210.478361 C85.2826826,223.998533 86.241565,237.91624 80.4544559,250.843725 C75.3911379,262.156178 67.288541,271.730725 61.5489331,282.668131 C55.7022461,293.809524 53.9591894,306.558721 49.8442875,318.34179 C50.8651632,318.153062 51.8860388,317.964333 52.9077196,317.776408 C54.5718758,309.881945 53.723293,301.789919 53.4310392,293.803902 C53.1645488,286.557539 54.3939472,279.611536 54.873791,272.406934 C55.3141845,265.778155 55.4631293,258.432208 52.7475033,252.218631 C51.7845954,250.014124 51.1131361,249.314624 52.8618285,247.280375 C54.0517767,245.894226 55.3101589,244.567506 56.6023557,243.276123 C59.2632344,240.617865 62.0714476,238.007793 65.1920423,235.891627 C65.3973446,235.751888 65.8256616,235.338292 65.2902654,235.286893 C61.6560124,234.93353 57.1409723,235.901264 53.6894785,234.773713 C52.955221,234.533587 51.3715755,234.154524 51.4094155,233.034201 C51.4231023,232.618195 53.5759585,230.937309 53.9994447,230.53335 C55.5194868,229.085363 57.0572412,227.656649 58.6070721,226.239983 C64.8200829,220.560466 71.2005559,215.06486 77.2895802,209.251226 C87.3051114,199.687922 93.8788101,188.309615 101.045068,176.587582 C101.229437,176.285616 98.4469873,176.390822 97.9816354,177.15216" id="Fill-29" stroke="none" fill="#AD363F" fill-rule="evenodd"></path>
                        <path d="M179.836484,80.624744 C190.283065,83.102601 179.635588,111.236301 174.01372,105.474683 C175.788032,111.744703 170.351792,123.65686 167.618805,129.155457 C164.284739,137.463094 157.152938,144.541426 151.301246,151.010316 C144.628291,158.230583 136.053255,160.806271 127.365718,160.099 C116.033588,159.187244 109.927963,155.908294 104.23297,146.45956 C99.8815667,139.165518 97.1485804,134.131219 92.9096792,125.457116 C89.4679326,118.412464 89.6784714,113.787933 88.7254217,106.73847 C88.177378,102.65602 84.4816991,106.529175 82.1006822,103.069798 C80.7514661,100.914303 79.857078,94.225693 79.7108259,91.3573129 C79.5292161,88.8890787 78.8646528,76.214319 85.4451953,79.2927957 C82.365061,74.779728 82.9323908,56.4419826 84.6584874,49.2273291 C87.9089812,37.2397939 97.7400176,28.6402669 107.36614,22.4777003 C122.134392,13.8677487 144.964993,13.6776995 159.357167,23.8248847 C169.785266,31.2055305 174.213812,42.1826775 176.97171,55.06593 C177.959314,61.6815675 179.919253,74.9120408 179.048972,80.9663515 L179.836484,80.624744 Z" id="Fill-31" stroke="none" fill="#CEA395" fill-rule="evenodd"></path>
                        <path d="M178.545635,80.6314033 C183.799437,82.1645048 182.86103,89.6112264 181.907462,93.6767902 C181.431077,95.70837 177.468383,107.936316 173.946165,104.723455 C173.615807,104.422124 172.323902,104.638506 172.461152,105.238763 C173.683634,110.592998 171.391879,116.522646 169.420905,121.432097 C167.162664,127.056407 164.590025,132.756051 161.014343,137.658289 C156.738847,143.520618 151.394875,150.320601 145.404551,154.50878 C138.870814,159.076028 131.097038,159.927929 123.395877,158.724208 C117.890717,157.863492 112.912213,155.79665 109.045274,151.668576 C104.820049,147.157427 101.944183,141.209346 99.0459742,135.805424 C95.8868306,129.915846 92.2377365,123.781036 90.7990055,117.196634 C90.147068,114.211374 89.9172541,111.155589 89.5621597,108.126251 C89.3554867,106.363946 89.4648079,104.616066 87.6709825,103.906015 C86.701455,103.521337 85.5324362,104.034241 84.5653026,103.695243 C82.546451,102.989199 81.952765,100.703572 81.5178741,98.8931819 C80.8763102,96.2212738 80.537175,93.4547991 80.3584309,90.7147709 C80.1940501,88.1951312 79.5812129,77.2165862 84.6714319,79.2497688 C85.0297182,79.3932216 86.3671076,79.1712304 85.9968519,78.5565473 C83.9085773,75.0976525 83.9795962,70.0904294 83.892618,66.1915593 C83.779307,61.0817555 83.9955555,55.8541441 84.8589537,50.8092547 C87.0014898,38.2944026 97.8147141,27.7534287 108.479517,21.7949294 C119.866478,15.4333198 134.680699,14.5573763 147.008461,18.41858 C159.579602,22.3559179 168.176878,31.8654744 172.488283,44.1687536 C174.574163,50.1232459 175.658598,56.2051626 176.467735,62.4393477 C177.237771,68.3818187 178.177774,74.6408476 177.459605,80.6289991 C177.396566,81.1523212 178.288691,80.9864289 178.541646,80.875834 C178.80258,80.7620335 179.062717,80.648233 179.323651,80.5344325 C180.305148,80.1064784 179.413821,79.5470927 178.703633,79.8572392 C178.442698,79.9710397 178.182561,80.0848403 177.921627,80.1986408 C178.282307,80.2811862 178.643785,80.3637317 179.003667,80.4462771 C179.689917,74.7282015 178.858438,68.7913403 178.148249,63.1165409 C177.347092,56.7084494 176.306546,50.4550305 174.222261,44.3202205 C170.008207,31.9199704 161.59606,22.1579691 149.043272,17.9064777 C137.265308,13.9178494 123.707084,14.4091151 112.193246,19.0765394 C100.817457,23.6886663 89.5254533,33.7455873 84.9323665,45.2987448 C82.5584205,51.2692652 82.3317984,58.0700487 82.3286065,64.4260484 C82.3262127,69.0798487 82.0740557,75.0399508 84.5676965,79.1736347 C85.0089711,78.942828 85.4510438,78.7112198 85.8923184,78.4796117 C77.5878962,75.1617655 78.5039601,88.8963668 79.0330109,93.6214928 C79.3394295,96.3639251 79.6067478,99.7635155 80.8898756,102.261517 C82.135499,104.688193 83.5032111,103.969326 85.6321818,104.68659 C89.0706132,105.843028 88.4322412,113.274523 89.0227353,116.440902 C89.8669823,120.967278 91.7820984,124.976743 93.8185052,129.06715 C99.5255512,140.528947 105.369847,155.321412 118.900142,158.871668 C125.045271,160.484109 131.854307,160.778228 137.986668,158.995887 C145.096537,156.929846 149.85959,152.27845 154.723187,146.917003 C160.6784,140.353438 165.368041,133.720149 169.070599,125.644319 C171.874648,119.527942 175.576408,111.715776 174.00282,104.823632 C173.507284,104.995935 173.012546,105.168239 172.51701,105.340543 C176.844374,109.287497 181.054438,100.554509 182.169195,97.6558015 C184.090695,92.657394 186.690465,81.8639752 179.481648,79.7602683 C178.966163,79.6104043 177.670268,80.3765543 178.545635,80.6314033" id="Fill-33" stroke="none" fill="#BA8D80" fill-rule="evenodd"></path>
                        <path d="M113.716414,69.7419619 C116.484124,70.6906001 117.151071,72.7702742 114.996693,73.9209135 C113.637615,74.870404 109.120083,73.6404984 107.592846,73.500717 C102.250768,73.002959 99.5919147,74.1024588 94.8079279,76.0781492 C97.3530511,73.3558217 104.024962,67.7193936 111.379255,69.1453341 L113.716414,69.7419619 Z" id="Fill-35" stroke="none" fill="#302729" fill-rule="evenodd"></path>
                        <path d="M113.480431,69.8607753 C113.27168,71.2183703 113.062928,72.5751278 112.85338,73.9327229 C112.539457,73.9059227 112.22633,73.8791226 111.912406,73.8523224 C111.289339,73.9787856 110.19937,73.5826459 109.544433,73.4771203 C108.065645,73.239269 106.61554,73.0391054 105.108866,73.0667431 C102.801447,73.1094558 100.62629,73.596046 98.4495395,74.3749253 C97.5643383,74.6915021 95.3628884,76.199848 96.3652134,74.9310284 C97.502191,73.4896829 99.5793462,72.2861887 101.129046,71.4001088 C105.158265,69.0961335 109.107808,68.7427066 113.480431,69.8607753 C113.693166,69.9143756 114.125807,69.5835612 113.802322,69.5006483 C106.516742,67.6388754 100.142656,70.3674656 94.871287,75.8355334 C94.6466005,76.0683597 95.0816318,76.1110725 95.2123006,76.0574722 C99.376969,74.3414251 103.311374,73.051668 107.836975,73.6077711 C109.859153,73.8556724 112.319551,74.8296903 114.354478,74.2074244 C117.695295,73.1865062 116.125677,70.537479 113.802322,69.5006483 C113.595165,69.4085228 113.168101,69.7217495 113.480431,69.8607753" id="Fill-37" stroke="none" fill="#302729" fill-rule="evenodd"></path>
                        <path d="M148.444086,69.5339177 C145.628345,70.3284606 144.891492,72.2511272 147.016179,73.3943773 C148.359033,74.3290401 152.936351,73.3314827 154.478752,73.2494807 C159.87225,72.9636682 162.509708,74.0774614 167.255495,76.0781492 C164.793051,73.4477184 158.260335,67.969512 150.817389,69.0594211 L148.444086,69.5339177 Z" id="Fill-39" stroke="none" fill="#302729" fill-rule="evenodd"></path>
                        <path d="M148.393248,69.343382 C145.807672,70.3107496 144.337992,72.9072858 147.927155,73.7514913 C149.992889,74.2371239 152.342611,73.4482633 154.403531,73.3102906 C158.888781,73.0101806 162.770756,74.3766555 166.80355,76.0674051 C166.934313,76.1219706 167.389978,75.9598332 167.216697,75.7813262 C162.112128,70.5087442 155.817055,67.850627 148.464647,69.3184378 C148.120491,69.3870344 148.219165,69.7276787 148.558507,69.6598616 C152.377909,68.8975043 155.99194,69.0518466 159.559443,70.7511708 C161.0933,71.4815684 162.550144,72.4099606 163.880236,73.4506018 C164.514797,73.9463679 165.231186,74.4631807 165.763062,75.0610622 C166.513144,75.9052678 166.079139,75.2458053 165.333068,74.9784345 C162.39371,73.9261008 159.711866,72.9821184 156.542268,72.9111833 C155.376632,72.8854596 154.234261,72.9735438 153.076648,73.0982649 C152.455725,73.1653024 151.839615,73.2798899 151.217889,73.3367938 C150.601779,73.4217601 149.984064,73.4552788 149.362338,73.4373502 C147.462665,73.7374602 147.217986,72.4699826 148.629905,69.6349174 C148.982885,69.5024013 148.669214,69.2397076 148.393248,69.343382" id="Fill-41" stroke="none" fill="#302729" fill-rule="evenodd"></path>
                        <path d="M153.839279,122.990403 C153.839279,122.990403 134.604088,126.750396 129.39265,126.5669 C124.181212,126.384239 112.062672,123.263979 108.224144,122.620076 C108.224144,122.620076 112.179891,131.104247 129.749125,132.427918 C129.749125,132.427918 143.430855,133.589779 153.839279,122.990403" id="Fill-43" stroke="none" fill="#6F3328" fill-rule="evenodd"></path>
                        <path d="M153.839279,122.990403 C153.839279,122.990403 134.604088,126.750396 129.39265,126.5669 C124.181212,126.384239 112.062672,123.263979 108.224144,122.620076 C108.224144,122.620076 112.179891,131.104247 129.749125,132.427918 C129.749125,132.427918 143.430855,133.589779 153.839279,122.990403 Z" id="Stroke-45" stroke="#6F3328" stroke-width="0.355" fill="none"></path>
                        <path d="M153.382229,123.920807 C141.493118,135.055688 125.212333,133.765317 111.875777,126.726853 C110.301808,125.894461 108.743755,123.726637 107.499222,122.834437 C107.499222,122.834437 107.519115,122.644363 107.32973,122.630435 C111.232025,127.638715 113.855571,130.012179 117.142762,133.415483 C120.086194,136.396855 125.856085,139.446228 129.796576,139.610904 C134.676833,139.865701 139.459214,136.809774 143.719591,133.321265 C147.360089,130.330061 150.801653,125.430746 154.413504,122.848365 C155.206854,122.340409 154.228893,122.834437 154.602094,122.863931 L153.382229,123.920807 Z" id="Fill-47" stroke="none" fill="#CB9397" fill-rule="evenodd"></path>
                        <path d="M153.801529,123.947008 C146.533869,130.295393 137.353162,132.826899 127.813559,131.580767 C123.634975,131.036185 119.546917,129.844511 115.675959,128.189943 C112.724674,126.927794 111.245827,125.468634 108.828882,123.540974 C108.477996,123.261475 108.200813,122.899488 107.832302,122.652024 C107.67849,122.548713 107.189813,122.710486 107.36846,122.92912 C112.932962,129.751612 120.56833,139.12403 130.178432,139.606145 C141.414784,140.169147 147.537659,128.481455 155.523912,122.922713 C155.832339,122.707283 155.378912,122.532696 155.160209,122.676049 C155.104131,122.71369 155.048054,122.750529 154.991175,122.787368 C154.931893,122.82661 154.875815,122.909899 154.898246,122.984379 C154.943109,123.133338 153.951336,123.821273 153.801529,123.947008 C153.517135,124.186464 153.956143,124.369059 154.164431,124.193671 C154.573797,123.849303 154.983164,123.504935 155.392531,123.161368 C155.448608,123.114118 155.510294,123.044443 155.48626,122.963557 C155.273165,122.261206 151.652955,125.618394 151.198726,126.069276 C149.109434,128.149099 147.206801,130.421128 144.986127,132.36881 C140.245165,136.526053 133.945245,140.512714 127.414606,138.697975 C122.148918,137.235612 118.361276,133.8568 114.591258,130.107192 C113.069952,128.594375 111.584696,127.051927 110.172341,125.435799 C108.575731,123.609847 105.714972,121.473164 109.622781,125.052189 C115.14242,130.108794 124.485753,132.147773 131.803882,132.303139 C140.160248,132.480129 147.876528,129.685942 154.164431,124.193671 C154.444819,123.94941 154.007413,123.766815 153.801529,123.947008" id="Fill-49" stroke="none" fill="#CB9397" fill-rule="evenodd"></path>
                        <path d="M139.490787,76.9731862 C138.367884,82.1293587 135.112896,99.8266733 139.520211,103.744889 L141.367594,104.303276 C143.472639,104.761075 145.533946,109.169563 142.379161,111.107682 C140.686058,112.142876 138.953988,111.159956 137.154321,111.319156 C135.717291,111.444298 134.589617,112.220496 133.481823,113.067978 C130.990283,114.966495 129.708328,115.198562 127.362319,112.95234 C125.165024,110.856605 118.179485,110.764729 120.22091,107.879332 C121.774047,105.686176 121.135456,108.34109 121.135456,108.34109 C119.369189,109.88319 127.052169,110.572263 128.754815,112.201487 C130.588678,113.950309 130.738981,113.299253 132.679409,111.825269 C133.539877,111.164708 135.194807,110.220598 136.312144,110.120009 C137.710206,109.994075 139.88762,110.533454 141.198204,109.728742 C143.656344,108.2207 142.33065,105.811318 140.492016,105.416091 L138.803685,104.862456 C135.37374,101.812314 137.435047,81.9654067 138.305058,77.9561063 L139.490787,76.9731862 Z" id="Fill-51" stroke="none" fill="#AE7D74" fill-rule="evenodd"></path>
                        <path d="M178.4519,87.7781778 C176.831039,89.5323861 182.345309,100.523355 176.103322,98.5297504 C175.107412,99.2209754 175.209342,99.3704957 175.524324,100.175291 C181.476394,101.323247 181.745423,87.7381423 178.970743,87.7136308 L178.4519,87.7781778 Z" id="Fill-53" stroke="none" fill="#AE7D74" fill-rule="evenodd"></path>
                        <path d="M131.096924,125.696001 C129.291659,124.755057 127.816432,124.42585 126.209986,125.636219 C126.209986,125.636219 125.833027,125.601824 125.648525,125.581351 C125.029804,123.977079 122.605819,123.758427 121.396212,124.615021 C118.880771,123.224488 114.216509,122.607839 110.907387,121.725039 C112.707085,122.661888 119.504263,129.098629 120.791807,127.275705 C122.271805,129.736571 126.738045,130.792983 129.171574,130.557952 C131.256773,130.363867 136.815715,131.44976 137.744591,129.40245 C140.294229,130.41464 142.563136,128.097904 144.720706,127.130755 C147.058006,126.184898 148.592083,123.608564 151.156036,122.293372 C147.159006,122.702015 141.092681,123.21548 136.800605,125.053964 C134.981821,124.306287 132.89185,124.500372 131.454796,125.925299 L131.096924,125.696001 Z" id="Fill-55" stroke="none" fill="#F6F7F1" fill-rule="evenodd"></path>
                        <path d="M138.522717,125.305187 C138.522717,125.305187 138.822569,128.553859 138.438897,129.780372 L137.73982,129.587408 C137.73982,129.587408 138.580614,128.874585 138.522717,125.305187" id="Fill-57" stroke="none" fill="#D6D6D6" fill-rule="evenodd"></path>
                        <path d="M143.098014,125.305187 C143.098014,125.305187 143.172195,127.380264 142.876821,128.500261 L142.211892,128.885335 C142.211892,128.885335 143.143197,128.549096 143.098014,125.305187" id="Fill-59" stroke="none" fill="#D6D6D6" fill-rule="evenodd"></path>
                        <path d="M130.499656,126.200224 C130.499656,126.200224 130.537799,128.955397 130.584505,130.6649 L129.69009,130.675409 C129.69009,130.675409 130.551811,129.748844 130.499656,126.200224" id="Fill-61" stroke="none" fill="#D6D6D6" fill-rule="evenodd"></path>
                        <path d="M121.398868,125.305187 L120.745946,127.990298 L121.132333,127.711855 C121.132333,127.711855 120.800505,127.58282 121.398868,125.305187" id="Fill-63" stroke="none" fill="#D6D6D6" fill-rule="evenodd"></path>
                        <path d="M104.126183,10.302018 C118.711995,-1.77798741 137.614352,0.268588664 148.578678,2.92473201 C167.839748,7.59300807 182.474295,18.5716271 186.182864,38.2051402 C189.065354,53.9793956 182.7659,66.3565751 181.92544,81.4483714 C180.166226,79.7918864 179.296207,81.2393083 177.103981,80.3037307 C177.356438,80.4110658 176.976953,71.8394765 176.726093,70.9343372 C175.978308,68.2373424 174.564226,65.7894612 172.623659,63.7805325 C170.426639,61.5048681 167.788618,60.135144 165.013183,58.7205635 C161.47718,56.9174939 158.275124,54.4624036 154.604903,52.7915004 C155.236047,53.6469772 155.867191,54.504056 156.497535,55.3595329 C150.93628,55.6078454 145.334279,54.30861 140.396179,51.7477867 C135.209615,49.058802 131.584932,44.880743 127.353872,41.002261 C124.179778,38.0929991 117.24918,29.5109967 113.088424,29.5550522 C108.831,35.5930523 123.285791,57.3764716 139.62123,57.5414793 C126.761076,57.6343963 107.567115,51.9039833 100.996029,39.6141137 C105.812695,50.2410902 101.647146,54.9686408 95.3436969,62.7944914 C92.8694534,65.2455766 91.7613567,67.6726316 89.8032131,70.5474502 C88.0823476,73.0666212 84.5583283,77.7052599 83.5373135,81.0342502 C83.5373135,81.0342502 82.4148362,80.7418822 79.6545808,80.8299931 C78.2349067,77.3063578 78.5416905,72.3457137 77.6085564,63.4088647 C76.8455915,56.1132816 76.8256186,48.0535366 77.0301411,41.4556317 C77.2626257,33.8925118 81.4425552,23.5026339 87.2802358,17.587188 C93.9000553,10.8675298 104.126183,10.302018 104.126183,10.302018" id="Fill-65" stroke="none" fill="#C6B68B" fill-rule="evenodd"></path>
                        <path d="M106.173514,10.220078 C124.194116,-4.22559606 154.01413,0.0907987049 171.30278,14.0454245 C179.751891,20.8645554 184.951714,30.7434805 186.208778,41.5264175 C187.811376,55.2789889 182.408723,68.4559874 181.497992,82.0507794 L184.50196,81.0888078 C183.414054,80.2942756 182.770289,80.1614511 181.448287,80.1107363 C179.27969,80.0294316 179.837672,80.183991 179.836069,78.3172026 C179.833664,75.8410313 179.896998,73.0831111 179.378299,70.6512147 C178.413854,66.1303506 174.798189,62.4321937 171.011763,60.1258768 C166.535073,57.3993514 161.798632,54.5730064 157.086242,52.2892295 C156.546699,52.0276054 153.552351,52.5323386 154.176073,53.3791956 C154.809416,54.2405426 155.442759,55.1002796 156.076101,55.9608215 L158.188579,54.7396408 C145.896121,55.0044849 137.848661,48.2569987 129.500565,40.2142721 C125.52173,36.3816806 120.949638,29.3049506 114.963348,28.8066574 C114.186501,28.7422576 112.882136,29.0199816 112.438796,29.7412591 C109.31778,34.8199861 115.014656,42.5761338 118.078752,46.3032706 C123.434906,52.8197226 130.987717,57.9789494 139.601978,58.2840433 C140.264182,57.8332449 140.926386,57.3832515 141.58859,56.9316481 C127.911596,56.8873732 110.568431,51.9004158 103.384402,39.1750208 C102.957898,38.4183234 100.00604,39.3497051 100.287437,40.0081928 C101.948558,43.8947191 103.071739,47.9277549 101.792227,52.1113251 C100.646598,55.8537569 97.978542,59.0447656 95.5325569,62.0079602 C93.1378805,64.9083649 91.1745184,67.8168197 89.0716606,70.9377937 C86.7828086,74.3348817 84.1853022,77.5774102 82.7855349,81.4768165 C83.7171097,81.1797725 84.6494862,80.8827286 85.581061,80.5856846 C83.4501438,80.1131513 82.0896597,80.9431033 81.3601132,78.5723867 C80.4870624,75.7363817 80.656221,72.3513687 80.4517877,69.418764 C79.8176434,60.3416161 79.0383914,51.4029276 79.2997455,42.2855298 C79.7086122,27.9759003 88.7405587,11.8155823 104.319183,10.8093359 C105.20426,10.7521811 107.673494,9.32653111 105.633971,9.45774564 C92.3658439,10.3142626 82.8047757,19.0790717 78.4138675,31.3456184 C75.4932763,39.5058746 75.9093583,48.3519884 76.3021911,56.8913982 C76.5362873,61.9556354 77.13195,66.9933076 77.4750774,72.0502997 C77.6891312,75.1994486 77.7781198,78.4363422 78.8708362,81.4293216 C78.986281,81.7440755 79.517006,81.6917507 79.7623261,81.6885307 C80.7885014,81.6764558 82.0118949,81.619301 83.0525008,81.8495301 C83.7395573,82.0024796 85.5546049,81.7786904 85.848027,80.9600083 C88.7509808,72.8770318 95.4155087,65.7938618 100.525541,59.0850155 C105.450381,52.6208883 106.648922,46.8120288 103.384402,39.1750208 C102.351813,39.4519398 101.319224,39.7296638 100.287437,40.0081928 C107.683114,53.1111316 125.503291,58.2373535 139.601978,58.2840433 C140.277009,58.2864583 143.168739,56.9888029 141.58859,56.9316481 C133.322266,56.6394341 126.103764,51.4359325 120.988921,45.2133044 C118.130862,41.7365217 112.541413,34.0423589 115.50209,29.2244509 C114.660305,29.5359848 113.818521,29.8475187 112.976736,30.1590526 C116.72869,30.4705865 120.18642,34.7282165 122.630802,37.2398076 C125.407087,40.0927175 128.221854,42.8723727 131.111179,45.611778 C138.394619,52.5178487 146.754741,56.3093853 156.873792,56.0912311 C157.299495,56.0823761 159.511383,55.5840828 158.98627,54.8700504 C158.352928,54.0095084 157.719585,53.1497714 157.086242,52.2892295 C156.116186,52.6530882 155.14613,53.0161419 154.176073,53.3791956 C157.989758,55.2274691 161.46753,57.6666105 165.21307,59.6436835 C169.182284,61.7374811 172.777105,64.0574829 174.958529,68.1533085 C176.102555,70.3018459 176.421631,72.2402791 176.561928,74.6045557 C176.649314,76.0680405 177.405316,79.4482236 176.676571,80.7418541 C176.568342,80.9358584 176.804843,81.0751229 176.943537,81.1153727 C178.307228,81.5194813 180.450973,81.3464069 181.591791,82.179579 C182.207496,82.6295724 184.536433,82.1014943 184.595759,81.2176074 C185.397458,69.2440796 189.74748,57.7173253 189.612794,45.6592729 C189.502962,35.8399175 186.301776,26.1413118 179.974763,18.5888284 C168.954602,5.43517484 149.801199,-0.265815036 133.138677,0.00949399184 C122.498521,0.18578837 112.150986,3.33654725 103.77964,10.0470036 C102.530592,11.04842 105.589075,10.6885863 106.173514,10.220078" id="Fill-67" stroke="none" fill="#9B804B" fill-rule="evenodd"></path>
                        <path d="M83.6134713,87.7732997 C85.2336852,89.5282185 79.7216174,100.527726 85.9561001,98.5341315 C86.951613,99.2256366 86.8547342,99.3744001 86.5448892,100.174617 C80.5901857,101.32876 80.3162526,87.733248 83.09066,87.7136308 L83.6134713,87.7732997 Z" id="Fill-69" stroke="none" fill="#AE7D74" fill-rule="evenodd"></path>
                        <path d="M161.143348,138.730743 C161.143348,138.730743 148.585236,158.80366 132.335548,159.863651 C132.335548,159.863651 117.690579,158.133719 130.415028,162.896743 C130.415028,162.896743 158.10989,154.457615 162.783423,150.019361 L161.143348,138.730743 Z" id="Fill-71" stroke="none" fill="#BA8D80" fill-rule="evenodd"></path>
                        <path d="M97.4911712,86.0379782 C97.4911712,86.0379782 104.982429,80.5527857 109.651779,79.7131733 C109.651779,79.7131733 114.586749,78.6799949 120.745946,85.5797069 C120.745946,85.5797069 116.848874,89.1838366 111.156691,90.1996436 C111.156691,90.1996436 102.517323,91.779604 97.4911712,86.0379782" id="Fill-73" stroke="none" fill="#614537" fill-rule="evenodd"></path>
                        <path d="M100.174414,86.2685718 C100.174414,86.2685718 106.818143,81.2155695 110.071853,80.653765 C110.071853,80.653765 114.787069,79.3982049 119.851532,85.765862 C119.851532,85.765862 116.588143,88.873596 111.572882,89.4451147 C111.572882,89.4451147 105.007391,90.2028222 100.174414,86.2685718" id="Fill-75" stroke="none" fill="#FFFFFF" fill-rule="evenodd"></path>
                        <path d="M114.806954,89.471604 C116.821855,87.4956603 116.619113,84.7071791 115.06059,82.3073392 C115.06059,82.3073392 111.858441,79.171347 108.122323,81.2857914 C105.229711,82.9251364 106.446994,88.9713226 108.848188,90.3857088 C108.848188,90.3857088 113.675606,90.5796098 114.806954,89.471604" id="Fill-77" stroke="none" fill="#614537" fill-rule="evenodd"></path>
                        <path d="M114.006812,89.2565219 C116.206585,86.815247 115.736109,82.7391391 112.784364,81.209989 C110.651011,80.1043833 107.138649,80.2515264 105.976296,82.7643404 C105.315257,84.1926854 105.486843,85.9949852 105.960482,87.4517832 C106.263326,88.3834186 106.930691,89.9605325 107.953087,90.2767682 C108.889295,90.5653638 110.394819,90.2670129 111.339725,90.146697 C112.26091,90.0296329 113.261957,89.8686697 114.006812,89.2565219 C114.119094,89.1638461 113.620151,89.2126228 113.515777,89.298795 C112.413518,90.2044161 108.770688,90.6775503 107.68029,89.4833336 C106.335281,88.0119026 105.791269,85.43324 106.232488,83.5016819 C106.983669,80.2157568 111.305725,80.2003109 113.433542,82.1595091 C115.420613,83.9878232 115.219771,87.4086971 113.515777,89.298795 C113.406658,89.4199239 113.91667,89.3565141 114.006812,89.2565219" id="Fill-79" stroke="none" fill="#614537" fill-rule="evenodd"></path>
                        <path d="M112.664266,84.2051597 C112.871381,85.4255194 112.049752,86.5767306 110.831344,86.7849364 C109.617487,86.9977015 108.463565,86.1793158 108.256451,84.9635152 C108.048578,83.7431555 108.865655,82.582066 110.079511,82.37462 C111.29792,82.1709734 112.451842,82.9847999 112.664266,84.2051597" id="Fill-81" stroke="none" fill="#302729" fill-rule="evenodd"></path>
                        <path d="M112.664266,84.2051597 C112.871381,85.4255194 112.049752,86.5767306 110.831344,86.7849364 C109.617487,86.9977015 108.463565,86.1793158 108.256451,84.9635152 C108.048578,83.7431555 108.865655,82.582066 110.079511,82.37462 C111.29792,82.1709734 112.451842,82.9847999 112.664266,84.2051597 Z" id="Stroke-83" stroke="#302729" stroke-width="0.355" fill="none"></path>
                        <path d="M102.857658,83.0280358 C102.857658,83.0280358 99.3750059,86.7381143 96.9903694,81.4483714 C96.9903694,81.4483714 97.9785011,82.3306188 101.924468,83.5653162 C101.924468,83.5653162 99.2610222,86.3055961 96.7960232,83.2637507 C96.7960232,83.2637507 97.3150998,82.9778996 100.328697,83.9559296 C100.328697,83.9559296 99.7300773,86.2195414 96.5967568,84.1699438 C96.5967568,84.1699438 97.4996057,84.5351149 100.078588,84.5396047 L102.857658,83.0280358 Z" id="Fill-85" stroke="none" fill="#614537" fill-rule="evenodd"></path>
                        <path d="M102.857658,83.0280358 C102.857658,83.0280358 99.3750059,86.7381143 96.9903694,81.4483714 C96.9903694,81.4483714 97.9785011,82.3306188 101.924468,83.5653162 C101.924468,83.5653162 99.2610222,86.3055961 96.7960232,83.2637507 C96.7960232,83.2637507 97.3150998,82.9778996 100.328697,83.9559296 C100.328697,83.9559296 99.7300773,86.2195414 96.5967568,84.1699438 C96.5967568,84.1699438 97.4996057,84.5351149 100.078588,84.5396047 L102.857658,83.0280358 Z" id="Stroke-87" stroke="#614537" stroke-width="0.355" fill="none"></path>
                        <path d="M110.907387,84.1304249 C110.907387,84.6249012 111.309156,85.0285196 111.801367,85.0285196 C112.298795,85.0285196 112.696216,84.6249012 112.696216,84.1304249 C112.696216,83.6368222 112.298795,83.2384455 111.801367,83.2384455 C111.309156,83.2384455 110.907387,83.6368222 110.907387,84.1304249" id="Fill-89" stroke="none" fill="#FFFFFF" fill-rule="evenodd"></path>
                        <path d="M163.677838,85.602021 C163.677838,85.602021 156.006609,80.3624794 151.306961,79.6901673 C151.306961,79.6901673 146.343224,78.8339678 140.423063,85.997254 C140.423063,85.997254 144.43196,89.4736403 150.154651,90.284076 C150.154651,90.284076 158.84337,91.5596385 163.677838,85.602021" id="Fill-91" stroke="none" fill="#614537" fill-rule="evenodd"></path>
                        <path d="M161.889009,85.9006796 C161.889009,85.9006796 155.071524,81.0663366 151.803165,80.6214634 C151.803165,80.6214634 147.047062,79.5295756 142.211892,86.0882083 C142.211892,86.0882083 145.57384,89.0919143 150.609904,89.4815842 C150.609904,89.4815842 157.201484,90.0100741 161.889009,85.9006796" id="Fill-93" stroke="none" fill="#FFFFFF" fill-rule="evenodd"></path>
                        <path d="M148.253718,89.6460895 C146.199559,87.7448642 146.299802,84.9628075 147.754147,82.5183749 C147.754147,82.5183749 151.093387,79.2081536 154.846746,81.1804137 C157.746396,82.7055725 156.467066,88.853007 154.15244,90.3372163 C154.15244,90.3372163 149.403225,90.7040901 148.253718,89.6460895" id="Fill-95" stroke="none" fill="#614537" fill-rule="evenodd"></path>
                        <path d="M147.7616,88.458342 C145.965557,86.5899203 145.630306,82.8940793 147.921059,81.2234337 C150.289596,79.4957065 154.451066,79.4120938 155.009558,82.9977912 C155.274026,84.6957716 154.745091,88.2637817 153.015942,89.0757894 C152.437226,89.3467267 151.264236,89.1344791 150.634181,89.1079482 C149.671209,89.0669458 148.527778,89.0444347 147.725042,88.4293991 C147.569473,88.3096079 147.08332,88.5427586 147.305006,88.7123959 C148.328649,89.4970687 149.936455,89.4568703 151.144448,89.4657139 C151.765168,89.4705377 152.680691,89.6064083 153.268742,89.3330592 C155.560273,88.2661936 156.184882,83.5412736 155.132458,81.5136662 C153.728448,78.8115297 149.88045,79.4852549 147.823828,80.8624521 C145.243717,82.5909834 145.184601,86.5151513 147.268447,88.683453 C147.412348,88.8329911 147.918725,88.6223515 147.7616,88.458342" id="Fill-97" stroke="none" fill="#614537" fill-rule="evenodd"></path>
                        <path d="M148.492262,84.2785562 C148.33138,85.503686 149.185119,86.6322951 150.40388,86.7979764 C151.631747,86.9644177 152.753371,86.1048508 152.924118,84.879721 C153.091072,83.6545912 152.23202,82.5305422 151.008707,82.3641009 C149.785393,82.1976596 148.658457,83.0534264 148.492262,84.2785562" id="Fill-99" stroke="none" fill="#302729" fill-rule="evenodd"></path>
                        <path d="M148.492262,84.2785562 C148.33138,85.503686 149.185119,86.6322951 150.40388,86.7979764 C151.631747,86.9644177 152.753371,86.1048508 152.924118,84.879721 C153.091072,83.6545912 152.23202,82.5305422 151.008707,82.3641009 C149.785393,82.1976596 148.658457,83.0534264 148.492262,84.2785562 Z" id="Stroke-101" stroke="#302729" stroke-width="0.355" fill="none"></path>
                        <path d="M159.205766,83.0235872 C159.205766,83.0235872 162.692518,86.7400184 165.073054,81.4483714 C165.073054,81.4483714 164.084922,82.3310613 160.138956,83.5656292 C160.138956,83.5656292 162.797481,86.3080319 165.2674,83.2601691 C165.2674,83.2601691 164.748324,82.9779179 161.730627,83.9571871 C161.730627,83.9571871 162.333346,86.2211854 165.466667,84.1668165 C165.466667,84.1668165 164.563818,84.5359142 161.979095,84.5404062 L159.205766,83.0235872 Z" id="Fill-103" stroke="none" fill="#614537" fill-rule="evenodd"></path>
                        <path d="M159.205766,83.0235872 C159.205766,83.0235872 162.692518,86.7400184 165.073054,81.4483714 C165.073054,81.4483714 164.084922,82.3310613 160.138956,83.5656292 C160.138956,83.5656292 162.797481,86.3080319 165.2674,83.2601691 C165.2674,83.2601691 164.748324,82.9779179 161.730627,83.9571871 C161.730627,83.9571871 162.333346,86.2211854 165.466667,84.1668165 C165.466667,84.1668165 164.563818,84.5359142 161.979095,84.5404062 L159.205766,83.0235872 Z" id="Stroke-105" stroke="#614537" stroke-width="0.355" fill="none"></path>
                        <path d="M152.05045,84.1304249 C152.05045,84.630143 152.448356,85.0285196 152.947483,85.0285196 C153.441374,85.0285196 153.839279,84.630143 153.839279,84.1304249 C153.839279,83.6411904 153.441374,83.2384455 152.947483,83.2384455 C152.448356,83.2384455 152.05045,83.6411904 152.05045,84.1304249" id="Fill-107" stroke="none" fill="#FFFFFF" fill-rule="evenodd"></path>
                        <path d="M147.320715,123.300945 C140.947468,122.777072 138.8696,122.781524 130.830229,123.878243 C127.456486,124.335333 125.835046,122.759263 122.20915,123.165153 C117.806048,123.346208 111.69453,122.475066 107.32973,122.64128 C114.111528,122.849791 123.223348,126.410789 131.179732,126.190407 C133.815369,126.113236 152.602363,123.381826 154.733694,122.857953 L147.320715,123.300945 Z" id="Fill-109" stroke="none" fill="#CB9397" fill-rule="evenodd"></path>
                        <path d="M147.097652,122.549223 C144.519138,122.304721 141.937409,122.073506 139.347639,122.167409 C135.354039,122.312693 131.198026,123.735414 127.250255,123.058603 C120.602563,121.920249 113.492556,121.609306 106.731496,121.760791 C106.4927,121.766106 106.268377,122.174496 106.610088,122.196643 C116.290569,122.824731 125.054458,127.369288 134.884488,125.914675 C141.398711,124.949954 148.12359,124.153549 154.519621,122.442032 C154.796206,122.368504 154.821935,121.996435 154.4955,122.019468 C152.006234,122.196643 149.516164,122.372047 147.026897,122.548337 C146.718151,122.569598 146.599155,123.010766 146.976244,122.984189 C148.965405,122.844221 152.555384,123.401438 154.335499,122.464179 C154.561431,122.345471 152.35679,122.488983 152.101913,122.539478 C150.458483,122.867253 148.809424,123.161365 147.16117,123.454591 C140.626042,124.617749 133.613322,126.559595 126.963218,125.819 C121.680763,125.229891 116.607355,123.40321 111.397263,122.372047 C110.59404,122.212589 108.442465,121.538436 107.857134,122.002636 C107.878038,121.985804 111.301583,122.308264 112.118475,122.36496 C114.518494,122.533277 116.920925,122.790182 119.326573,122.837134 C124.100883,122.931922 128.392777,123.932965 133.13573,123.242866 C137.771747,122.567826 142.247763,122.54125 146.904685,122.983303 C147.170818,123.008994 147.469916,122.584658 147.097652,122.549223" id="Fill-111" stroke="none" fill="#CB9397" fill-rule="evenodd"></path>
                        <g id="antebrazo" stroke="none" stroke-width="1" fill="none" fill-rule="evenodd" transform="translate(209.292973, 202.278373)">
                            <path d="M30.596176,0.898402396 C46.2199318,1.97371713 53.0680535,21.9605977 54.625939,34.9495003 C55.205636,39.7848027 55.1839876,44.6690927 55.3010495,49.5373211 C55.4966872,57.6146293 56.5149654,65.9376777 57.2261566,74.0952932 C57.9333388,82.2103457 58.5018107,90.2715924 60.4966739,98.2196058 C61.6777163,102.925614 63.3494566,107.526419 64.0021168,112.334417 C64.4398963,115.561967 64.4118335,118.832883 64.3821671,122.089344 C64.34769,125.959353 64.4912111,129.876743 64.2779339,133.740327 C64.13762,136.299721 63.2452234,138.58366 63.2211696,141.174374 C63.1634404,147.492952 63.1433956,153.799484 62.9028574,160.115653 C62.5925632,168.264435 62.1387478,176.412414 61.5061324,184.542725 C61.5021235,184.590106 61.4989163,184.637487 61.4949073,184.684868 C44.8464589,169.676237 23.8691252,186.077397 22.3697706,188.852817 C11.9825307,172.187447 6.39242366,173.985527 6.03161641,166.447081 C5.41423511,149.696584 8.89963317,134.040677 9.06079374,118.179985 C9.01669508,110.25767 4.33421873,107.946426 3.51719075,100.15983 C0.546544369,71.8057321 -3.86091667,36.839131 15.7918535,10.8259907 C23.6534426,0.42137704 30.5937706,0.898402396 30.596176,0.898402396" id="Fill-115" fill="#D96C70"></path>
                            <path d="M30.5208571,2.32384807 C40.6645815,3.29012824 46.6645341,12.3477039 49.9375249,21.2115432 C54.0136401,32.2505136 53.5416354,43.5080379 54.2444688,55.0801836 C54.6551846,61.8377403 55.4240827,68.5664767 56.0083179,75.3096232 C56.6204118,82.3601862 57.1624611,89.4411705 58.6731947,96.3692472 C60.2563607,103.626356 62.8535808,110.39432 63.0255083,117.912412 C63.1727611,124.340136 63.47841,131.060066 62.3537174,137.398928 C61.0125235,144.956248 61.8220156,153.088372 61.5267142,160.758571 C61.2218612,168.676145 60.777715,176.591316 60.1584575,184.490476 C61.0722205,184.150237 61.9859835,183.810798 62.8997465,183.470558 C55.3317512,176.936359 45.7229124,175.532971 36.3679851,178.716012 C31.3478604,180.423614 24.349773,183.570629 21.4031261,188.340386 C22.3630548,188.17547 23.3237795,188.010554 24.2837082,187.844837 C21.0688226,182.755655 17.4790393,178.094774 13.1458287,173.927041 C10.6560634,171.531755 8.57382989,169.700065 8.21962734,166.091925 C7.38705234,157.622764 8.72506245,148.630034 9.58549607,140.208906 C10.3918044,132.322555 11.9853179,123.742115 11.0930458,115.816536 C10.4021519,109.681017 6.2750951,104.810389 5.58181324,98.5715975 C4.80336358,91.5682678 4.08779482,84.544924 3.6189739,77.512774 C2.64392192,62.880074 2.74023318,47.8102663 6.8314717,33.616275 C9.10632767,25.7235192 12.6571088,18.0845421 17.6422113,11.5471404 C20.1423242,8.26883278 23.1661793,5.03295503 26.9844032,3.32054965 C27.8321015,2.94108254 28.7012907,2.63446672 29.6110739,2.44873598 C29.8538419,2.3999016 31.1042963,2.35106723 30.5208571,2.32384807 C32.0522857,2.39669935 33.6426153,0.113492186 31.5691375,0.0142223088 C21.5209283,-0.466115804 13.8335389,11.3293871 9.71444172,18.9035186 C2.31837395,32.5050928 0.0403341384,48.1953373 0.000536098268,63.5173226 C-0.018566961,71.0009904 0.474928736,78.4750514 1.1499035,85.9234944 C1.80020347,93.1117543 1.69274876,101.152614 4.81609895,107.764468 C6.09600392,110.474376 7.53430509,113.039381 7.95457239,116.057506 C8.64865021,121.033809 7.80095196,126.532079 7.35203006,131.513986 C6.49478028,141.034287 5.21009955,150.525768 5.04613162,160.095705 C4.95857593,165.172078 4.59084204,169.506329 8.2204233,173.288191 C13.1251338,178.398188 17.6422113,183.161541 21.4731706,189.22661 C22.1409818,190.282553 23.8562773,189.536428 24.3529568,188.731061 C26.7002452,184.930786 32.9970911,182.280921 36.9514244,180.905553 C45.3973645,177.967485 53.7366458,179.418906 60.5381308,185.29184 C61.3149886,185.962713 63.1934561,185.363091 63.2794198,184.272723 C63.8389803,177.133298 64.251288,169.981864 64.554549,162.826427 C64.880097,155.158629 64.2982497,147.252264 65.0695357,139.630099 C65.4046352,136.318168 66.1090605,133.226391 66.1512464,129.863224 C66.1990041,126.043735 66.1974121,122.211438 66.1528383,118.391149 C66.0724463,111.424645 64.1724879,105.157033 62.4484368,98.4739287 C60.5508662,91.1151488 59.8631561,83.5482224 59.2136521,75.9957062 C58.5219621,67.9428377 57.5405425,59.8987754 57.2078308,51.8194884 C56.7350301,40.3450114 56.7350301,29.3412658 52.2999365,18.5520712 C48.5430016,9.41203749 41.9787128,1.00612051 31.5691375,0.0142223088 C30.0233816,-0.133081379 28.4473792,2.12610888 30.5208571,2.32384807" id="Fill-117" fill="#AD363F"></path>
                        </g>
                        <g id="Group-7" stroke="none" stroke-width="1" fill="none" fill-rule="evenodd" transform="translate(127.901261, 167.371928)">
                            <path d="M53.7806664,25.0610374 C63.2898458,32.2308409 68.6974659,43.1516807 80.3407053,48.5584572 C73.1113267,50.3647192 65.4239059,54.3007052 52.4850157,56.4536479 C56.2262272,58.946866 61.215043,61.8604243 64.9562544,64.3536425 C57.8870304,68.0950709 52.4313639,72.8781425 46.2493964,78.0655414 C35.8577652,86.79821 31.9363798,92.1913755 25.8809343,100.514913 C19.2265107,109.657513 16.8001685,116.272468 13.4096956,127.528779 C10.5693538,136.96842 1.31321869,179.710217 0.894414414,188.852817 C7.60729448,168.27376 18.4321439,116.579116 32.4961201,102.517334 C37.9037402,97.1105573 50.476677,84.8934683 59.0505536,78.6980534 C66.5337772,73.2968815 77.7942472,73.2696595 81.5354586,70.3617056 C78.6270511,70.7756407 62.3593476,60.0893908 59.8657405,58.4288467 C64.8537555,58.0093071 76.0757883,54.6658007 88.547027,52.1717819 C70.5656693,45.4159135 67.9183138,35.8641819 53.7806664,25.0610374" id="Fill-113" fill="#AD363F"></path>
                            <path d="M48.1168949,8.50157258 C58.7044898,23.1031677 72.9617538,35.5710169 86.7581982,46.7172115 C80.9798565,48.6062066 67.222819,54.6110284 61.3809437,54.8349152 C65.7100757,58.8391997 73.0888211,62.0362075 78.2213718,65.1754381 C19.9256643,88.4420159 16.4811775,150.349537 3.95620962,194.184014 C3.98516165,195.01376 1.81858508,182.346097 1.78882883,181.515549 C4.56259371,123.040157 19.221165,54.429672 45.5827884,0.895037049 L48.1168949,8.50157258 Z" id="Fill-123" fill="#D96C70"></path>
                            <path d="M46.0794486,9.11868127 C56.8382057,23.8132846 70.5337932,35.9035372 84.6029988,47.3278591 C85.0142994,46.8721379 85.4264017,46.4164166 85.8377023,45.9614977 C77.8041121,48.6621275 69.5067444,53.4054796 60.9568237,53.9959917 C60.5848092,54.0208638 58.5291081,54.7654224 59.3028021,55.4441904 C64.3370249,59.8682167 70.5931231,62.508672 76.29601,65.9233721 C76.5052682,65.4668485 76.7129229,65.0103249 76.9221811,64.5546037 C56.8061355,72.7383303 40.5521462,86.9362937 29.7476891,105.784539 C19.5549713,123.566494 14.2377289,143.594961 9.55547672,163.39958 C8.30233287,168.701351 7.09248382,174.013552 5.82490837,179.311312 C4.62628389,184.320234 2.87204285,189.346807 1.93879945,194.400659 C2.97146053,194.196066 4.00412162,193.992275 5.03598095,193.787682 C2.73093388,186.41591 2.95542542,178.602055 3.48137703,171.037725 C4.45470821,157.033122 6.03737357,143.073449 8.16362917,129.198823 C12.4931089,100.949722 19.0242092,72.9766212 28.1393675,45.8812651 C33.3010694,30.5383823 39.3270638,15.4851392 46.4330228,0.937361601 C45.4364407,1.06653611 44.4398586,1.19651294 43.4432765,1.32568745 C44.2859216,3.86023573 45.1277649,6.39558634 45.9696081,8.93093695 C46.3239841,9.99642607 49.406734,9.12108825 49.0675914,8.09972707 C48.2257481,5.56517879 47.3831031,3.02982818 46.5412598,0.495279897 C46.2117383,-0.495592888 43.8890526,0.193605267 43.5515135,0.883605749 C18.342717,52.4980488 5.10573368,110.44445 0.672025752,167.536373 C-0.0295103133,176.576984 -0.824050016,185.782874 1.93799769,194.61809 C2.26351042,195.658707 4.87162107,194.887671 5.0351792,194.005113 C6.63628494,185.330362 9.45686079,176.680484 11.4636548,168.06992 C13.6821123,158.556739 15.9414593,149.045163 18.7347755,139.680412 C24.455301,120.506422 32.6155685,101.503327 46.6214354,86.868096 C55.499274,77.5924035 66.2756698,70.6314219 78.1392459,65.8046278 C78.6515677,65.5968254 79.5599567,64.9116388 78.765417,64.4358594 C73.2092513,61.1094152 67.0862446,58.5467855 62.1811044,54.2374918 C61.6302984,54.7212945 61.0786906,55.2042948 60.5270828,55.6872952 C69.4073267,55.0751203 77.929186,50.2836286 86.2465976,47.4867197 C86.497547,47.4032778 88.1876476,46.6948238 87.481301,46.1211606 C73.4120955,34.6968387 59.716508,22.6073884 48.9577509,7.91198275 C48.3492185,7.07997054 45.3522564,8.1254015 46.0794486,9.11868127" id="Fill-125" fill="#AD363F"></path>
                        </g>
                    </g>
                </g>
            </g>
        </g>
    </g>
</svg>