<?xml version="1.0" encoding="UTF-8"?>
<svg width="76px" height="64px" viewBox="0 0 76 64" version="1.1" xmlns="http://www.w3.org/2000/svg" xmlns:xlink="http://www.w3.org/1999/xlink">
    <!-- Generator: Sketch 50.2 (55047) - http://www.bohemiancoding.com/sketch -->
    <title>book</title>
    <desc>Created with Sketch.</desc>
    <defs></defs>
    <g id="interfaz-2.1" stroke="none" stroke-width="1" fill="none" fill-rule="evenodd" stroke-linecap="round" stroke-linejoin="round">
        <g id="Desktop-HD-home" transform="translate(-191.000000, -598.000000)" stroke="#FFFFFF" stroke-width="4">
            <g id="book" transform="translate(193.000000, 600.008333)">
                <path d="M32.3263158,58.5401769 L6,50.216603 L6,0 L32.3263158,8.32357392 C34.975,9.14905233 37.9447368,9.14905233 40.6736842,8.32357392 L67,0 L67,50.216603 L40.6736842,58.5401769 C37.9447368,59.3656553 35.0552632,59.3656553 32.3263158,58.5401769 Z" id="Shape"></path>
                <path d="M36,42.0116667 L36,8.57380952" id="Shape"></path>
                <path d="M36,50.5854762 L36,48.8707143" id="Shape"></path>
                <path d="M66.48,6.55655591 L72,6.00166667 L72,56.6353103 L37.36,59.9646458 C36.48,60.034007 35.6,60.034007 34.72,59.9646458 L0,56.6353103 L0,6.00166667 L5.52,6.55655591" id="Shape"></path>
            </g>
        </g>
    </g>
</svg>