<?xml version="1.0" encoding="UTF-8"?>
<svg width="113px" height="134px" viewBox="0 0 113 134" version="1.1" xmlns="http://www.w3.org/2000/svg" xmlns:xlink="http://www.w3.org/1999/xlink">
    <!-- Generator: Sketch 50.2 (55047) - http://www.bohemiancoding.com/sketch -->
    <title>busqueda</title>
    <desc>Created with Sketch.</desc>
    <defs>
        <circle id="path-1" cx="52" cy="81" r="52"></circle>
    </defs>
    <g id="metafora" stroke="none" stroke-width="1" fill="none" fill-rule="evenodd">
        <g id="iconos" transform="translate(-77.000000, -487.000000)">
            <g id="busqueda" transform="translate(77.000000, 482.000000)">
                <mask id="mask-2" fill="white">
                    <use xlink:href="#path-1"></use>
                </mask>
                <circle stroke="#41423F" stroke-width="3" cx="52" cy="81" r="50.5"></circle>
                <g id="sleeve" mask="url(#mask-2)">
                    <g transform="translate(2.769406, 76.212603) rotate(119.000000) translate(-2.769406, -76.212603) translate(-13.230594, 43.212603)">
                        <path d="M30.5,4.96279635 C26.4943627,7.31322983 21.8670737,8.58744631 17.0412983,8.58744631 C11.3375812,8.58744631 5.92253538,6.80477959 1.5,3.60358843 L1.5,63.5 L30.5,63.5 L30.5,4.96279635 Z" id="Combined-Shape" stroke="#4A4A4A" stroke-width="3" fill="#E98B8E" fill-rule="evenodd"></path>
                        <path d="M2.44557399,13.6567869 L28.445574,13.6567869" id="Line-3" stroke="#41423F" stroke-width="2" fill="none" stroke-linecap="square" stroke-linejoin="round"></path>
                    </g>
                </g>
                <g id="lupa" transform="translate(82.723705, 48.000000) rotate(13.000000) translate(-82.723705, -48.000000) translate(56.223705, 5.000000)">
                    <circle id="Oval-26" stroke="#41423F" stroke-width="3" fill="#CEEBF2" cx="26.0489667" cy="26.0489667" r="24.5489667"></circle>
                    <path d="M27.6691901,17.937146 L22.8279566,22.7783795 C32.9264831,22.7783795 41.1129564,14.5919062 41.1129564,4.49337963 L36.2717229,9.33461314 C34.832899,13.3294913 31.6640682,16.4983221 27.6691901,17.937146 Z" id="Path" fill="#FFFFFF" transform="translate(31.970456, 13.635880) rotate(-465.000000) translate(-31.970456, -13.635880) "></path>
                    <path d="M21.1029603,50.1195308 L30.994973,50.1195308 L30.994973,80.1253026 C30.994973,82.8569064 28.7805705,85.0713089 26.0489667,85.0713089 L26.0489667,85.0713089 C23.3173628,85.0713089 21.1029603,82.8569064 21.1029603,80.1253026 L21.1029603,50.1195308 Z" id="Rectangle-10" fill="#41423F"></path>
                    <path d="M21.1029603,57.3736734 L30.994973,57.3736734" id="Line-5" stroke="#FFFFFF" stroke-width="2"></path>
                </g>
                <g id="hand" transform="translate(58.647143, 101.012078) rotate(130.000000) translate(-58.647143, -101.012078) translate(25.647143, 65.012078)" fill="#8A7861" stroke="#41423F" stroke-width="2">
                    <path d="M7.48138814,20.3726704 C2.11861528,24.2105295 0.699974601,27.2897446 2.66808661,29.8560802 C4.71387137,32.5236978 6.50682379,32.586309 8.73370871,30.0678964 L8.8337424,29.9696116 C10.4479523,28.5922163 10.6094209,28.4687997 11.2875838,28.2282217 C11.9833568,27.9813965 12.4358727,27.9673925 14.4402532,28.037387 C19.2183399,28.2042415 21.9462529,32.1574754 22.8243724,38.301365 L22.8730733,38.6421079 L22.7017331,38.9406376 C20.8965393,42.085864 19.934512,45.640655 19.934512,49.3353649 C19.934512,61.0170689 29.5502722,70.4929483 41.4191806,70.4929483 C53.288089,70.4929483 62.9038493,61.0170689 62.9038493,49.3353649 C62.9038493,45.5026481 61.8684223,41.821324 59.9331359,38.5938044 L59.6680761,38.1517584 L59.8743225,37.6793986 C59.9202696,37.5741674 59.9621713,37.4666677 59.9999226,37.3570299 L65.5407337,21.265346 C66.3049106,19.0460151 65.1252753,16.6274043 62.9059444,15.8632274 C60.6866136,15.0990505 58.2680027,16.2786858 57.5038258,18.4980167 L53.0299393,31.4911267 L51.9864655,30.909465 C51.8966386,30.8593929 51.8064446,30.8099593 51.7158902,30.7611683 L50.9504457,30.3487452 L51.2525068,29.5334187 C51.3611807,29.2400852 51.4411888,28.9346747 51.4910553,28.6198299 L54.1816776,11.6319091 C54.5922238,9.03982231 52.8237358,6.60570732 50.231649,6.19516111 C47.6395622,5.78461489 45.2054472,7.55310295 44.794901,10.1451897 L42.1042787,27.1331105 C42.0953734,27.1893362 42.0874743,27.2455795 42.0805785,27.3018251 L41.9744312,28.1676256 L41.1022364,28.1800348 C41.0597964,28.1806656 41.0597964,28.1806656 41.017384,28.181404 L39.8840359,28.2018559 L40.0050571,27.0748022 C40.0349698,26.7962292 40.0402756,26.5136891 40.0203849,26.2292382 L38.6049261,5.98723396 C38.4218573,3.36922939 36.1511388,1.39532386 33.5331342,1.57839258 C30.9151296,1.76146129 28.9412241,4.03217984 29.1242928,6.65018442 L30.5393855,26.8869529 L28.6704249,25.1001965 C24.9586383,21.5516688 20.1170301,19.4663339 14.9141283,19.2846445 C12.3598991,19.1954489 9.85349996,19.5680757 7.48138814,20.3726704 Z" id="Combined-Shape"></path>
                    <path d="M28.7523848,51.1604255 C28.7922778,51.1601738 28.8322007,51.1600479 28.8721531,51.1600479 C39.1114314,51.1600479 47.4120066,59.4357496 47.4120066,69.644345 C47.4120066,69.7937608 47.4102284,69.9427626 47.4066921,70.0913304 C45.7914086,70.4566536 44.1104405,70.6495342 42.3842874,70.6495342 C37.8707845,70.6495342 33.6662144,69.3307995 30.1370531,67.0587082 C29.3118122,66.8439096 28.5201503,66.4469008 27.8234626,65.8623105 L8.58870149,49.7224295 C6.07999631,47.6173759 5.75277205,43.8771854 7.85782564,41.3684802 C9.96287923,38.8597751 13.7030697,38.5325508 16.2117749,40.6376044 L28.752383,51.160424 Z" id="Combined-Shape" stroke-linecap="round" stroke-linejoin="round"></path>
                </g>
            </g>
        </g>
    </g>
</svg>