<?xml version="1.0" encoding="UTF-8"?>
<svg width="114px" height="134px" viewBox="0 0 114 134" version="1.1" xmlns="http://www.w3.org/2000/svg" xmlns:xlink="http://www.w3.org/1999/xlink">
    <!-- Generator: Sketch 50.2 (55047) - http://www.bohemiancoding.com/sketch -->
    <title>busqueda</title>
    <desc>Created with Sketch.</desc>
	<style>
	@keyframes balancea {
		from {
			transform: rotate(-10deg) translate(49px, 5px);
		}
		to {
			transform: rotate(15deg) translate(49px, 5px);
		}
	}
	#lupa {
		animation: balancea 1s ease-in infinite alternate;
		
		transform-origin: 73px 78px;
		
		
	} 
	</style>
    <defs></defs>
    <g id="Page-1" stroke="none" stroke-width="1" fill="none" fill-rule="evenodd">
        <g id="busqueda" transform="translate(2.000000, -4.000000)">
            <circle id="Oval" stroke="#41423F" stroke-width="3" fill="#FFFFFF" cx="51" cy="80" r="50.5"></circle>
            <g id="sleeve-Clipped" transform="translate(0.000000, 60.000000)">
                <path d="M2,32 C0.761290686,26.9855985 0.141936029,23.233481 0.141936029,20.7436474 C0.141936029,13.4407822 1.28255251,6.30624197 4,0 L34.5098264,16.7822804 C29.5659138,19.0983487 25.381492,22.9702005 22.6162751,27.9587839 C20.2766928,32.1795022 19.1477934,36.8443727 19.2615574,41.4872948 L2,32 Z" id="manga" stroke="#4A4A4A" stroke-width="3" fill="#E98B8E"></path>
                <path d="M5.51884258,23.3630621 L31.5188426,23.3630621" id="Line-3" stroke="#41423F" stroke-width="2" stroke-linecap="square" stroke-linejoin="round" transform="translate(18.518843, 23.863062) rotate(119.000000) translate(-18.518843, -23.863062) "></path>
            </g>
            <g id="lupa" transform="translate(81.124044, 47.374710) rotate(13.000000) translate(-81.124044, -47.374710) translate(56.124044, 4.874710)">
                <circle id="Oval-26" stroke="#41423F" stroke-width="3" fill="#CEEBF2" fill-rule="nonzero" cx="25.0489667" cy="25.0489667" r="24.5489667"></circle>
                <path d="M26.6691891,16.9371461 L21.8279556,21.7783796 C31.9264821,21.7783796 40.1129554,13.5919063 40.1129554,3.49337969 L35.2717219,8.3346132 C33.832898,12.3294914 30.6640672,15.4983222 26.6691891,16.9371461 Z" id="Path" fill="#FFFFFF" fill-rule="nonzero" transform="translate(30.970455, 12.635880) rotate(-105.000000) translate(-30.970455, -12.635880) "></path>
                <path d="M20.1029603,49.1195308 L29.994973,49.1195308 L29.994973,79.1253026 C29.994973,81.8569064 27.7805705,84.0713089 25.0489667,84.0713089 C22.3173628,84.0713089 20.1029603,81.8569064 20.1029603,79.1253026 L20.1029603,49.1195308 Z" id="Rectangle-10" fill="#41423F" fill-rule="nonzero"></path>
                <path d="M20.1029603,56.3736734 L29.994973,56.3736734" id="Line-5" stroke="#FFFFFF" stroke-width="2"></path>
            </g>
            <g id="hand" transform="translate(57.325749, 100.395100) rotate(130.000000) translate(-57.325749, -100.395100) translate(24.825749, 65.395100)" fill="#8A7861" fill-rule="nonzero" stroke="#41423F" stroke-width="2">
                <path d="M6.48138814,19.3726704 C1.11861528,23.2105295 -0.300025399,26.2897446 1.66808661,28.8560802 C3.71387137,31.5236978 5.50682379,31.586309 7.73370871,29.0678964 L7.8337424,28.9696116 C9.4479523,27.5922163 9.6094209,27.4687997 10.2875838,27.2282217 C10.9833568,26.9813965 11.4358727,26.9673925 13.4402532,27.037387 C18.2183399,27.2042415 20.9462529,31.1574754 21.8243724,37.301365 L21.8730733,37.6421079 L21.7017331,37.9406376 C19.8965393,41.085864 18.934512,44.640655 18.934512,48.3353649 C18.934512,60.0170689 28.5502722,69.4929483 40.4191806,69.4929483 C52.288089,69.4929483 61.9038493,60.0170689 61.9038493,48.3353649 C61.9038493,44.5026481 60.8684223,40.821324 58.9331359,37.5938044 L58.6680761,37.1517584 L58.8743225,36.6793986 C58.9202696,36.5741674 58.9621713,36.4666677 58.9999226,36.3570299 L64.5407337,20.265346 C65.3049106,18.0460151 64.1252753,15.6274043 61.9059444,14.8632274 C59.6866136,14.0990505 57.2680027,15.2786858 56.5038258,17.4980167 L52.0299393,30.4911267 L50.9864655,29.909465 C50.8966386,29.8593929 50.8064446,29.8099593 50.7158902,29.7611683 L49.9504457,29.3487452 L50.2525068,28.5334187 C50.3611807,28.2400852 50.4411888,27.9346747 50.4910553,27.6198299 L53.1816776,10.6319091 C53.5922238,8.03982231 51.8237358,5.60570732 49.231649,5.19516111 C46.6395622,4.78461489 44.2054472,6.55310295 43.794901,9.1451897 L41.1042787,26.1331105 C41.0953734,26.1893362 41.0874743,26.2455795 41.0805785,26.3018251 L40.9744312,27.1676256 L40.1022364,27.1800348 C40.0597964,27.1806656 40.0597964,27.1806656 40.017384,27.181404 L38.8840359,27.2018559 L39.0050571,26.0748022 C39.0349698,25.7962292 39.0402756,25.5136891 39.0203849,25.2292382 L37.6049261,4.98723396 C37.4218573,2.36922939 35.1511388,0.39532386 32.5331342,0.57839258 C29.9151296,0.76146129 27.9412241,3.03217984 28.1242928,5.65018442 L29.5393855,25.8869529 L27.6704249,24.1001965 C23.9586383,20.5516688 19.1170301,18.4663339 13.9141283,18.2846445 C11.3598991,18.1954489 8.85349996,18.5680757 6.48138814,19.3726704 Z" id="Combined-Shape"></path>
                <path d="M27.7523848,50.1604255 C27.7922778,50.1601738 27.8322007,50.1600479 27.8721531,50.1600479 C38.1114314,50.1600479 46.4120066,58.4357496 46.4120066,68.644345 C46.4120066,68.7937608 46.4102284,68.9427626 46.4066921,69.0913304 C44.7914086,69.4566536 43.1104405,69.6495342 41.3842874,69.6495342 C36.8707845,69.6495342 32.6662144,68.3307995 29.1370531,66.0587082 C28.3118122,65.8439096 27.5201503,65.4469008 26.8234626,64.8623105 L7.58870149,48.7224295 C5.07999631,46.6173759 4.75277205,42.8771854 6.85782564,40.3684802 C8.96287923,37.8597751 12.7030697,37.5325508 15.2117749,39.6376044 L27.752383,50.160424 L27.7523848,50.1604255 Z" id="Combined-Shape" stroke-linecap="round" stroke-linejoin="round"></path>
            </g>
        </g>
    </g>
</svg>