<?xml version="1.0" encoding="UTF-8"?>
<svg width="108px" height="108px" viewBox="0 0 108 108" version="1.1" xmlns="http://www.w3.org/2000/svg" xmlns:xlink="http://www.w3.org/1999/xlink">
    <!-- Generator: Sketch 50.2 (55047) - http://www.bohemiancoding.com/sketch -->
    <title>ejercicio</title>
    <desc>Created with Sketch.</desc>
	<style>
	@keyframes balancea {
		to {
			-ms-transform: rotate(-15deg); /* IE 9 */
			-webkit-transform: rotate(-15deg); /* Safari */
			transform: rotate(-15deg);
		}
	  }
	.lapiz {
		animation: balancea .4s ease-in-out .5s infinite alternate;
		transform-origin: 36px 19px;
		
		-ms-transform: rotate(-5deg); /* IE 9 */
			-webkit-transform: rotate(-5deg); /* Safari */
			transform: rotate(-5deg);
		
	} 
	</style>
    <defs></defs>
    <g id="Page-1" stroke="none" stroke-width="1" fill="none" fill-rule="evenodd">
        <g id="ejercicio" transform="translate(0.000000, -5.000000)">
            <circle id="Oval" stroke="#41423F" stroke-width="3" fill="#FFFFFF" transform="translate(58.674088, 64.492038) rotate(16.000000) translate(-58.674088, -64.492038) " cx="58.6740876" cy="64.4920379" r="47"></circle>
            <g id="sleeve" transform="translate(50.479080, 87.629493) rotate(16.000000) translate(-50.479080, -87.629493) translate(35.479080, 66.629493)">
                <path d="M29.5,40.1157886 C25.3808888,41.341696 21.017322,42 16.5,42 C10.8692197,42 5.47733309,40.9771745 0.5,39.1071833 L0.5,0.60358843 C4.92253538,3.80477959 10.3375812,5.58744631 16.0412983,5.58744631 C20.8670737,5.58744631 25.4943627,4.31322983 29.5,1.96279635 L29.5,40.1157886 Z" id="Combined-Shape" stroke="#4A4A4A" stroke-width="3" fill="#E98B8E"></path>
                <path d="M1.44557399,10.6567869 L27.445574,10.6567869" id="Line-3" stroke="#41423F" stroke-width="2" stroke-linecap="square" stroke-linejoin="round"></path>
            </g>
            <path d="M43.8841447,35.9009745 C45.2362058,33.0395091 40.9684125,25.9367082 36.0923694,25.766433 C32.9759795,25.6576063 25.7277129,31.994147 22.9224025,27.3253264 C20.1170921,22.6565059 22.5294118,20.6571999 28.690513,16.1485962 C31.2985098,15.2147896 33.7593751,14.0289609 36.6754709,14.1307932 C44.780868,14.4138399 53.9788759,24.7776944 56.3075293,25.2205533 C58.6361828,25.6634123 61.8254572,23.8715183 65.1910508,23.8715183 C78.6299256,23.8715183 89.5242861,34.2962132 89.5242861,47.1557262 C89.5242861,60.0152391 78.6299256,70.4399341 65.1910508,70.4399341 C51.752176,70.4399341 40.8578155,60.0152391 40.8578155,47.1557262 C40.8578155,43.073596 42.5320837,38.76244 43.8841447,35.9009745 Z" id="Path" stroke="#41423F" stroke-width="2" fill="#8A7861" fill-rule="nonzero" stroke-linecap="round" stroke-linejoin="round" transform="translate(55.642585, 42.282294) rotate(31.000000) translate(-55.642585, -42.282294) "></path>
            <path d="M1.27958186,16.5212893 L68.3619488,16.5212893 L81.1158592,20.7899283 C81.41128,20.8888035 81.6444051,21.113406 81.749221,21.400136 C81.9394062,21.9203986 81.6607645,22.4923902 81.1268573,22.6777149 L71.6476076,25.9680622 L64.5753394,26.7598614 L64.5753394,26.8813347 L1.27958186,26.8813347 L1.27958186,16.5212893 Z" id="lapiz" class="lapiz" stroke="#41423F" stroke-width="2" fill="#4A79AF" fill-rule="nonzero"></path>
            <g id="dedos" transform="translate(17.000000, 20.000000)" fill="#8A7861" fill-rule="nonzero" stroke="#41423F" stroke-width="2">
                <rect id="Rectangle-6-Copy" transform="translate(46.584273, 14.419653) rotate(31.000000) translate(-46.584273, -14.419653) " x="41.359492" y="1.34082924" width="10.4495622" height="26.1576468" rx="5.2247811"></rect>
                <rect id="Rectangle-6-Copy-2" transform="translate(55.448838, 21.641193) rotate(31.000000) translate(-55.448838, -21.641193) " x="50.2240574" y="10.1868492" width="10.4495622" height="22.9086875" rx="5.2247811"></rect>
                <rect id="Rectangle-6-Copy-3" transform="translate(65.283527, 29.445642) rotate(31.000000) translate(-65.283527, -29.445642) " x="60.0587462" y="19.6157783" width="10.4495622" height="19.6597283" rx="5.2247811"></rect>
                <path d="M29.8713662,24.5016495 C29.8886604,24.5016072 29.9059597,24.5015859 29.9232642,24.5015859 C41.0043601,24.5015859 49.9873632,33.198074 49.9873632,43.9257357 C49.9873632,44.0827487 49.9854388,44.2393266 49.9816117,44.3954484 C48.2335284,44.7793469 46.4143604,44.9820347 44.5462924,44.9820347 C39.8096853,44.9820347 35.3874603,43.6789368 31.6412603,41.4228492 C30.4661422,41.2711265 29.3192172,40.7924762 28.3441841,39.9743263 L8.41639004,23.2529216 C5.70143284,20.974802 5.34730594,16.9271135 7.62542554,14.2121563 C9.90354514,11.4971991 13.9512336,11.1430722 16.6661909,13.4211918 L29.8713659,24.5016493 L29.8713662,24.5016495 Z" id="Combined-Shape" stroke-linecap="round" stroke-linejoin="round" transform="translate(28.055649, 28.450868) rotate(31.000000) translate(-28.055649, -28.450868) "></path>
            </g>
        </g>
    </g>
</svg>