<?xml version="1.0" encoding="UTF-8"?>
<svg width="237px" height="117px" viewBox="0 0 237 117" version="1.1" xmlns="http://www.w3.org/2000/svg" xmlns:xlink="http://www.w3.org/1999/xlink">
    <!-- Generator: Sketch 51 (57462) - http://www.bohemiancoding.com/sketch -->
    <title>flexieduca-controls-dark</title>
    <desc>Created with Sketch.</desc>
    <defs></defs>
    <g id="flexieduca-controls-dark" stroke="none" stroke-width="1" fill="none" fill-rule="evenodd">
        <g id="mejs-controls-dark" transform="translate(1.000000, 0.000000)">
            <path d="M14.5,8.5 C14.8,8.6 14.9,9 14.7,9.3 C14.6,9.4 14.6,9.5 14.5,9.5 L3.1,16.5 C2.6,16.8 2.3,16.6 2.3,16 L2.3,2 C2.3,1.5 2.7,1.2 3.1,1.5 L14.5,8.5 Z" id="Shape" fill="#41423F" fill-rule="nonzero"></path>
            <path d="M22,1 L24.2,1 C24.8,1 25.2,1.4 25.2,2 L25.2,16 C25.2,16.6 24.8,17 24.2,17 L22,17 C21.4,17 21,16.6 21,16 L21,2 C21,1.5 21.4,1 22,1 Z M31.8,1 L34,1 C34.6,1 35,1.4 35,2 L35,16 C35,16.6 34.6,17 34,17 L31.8,17 C31.2,17 30.8,16.6 30.8,16 L30.8,2 C30.8,1.5 31.2,1 31.8,1 Z" id="Shape" fill="#41423F" fill-rule="nonzero"></path>
            <path d="M79,1.4 C79,0.8 79.4,0.4 80,0.4 L85.4,0.4 C86,0.4 86.1,0.7 85.7,1.1 L79.7,7.1 C79.3,7.5 79,7.4 79,6.8 L79,1.4 Z M79,17.2 C79,17.8 79.4,18.2 80,18.2 L85.4,18.2 C86,18.2 86.1,17.9 85.7,17.5 L79.7,11.5 C79.3,11.1 79,11.2 79,11.8 L79,17.2 Z M96.8,1.4 C96.8,0.8 96.4,0.4 95.8,0.4 L90.4,0.4 C89.8,0.4 89.7,0.7 90.1,1.1 L96.1,7.1 C96.5,7.5 96.8,7.4 96.8,6.8 L96.8,1.4 Z M96.8,17.2 C96.8,17.8 96.4,18.2 95.8,18.2 L90.4,18.2 C89.8,18.2 89.7,17.9 90.1,17.5 L96.1,11.5 C96.5,11.1 96.8,11.2 96.8,11.8 L96.8,17.2 Z" id="Shape" fill="#41423F" fill-rule="nonzero"></path>
            <path d="M110.7,5 C110.7,5.6 111.1,6 111.7,6 L115.8,6 C116.4,6 116.5,5.7 116.1,5.3 L111.4,0.6 C111,0.2 110.7,0.3 110.7,0.9 L110.7,5 Z M103.6,6 C104.2,6 104.6,5.6 104.6,5 L104.6,0.9 C104.6,0.3 104.3,0.2 103.9,0.6 L99.2,5.3 C98.8,5.7 98.9,6 99.5,6 L103.6,6 Z M104.6,13.1 C104.6,12.5 104.2,12.1 103.6,12.1 L99.5,12.1 C98.9,12.1 98.8,12.4 99.2,12.8 L103.9,17.5 C104.3,17.9 104.6,17.8 104.6,17.2 L104.6,13.1 Z M111.7,12.1 C111.1,12.1 110.7,12.5 110.7,13.1 L110.7,17.2 C110.7,17.7 111,17.9 111.4,17.5 L116.1,12.8 C116.5,12.4 116.4,12.1 115.8,12.1 L111.7,12.1 Z" id="Shape" fill="#41423F" fill-rule="nonzero"></path>
            <path d="M65,5.8 C64.5,6.2 63.8,6.4 63.2,6.4 L60,6.4 C59.4,6.4 59,6.8 59,7.4 L59,13.1 C59,13.7 59.4,14.1 60,14.1 L64.2,14.1 C64.5,14.3 64.7,14.5 65,14.7 L68.5,17.3 C68.9,17.6 69.3,17.4 69.3,16.9 L69.3,3.5 C69.3,3 68.9,2.8 68.5,3.1 L65,5.8 Z" id="Shape" fill="#41423F" fill-rule="nonzero"></path>
            <path d="M71.9,2.5 C71.9,2.5 75.8,1.7 75.8,10.2 C75.8,18.7 71.9,18 71.9,18" id="Shape" stroke="#DDBE59" stroke-width="1.5" stroke-linecap="round"></path>
            <path d="M70.6,6.4 C70.6,6.4 73.2,6 73.2,10.2 C73.2,14.4 70.6,14.1 70.6,14.1" id="Shape" stroke="#DDBE59" stroke-width="1.5" stroke-linecap="round"></path>
            <path d="M45,5.8 C44.5,6.2 43.8,6.4 43.2,6.4 L40,6.4 C39.4,6.4 39,6.8 39,7.4 L39,13.1 C39,13.7 39.4,14.1 40,14.1 L44.2,14.1 C44.5,14.3 44.7,14.5 45,14.7 L48.5,17.3 C48.9,17.6 49.3,17.4 49.3,16.9 L49.3,3.5 C49.3,3 48.9,2.8 48.5,3.1 L45,5.8 Z" id="Shape" fill="#41423F" fill-rule="nonzero"></path>
            <path d="M50.8,7 L56.2,12.4 M50.8,12.4 L56.2,7" id="Shape" stroke="#D96C70" stroke-width="2" stroke-linecap="round"></path>
            <path d="M126.7,8.6 C120.5,4.4 120.2,16.4 126.7,12.5 M133.2,8.6 C127,4.4 126.7,16.4 133.2,12.5" id="Shape" stroke="#9B9B9B"></path>
            <path d="M120.2,3.4 L135.9,3.4 L135.9,16.5 L120.2,16.5 L120.2,3.4 Z M118.8,2 L118.8,17.7 L137.1,17.7 L137.1,2 L118.8,2 Z" id="Shape" fill="#41423F" fill-rule="nonzero"></path>
            <path d="M141.2,3 L155.2,3 C156.3,3 157.2,3.9 157.2,5 L157.2,15 C157.2,16.1 156.3,17 155.2,17 L141.2,17 C140.1,17 139.2,16.1 139.2,15 L139.2,5 C139.2,3.9 140.1,3 141.2,3 Z" id="Shape" fill="#DDBE59" fill-rule="nonzero"></path>
            <path d="M144.4,13.8 C143.6,13.8 142.8,13.4 142.3,12.8 C141.2,11.4 141.3,9.4 142.4,8 C142.9,7.4 144.4,6.3 147,8.2 L146.4,9 C145,8 143.8,7.9 143.1,8.7 C142.3,9.7 142.3,11.1 143,12.2 C143.7,13.1 144.9,13 146.4,12.1 L146.9,13 C146.2,13.5 145.3,13.7 144.4,13.8 Z M151.9,13.8 C151.1,13.8 150.3,13.4 149.8,12.8 C148.7,11.4 148.8,9.4 149.9,8 C150.4,7.4 151.9,6.3 154.5,8.2 L154,9 C152.6,8 151.4,7.9 150.7,8.7 C149.9,9.7 149.9,11.1 150.6,12.2 C151.3,13.1 152.5,13 154,12.1 L154.5,13 C153.7,13.5 152.8,13.7 151.9,13.8 Z" id="Shape" fill="#FFFFFF" fill-rule="nonzero"></path>
            <path d="M58.3,77 C58.9,77.2 59.1,77.8 58.9,78.4 C58.8,78.7 58.6,78.9 58.3,79 L28,96.5 C27,97.1 26.3,96.6 26.3,95.5 L26.3,60.5 C26.3,59.4 27.1,59 28,59.5 L58.3,77 Z" id="Shape" fill="#DDBE59" fill-rule="nonzero"></path>
            <path d="M0.5,79 C0.5,58.3 17.3,41.5 38,41.5 C58.7,41.5 75.5,58.3 75.5,79 C75.5,99.7 58.7,116.5 38,116.5 C17.3,116.5 0.5,99.7 0.5,79 Z" id="Shape" stroke="#B4CF7E" stroke-width="5" opacity="0.75"></path>
            <path d="M138.3,77 C138.9,77.2 139.1,77.8 138.9,78.4 C138.8,78.7 138.6,78.9 138.3,79 L108,96.5 C107,97.1 106.3,96.6 106.3,95.5 L106.3,60.5 C106.3,59.4 107.1,59 108,59.5 L138.3,77 Z" id="Shape" fill="#DDBE59" fill-rule="nonzero"></path>
            <path d="M80.5,79 C80.5,58.3 97.3,41.5 118,41.5 C138.7,41.5 155.5,58.3 155.5,79 C155.5,99.7 138.7,116.5 118,116.5 C97.3,116.5 80.5,99.7 80.5,79 Z" id="Shape" stroke="#D96C70" stroke-width="5"></path>
            <circle id="Oval" fill="#41423F" fill-rule="nonzero" cx="199.9" cy="47.1" r="8.1"></circle>
            <circle id="Oval" fill="#41423F" fill-rule="nonzero" opacity="0.4" cx="231.9" cy="79" r="5"></circle>
            <circle id="Oval" fill="#41423F" fill-rule="nonzero" opacity="0.6" cx="199.9" cy="110.9" r="6"></circle>
            <circle id="Oval" fill="#41423F" fill-rule="nonzero" opacity="0.8" cx="168.1" cy="79" r="7"></circle>
            <circle id="Oval" fill="#41423F" fill-rule="nonzero" opacity="0.9" cx="176.2" cy="56.3" r="7.5"></circle>
            <circle id="Oval" fill="#41423F" fill-rule="nonzero" opacity="0.3" cx="224.3" cy="56.1" r="4.5"></circle>
            <circle id="Oval" fill="#41423F" fill-rule="nonzero" opacity="0.5" cx="223.8" cy="102.8" r="5.5"></circle>
            <circle id="Oval" fill="#41423F" fill-rule="nonzero" opacity="0.7" cx="176.2" cy="102.8" r="6.5"></circle>
            <path d="M176,9.4 C176,9.8 175.6,10.1 175.1,10.1 C175,10.1 174.9,10.1 174.9,10 L170,8.2 C169.5,8 169.4,7.6 169.9,7.4 L176.1,3.8 C176.6,3.5 176.9,3.7 176.8,4.3 L176,9.4 Z" id="Shape" fill="#41423F" fill-rule="nonzero"></path>
            <path d="M167.4,15.9 C166.4,15.9 165.4,15.7 164.5,15.2 C162.5,14.2 161.3,12.2 161.3,10 C161.4,6.6 164.2,4 167.6,4 C170.1,4.1 172.4,5.7 173.2,8.1 L173.3,8 L175.4,9.1 C174.8,4.7 170.7,1.6 166.3,2.2 C162.4,2.8 159.4,6.1 159.3,10.1 C159.3,13 161,15.7 163.6,17.1 C164.8,17.7 166.1,18 167.4,18.1 C170,18.1 172.4,16.9 174,14.8 L172.2,13.9 C171,15.1 169.2,15.9 167.4,15.9 Z" id="Shape" fill="#41423F" fill-rule="nonzero"></path>
            <path d="M181.4,3.2 C182.2,3.2 182.9,3.9 182.9,4.7 C182.9,5.5 182.2,6.2 181.4,6.2 C180.6,6.2 179.9,5.5 179.9,4.7 C179.9,3.8 180.6,3.2 181.4,3.2 Z M186.5,3.2 L195,3.2 C195.9,3.2 196.5,3.9 196.5,4.7 C196.5,5.5 195.8,6.2 195,6.2 L186.5,6.2 C185.6,6.2 185,5.5 185,4.7 C184.9,3.8 185.6,3.2 186.5,3.2 Z M181.4,8.2 C182.2,8.2 182.9,8.9 182.9,9.7 C182.9,10.5 182.2,11.2 181.4,11.2 C180.6,11.2 179.9,10.5 179.9,9.7 C179.9,8.8 180.6,8.2 181.4,8.2 Z M186.5,8.2 L195,8.2 C195.9,8.2 196.5,8.9 196.5,9.7 C196.5,10.5 195.8,11.2 195,11.2 L186.5,11.2 C185.6,11.2 185,10.5 185,9.7 C184.9,8.8 185.6,8.2 186.5,8.2 Z M181.4,13.2 C182.2,13.2 182.9,13.9 182.9,14.7 C182.9,15.5 182.2,16.2 181.4,16.2 C180.6,16.2 179.9,15.5 179.9,14.7 C179.9,13.8 180.6,13.2 181.4,13.2 Z M186.5,13.2 L195,13.2 C195.9,13.2 196.5,13.9 196.5,14.7 C196.5,15.5 195.8,16.2 195,16.2 L186.5,16.2 C185.6,16.2 185,15.5 185,14.7 C184.9,13.8 185.6,13.2 186.5,13.2 Z" id="Shape" fill="#41423F" fill-rule="nonzero"></path>
        </g>
    </g>
</svg>