<?xml version="1.0" encoding="UTF-8"?>
<svg width="495px" height="299px" viewBox="0 0 495 299" version="1.1" xmlns="http://www.w3.org/2000/svg" xmlns:xlink="http://www.w3.org/1999/xlink">
    <!-- Generator: Sketch 51.2 (57519) - http://www.bohemiancoding.com/sketch -->
    <title>fondo-globos-2</title>
    <desc>Created with Sketch.</desc>
    <defs></defs>
    <g id="fondo-globos-2" stroke="none" stroke-width="1" fill="none" fill-rule="evenodd">
        <g id="Group-3-Copy-4" transform="translate(218.000000, 155.000000)" fill="#FFFFFF" stroke="#F6F6F6" stroke-linecap="round" stroke-width="2">
            <polygon id="Rectangle-4-Copy" points="27.2813101 85.0928616 43.242713 85.0928616 38.9922816 98.379792 31.5317414 98.379792"></polygon>
            <polygon id="Path" points="28.8507367 97.8567908 42.2075593 97.8567908 41.1786665 107.961568 29.8796294 107.961568"></polygon>
            <path d="M21.797925,79.2427273 C8.99367271,73.0128495 0,58.3332813 0,41.2168548 C0,18.4534145 15.9069414,0 35.529148,0 C55.1513546,0 71.058296,18.4534145 71.058296,41.2168548 C71.058296,58.3332813 62.0646233,73.0128495 49.260371,79.2427273 L21.797925,79.2427273 Z" id="Combined-Shape"></path>
            <ellipse id="Oval-12-Copy-2" cx="36.0634209" cy="40.9736328" rx="29.6521461" ry="40.9736328"></ellipse>
            <ellipse id="Oval-12-Copy-2" cx="36.3305573" cy="40.9736328" rx="15.4939142" ry="40.9736328"></ellipse>
            <polygon id="Rectangle-4" points="21.3709161 79.2427273 49.153107 79.2427273 42.9895958 85.0928616 27.5344273 85.0928616"></polygon>
        </g>
        <g id="Group-3-Copy-9" transform="translate(381.000000, 37.000000)" fill="#FFFFFF" stroke="#F6F6F6" stroke-linecap="round" stroke-width="2">
            <polygon id="Rectangle-4-Copy" points="14 45 22 45 19.8696452 52 16.1303548 52"></polygon>
            <polygon id="Path" points="15 52 22 52 21.4607813 57 15.5392188 57"></polygon>
            <path d="M11.6569239,42 C4.80956598,38.6980583 0,30.9176362 0,21.8456376 C0,9.7806251 8.50658975,0 19,0 C29.4934102,0 38,9.7806251 38,21.8456376 C38,30.9176362 33.190434,38.6980583 26.3430761,42 L11.6569239,42 Z" id="Combined-Shape"></path>
            <ellipse id="Oval-12-Copy-2" cx="18.5" cy="21.5" rx="15.5" ry="21.5"></ellipse>
            <ellipse id="Oval-12-Copy-2" cx="19" cy="21.5" rx="8" ry="21.5"></ellipse>
            <polygon id="Rectangle-4" points="11 42 26 42 22.6722327 45 14.3277673 45"></polygon>
        </g>
        <g id="Group-3-Copy-10" transform="translate(60.000000, 181.000000)" fill="#FFFFFF" stroke="#F6F6F6" stroke-linecap="round" stroke-width="2">
            <polygon id="Rectangle-4-Copy" points="14 45 22 45 19.8696452 52 16.1303548 52"></polygon>
            <polygon id="Path" points="15 52 22 52 21.4607813 57 15.5392188 57"></polygon>
            <path d="M11.6569239,42 C4.80956598,38.6980583 0,30.9176362 0,21.8456376 C0,9.7806251 8.50658975,0 19,0 C29.4934102,0 38,9.7806251 38,21.8456376 C38,30.9176362 33.190434,38.6980583 26.3430761,42 L11.6569239,42 Z" id="Combined-Shape"></path>
            <ellipse id="Oval-12-Copy-2" cx="18.5" cy="21.5" rx="15.5" ry="21.5"></ellipse>
            <ellipse id="Oval-12-Copy-2" cx="19" cy="21.5" rx="8" ry="21.5"></ellipse>
            <polygon id="Rectangle-4" points="11 42 26 42 22.6722327 45 14.3277673 45"></polygon>
        </g>
        <g id="Group-3-Copy-5" transform="translate(105.000000, 22.000000)" fill="#FFFFFF" stroke="#F6F6F6" stroke-linecap="round" stroke-width="2">
            <polygon id="Rectangle-4-Copy" points="27.2813101 85.0928616 43.242713 85.0928616 38.9922816 98.379792 31.5317414 98.379792"></polygon>
            <polygon id="Path" points="28.8507367 97.8567908 42.2075593 97.8567908 41.1786665 107.961568 29.8796294 107.961568"></polygon>
            <path d="M21.797925,79.2427273 C8.99367271,73.0128495 0,58.3332813 0,41.2168548 C0,18.4534145 15.9069414,0 35.529148,0 C55.1513546,0 71.058296,18.4534145 71.058296,41.2168548 C71.058296,58.3332813 62.0646233,73.0128495 49.260371,79.2427273 L21.797925,79.2427273 Z" id="Combined-Shape"></path>
            <ellipse id="Oval-12-Copy-2" cx="36.0634209" cy="40.9736328" rx="29.6521461" ry="40.9736328"></ellipse>
            <ellipse id="Oval-12-Copy-2" cx="36.3305573" cy="40.9736328" rx="15.4939142" ry="40.9736328"></ellipse>
            <polygon id="Rectangle-4" points="21.3709161 79.2427273 49.153107 79.2427273 42.9895958 85.0928616 27.5344273 85.0928616"></polygon>
        </g>
        <path d="M75.7191921,47 C74.6221565,44.9949262 74,42.7032483 74,40.2692308 C74,32.3885522 80.5219806,26 88.5672515,26 C95.5546745,26 101.393057,30.8189806 102.807594,37.2491345 C104.646612,36.093341 106.83404,35.4230769 109.181287,35.4230769 C115.708582,35.4230769 121,40.6062419 121,47 L75.7191921,47 Z" id="Combined-Shape" fill="#F6F6F6"></path>
        <g id="Group-3-Copy-6" transform="translate(392.000000, 173.000000)" fill="#FFFFFF" stroke="#F6F6F6" stroke-linecap="round" stroke-width="2">
            <polygon id="Rectangle-4-Copy" points="17.5925926 65.96 26.9259259 65.96 24.440512 73.76 20.0780065 73.76"></polygon>
            <polygon id="Path" points="19.1481481 73.76 26.4074074 73.76 25.8482176 80 19.707338 80"></polygon>
            <path d="M13.4350665,64.253581 C5.34284789,60.1883494 2.00091055e-11,50.7458186 2.00091055e-11,40.1536913 C2.00091055e-11,25.7453098 9.80577773,14 22,14 C34.1942223,14 44,25.7453098 44,40.1536913 C44,50.7458186 38.6571521,60.1883494 30.5649335,64.253581 L30.3530966,64.36 L13.6469034,64.36 L13.4350665,64.253581 Z" id="Combined-Shape"></path>
            <path d="M3.29222686,52.8872052 C8.71818452,53.6078339 14.9633923,54 21.9015466,54 C28.6883091,54 36.5907547,54.4141496 40.1704954,52.9339081" id="Oval-12-Copy-2"></path>
            <path d="M39.9714804,26.03861 C34.4054181,24.977755 28.4239924,24.36 22.6962948,24.36 C16.3765936,24.36 9.75797816,25.1120543 3.73607859,26.3815615 M0.55731413,43.4180151 C6.74457677,44.1973607 14.3043373,44.64 22.8307732,44.64 C30.4457343,44.64 37.2849657,44.2869385 43.0603761,43.6562783" id="Oval-12-Copy-2"></path>
            <polygon id="Rectangle-4" points="13.4444444 63.36 30.037037 63.36 26.3559512 66.48 17.1255303 66.48"></polygon>
        </g>
        <g id="Group-3-Copy-8" transform="translate(254.000000, 47.000000)" fill="#FFFFFF" stroke="#F6F6F6" stroke-linecap="round" stroke-width="2">
            <polygon id="Rectangle-4-Copy" points="15 43 23 43 20.8696452 50 17.1303548 50"></polygon>
            <polygon id="Path" points="16 50 23 50 22.4607813 55 16.5392188 55"></polygon>
            <path d="M11.281545,41.8904427 C4.48140155,38.4149645 0,30.3573168 0,21.3255034 C0,9.03427466 8.23426316,-1 18.5,-1 C28.7657368,-1 37,9.03427466 37,21.3255034 C37,30.3573168 32.5185984,38.4149645 25.718455,41.8904427 L25.5040944,42 L11.4959056,42 L11.281545,41.8904427 Z" id="Combined-Shape"></path>
            <path d="M3,32 C7.56107876,32.6179762 12.810822,32.9542789 18.6430585,32.9542789 C24.3480345,32.9542789 30.9908576,33.3094335 34,32.0400501" id="Oval-12-Copy-2"></path>
            <path d="M33.3837122,9.48989051 C28.6692697,8.54830327 23.6030152,8 18.7516679,8 C13.3988949,8 7.7929422,8.66750381 2.6924065,9.79428532 M0,24.915398 C5.24059785,25.6071248 11.6436984,26 18.8655709,26 C25.3154261,26 31.1082401,25.6866318 36,25.1268742" id="Oval-12-Copy-2"></path>
            <polygon id="Rectangle-4" points="11 41 25 41 21.8940838 43 14.1059162 43"></polygon>
        </g>
        <path d="M357.376668,133 C356.497504,131.293587 356,129.350327 356,127.288462 C356,120.501732 361.390102,115 368.03913,115 C373.7726,115 378.569977,119.090893 379.782446,124.569006 C381.328946,123.5526 383.178271,122.961538 385.165217,122.961538 C390.596818,122.961538 395,127.378422 395,132.826923 C395,132.884733 394.999504,132.942427 394.998517,133 L357.376668,133 Z" id="Combined-Shape-Copy-4" fill="#F6F6F6"></path>
        <path d="M299.376668,218 C298.497504,216.293587 298,214.350327 298,212.288462 C298,205.501732 303.390102,200 310.03913,200 C315.7726,200 320.569977,204.090893 321.782446,209.569006 C323.328946,208.5526 325.178271,207.961538 327.165217,207.961538 C332.596818,207.961538 337,212.378422 337,217.826923 C337,217.884733 336.999504,217.942427 336.998517,218 L299.376668,218 Z" id="Combined-Shape-Copy-5" fill="#F6F6F6"></path>
        <path d="M280.170514,68 C279.423596,66.6632841 279,65.1354989 279,63.5128205 C279,58.2590348 283.440497,54 288.918129,54 C293.675523,54 297.650592,57.2126538 298.613681,61.499423 C299.865778,60.728894 301.355091,60.2820513 302.953216,60.2820513 C307.397332,60.2820513 311,63.7374946 311,68 L280.170514,68 Z" id="Combined-Shape-Copy-3" fill="#F6F6F6" transform="translate(295.000000, 61.000000) scale(-1, 1) translate(-295.000000, -61.000000) "></path>
    </g>
</svg>