<?xml version="1.0" encoding="UTF-8"?>
<svg width="495px" height="299px" viewBox="0 0 495 299" version="1.1" xmlns="http://www.w3.org/2000/svg" xmlns:xlink="http://www.w3.org/1999/xlink">
    <!-- Generator: Sketch 51.2 (57519) - http://www.bohemiancoding.com/sketch -->
    <title>fondo-globos</title>
    <desc>Created with Sketch.</desc>
    <defs></defs>
    <g id="fondo-globos" stroke="none" stroke-width="1" fill="none" fill-rule="evenodd">
        <g id="Group-3-Copy-4" opacity="0.128738839" transform="translate(257.000000, 159.000000)" fill="#DDBE59" stroke="#FFFFFF" stroke-linecap="round" stroke-width="2">
            <polygon id="Rectangle-4-Copy" points="27.2813101 85.0928616 43.242713 85.0928616 38.9922816 98.379792 31.5317414 98.379792"></polygon>
            <polygon id="Path" points="28.8507367 97.8567908 42.2075593 97.8567908 41.1786665 107.961568 29.8796294 107.961568"></polygon>
            <path d="M21.797925,79.2427273 C8.99367271,73.0128495 0,58.3332813 0,41.2168548 C0,18.4534145 15.9069414,0 35.529148,0 C55.1513546,0 71.058296,18.4534145 71.058296,41.2168548 C71.058296,58.3332813 62.0646233,73.0128495 49.260371,79.2427273 L21.797925,79.2427273 Z" id="Combined-Shape"></path>
            <ellipse id="Oval-12-Copy-2" cx="36.0634209" cy="40.9736328" rx="29.6521461" ry="40.9736328"></ellipse>
            <ellipse id="Oval-12-Copy-2" cx="36.3305573" cy="40.9736328" rx="15.4939142" ry="40.9736328"></ellipse>
            <polygon id="Rectangle-4" points="21.3709161 79.2427273 49.153107 79.2427273 42.9895958 85.0928616 27.5344273 85.0928616"></polygon>
        </g>
        <g id="Group-3-Copy-8" opacity="0.128738839" transform="translate(162.000000, 21.000000)" fill="#DDBE59" stroke="#FFFFFF" stroke-linecap="round" stroke-width="2">
            <polygon id="Rectangle-4-Copy" points="27.2813101 85.0928616 43.242713 85.0928616 38.9922816 98.379792 31.5317414 98.379792"></polygon>
            <polygon id="Path" points="28.8507367 97.8567908 42.2075593 97.8567908 41.1786665 107.961568 29.8796294 107.961568"></polygon>
            <path d="M21.797925,79.2427273 C8.99367271,73.0128495 0,58.3332813 0,41.2168548 C0,18.4534145 15.9069414,0 35.529148,0 C55.1513546,0 71.058296,18.4534145 71.058296,41.2168548 C71.058296,58.3332813 62.0646233,73.0128495 49.260371,79.2427273 L21.797925,79.2427273 Z" id="Combined-Shape"></path>
            <ellipse id="Oval-12-Copy-2" cx="36.0634209" cy="40.9736328" rx="29.6521461" ry="40.9736328"></ellipse>
            <ellipse id="Oval-12-Copy-2" cx="36.3305573" cy="40.9736328" rx="15.4939142" ry="40.9736328"></ellipse>
            <polygon id="Rectangle-4" points="21.3709161 79.2427273 49.153107 79.2427273 42.9895958 85.0928616 27.5344273 85.0928616"></polygon>
        </g>
        <path d="M75.7191921,47 C74.6221565,44.9949262 74,42.7032483 74,40.2692308 C74,32.3885522 80.5219806,26 88.5672515,26 C95.5546745,26 101.393057,30.8189806 102.807594,37.2491345 C104.646612,36.093341 106.83404,35.4230769 109.181287,35.4230769 C115.708582,35.4230769 121,40.6062419 121,47 L75.7191921,47 Z" id="Combined-Shape" fill="#FFF0C1" opacity="0.128738839"></path>
        <g id="Group-3-Copy" opacity="0.128738839" transform="translate(301.000000, 38.000000)" fill="#DDBE59" stroke="#FFFFFF" stroke-linecap="round" stroke-width="2">
            <polygon id="Rectangle-4-Copy" points="17.5925926 50.96 26.9259259 50.96 24.440512 58.76 20.0780065 58.76"></polygon>
            <polygon id="Path" points="19.1481481 58.76 26.4074074 58.76 25.8482176 65 19.707338 65"></polygon>
            <path d="M13.4350665,49.253581 C5.34284789,45.1883494 2.00091055e-11,35.7458186 2.00091055e-11,25.1536913 C2.00091055e-11,10.7453098 9.80577773,-1 22,-1 C34.1942223,-1 44,10.7453098 44,25.1536913 C44,35.7458186 38.6571521,45.1883494 30.5649335,49.253581 L30.3530966,49.36 L13.6469034,49.36 L13.4350665,49.253581 Z" id="Combined-Shape"></path>
            <path d="M34.4895754,2.76253553 C29.9089855,1.00840149 25.6368351,1.69691589e-15 22.1939121,0 C19.143759,0 15.4309174,0.791447588 11.4202385,2.19170452 C2.11027829,5.44211091 -1.16081192,26.4201495 3.29222686,37.8872052 C8.71818452,38.6078339 14.9633923,39 21.9015466,39 C28.6883091,39 36.5907547,39.4141496 40.1704954,37.9339081 C45.8050796,26.2118533 41.6451991,9.79488527 34.4895754,2.76253553 Z" id="Oval-12-Copy-2"></path>
            <path d="M39.9714804,11.03861 C34.4054181,9.97775502 28.4239924,9.36 22.6962948,9.36 C16.3765936,9.36 9.75797816,10.1120543 3.73607859,11.3815615 C1.08272246,18.3926269 0.925655652,21.3896402 0.55731413,28.4180151 C6.74457677,29.1973607 14.3043373,29.64 22.8307732,29.64 C30.4457343,29.64 37.2849657,29.2869385 43.0603761,28.6562783 C43.4918193,20.4238516 43.6439299,17.5214078 39.9714804,11.03861 Z" id="Oval-12-Copy-2"></path>
            <polygon id="Rectangle-4" points="13.4444444 48.36 30.037037 48.36 26.3559512 51.48 17.1255303 51.48"></polygon>
        </g>
        <g id="Group-3-Copy-3" opacity="0.128738839" transform="translate(19.000000, 64.000000)" fill="#DDBE59" stroke="#FFFFFF" stroke-linecap="round" stroke-width="2">
            <polygon id="Rectangle-4-Copy" points="17.5925926 50.96 26.9259259 50.96 24.440512 58.76 20.0780065 58.76"></polygon>
            <polygon id="Path" points="19.1481481 58.76 26.4074074 58.76 25.8482176 65 19.707338 65"></polygon>
            <path d="M13.4350665,49.253581 C5.34284789,45.1883494 2.00091055e-11,35.7458186 2.00091055e-11,25.1536913 C2.00091055e-11,10.7453098 9.80577773,-1 22,-1 C34.1942223,-1 44,10.7453098 44,25.1536913 C44,35.7458186 38.6571521,45.1883494 30.5649335,49.253581 L30.3530966,49.36 L13.6469034,49.36 L13.4350665,49.253581 Z" id="Combined-Shape"></path>
            <path d="M34.4895754,2.76253553 C29.9089855,1.00840149 25.6368351,1.69691589e-15 22.1939121,0 C19.143759,0 15.4309174,0.791447588 11.4202385,2.19170452 C2.11027829,5.44211091 -1.16081192,26.4201495 3.29222686,37.8872052 C8.71818452,38.6078339 14.9633923,39 21.9015466,39 C28.6883091,39 36.5907547,39.4141496 40.1704954,37.9339081 C45.8050796,26.2118533 41.6451991,9.79488527 34.4895754,2.76253553 Z" id="Oval-12-Copy-2"></path>
            <path d="M39.9714804,11.03861 C34.4054181,9.97775502 28.4239924,9.36 22.6962948,9.36 C16.3765936,9.36 9.75797816,10.1120543 3.73607859,11.3815615 C1.08272246,18.3926269 0.925655652,21.3896402 0.55731413,28.4180151 C6.74457677,29.1973607 14.3043373,29.64 22.8307732,29.64 C30.4457343,29.64 37.2849657,29.2869385 43.0603761,28.6562783 C43.4918193,20.4238516 43.6439299,17.5214078 39.9714804,11.03861 Z" id="Oval-12-Copy-2"></path>
            <polygon id="Rectangle-4" points="13.4444444 48.36 30.037037 48.36 26.3559512 51.48 17.1255303 51.48"></polygon>
        </g>
        <g id="Group-3-Copy-6" opacity="0.128738839" transform="translate(394.000000, 181.000000)" fill="#DDBE59" stroke="#FFFFFF" stroke-linecap="round" stroke-width="2">
            <polygon id="Rectangle-4-Copy" points="17.5925926 50.96 26.9259259 50.96 24.440512 58.76 20.0780065 58.76"></polygon>
            <polygon id="Path" points="19.1481481 58.76 26.4074074 58.76 25.8482176 65 19.707338 65"></polygon>
            <path d="M13.4350665,49.253581 C5.34284789,45.1883494 2.00091055e-11,35.7458186 2.00091055e-11,25.1536913 C2.00091055e-11,10.7453098 9.80577773,-1 22,-1 C34.1942223,-1 44,10.7453098 44,25.1536913 C44,35.7458186 38.6571521,45.1883494 30.5649335,49.253581 L30.3530966,49.36 L13.6469034,49.36 L13.4350665,49.253581 Z" id="Combined-Shape"></path>
            <path d="M34.4895754,2.76253553 C29.9089855,1.00840149 25.6368351,1.69691589e-15 22.1939121,0 C19.143759,0 15.4309174,0.791447588 11.4202385,2.19170452 C2.11027829,5.44211091 -1.16081192,26.4201495 3.29222686,37.8872052 C8.71818452,38.6078339 14.9633923,39 21.9015466,39 C28.6883091,39 36.5907547,39.4141496 40.1704954,37.9339081 C45.8050796,26.2118533 41.6451991,9.79488527 34.4895754,2.76253553 Z" id="Oval-12-Copy-2"></path>
            <path d="M39.9714804,11.03861 C34.4054181,9.97775502 28.4239924,9.36 22.6962948,9.36 C16.3765936,9.36 9.75797816,10.1120543 3.73607859,11.3815615 C1.08272246,18.3926269 0.925655652,21.3896402 0.55731413,28.4180151 C6.74457677,29.1973607 14.3043373,29.64 22.8307732,29.64 C30.4457343,29.64 37.2849657,29.2869385 43.0603761,28.6562783 C43.4918193,20.4238516 43.6439299,17.5214078 39.9714804,11.03861 Z" id="Oval-12-Copy-2"></path>
            <polygon id="Rectangle-4" points="13.4444444 48.36 30.037037 48.36 26.3559512 51.48 17.1255303 51.48"></polygon>
        </g>
        <path d="M357.376668,133 C356.497504,131.293587 356,129.350327 356,127.288462 C356,120.501732 361.390102,115 368.03913,115 C373.7726,115 378.569977,119.090893 379.782446,124.569006 C381.328946,123.5526 383.178271,122.961538 385.165217,122.961538 C390.596818,122.961538 395,127.378422 395,132.826923 C395,132.884733 394.999504,132.942427 394.998517,133 L357.376668,133 Z" id="Combined-Shape-Copy-4" fill="#FFF0C1" opacity="0.248549107"></path>
        <path d="M202.376668,267 C201.497504,265.293587 201,263.350327 201,261.288462 C201,254.501732 206.390102,249 213.03913,249 C218.7726,249 223.569977,253.090893 224.782446,258.569006 C226.328946,257.5526 228.178271,256.961538 230.165217,256.961538 C235.596818,256.961538 240,261.378422 240,266.826923 C240,266.884733 239.999504,266.942427 239.998517,267 L202.376668,267 Z" id="Combined-Shape-Copy-5" fill="#FFF0C1" opacity="0.248549107"></path>
        <g id="Group-3-Copy-2" opacity="0.128738839" transform="translate(444.000000, 65.000000)" fill="#DDBE59" stroke="#FFFFFF" stroke-linecap="round" stroke-width="2">
            <polygon id="Rectangle-4" points="10.8088235 38.7307692 24.7058824 38.7307692 21.6228038 40.2596154 13.8919021 40.2596154"></polygon>
            <polygon id="Rectangle-4-Copy" points="13.3823529 40.2596154 21.6176471 40.2596154 19.4246348 48.4134615 15.5753652 48.4134615"></polygon>
            <polygon id="Path" points="14.4117647 47.9038462 21.1029412 47.9038462 20.5875115 53 14.9271944 53"></polygon>
            <path d="M10.7366404,38.7307692 C4.42986341,35.6858468 0,28.5110436 0,20.1451988 C0,9.0193127 7.83501688,0 17.5,0 C27.1649831,0 35,9.0193127 35,20.1451988 C35,28.5110436 30.5701366,35.6858468 24.2633596,38.7307692 L10.7366404,38.7307692 Z" id="Combined-Shape"></path>
            <ellipse id="Oval-12-Copy-2" cx="17.7573529" cy="20.1298077" rx="14.6691176" ry="20.1298077"></ellipse>
            <ellipse id="Oval-12-Copy-2" cx="18.0147059" cy="20.1298077" rx="7.72058824" ry="20.1298077"></ellipse>
        </g>
        <g id="Group-3-Copy-5" opacity="0.128738839" transform="translate(88.000000, 193.000000)" fill="#DDBE59" stroke="#FFFFFF" stroke-linecap="round" stroke-width="2">
            <polygon id="Rectangle-4" points="10.8088235 38.7307692 24.7058824 38.7307692 21.6228038 40.2596154 13.8919021 40.2596154"></polygon>
            <polygon id="Rectangle-4-Copy" points="13.3823529 40.2596154 21.6176471 40.2596154 19.4246348 48.4134615 15.5753652 48.4134615"></polygon>
            <polygon id="Path" points="14.4117647 47.9038462 21.1029412 47.9038462 20.5875115 53 14.9271944 53"></polygon>
            <path d="M10.7366404,38.7307692 C4.42986341,35.6858468 0,28.5110436 0,20.1451988 C0,9.0193127 7.83501688,0 17.5,0 C27.1649831,0 35,9.0193127 35,20.1451988 C35,28.5110436 30.5701366,35.6858468 24.2633596,38.7307692 L10.7366404,38.7307692 Z" id="Combined-Shape"></path>
            <ellipse id="Oval-12-Copy-2" cx="17.7573529" cy="20.1298077" rx="14.6691176" ry="20.1298077"></ellipse>
            <ellipse id="Oval-12-Copy-2" cx="18.0147059" cy="20.1298077" rx="7.72058824" ry="20.1298077"></ellipse>
        </g>
        <path d="M280.170514,68 C279.423596,66.6632841 279,65.1354989 279,63.5128205 C279,58.2590348 283.440497,54 288.918129,54 C293.675523,54 297.650592,57.2126538 298.613681,61.499423 C299.865778,60.728894 301.355091,60.2820513 302.953216,60.2820513 C307.397332,60.2820513 311,63.7374946 311,68 L280.170514,68 Z" id="Combined-Shape-Copy-3" fill="#FFF0C1" opacity="0.248549107" transform="translate(295.000000, 61.000000) scale(-1, 1) translate(-295.000000, -61.000000) "></path>
    </g>
</svg>