<?xml version="1.0" encoding="UTF-8"?>
<svg width="34px" height="26px" viewBox="0 0 34 26" version="1.1" xmlns="http://www.w3.org/2000/svg" xmlns:xlink="http://www.w3.org/1999/xlink">
    <!-- Generator: Sketch 50.2 (55047) - http://www.bohemiancoding.com/sketch -->
    <title>frog</title>
    <desc>Created with Sketch.</desc>
    <defs></defs>
    <g id="metafora" stroke="none" stroke-width="1" fill="none" fill-rule="evenodd">
        <g id="Desktop-HD" transform="translate(-1231.000000, -969.000000)" fill="#FFFFFF" fill-rule="nonzero">
            <g id="frog" transform="translate(1231.000000, 969.000000)">
                <path d="M26.3576931,3.79727679 C25.9527636,1.63834821 24.0355462,0 21.7222535,0 C19.4065997,0 17.4887921,1.64183036 17.0862237,3.80366071 C7.48183844,4.69857143 -0.0294271373,12.65875 8.66763311e-05,22.3425893 C0.00657971533,24.3691964 1.71661008,26 3.77785482,26 L21.7222535,26 C22.2440577,26 22.6666956,25.5844643 22.6666956,25.0714286 C22.6666956,24.0459375 21.8208297,23.2142857 20.7778115,23.2142857 L16.0857054,23.2142857 L18.1988944,20.4094196 C19.6238214,18.3067857 18.8098304,15.2860268 16.2090731,14.2228125 C14.7989031,13.6465179 13.1661989,13.9529464 11.9449173,14.8542411 L10.0111723,16.2813393 C9.59443722,16.5895089 9.00239012,16.5082589 8.68836314,16.0962054 C8.37551671,15.6853125 8.45933594,15.1032143 8.87666127,14.795625 L10.9296421,13.2814732 C13.1042199,11.6762054 16.1406011,11.6785268 18.3157692,13.2814732 C18.9573995,13.7544643 21.0233664,15.5483482 20.7240963,18.6909821 L27.720641,26 L33.055558,26 C33.5773622,26 34,25.5844643 34,25.0714286 C34,24.0459375 33.1541341,23.2142857 32.1111159,23.2142857 L28.9454643,23.2142857 L23.1300624,17.1391071 L32.2462892,12.1103125 C33.3294456,11.5130323 34.0000736,10.3871735 34,9.16616071 C34,7.92419643 33.3081962,6.78959821 32.2008379,6.19299107 C29.8066774,4.9034375 26.3576931,3.79727679 26.3576931,3.79727679 Z M21.5,6 C20.67125,6 20,5.328125 20,4.5 C20,3.67125 20.67125,3 21.5,3 C22.328125,3 23,3.67125 23,4.5 C23,5.328125 22.328125,6 21.5,6 Z" id="Shape"></path>
            </g>
        </g>
    </g>
</svg>