<?xml version="1.0" encoding="UTF-8"?>
<svg width="36px" height="30px" viewBox="0 0 36 30" version="1.1" xmlns="http://www.w3.org/2000/svg" xmlns:xlink="http://www.w3.org/1999/xlink">
    <!-- Generator: Sketch 48.2 (47327) - http://www.bohemiancoding.com/sketch -->
    <title>h-icon</title>
    <desc>Created with Sketch.</desc>
    <defs></defs>
    <g id="Desktop-HD" stroke="none" stroke-width="1" fill="none" fill-rule="evenodd" transform="translate(-631.000000, -630.000000)">
        <g id="h-icon" transform="translate(631.000000, 632.000000)">
            <path d="M5.45262149,7.89645109 C5.02224994,6.99297771 4.78995449,5.95045525 4.78995449,4.86666667 C4.78995449,1.67847733 6.8048759,-1 9.45097143,-1 C10.8677306,-1 12.1356027,-0.219886317 12.9913525,1.03656875 L13.3322059,0.726408516 L13.6310645,0.680890134 C15.0659038,0.462353423 16.5228412,0.351851852 17.9933443,0.351851852 C19.4086823,0.351851852 20.8114533,0.454218123 22.1940496,0.65675153 C23.0396533,-0.380912981 24.1908356,-1 25.4509714,-1 C28.097067,-1 30.1119884,1.67847733 30.1119884,4.86666667 C30.1119884,5.67075554 29.984361,6.45316546 29.7410057,7.17480332 L34.9598098,11.9236639 L34.8791812,12.4532608 C34.7254254,13.4631826 34.4817526,14.4524152 34.1520277,15.4116147 L34.0687763,15.6538003 L22.2445632,26.4132652 L21.9960395,26.4734512 C20.6778082,26.7926928 19.3184498,26.9555556 17.938505,26.9555556 C16.6135925,26.9555556 15.3075635,26.8054251 14.0385434,26.5108207 L13.7845299,26.4518511 L1.7556592,15.5061578 L1.67311512,15.2583499 C1.37942584,14.3766567 1.15814826,13.4702092 1.01223881,12.5461844 L0.928128057,12.0135223 L5.45262149,7.89645109 Z" id="Combined-Shape" stroke="#41423F" stroke-width="2" stroke-linecap="round" stroke-linejoin="round"></path>
            <path d="M19.9008724,9.68740787 C20.2057291,9.54347397 20.5465865,9.46296296 20.9063051,9.46296296 C22.2052787,9.46296296 23.258305,10.5128204 23.258305,11.8078851 C23.258305,11.8449401 23.2574429,11.8817944 23.2557376,11.9184291 C22.950881,12.062363 22.6100236,12.142874 22.250305,12.142874 C20.9513313,12.142874 19.8983051,11.0930166 19.8983051,9.79795184 C19.8983051,9.76089682 19.8991672,9.72404255 19.9008724,9.68740787 Z" id="Combined-Shape" fill="#41423F"></path>
            <path d="M13.4725381,9.68740787 C13.7773947,9.54347397 14.1182521,9.46296296 14.4779707,9.46296296 C15.7769444,9.46296296 16.8299706,10.5128204 16.8299706,11.8078851 C16.8299706,11.8449401 16.8291085,11.8817944 16.8274032,11.9184291 C16.5225466,12.062363 16.1816892,12.142874 15.8219706,12.142874 C14.5229969,12.142874 13.4699707,11.0930166 13.4699707,9.79795184 C13.4699707,9.76089682 13.4708328,9.72404255 13.4725381,9.68740787 Z" id="Combined-Shape-Copy" fill="#41423F" transform="translate(15.149971, 10.802918) scale(-1, 1) translate(-15.149971, -10.802918) "></path>
            <ellipse id="Oval" stroke="#41423F" stroke-width="2" fill="#41423F" stroke-linecap="round" stroke-linejoin="round" cx="8.50847458" cy="6.21851852" rx="2.0024564" ry="1.88703704"></ellipse>
            <ellipse id="Oval-Copy" stroke="#41423F" stroke-width="2" fill="#41423F" stroke-linecap="round" stroke-linejoin="round" cx="26.4067797" cy="6.21851852" rx="2.06312945" ry="1.94421296"></ellipse>
            <path d="M35,13 L28,16.0566931 C25.0900866,16.5591383 20.8919975,18 18.0181409,18 C14.826426,18 10.2862053,16.6958255 7,16.0566931 C5.34564065,15.7349376 3.26486734,15.0871686 0.757680085,14.1133861" id="Combined-Shape" stroke="#41423F" stroke-linecap="round" stroke-linejoin="round"></path>
        </g>
    </g>
</svg>