<?xml version="1.0" encoding="UTF-8"?>
<svg width="92px" height="59px" viewBox="0 0 92 59" version="1.1" xmlns="http://www.w3.org/2000/svg" xmlns:xlink="http://www.w3.org/1999/xlink">
    <!-- Generator: Sketch 50.2 (55047) - http://www.bohemiancoding.com/sketch -->
    <title>icono2</title>
    <desc>Created with Sketch.</desc>
    <defs></defs>
    <g id="interfaz-2.1" stroke="none" stroke-width="1" fill="none" fill-rule="evenodd">
        <g id="Desktop-HD-home" transform="translate(-571.000000, -603.000000)" stroke="#FFFFFF" stroke-width="2">
            <g id="modulo2-boton-copy-2" transform="translate(549.000000, 555.000000)">
                <g id="icono2" transform="translate(21.000000, 43.000000)">
                    <g id="tijeras" transform="translate(29.637027, 27.913534) rotate(52.000000) translate(-29.637027, -27.913534) translate(14.137027, 2.413534)" stroke-linecap="round" stroke-linejoin="round">
                        <path d="M19.9080161,46.9661485 L19.8771716,47.1029688 L19.6828148,46.4791644 C19.4058747,45.8350911 19.1879432,45.1420891 19.0392244,44.4135068 L18.7673956,43.5410493 L8.36445905,10.1464491 C6.33146881,4.73275202 6.33800542,1.28434152 8.85594039,-0.0259479019 L9.85651898,-0.546631544 L10.2535594,0.509127834 C12.3763943,6.15389988 16.1758641,17.7589717 21.6587129,35.3424066 C22.4855606,34.6737445 23.4476574,34.2626359 24.4872192,34.1716861 C28.0864358,33.8567954 31.1901177,37.4374681 31.591665,42.0271755 C31.9932124,46.6168828 29.5584597,50.6821058 25.9592431,50.9969964 C23.4540837,51.2161695 21.1889894,49.5481117 19.9080161,46.9661485 Z M25.6351955,47.2931161 C27.0000266,47.1737089 28.1362213,45.0181679 27.902779,42.3499112 C27.6693368,39.6816544 26.1760978,37.7561591 24.8112667,37.8755663 C23.4464356,37.9949736 22.310241,40.1505146 22.5436832,42.8187713 C22.7771254,45.4870281 24.2703645,47.4125234 25.6351955,47.2931161 Z M12.3244967,44.4135066 C12.1757779,45.142089 11.9578464,45.835091 11.6809063,46.4791644 L11.4865495,47.1029688 L11.455705,46.9661485 C10.1747317,49.5481117 7.9096374,51.2161695 5.40447803,50.9969964 C1.80526136,50.6821058 -0.629491284,46.6168828 -0.227943922,42.0271755 C0.173603439,37.4374681 3.27728528,33.8567954 6.87650194,34.1716861 C7.91606372,34.2626359 8.87816052,34.6737445 9.70500824,35.3424066 C15.187857,17.7589717 18.9873268,6.15389988 21.1101617,0.509127834 L21.5072021,-0.546631544 L22.5077807,-0.0259479019 C25.0257157,1.28434152 25.0322523,4.73275202 23.0178285,10.0923562 L12.3244967,44.4135066 Z M5.72852556,47.2931161 C7.09335665,47.4125234 8.58659568,45.4870281 8.8200379,42.8187713 C9.05348012,40.1505146 7.9172855,37.9949736 6.55245441,37.8755663 C5.18762332,37.7561591 3.69438428,39.6816544 3.46094207,42.3499112 C3.22749985,45.0181679 4.36369447,47.1737089 5.72852556,47.2931161 Z" id="Combined-Shape"></path>
                    </g>
                    <path d="M57.4987475,28.3482091 L58.1776352,29.7773014 L46.5974723,29.7773014 C45.1228037,29.7773014 44.563741,29.8852614 43.9876093,30.19338 C43.5100259,30.4487944 43.1411948,30.8176255 42.8857805,31.2952089 C42.5776618,31.8713406 42.4697019,32.4304033 42.4697019,33.9050718 L42.4697019,54.9952044 C42.4697019,56.4698729 42.5776618,57.0289356 42.8857805,57.6050673 C43.1411948,58.0826507 43.5100259,58.4514818 43.9876093,58.7068962 C44.563741,59.0150148 45.1228037,59.1229748 46.5974723,59.1229748 L85.8350999,59.1229748 C87.3097684,59.1229748 87.8688311,59.0150148 88.4449628,58.7068962 C88.9225462,58.4514818 89.2913773,58.0826507 89.5467917,57.6050673 C89.8549103,57.0289356 89.9628703,56.4698729 89.9628703,54.9952044 L89.9628703,33.9050718 C89.9628703,32.4304033 89.8549103,31.8713406 89.5467917,31.2952089 C89.2913773,30.8176255 88.9225462,30.4487944 88.4449628,30.19338 C87.8688311,29.8852614 87.3097684,29.7773014 85.8350999,29.7773014 L73.4300508,29.7773014 L74.1089385,28.3482091 C74.2276625,28.0982891 74.2900336,27.8245562 74.2900336,27.5399722 C74.2900336,26.4977549 73.4451495,25.6528707 72.4029321,25.6528707 L59.2047539,25.6528707 C58.1625365,25.6528707 57.3176524,26.4977549 57.3176524,27.5399722 C57.3176524,27.8245562 57.3800235,28.0982891 57.4987475,28.3482091 Z M66.6287291,55.3487718 C60.3817939,55.3487718 55.3176524,50.2846302 55.3176524,44.037695 C55.3176524,37.7907598 60.3817939,32.7266183 66.6287291,32.7266183 C72.8756643,32.7266183 77.9398059,37.7907598 77.9398059,44.037695 C77.9398059,50.2846302 72.8756643,55.3487718 66.6287291,55.3487718 Z M66.6287291,50.8741134 C70.4043787,50.8741134 73.4651475,47.8133446 73.4651475,44.037695 C73.4651475,40.2620455 70.4043787,37.2012767 66.6287291,37.2012767 C62.8530795,37.2012767 59.7923108,40.2620455 59.7923108,44.037695 C59.7923108,47.8133446 62.8530795,50.8741134 66.6287291,50.8741134 Z M49.6742863,34.0726767 L51.4227001,34.0726767 C52.8561042,34.0726767 54.0181078,35.2346803 54.0181078,36.6680844 C54.0181078,38.1014885 52.8561042,39.2634921 51.4227001,39.2634921 L49.6742863,39.2634921 C48.2408822,39.2634921 47.0788786,38.1014885 47.0788786,36.6680844 C47.0788786,35.2346803 48.2408822,34.0726767 49.6742863,34.0726767 Z" id="Combined-Shape" transform="translate(66.216286, 42.387923) rotate(-9.000000) translate(-66.216286, -42.387923) "></path>
                </g>
            </g>
        </g>
    </g>
</svg>