<?xml version="1.0" encoding="utf-8"?><svg id="icono3" image-rendering="auto" baseProfile="basic" version="1.1" x="0px" y="0px" width="120" height="120" xmlns="http://www.w3.org/2000/svg" xmlns:xlink="http://www.w3.org/1999/xlink"><g id="Scene-1" overflow="visible"><g display="none"><path id="Layer76_0_1_STROKES" stroke="#FFF" stroke-width="2" stroke-linejoin="round" stroke-linecap="square" fill="none" d="M29 88.35Q52.35 88.25 64.35 88.25 76.3 88.25 100 88.35"/><animate attributeName="display" repeatCount="indefinite" dur="4.167s" keyTimes="0;.95;1" values="none;inline;inline"/></g><g display="none"><path id="Layer75_0_1_STROKES" stroke="#FFF" stroke-width="2" stroke-linejoin="round" stroke-linecap="square" fill="none" d="M29 88.3Q52.25 91.85 64.25 91.85 76.2 91.85 100 88.3"/><animate attributeName="display" repeatCount="indefinite" dur="4.167s" keyTimes="0;.94;.95;1" values="none;inline;none;none"/></g><g display="none"><path id="Layer73_0_1_STROKES" stroke="#FFF" stroke-width="2" stroke-linejoin="round" stroke-linecap="square" fill="none" d="M29 88.35Q52.2 92 64.2 92 76.15 92 100 88.35"/><animate attributeName="display" repeatCount="indefinite" dur="4.167s" keyTimes="0;.92;.93;1" values="none;inline;none;none"/></g><g display="none"><path id="Layer72_0_1_STROKES" stroke="#FFF" stroke-width="2" stroke-linejoin="round" stroke-linecap="square" fill="none" d="M29 88.35Q52.25 88.5 64.25 88.5 76.2 88.5 100 88.35"/><animate attributeName="display" repeatCount="indefinite" dur="4.167s" keyTimes="0;.91;.92;1" values="none;inline;none;none"/></g><g display="none"><path id="Layer71_0_1_STROKES" stroke="#FFF" stroke-width="2" stroke-linejoin="round" stroke-linecap="square" fill="none" d="M29 88.35Q52.25 85 64.25 85 76.2 85 100 88.35"/><animate attributeName="display" repeatCount="indefinite" dur="4.167s" keyTimes="0;.9;.91;1" values="none;inline;none;none"/></g><g display="none"><path id="Layer69_0_1_STROKES" stroke="#FFF" stroke-width="2" stroke-linejoin="round" stroke-linecap="square" fill="none" d="M29 88.35Q52.25 81.55 64.25 81.55 76.2 81.55 100 88.35"/><animate attributeName="display" repeatCount="indefinite" dur="4.167s" keyTimes="0;.88;.89;1" values="none;inline;none;none"/></g><g display="none"><path id="Layer68_0_1_STROKES" stroke="#FFF" stroke-width="2" stroke-linejoin="round" stroke-linecap="square" fill="none" d="M29 88.35Q52.25 81.65 64.25 81.65 76.2 81.65 100 88.35"/><animate attributeName="display" repeatCount="indefinite" dur="4.167s" keyTimes="0;.87;.88;1" values="none;inline;none;none"/></g><g display="none"><path id="Layer67_0_1_STROKES" stroke="#FFF" stroke-width="2" stroke-linejoin="round" stroke-linecap="square" fill="none" d="M29 88.35Q52.25 81.7 64.25 81.7 76.2 81.7 100 88.35"/><animate attributeName="display" repeatCount="indefinite" dur="4.167s" keyTimes="0;.86;.87;1" values="none;inline;none;none"/></g><g display="none"><path id="Layer66_0_1_STROKES" stroke="#FFF" stroke-width="2" stroke-linejoin="round" stroke-linecap="square" fill="none" d="M29 88.35Q52.2 81.75 64.2 81.75 76.15 81.75 100 88.35"/><animate attributeName="display" repeatCount="indefinite" dur="4.167s" keyTimes="0;.85;.86;1" values="none;inline;none;none"/></g><g display="none"><path id="Layer65_0_1_STROKES" stroke="#FFF" stroke-width="2" stroke-linejoin="round" stroke-linecap="square" fill="none" d="M29 88.3Q52.2 81.8 64.2 81.8 76.15 81.8 100 88.3"/><animate attributeName="display" repeatCount="indefinite" dur="4.167s" keyTimes="0;.84;.85;1" values="none;inline;none;none"/></g><g display="none"><path id="Layer58_0_1_STROKES" stroke="#FFF" stroke-width="2" stroke-linejoin="round" stroke-linecap="square" fill="none" d="M29 88.3Q52 83.35 64 83.35 75.95 83.35 100 88.3"/><animate attributeName="display" repeatCount="indefinite" dur="4.167s" keyTimes="0;.23;.79;1" values="none;inline;none;none"/></g><g display="none"><path id="Layer57_0_1_STROKES" stroke="#FFF" stroke-width="2" stroke-linejoin="round" stroke-linecap="square" fill="none" d="M29 88.35Q52.05 83.1 64.05 83.1 76 83.1 100 88.35"/><animate attributeName="display" repeatCount="indefinite" dur="4.167s" keyTimes="0;.22;.23;.79;.8;1" values="none;inline;none;inline;none;none"/></g><g display="none"><path id="Layer56_0_1_STROKES" stroke="#FFF" stroke-width="2" stroke-linejoin="round" stroke-linecap="square" fill="none" d="M29 88.35Q52.05 82.8 64.05 82.8 76 82.8 100 88.35"/><animate attributeName="display" repeatCount="indefinite" dur="4.167s" keyTimes="0;.21;.22;.8;.81;1" values="none;inline;none;inline;none;none"/></g><g display="none"><path id="Layer55_0_1_STROKES" stroke="#FFF" stroke-width="2" stroke-linejoin="round" stroke-linecap="square" fill="none" d="M29 88.35Q52.1 82.5 64.1 82.5 76.05 82.5 100 88.35"/><animate attributeName="display" repeatCount="indefinite" dur="4.167s" keyTimes="0;.2;.21;.81;.82;1" values="none;inline;none;inline;none;none"/></g><g display="none"><path id="Layer54_0_1_STROKES" stroke="#FFF" stroke-width="2" stroke-linejoin="round" stroke-linecap="square" fill="none" d="M29 88.35Q52.1 82.2 64.1 82.2 76.05 82.2 100 88.35"/><animate attributeName="display" repeatCount="indefinite" dur="4.167s" keyTimes="0;.19;.2;.82;.83;1" values="none;inline;none;inline;none;none"/></g><g display="none"><path id="Layer53_0_1_STROKES" stroke="#FFF" stroke-width="2" stroke-linejoin="round" stroke-linecap="square" fill="none" d="M29 88.3Q52.15 81.85 64.15 81.85 76.1 81.85 100 88.3"/><animate attributeName="display" repeatCount="indefinite" dur="4.167s" keyTimes="0;.18;.19;.83;.84;1" values="none;inline;none;inline;none;none"/></g><g display="none"><path id="Layer52_0_1_STROKES" stroke="#FFF" stroke-width="2" stroke-linejoin="round" stroke-linecap="square" fill="none" d="M29 88.3Q52.15 83.3 64.15 83.3 76.1 83.3 100 88.3"/><animate attributeName="display" repeatCount="indefinite" dur="4.167s" keyTimes="0;.17;.18;1" values="none;inline;none;none"/></g><g display="none"><path id="Layer51_0_1_STROKES" stroke="#FFF" stroke-width="2" stroke-linejoin="round" stroke-linecap="square" fill="none" d="M29 88.35Q52.15 84.8 64.15 84.8 76.1 84.8 100 88.35"/><animate attributeName="display" repeatCount="indefinite" dur="4.167s" keyTimes="0;.16;.17;1" values="none;inline;none;none"/></g><g display="none"><path id="Layer50_0_1_STROKES" stroke="#FFF" stroke-width="2" stroke-linejoin="round" stroke-linecap="square" fill="none" d="M29 88.35Q52.15 86.25 64.15 86.25 76.1 86.25 100 88.35"/><animate attributeName="display" repeatCount="indefinite" dur="4.167s" keyTimes="0;.15;.16;1" values="none;inline;none;none"/></g><g display="none"><path id="Layer49_0_1_STROKES" stroke="#FFF" stroke-width="2" stroke-linejoin="round" stroke-linecap="square" fill="none" d="M29 88.35Q52.2 84.65 64.2 84.65 76.15 84.65 100 88.35"/><animate attributeName="display" repeatCount="indefinite" dur="4.167s" keyTimes="0;.14;.15;1" values="none;inline;none;none"/></g><g display="none"><path id="Layer48_0_1_STROKES" stroke="#FFF" stroke-width="2" stroke-linejoin="round" stroke-linecap="square" fill="none" d="M29 88.35Q52.25 83.1 64.25 83.1 76.2 83.1 100 88.35"/><animate attributeName="display" repeatCount="indefinite" dur="4.167s" keyTimes="0;.13;.14;1" values="none;inline;none;none"/></g><g display="none"><path id="Layer47_0_1_STROKES" stroke="#FFF" stroke-width="2" stroke-linejoin="round" stroke-linecap="square" fill="none" d="M29 88.35Q52.3 81.5 64.3 81.5 76.25 81.5 100 88.35"/><animate attributeName="display" repeatCount="indefinite" dur="4.167s" keyTimes="0;.12;.13;.89;.9;1" values="none;inline;none;inline;none;none"/></g><g display="none"><path id="Layer46_0_1_STROKES" stroke="#FFF" stroke-width="2" stroke-linejoin="round" stroke-linecap="square" fill="none" d="M29 88.35Q52.3 83.5 64.3 83.5 76.25 83.5 100 88.35"/><animate attributeName="display" repeatCount="indefinite" dur="4.167s" keyTimes="0;.11;.12;1" values="none;inline;none;none"/></g><g display="none"><path id="Layer45_0_1_STROKES" stroke="#FFF" stroke-width="2" stroke-linejoin="round" stroke-linecap="square" fill="none" d="M29 88.35Q52.25 85.5 64.25 85.5 76.2 85.5 100 88.35"/><animate attributeName="display" repeatCount="indefinite" dur="4.167s" keyTimes="0;.1;.11;1" values="none;inline;none;none"/></g><g display="none"><path id="Layer44_0_1_STROKES" stroke="#FFF" stroke-width="2" stroke-linejoin="round" stroke-linecap="square" fill="none" d="M29 88.35Q52.25 87.5 64.25 87.5 76.2 87.5 100 88.35"/><animate attributeName="display" repeatCount="indefinite" dur="4.167s" keyTimes="0;.09;.1;1" values="none;inline;none;none"/></g><g display="none"><path id="Layer43_0_1_STROKES" stroke="#FFF" stroke-width="2" stroke-linejoin="round" stroke-linecap="square" fill="none" d="M29 88.35Q52.2 89.5 64.2 89.5 76.15 89.5 100 88.35"/><animate attributeName="display" repeatCount="indefinite" dur="4.167s" keyTimes="0;.08;.09;1" values="none;inline;none;none"/></g><g display="none"><path id="Layer42_0_1_STROKES" stroke="#FFF" stroke-width="2" stroke-linejoin="round" stroke-linecap="square" fill="none" d="M29 88.35Q52.2 91.5 64.2 91.5 76.15 91.5 100 88.35"/><animate attributeName="display" repeatCount="indefinite" dur="4.167s" keyTimes="0;.07;.08;1" values="none;inline;none;none"/></g><g display="none"><path id="Layer41_0_1_STROKES" stroke="#FFF" stroke-width="2" stroke-linejoin="round" stroke-linecap="square" fill="none" d="M29 88.35Q52.15 93.5 64.15 93.5 76.1 93.5 100 88.35"/><animate attributeName="display" repeatCount="indefinite" dur="4.167s" keyTimes="0;.06;.07;1" values="none;inline;none;none"/></g><g display="none"><path id="Layer40_0_1_STROKES" stroke="#FFF" stroke-width="2" stroke-linejoin="round" stroke-linecap="square" fill="none" d="M29 88.35Q52.15 95.5 64.15 95.5 76.1 95.5 100 88.35"/><animate attributeName="display" repeatCount="indefinite" dur="4.167s" keyTimes="0;.05;.06;.93;.94;1" values="none;inline;none;inline;none;none"/></g><g display="none"><path id="Layer39_0_1_STROKES" stroke="#FFF" stroke-width="2" stroke-linejoin="round" stroke-linecap="square" fill="none" d="M29 88.35Q52.2 94.05 64.2 94.05 76.15 94.05 100 88.35"/><animate attributeName="display" repeatCount="indefinite" dur="4.167s" keyTimes="0;.04;.05;1" values="none;inline;none;none"/></g><g display="none"><path id="Layer38_0_1_STROKES" stroke="#FFF" stroke-width="2" stroke-linejoin="round" stroke-linecap="square" fill="none" d="M29 88.35Q52.25 92.6 64.25 92.6 76.2 92.6 100 88.35"/><animate attributeName="display" repeatCount="indefinite" dur="4.167s" keyTimes="0;.03;.04;1" values="none;inline;none;none"/></g><g display="none"><path id="Layer37_0_1_STROKES" stroke="#FFF" stroke-width="2" stroke-linejoin="round" stroke-linecap="square" fill="none" d="M29 88.35Q52.25 91.15 64.25 91.15 76.2 91.15 100 88.35"/><animate attributeName="display" repeatCount="indefinite" dur="4.167s" keyTimes="0;.02;.03;1" values="none;inline;none;none"/></g><g display="none"><path id="Layer36_0_1_STROKES" stroke="#FFF" stroke-width="2" stroke-linejoin="round" stroke-linecap="square" fill="none" d="M29 88.35Q52.3 89.7 64.3 89.7 76.25 89.7 100 88.35"/><animate attributeName="display" repeatCount="indefinite" dur="4.167s" keyTimes="0;.01;.02;1" values="none;inline;none;none"/></g><g><path id="Layer35_0_1_STROKES" stroke="#FFF" stroke-width="2" stroke-linejoin="round" stroke-linecap="square" fill="none" d="M29 88.35Q52.35 88.25 64.35 88.25 76.3 88.25 100 88.35"/><animate attributeName="display" repeatCount="indefinite" dur="4.167s" keyTimes="0;.01;1" values="inline;none;none"/></g><g mask="url(#mask_)"><g id="bag" transform="translate(41 94)"><animateTransform attributeName="transform" additive="replace" type="translate" repeatCount="indefinite" dur="4.167s" keyTimes="0;.00999;.01;.01999;.02;.02999;.03;.03999;.04;.04999;.05;.05999;.06;.06999;.07;.07999;.08;.08999;.09;.09999;.1;.10999;.11;.11999;.12;.12999;.13;.13999;.14;.14999;.15;.15999;.16;.16999;.17;.17999;.18;.18999;.19;.19999;.2;.78999;.79;.79999;.8;.80999;.81;.81999;.82;.82999;.83;.83999;.84;.84999;.85;.85999;.86;.86999;.87;.87999;.88;.88999;.89;.89999;.9;.90999;.91;.91999;.92;1" values="41,94;41,94;41,88.65;41,88.65;41,83.3;41,83.3;41,77.95;41,77.95;41,72.6;41,72.6;41,67.25;41,67.25;41,61.9;41,61.9;41,56.5;41,56.5;41,51.15;41,51.15;41,45.8;41,45.8;41,40.45;41,40.45;41,35.1;41,35.1;41,29.75;41,29.75;41,29.95;41,29.95;41,30.2;41,30.2;41,30.4;41,30.4;41,30.65;41,30.65;41,30.85;41,30.85;41,31.05;41,31.05;41,31.3;41,31.3;41,31.5;41,31.5;41,31.3;41,31.3;41,31.05;41,31.05;41,30.85;41,30.85;41,30.65;41,30.65;41,30.4;41,30.4;41,30.2;41,30.2;41,29.95;41,29.95;41,29.75;41,29.75;41,39.4;41,39.4;41,49.1;41,49.1;41,58.75;41,58.75;41,72.2;41,72.2;41,85.65;41,85.65;41,99.1;41,99.1" calcMode="discrete"/><path id="Layer81_0_1_STROKES" stroke="#FFF" stroke-width="2" stroke-linejoin="round" stroke-linecap="round" fill="none" d="M3 15L45.95 15 49 50 0 50 3 15Z"/><path id="Layer82_0_1_STROKES" stroke="#FFF" stroke-width="3" stroke-linejoin="round" stroke-linecap="butt" fill="none" d="M39 15Q39 8.8 34.75 4.4 30.5 0 24.5 0 18.5 0 14.25 4.4 10 8.8 10 15"/></g><animate attributeName="display" repeatCount="indefinite" dur="4.167s" keyTimes="0;.93;1" values="inline;none;none"/></g><g mask="url(#mask_)"><g id="tag" transform="matrix(.955 -.296 .296 .955 15.5 101.95)"><animateTransform attributeName="transform" additive="replace" type="translate" repeatCount="indefinite" dur="4.167s" keyTimes="0;.00999;.01;.01999;.02;.02999;.03;.03999;.04;.04999;.05;.05999;.06;.06999;.07;.07999;.08;.08999;.09;.09999;.1;.10999;.11;.11999;.12;.12999;.13;.13999;.14;.14999;.15;.15999;.16;.16999;.17;.17999;.18;.18999;.19;.19999;.2;.20999;.21;.21999;.22;.22999;.23;.23999;.24;.24999;.25;.25999;.26;.26999;.27;.27999;.28;.28999;.29;.29999;.3;.30999;.31;.31999;.32;.32999;.33;.33999;.34;.34999;.35;.35999;.36;.36999;.37;.37999;.38;.38999;.39;.39999;.4;.40999;.41;.41999;.42;.42999;.43;.43999;.44;.44999;.45;.45999;.46;.46999;.47;.47999;.48;.48999;.49;.49999;.5;.50999;.51;.51999;.52;.52999;.53;.53999;.54;.54999;.55;.55999;.56;.56999;.57;.57999;.58;.58999;.59;.59999;.6;.60999;.61;.61999;.62;.62999;.63;.63999;.64;.64999;.65;.65999;.66;.66999;.67;.67999;.68;.68999;.69;.69999;.7;.70999;.71;.71999;.72;.72999;.73;.73999;.74;.74999;.75;.75999;.76;.76999;.77;.77999;.78;.78999;.79;.79999;.8;.80999;.81;.81999;.82;.82999;.83;.83999;.84;.84999;.85;.85999;.86;.86999;.87;.87999;.88;.88999;.89;.89999;.9;.90999;.91;.91999;.92;1" values="65.066,93.901;65.066,93.901;65.121,88.669;65.121,88.669;65.124,83.373;65.124,83.373;65.225,78.113;65.225,78.113;65.17,72.779;65.17,72.779;65.167,67.581;65.167,67.581;65.157,62.177;65.157,62.177;65.186,56.911;65.186,56.911;65.212,51.576;65.212,51.576;65.126,46.363;65.126,46.363;65.227,41.085;65.227,41.085;65.157,35.74;65.157,35.74;65.17,30.404;65.17,30.404;65.214,30.478;65.214,30.478;65.266,30.649;65.266,30.649;65.178,30.642;65.178,30.642;65.183,30.844;65.183,30.844;65.221,30.973;65.221,30.973;65.178,30.956;65.178,30.956;65.139,31.065;65.139,31.065;65.186,31.219;65.186,31.219;65.109,31.24;65.109,31.24;65.207,31.254;65.207,31.254;65.05,31.2;65.05,31.2;65.033,31.285;65.033,31.285;65.113,31.271;65.113,31.271;65.036,31.304;65.036,31.304;65.162,31.292;65.162,31.292;65.079,31.272;65.079,31.272;65.145,31.258;65.145,31.258;65.052,31.285;65.052,31.285;65.117,31.277;65.117,31.277;65.071,31.253;65.071,31.253;65.108,31.333;65.108,31.333;65.067,31.256;65.067,31.256;65.102,31.288;65.102,31.288;65.091,31.259;65.091,31.259;65.166,31.334;65.166,31.334;65.193,31.312;65.193,31.312;65.21,31.343;65.21,31.343;65.08,31.299;65.08,31.299;65.155,31.32;65.155,31.32;65.12,31.331;65.12,31.331;65.186,31.267;65.186,31.267;65.134,31.324;65.134,31.324;65.165,31.293;65.165,31.293;65.11,31.296;65.11,31.296;65.202,31.33;65.202,31.33;65.201,31.292;65.201,31.292;65.116,31.375;65.116,31.375;65.172,31.299;65.172,31.299;65.109,31.318;65.109,31.318;65.168,31.223;65.168,31.223;65.112,31.309;65.112,31.309;65.127,31.296;65.127,31.296;65.101,31.276;65.101,31.276;65.083,31.258;65.083,31.258;65.133,31.253;65.133,31.253;65.17,31.303;65.17,31.303;65.116,31.274;65.116,31.274;65.124,31.341;65.124,31.341;65.103,31.37;65.103,31.37;65.149,31.264;65.149,31.264;65.072,31.282;65.072,31.282;65.097,31.258;65.097,31.258;65.024,31.22;65.024,31.22;65.096,31.256;65.096,31.256;65.052,31.227;65.052,31.227;65.104,31.257;65.104,31.257;65.012,31.216;65.012,31.216;65.065,31.235;65.065,31.235;65.106,31.252;65.106,31.252;65.048,31.22;65.048,31.22;65.033,31.336;65.033,31.336;65.109,31.249;65.109,31.249;64.985,31.26;64.985,31.26;65.059,31.224;65.059,31.224;65.031,31.237;65.031,31.237;65.05,31.2;65.05,31.2;65.206,31.247;65.206,31.247;65.158,31.179;65.158,31.179;65.228,31.151;65.228,31.151;65.184,30.993;65.184,30.993;65.114,30.967;65.114,30.967;65.228,30.777;65.228,30.777;65.165,30.786;65.165,30.786;65.178,30.642;65.178,30.642;65.177,42.127;65.177,42.127;65.235,53.541;65.235,53.541;65.199,64.875;65.199,64.875;65.231,76.325;65.231,76.325;65.173,87.713;65.173,87.713;65.08,99.049;65.08,99.049" calcMode="discrete"/><animateTransform attributeName="transform" additive="sum" type="rotate" repeatCount="indefinite" dur="4.167s" keyTimes="0;.00999;.01;.01999;.02;.02999;.03;.03999;.04;.04999;.05;.05999;.06;.06999;.07;.07999;.08;.08999;.09;.09999;.1;.10999;.11;.11999;.12;.12999;.13;.13999;.14;.14999;.15;.15999;.16;.16999;.17;.17999;.18;.18999;.19;.19999;.2;.20999;.21;.21999;.22;.22999;.23;.23999;.24;.24999;.25;.25999;.26;.26999;.27;.27999;.28;.28999;.29;.29999;.3;.30999;.31;.31999;.32;.32999;.33;.33999;.34;.34999;.35;.35999;.36;.36999;.37;.37999;.38;.38999;.39;.39999;.4;.40999;.41;.41999;.42;.42999;.43;.43999;.44;.44999;.45;.45999;.46;.46999;.47;.47999;.48;.48999;.49;.49999;.5;.50999;.51;.51999;.52;.52999;.53;.53999;.54;.54999;.55;.55999;.56;.56999;.57;.57999;.58;.58999;.59;.59999;.6;.60999;.61;.61999;.62;.62999;.63;.63999;.64;.64999;.65;.65999;.66;.66999;.67;.67999;.68;.68999;.69;.69999;.7;.70999;.71;.71999;.72;.72999;.73;.73999;.74;.74999;.75;.75999;.76;.76999;.77;.77999;.78;.78999;.79;.79999;.8;.80999;.81;.81999;.82;.82999;.83;.83999;.84;.84999;.85;.85999;.86;.86999;.87;.87999;.88;.88999;.89;.89999;.9;.90999;.91;.91999;.92;1" values="-17.188,0,0;-17.188,0,0;-14.325,0,0;-14.325,0,0;-11.771,0,0;-11.771,0,0;-9.032,0,0;-9.032,0,0;-6.294,0,0;-6.294,0,0;-3.555,0,0;-3.555,0,0;-1.005,0,0;-1.005,0,0;1.542,0,0;1.542,0,0;4.279,0,0;4.279,0,0;7.017,0,0;7.017,0,0;9.756,0,0;9.756,0,0;12.307,0,0;12.307,0,0;15.142,0,0;15.142,0,0;16.036,0,0;16.036,0,0;17.025,0,0;17.025,0,0;17.984,0,0;17.984,0,0;15.573,0,0;15.573,0,0;13.32,0,0;13.32,0,0;11.068,0,0;11.068,0,0;8.816,0,0;8.816,0,0;6.564,0,0;6.564,0,0;4.313,0,0;4.313,0,0;2.062,0,0;2.062,0,0;0,0,0;0,0,0;.509,0,0;.509,0,0;1.018,0,0;1.018,0,0;1.527,0,0;1.527,0,0;2.036,0,0;2.036,0,0;2.545,0,0;2.545,0,0;3.054,0,0;3.054,0,0;3.563,0,0;3.563,0,0;4.26,0,0;4.26,0,0;4.769,0,0;4.769,0,0;5.279,0,0;5.279,0,0;5.787,0,0;5.787,0,0;6.296,0,0;6.296,0,0;6.805,0,0;6.805,0,0;7.315,0,0;7.315,0,0;8.012,0,0;8.012,0,0;8.522,0,0;8.522,0,0;9.031,0,0;9.031,0,0;9.54,0,0;9.54,0,0;10.05,0,0;10.05,0,0;10.56,0,0;10.56,0,0;11.069,0,0;11.069,0,0;11.766,0,0;11.766,0,0;12.277,0,0;12.277,0,0;12.786,0,0;12.786,0,0;13.295,0,0;13.295,0,0;13.805,0,0;13.805,0,0;14.315,0,0;14.315,0,0;14.998,0,0;14.998,0,0;14.31,0,0;14.31,0,0;13.795,0,0;13.795,0,0;13.281,0,0;13.281,0,0;12.766,0,0;12.766,0,0;12.063,0,0;12.063,0,0;11.549,0,0;11.549,0,0;11.035,0,0;11.035,0,0;10.52,0,0;10.52,0,0;9.819,0,0;9.819,0,0;9.303,0,0;9.303,0,0;8.788,0,0;8.788,0,0;8.275,0,0;8.275,0,0;7.76,0,0;7.76,0,0;7.059,0,0;7.059,0,0;6.544,0,0;6.544,0,0;6.03,0,0;6.03,0,0;5.515,0,0;5.515,0,0;4.814,0,0;4.814,0,0;4.299,0,0;4.299,0,0;3.786,0,0;3.786,0,0;3.271,0,0;3.271,0,0;2.757,0,0;2.757,0,0;2.056,0,0;2.056,0,0;1.542,0,0;1.542,0,0;1.027,0,0;1.027,0,0;.514,0,0;.514,0,0;0,0,0;0,0,0;2.061,0,0;2.061,0,0;4.312,0,0;4.312,0,0;6.563,0,0;6.563,0,0;8.814,0,0;8.814,0,0;11.067,0,0;11.067,0,0;13.319,0,0;13.319,0,0;15.572,0,0;15.572,0,0;17.984,0,0;17.984,0,0;12.038,0,0;12.038,0,0;6.257,0,0;6.257,0,0;.288,0,0;.288,0,0;-5.305,0,0;-5.305,0,0;-11.274,0,0;-11.274,0,0;-17.188,0,0;-17.188,0,0" calcMode="discrete"/><animateTransform attributeName="transform" additive="sum" type="scale" repeatCount="indefinite" dur="4.167s" keyTimes="0;.00999;.01;.01999;.02;.04999;.05;.07999;.08;.12999;.13;.18999;.19;.21999;.22;.30999;.31;.47999;.48;.50999;.51;.51999;.52;.54999;.55;.70999;.71;.79999;.8;.82999;.83;.87999;.88;.88999;.89;.89999;.9;1" values="1,.999;1,.999;.998,.998;.998,.998;1,.999;1,.999;1,1;1,1;1,.999;1,.999;.998,.998;.998,.998;1,.999;1,.999;1,1;1,1;1,.999;1,.999;.998,.998;.998,.998;1,.999;1,.999;.998,.998;.998,.998;1,.999;1,.999;1,1;1,1;1,.999;1,.999;.998,.998;.998,.998;1,.999;1,.999;1,1;1,1;1,.999;1,.999" calcMode="discrete"/><animateTransform attributeName="transform" additive="sum" type="translate" repeatCount="indefinite" dur="4.167s" keyTimes="0;.00999;.01;.01999;.02;.02999;.03;.03999;.04;.04999;.05;.05999;.06;.06999;.07;.07999;.08;.08999;.09;.09999;.1;.10999;.11;.11999;.12;.12999;.13;.13999;.14;.14999;.15;.16999;.17;.17999;.18;.18999;.19;.19999;.2;.20999;.21;.21999;.22;.22999;.23;.23999;.24;.24999;.25;.25999;.26;.26999;.27;.27999;.28;.28999;.29;.29999;.3;.30999;.31;.31999;.32;.32999;.33;.33999;.34;.34999;.35;.35999;.36;.36999;.37;.37999;.38;.38999;.39;.39999;.4;.40999;.41;.41999;.42;.42999;.43;.43999;.44;.44999;.45;.45999;.46;.46999;.47;.47999;.48;.48999;.49;.49999;.5;.50999;.51;.51999;.52;.52999;.53;.54999;.55;.55999;.56;.56999;.57;.57999;.58;.58999;.59;.59999;.6;.60999;.61;.61999;.62;.62999;.63;.64999;.65;.65999;.66;.66999;.67;.67999;.68;.68999;.69;.69999;.7;.70999;.71;.72999;.73;.73999;.74;.74999;.75;.77999;.78;.78999;.79;.79999;.8;.80999;.81;.81999;.82;.83999;.84;.84999;.85;.85999;.86;.86999;.87;.87999;.88;.88999;.89;.89999;.9;.90999;.91;.91999;.92;1" values="-49.75,-7;-49.75,-7;-49.75,-7.05;-49.75,-7.05;-49.7,-7.05;-49.7,-7.05;-49.8,-7;-49.8,-7;-49.75,-6.95;-49.75,-6.95;-49.8,-7.1;-49.8,-7.1;-49.85,-7.05;-49.85,-7.05;-49.9,-7.05;-49.9,-7.05;-49.85,-7.05;-49.85,-7.05;-49.8,-7.05;-49.8,-7.05;-49.9,-7.05;-49.9,-7.05;-49.75,-7;-49.75,-7;-49.9,-6.85;-49.9,-6.85;-49.95,-6.9;-49.95,-6.9;-50.05,-6.95;-50.05,-6.95;-50,-6.85;-50,-6.85;-50.05,-6.95;-50.05,-6.95;-50,-6.9;-50,-6.9;-49.95,-6.95;-49.95,-6.95;-50,-6.95;-50,-6.95;-49.95,-6.95;-49.95,-6.95;-50.1,-6.9;-50.1,-6.9;-49.75,-6.9;-49.75,-6.9;-49.75,-7.05;-49.75,-7.05;-49.8,-7;-49.8,-7;-49.75,-7.1;-49.75,-7.1;-49.85,-7;-49.85,-7;-49.75,-7;-49.75,-7;-49.85,-7;-49.85,-7;-49.75,-7.05;-49.75,-7.05;-49.9,-7;-49.9,-7;-49.85,-7;-49.85,-7;-49.85,-7.1;-49.85,-7.1;-49.8,-6.95;-49.8,-6.95;-49.85,-7;-49.85,-7;-49.8,-7;-49.8,-7;-49.8,-7.05;-49.8,-7.05;-49.85,-7;-49.85,-7;-49.9,-7.05;-49.9,-7.05;-49.8,-7.05;-49.8,-7.05;-49.8,-7;-49.8,-7;-49.75,-7;-49.75,-7;-49.85,-6.95;-49.85,-6.95;-49.8,-7;-49.8,-7;-49.85,-7;-49.85,-7;-49.8,-7;-49.8,-7;-49.9,-7;-49.9,-7;-49.9,-6.95;-49.9,-6.95;-49.8,-7.05;-49.8,-7.05;-49.85,-6.95;-49.85,-6.95;-49.9,-7;-49.9,-7;-49.95,-6.95;-49.95,-6.95;-49.95,-7.05;-49.95,-7.05;-49.9,-7;-49.9,-7;-49.85,-7;-49.85,-7;-49.9,-7;-49.9,-7;-50,-7.05;-50,-7.05;-49.95,-7.05;-49.95,-7.05;-49.85,-7.05;-49.85,-7.05;-49.85,-7.1;-49.85,-7.1;-49.95,-7;-49.95,-7;-49.9,-7.05;-49.9,-7.05;-49.8,-7.05;-49.8,-7.05;-49.9,-7;-49.9,-7;-49.9,-7.05;-49.9,-7.05;-50,-7.1;-50,-7.1;-49.9,-7.05;-49.9,-7.05;-49.9,-7;-49.9,-7;-49.9,-7.05;-49.9,-7.05;-49.95,-7.1;-49.95,-7.1;-49.95,-7;-49.95,-7;-49.85,-7.05;-49.85,-7.05;-49.75,-6.9;-49.75,-6.9;-49.85,-7;-49.85,-7;-49.8,-7;-49.8,-7;-49.85,-7.05;-49.85,-7.05;-49.8,-7;-49.8,-7;-49.85,-6.95;-49.85,-6.95;-49.8,-6.95;-49.8,-6.95;-50,-6.85;-50,-6.85;-50,-6.9;-50,-6.9;-50,-6.95;-50,-6.95;-50,-6.85;-50,-6.85;-50.05,-6.95;-50.05,-6.95;-49.95,-6.95;-49.95,-6.95;-49.75,-7.05;-49.75,-7.05" calcMode="discrete"/><path fill="#FFF" stroke="none" d="M31.6 6.5L24.7 0 0 4.35 2.65 19.35 27.35 15 31.6 6.5Z"/><path fill="#7A6FB9" stroke="none" d="M20.05 7.55Q20.25 8.65 21.15 9.25 22.05 9.9 23.1 9.7 24.2 9.5 24.8 8.65 25.45 7.75 25.25 6.65 25.05 5.55 24.15 4.95 23.25 4.3 22.2 4.5 21.1 4.7 20.5 5.6 19.85 6.45 20.05 7.55Z"/><path fill="#7A6FB9" stroke="none" d="M14.55 5.65Q13.75 5.25 13.3 5.15 12.75 5 12 5.1L11.3 5.15 10.65 5.3Q9.95 5.55 9.45 5.85 8.8 6.3 8.5 6.75 8.2 7.1 7.8 7.9 7.55 8.65 7.55 9.35L6.3 9.6Q6.15 9.6 6 9.8 5.9 10.05 5.95 10.15L6.2 11.6Q6.2 11.8 6.4 11.9 6.55 12.05 6.75 12L7.9 11.8Q8.15 12.6 8.65 13.25 9.05 13.8 9.6 14.15 10.1 14.5 10.55 14.65 11.15 14.75 11.35 14.7L11.65 14.55Q11.75 14.3 11.7 14.15L11.45 12.7Q11.45 12.5 11.25 12.4L10.9 12.15 10.5 11.95 10.1 11.6 9.85 11.1Q9.75 10.9 9.65 10.3 9.55 9.8 9.6 9.5L9.8 8.8Q10.05 8.4 10.35 8.15 10.7 7.9 11.2 7.75L11.75 7.6 12.35 7.55Q12.85 7.5 13.3 7.65 13.8 7.85 14 8.05 14.25 8.25 14.45 8.65L14.7 9.4 14.75 10.2Q14.75 10.65 14.65 10.8L14.45 11.25 13.9 11.9Q13.75 12.15 13.8 12.3L14.05 13.75Q14.05 13.95 14.25 14.05 14.4 14.2 14.6 14.15L15.3 13.8Q15.75 13.45 16 13.05 16.4 12.55 16.6 11.85 16.85 11.05 16.8 10.25L17.8 10.05Q18 10.05 18.1 9.85 18.2 9.75 18.2 9.5L17.95 8.05 17.75 7.7Q17.55 7.6 17.4 7.65L16.35 7.8Q16 7 15.55 6.55 15.15 6.05 14.55 5.65Z"/><path id="Layer80_0_1_STROKES" stroke="#FFF" stroke-width="2" stroke-linejoin="round" stroke-linecap="butt" fill="none" d="M22.85 6Q30 12.1 36.05 7.5 40.4 4.25 44.2 4.3 47.6 4.35 50.25 7.05"/></g><animate attributeName="display" repeatCount="indefinite" dur="4.167s" keyTimes="0;.96;1" values="inline;none;none"/></g><mask id="mask_"><g><g display="none"><g><g id="Layer34_0_FILL"><path fill="#FFF" stroke="none" d="M29 88.35Q53 88.5 65 88.5 76.95 88.5 100 88.35L120 99.35 120.1 .25 .15 .15 -.1 97.65 29 88.35Z" fill-opacity="1"/></g></g><animate attributeName="display" repeatCount="indefinite" dur="4.167s" keyTimes="0;.95;1" values="none;inline;inline"/></g><g display="none"><g><g id="Layer33_0_FILL"><path fill="#FFF" stroke="none" d="M29 88.35Q52.2 91.65 64.2 91.65 76.15 91.65 100 88.35L120 99.35 120.1 .25 .15 .15 -.1 97.65 29 88.35Z" fill-opacity="1"/></g></g><animate attributeName="display" repeatCount="indefinite" dur="4.167s" keyTimes="0;.94;.95;1" values="none;inline;none;none"/></g><g display="none"><g><g id="Layer32_0_FILL"><path fill="#FFF" stroke="none" d="M100 88.35L119.75 90.65 120.25 .4 .1 .25Q.15 89.65 .1 89.65L29 88.35Q51.9 95.25 63.9 95.25 75.85 95.25 100 88.35Z" fill-opacity="1"/></g></g><animate attributeName="display" repeatCount="indefinite" dur="4.167s" keyTimes="0;.93;.94;1" values="none;inline;none;none"/></g><g display="none"><g><g id="Layer30_0_FILL"><path fill="#FFF" stroke="none" d="M100 88.4L119.75 90.7 120.25 .45 .1 .3Q.15 89.7 .1 89.7L29 88.4Q52.4 88.3 64.4 88.3 76.35 88.3 100 88.4Z" fill-opacity="1"/></g></g><animate attributeName="display" repeatCount="indefinite" dur="4.167s" keyTimes="0;.91;.92;1" values="none;inline;none;none"/></g><g display="none"><g><g id="Layer29_0_FILL"><path fill="#FFF" stroke="none" d="M100 88.4L119.75 90.7 120.25 .45 .1 .3Q.15 89.7 .1 89.7L29 88.4Q52.55 85.2 64.55 85.2 76.5 85.2 100 88.4Z" fill-opacity="1"/></g></g><animate attributeName="display" repeatCount="indefinite" dur="4.167s" keyTimes="0;.9;.91;1" values="none;inline;none;none"/></g><g display="none"><g><g id="Layer27_0_FILL"><path fill="#FFF" stroke="none" d="M100 88.4L119.85 94.3 120.1 .2 .1 .05 -.1 93.8 29 88.4Q52.4 81.3 64.4 81.3 76.35 81.3 100 88.4Z" fill-opacity="1"/></g></g><animate attributeName="display" repeatCount="indefinite" dur="4.167s" keyTimes="0;.88;.89;1" values="none;inline;none;none"/></g><g display="none"><g><g id="Layer26_0_FILL"><path fill="#FFF" stroke="none" d="M100 88.4L119.85 94.3 120.1 .2 .1 .05 -.1 93.8 29 88.4Q52.2 82.25 64.2 82.25 76.15 82.25 100 88.4Z" fill-opacity="1"/></g></g><animate attributeName="display" repeatCount="indefinite" dur="4.167s" keyTimes="0;.87;.88;1" values="none;inline;none;none"/></g><g display="none"><g><g id="Layer25_0_FILL"><path fill="#FFF" stroke="none" d="M100 88.4L119.85 94.3 120.1 .2 .1 .05 -.1 93.8 29 88.4Q52.4 81.9 64.4 81.9 76.35 81.9 100 88.4Z" fill-opacity="1"/></g></g><animate attributeName="display" repeatCount="indefinite" dur="4.167s" keyTimes="0;.85;.87;1" values="none;inline;none;none"/></g><g display="none"><g><g id="Layer24_0_FILL"><path fill="#FFF" stroke="none" d="M100 88.4L119.85 94.3 120.1 .2 .1 .05 -.1 93.8 29 88.4Q52.55 81.95 64.55 81.95 76.5 81.95 100 88.4Z" fill-opacity="1"/></g></g><animate attributeName="display" repeatCount="indefinite" dur="4.167s" keyTimes="0;.83;.85;1" values="none;inline;none;none"/></g><g display="none"><g><g id="Layer21_0_FILL"><path fill="#FFF" stroke="none" d="M100 88.4L119.85 94.3 120.1 .2 .1 .05 -.1 93.8 29 88.4Q52.35 83.5 64.35 83.5 76.3 83.5 100 88.4Z" fill-opacity="1"/></g></g><animate attributeName="display" repeatCount="indefinite" dur="4.167s" keyTimes="0;.23;.79;1" values="none;inline;none;none"/></g><g display="none"><g><g id="Layer20_0_FILL"><path fill="#FFF" stroke="none" d="M100 88.4L119.85 94.3 120.1 .2 .1 .05 -.1 93.8 29 88.4Q52.45 82.1 64.45 82.1 76.4 82.1 100 88.4Z" fill-opacity="1"/></g></g><animate attributeName="display" repeatCount="indefinite" dur="4.167s" keyTimes="0;.19;.23;.79;.83;1" values="none;inline;none;inline;none;none"/></g><g display="none"><g><g id="Layer19_0_FILL"><path fill="#FFF" stroke="none" d="M100 88.4L119.85 94.3 120.1 .2 .1 .05 -.1 93.8 29 88.4Q52.55 81.85 64.55 81.85 76.5 81.85 100 88.4Z" fill-opacity="1"/></g></g><animate attributeName="display" repeatCount="indefinite" dur="4.167s" keyTimes="0;.18;.19;1" values="none;inline;none;none"/></g><g display="none"><g><g id="Layer18_0_FILL"><path fill="#FFF" stroke="none" d="M100 88.4L119.85 94.3 120.1 .2 .1 .05 -.1 93.8 29 88.4Q52.45 83.2 64.45 83.2 76.4 83.2 100 88.4Z" fill-opacity="1"/></g></g><animate attributeName="display" repeatCount="indefinite" dur="4.167s" keyTimes="0;.17;.18;1" values="none;inline;none;none"/></g><g display="none"><g><g id="Layer17_0_FILL"><path fill="#FFF" stroke="none" d="M100 88.4L119.85 94.3 120.1 .2 .1 .05 -.1 93.8 29 88.4Q52.45 84.95 64.45 84.95 76.4 84.95 100 88.4Z" fill-opacity="1"/></g></g><animate attributeName="display" repeatCount="indefinite" dur="4.167s" keyTimes="0;.16;.17;1" values="none;inline;none;none"/></g><g display="none"><g><g id="Layer16_0_FILL"><path fill="#FFF" stroke="none" d="M100 88.4L119.85 94.3 120.1 .2 .1 .05 -.1 93.8 29 88.4Q52.2 86.55 64.2 86.55 76.15 86.55 100 88.4Z" fill-opacity="1"/></g></g><animate attributeName="display" repeatCount="indefinite" dur="4.167s" keyTimes="0;.15;.16;1" values="none;inline;none;none"/></g><g display="none"><g><g id="Layer15_0_FILL"><path fill="#FFF" stroke="none" d="M100 88.4L119.85 94.3 120.1 .2 .1 .05 -.1 93.8 29 88.4Q52.2 84.5 64.2 84.5 76.15 84.5 100 88.4Z" fill-opacity="1"/></g></g><animate attributeName="display" repeatCount="indefinite" dur="4.167s" keyTimes="0;.14;.15;1" values="none;inline;none;none"/></g><g display="none"><g><g id="Layer14_0_FILL"><path fill="#FFF" stroke="none" d="M100 88.4L119.85 94.3 120.1 .2 .1 .05 -.1 93.8 29 88.4Q52.3 82.9 64.3 82.9 76.25 82.9 100 88.4Z" fill-opacity="1"/></g></g><animate attributeName="display" repeatCount="indefinite" dur="4.167s" keyTimes="0;.13;.14;1" values="none;inline;none;none"/></g><g display="none"><g><g id="Layer13_0_FILL"><path fill="#FFF" stroke="none" d="M100 88.4L119.85 94.3 120.1 .2 .1 .05 -.1 93.8 29 88.4Q52.3 81.55 64.3 81.55 76.25 81.55 100 88.4Z" fill-opacity="1"/></g></g><animate attributeName="display" repeatCount="indefinite" dur="4.167s" keyTimes="0;.12;.13;.89;.9;1" values="none;inline;none;inline;none;none"/></g><g display="none"><g><g id="Layer12_0_FILL"><path fill="#FFF" stroke="none" d="M100 88.4L119.75 90.7 120.25 .45 .1 .3Q.15 89.7 .1 89.7L29 88.4Q52.7 85.55 64.7 85.55 76.65 85.55 100 88.4Z" fill-opacity="1"/></g></g><animate attributeName="display" repeatCount="indefinite" dur="4.167s" keyTimes="0;.11;.12;1" values="none;inline;none;none"/></g><g display="none"><g><g id="Layer11_0_FILL"><path fill="#FFF" stroke="none" d="M100 88.4L119.75 90.7 120.25 .45 .1 .3Q.15 89.7 .1 89.7L29 88.4Q52.8 88.95 64.8 88.95 76.75 88.95 100 88.4Z" fill-opacity="1"/></g></g><animate attributeName="display" repeatCount="indefinite" dur="4.167s" keyTimes="0;.1;.11;1" values="none;inline;none;none"/></g><g display="none"><g><g id="Layer10_0_FILL"><path fill="#FFF" stroke="none" d="M100 88.4L119.75 90.7 120.25 .45 .1 .3Q.15 89.7 .1 89.7L29 88.4Q52.15 92.05 64.15 92.05 76.1 92.05 100 88.4Z" fill-opacity="1"/></g></g><animate attributeName="display" repeatCount="indefinite" dur="4.167s" keyTimes="0;.09;.1;.92;.93;1" values="none;inline;none;inline;none;none"/></g><g display="none"><g><g id="Layer9_0_FILL"><path fill="#FFF" stroke="none" d="M100 88.4L119.75 90.7 120.25 .45 .1 .3Q.15 89.7 .1 89.7L29 88.4Q52.05 89.75 64.05 89.75 76 89.75 100 88.4Z" fill-opacity="1"/></g></g><animate attributeName="display" repeatCount="indefinite" dur="4.167s" keyTimes="0;.08;.09;1" values="none;inline;none;none"/></g><g display="none"><g><g id="Layer8_0_FILL"><path fill="#FFF" stroke="none" d="M100 88.35L119.75 90.65 120.25 .4 .1 .25Q.15 89.65 .1 89.65L29 88.35Q52.05 91.6 64.05 91.6 76 91.6 100 88.35Z" fill-opacity="1"/></g></g><animate attributeName="display" repeatCount="indefinite" dur="4.167s" keyTimes="0;.07;.08;1" values="none;inline;none;none"/></g><g display="none"><g><g id="Layer7_0_FILL"><path fill="#FFF" stroke="none" d="M100 88.35L119.75 90.65 120.25 .4 .1 .25Q.15 89.65 .1 89.65L29 88.35Q52.15 93.35 64.15 93.35 76.1 93.35 100 88.35Z" fill-opacity="1"/></g></g><animate attributeName="display" repeatCount="indefinite" dur="4.167s" keyTimes="0;.06;.07;1" values="none;inline;none;none"/></g><g display="none"><g><g id="Layer6_0_FILL"><path fill="#FFF" stroke="none" d="M100 88.4L119.75 90.7 120.25 .45 .1 .3Q.15 89.7 .1 89.7L29 88.4Q52.15 95.55 64.15 95.55 76.1 95.55 100 88.4Z" fill-opacity="1"/></g></g><animate attributeName="display" repeatCount="indefinite" dur="4.167s" keyTimes="0;.05;.06;1" values="none;inline;none;none"/></g><g display="none"><g><g id="Layer5_0_FILL"><path fill="#FFF" stroke="none" d="M29 88.35Q52.3 92.9 64.3 92.9 76.25 92.9 100 88.35L120 99.35 120.1 .25 .15 .15 -.1 97.65 29 88.35Z" fill-opacity="1"/></g></g><animate attributeName="display" repeatCount="indefinite" dur="4.167s" keyTimes="0;.04;.05;1" values="none;inline;none;none"/></g><g display="none"><g><g id="Layer4_0_FILL"><path fill="#FFF" stroke="none" d="M29 88.35Q52.35 92.65 64.35 92.65 76.3 92.65 100 88.35L120 99.35 120.1 .25 .15 .15 -.1 97.65 29 88.35Z" fill-opacity="1"/></g></g><animate attributeName="display" repeatCount="indefinite" dur="4.167s" keyTimes="0;.03;.04;1" values="none;inline;none;none"/></g><g display="none"><g><g id="Layer3_0_FILL"><path fill="#FFF" stroke="none" d="M29 88.35Q52.45 90.9 64.45 90.9 76.4 90.9 100 88.35L120 99.35 120.1 .25 .15 .15 -.1 97.65 29 88.35Z" fill-opacity="1"/></g></g><animate attributeName="display" repeatCount="indefinite" dur="4.167s" keyTimes="0;.02;.03;1" values="none;inline;none;none"/></g><g display="none"><g><g id="Layer2_0_FILL"><path fill="#FFF" stroke="none" d="M29 88.35Q52.35 89.9 64.35 89.9 76.3 89.9 100 88.35L120 99.35 120.1 .25 .15 .15 -.1 97.65 29 88.35Z" fill-opacity="1"/></g></g><animate attributeName="display" repeatCount="indefinite" dur="4.167s" keyTimes="0;.01;.02;1" values="none;inline;none;none"/></g><g><g><g id="Layer1_0_FILL"><path fill="#FFF" stroke="none" d="M29 88.35Q52.5 87.9 64.5 87.9 76.45 87.9 100 88.35L120 99.35 120.1 .25 .15 .15 -.1 97.65 29 88.35Z" fill-opacity="1"/></g></g><animate attributeName="display" repeatCount="indefinite" dur="4.167s" keyTimes="0;.01;1" values="inline;none;none"/></g></g></mask></g></svg>