<?xml version="1.0" encoding="UTF-8"?>
<svg width="62px" height="64px" viewBox="0 0 62 64" version="1.1" xmlns="http://www.w3.org/2000/svg" xmlns:xlink="http://www.w3.org/1999/xlink">
    <!-- Generator: Sketch 50.2 (55047) - http://www.bohemiancoding.com/sketch -->
    <title>icono1</title>
    <desc>Created with Sketch.</desc>
    <defs></defs>
    <g id="interfaz-2.1" stroke="none" stroke-width="1" fill="none" fill-rule="evenodd">
        <g id="Desktop-HD-home" transform="translate(-401.000000, -608.000000)" fill-rule="nonzero">
            <g id="modulo1-boton-copy-2" transform="translate(356.000000, 555.000000)">
                <g id="icono1" transform="translate(46.000000, 53.000000)">
                    <path d="M41.0618851,28.947147 C39.7001943,36.1205485 37.8167511,46.0425471 35.4115556,58.7131429 C34.9604475,61.09777 32.8900866,62.8241957 30.4776296,62.8274286 C30.1596569,62.8272083 29.8424426,62.7962083 29.5303704,62.7348571 L4.22696296,57.8731429 C1.50100001,57.3473281 -0.286276882,54.6988636 0.233481481,51.9554286 L8.33288889,9.26971429 C8.78523173,6.88582108 10.8548453,5.16001857 13.2668148,5.15542857 C13.5846154,5.15587595 13.9017024,5.18571577 14.2140741,5.24457143 C20.5861776,6.46975005 25.3652552,7.38863402 28.551307,8.00122333" id="Shape" stroke="#FFFFFF" stroke-width="2"></path>
                    <polyline id="Rectangle-path" stroke="#FFFFFF" stroke-width="2" transform="translate(21.879602, 33.982338) rotate(10.810000) translate(-21.879602, -33.982338) " points="35.8691889 21.9819735 35.8691889 54.8109098 7.89001568 54.8109098 7.89001568 13.1537669 23.472999 13.1537669"></polyline>
                    <path d="M28.3616296,42.9314286 C29.0908828,38.5916541 26.2389289,34.4613002 21.9425165,33.6349215 C17.6461041,32.8085429 13.4812229,35.5892678 12.5682963,39.8937143" id="Shape" stroke="#FFFFFF" stroke-width="2"></path>
                    <ellipse id="Oval" stroke="#FFFFFF" stroke-width="2" cx="24.5213333" cy="26.5851429" rx="4.08207407" ry="4.10742857"></ellipse>
                    <rect id="Rectangle-path" stroke="#FFFFFF" stroke-width="2" transform="translate(18.776491, 47.881711) rotate(10.810000) translate(-18.776491, -47.881711) " x="11.1365447" y="45.8005686" width="15.2798921" height="4.16228571" rx="0.496"></rect>
                    <path d="M61,11.4078596 C61,5.10561548 54.5078276,0 46.5,0 C38.4921724,0 32,5.11948944 32,11.4078596 C32,17.2279838 37.5352842,22.0249038 44.6875,22.729007 C44.1879992,23.7990622 43.3636656,24.6869129 42.3302023,25.2679408 C43.4627683,26.0573943 44.9220846,26.2198864 46.2025506,25.6991195 C47.4830166,25.1783526 48.4084558,24.0459777 48.658237,22.6943221 C55.6428227,21.8722902 61,17.1343346 61,11.4078596 Z" id="Shape" fill="#FFFFFF"></path>
                </g>
            </g>
        </g>
    </g>
</svg>