<?xml version="1.0" encoding="UTF-8"?>
<svg width="82px" height="58px" viewBox="0 0 82 58" version="1.1" xmlns="http://www.w3.org/2000/svg" xmlns:xlink="http://www.w3.org/1999/xlink">
    <!-- Generator: Sketch 50.2 (55047) - http://www.bohemiancoding.com/sketch -->
    <title>icono3</title>
    <desc>Created with Sketch.</desc>
    <defs></defs>
    <g id="interfaz-2.1" stroke="none" stroke-width="1" fill="none" fill-rule="evenodd">
        <g id="Desktop-HD-home" transform="translate(-777.000000, -611.000000)">
            <g id="modulo3-boton-copy-2" transform="translate(742.000000, 555.000000)">
                <g id="icono3" transform="translate(35.000000, 57.000000)">
                    <path d="M32.9423452,10.0484752 L48.5097176,14.0003548 L49.1386005,30.0491848 L16.1962553,56.7253699 L-7.10542736e-15,36.7246603 L32.9423452,10.0484752 Z M35.2226715,24.7599926 C36.7722284,26.6735359 39.5796257,26.9686052 41.493169,25.4190484 C43.4067123,23.8694916 43.7017817,21.0620942 42.1522249,19.1485509 C40.602668,17.2350076 37.7952707,16.9399383 35.8817274,18.4894951 C33.9681841,20.0390519 33.6731147,22.8464493 35.2226715,24.7599926 Z M20.6216984,31.8360803 C21.1316613,31.5069115 21.6281787,31.3003493 22.1112654,31.2163873 C22.594352,31.1324254 23.0507008,31.146918 23.4803254,31.2598658 C23.90995,31.3728135 24.3105239,31.5581565 24.6820591,31.8159003 C25.0535943,32.0736441 25.3827871,32.3796328 25.6696472,32.7338755 C26.0111473,33.1555931 26.2677466,33.5343317 26.4394528,33.8701029 C26.6111589,34.205874 26.7222386,34.5209076 26.772695,34.815213 C26.8231515,35.1095184 26.8345742,35.3865503 26.8069637,35.6463169 C26.7793532,35.9060835 26.7294178,36.1769423 26.657156,36.4589016 C26.6029597,36.670371 26.562424,36.8987057 26.5355478,37.1439126 C26.5086715,37.3891194 26.5703624,37.6044975 26.7206225,37.7900532 L28.2778553,39.7130755 C28.4281153,39.8986313 28.6218114,40.0140962 28.8589493,40.0594737 C29.0960872,40.1048512 29.2910299,40.051727 29.4437832,39.9000995 C29.7024358,39.6627163 29.9495166,39.2950547 30.1850328,38.7971035 C30.420549,38.2991523 30.5733687,37.7145574 30.6434964,37.0433013 C30.7136241,36.3720452 30.6715354,35.6240897 30.5172291,34.7994124 C30.3629228,33.9747351 30.0328427,33.1108663 29.5269788,32.2077801 L30.8658427,31.1235894 C31.032256,30.9888306 31.1213353,30.8049759 31.1330831,30.5720199 C31.1448309,30.3390638 31.0755758,30.1298111 30.9253157,29.9442554 L29.3680829,28.021233 C29.2178229,27.8356773 29.0275418,27.7244295 28.7972339,27.6874863 C28.566926,27.6505432 28.3685684,27.6994502 28.2021551,27.8342091 L26.7952133,28.9735281 C26.0975282,28.421288 25.3640905,28.002754 24.5948779,27.7179135 C23.8256654,27.433073 23.0608355,27.2773643 22.3003651,27.2507829 C21.5398948,27.2242014 20.7989352,27.3144974 20.077464,27.5216734 C19.3559928,27.7288495 18.6873361,28.039895 18.0714738,28.4548194 C17.7567126,28.6538473 17.4329236,28.8881165 17.100097,29.1576342 C16.7672704,29.4271519 16.4783651,29.6890327 16.2333724,29.9432846 C15.6994701,30.4594212 15.2562001,31.0487961 14.9035491,31.7114271 C14.550898,32.3740581 14.3157181,33.0812069 14.1980022,33.8328946 C14.0802864,34.5845824 14.0773574,35.36201 14.1892152,36.1652007 C14.301073,36.9683914 14.5545558,37.7686028 14.9496712,38.5658589 L13.3158033,39.888939 C13.14939,40.0236979 13.0603108,40.2075525 13.048563,40.4405086 C13.0368152,40.6734646 13.1060702,40.8827174 13.2563303,41.0682731 L14.8135631,42.9912954 C14.9638232,43.1768511 15.1541043,43.2880989 15.3844122,43.3250421 C15.6147201,43.3619853 15.8130777,43.3130782 15.979491,43.1783194 L17.545281,41.9103676 C18.3234576,42.5929393 19.0960392,43.0984775 19.863049,43.4269973 C20.6300588,43.7555171 21.352919,43.9521947 22.0316511,44.0170361 C22.7103833,44.0818774 23.3139764,44.0539413 23.8424485,43.933227 C24.3709206,43.8125126 24.785701,43.6442097 25.0868022,43.4283131 C25.2668755,43.310423 25.3593696,43.1307854 25.3642875,42.889395 C25.3692053,42.6480047 25.2965352,42.4345348 25.1462752,42.2489791 L23.5890424,40.3259567 C23.4387823,40.140401 23.2409371,40.0352786 22.9955007,40.0105862 C22.7500643,39.9858938 22.5182914,39.9780702 22.3001751,39.9871152 C22.0093532,39.9991753 21.7340311,39.9917047 21.4742005,39.9647034 C21.2143699,39.9377021 20.9457668,39.8689307 20.6683831,39.7583873 C20.3909994,39.6478439 20.1059449,39.4736925 19.8132108,39.2359278 C19.5204768,38.9981631 19.2033645,38.6684269 18.8618644,38.2467094 C18.5750043,37.8924666 18.3441452,37.5068489 18.1692802,37.0898447 C17.9944153,36.6728404 17.8964065,36.242485 17.8752509,35.7987656 C17.8540953,35.3550462 17.9347996,34.9056565 18.1173661,34.4505832 C18.2999327,33.9955098 18.6052128,33.5527892 19.0332157,33.1224082 C19.232823,32.9049088 19.4839076,32.6736545 19.7864773,32.4286384 C20.0890469,32.1836224 20.3674512,31.986105 20.6216984,31.8360803 Z" id="Combined-Shape" fill="#FFFFFF"></path>
                    <path d="M39.1005859,21.7382812 C49.4853516,23.8111979 56.4365234,20.9596354 59.9541016,13.1835937 C65.2304688,1.51953125 72.9394531,-1.30371094 80.6142578,0.891601562" id="Path-3" stroke="#FFFFFF" stroke-width="2" stroke-linecap="round" stroke-linejoin="round"></path>
                </g>
            </g>
        </g>
    </g>
</svg>