<?xml version="1.0" encoding="utf-8"?><svg id="iconos" image-rendering="auto" baseProfile="basic" version="1.1" x="0px" y="0px" width="80" height="95" xmlns="http://www.w3.org/2000/svg" xmlns:xlink="http://www.w3.org/1999/xlink"><g id="Scene-1" overflow="visible"><g id="tel" transform="translate(17.6 19.2)"><animateTransform attributeName="transform" additive="replace" type="translate" repeatCount="indefinite" dur="3s" keyTimes="0;.30599;.306;.31899;.319;.33299;.333;.34699;.347;.36099;.361;.37499;.375;.38899;.389;.40299;.403;.41699;.417;.43099;.431;.44399;.444;.45799;.458;.47199;.472;.48599;.486;.49999;.5;.51399;.514;.52799;.528;.54199;.542;.55599;.556;.56899;.569;.58299;.583;.77799;.778;.79199;.792;.80599;.806;.81899;.819;.83299;.833;1" values="36.1,47.7;36.1,47.7;36.25,47.85;36.25,47.85;37.5,48.6;37.5,48.6;36.4,48.25;36.4,48.25;37.4,48.75;37.4,48.75;36.65,48.7;36.65,48.7;38.75,50.5;38.75,50.5;36.95,48.5;36.95,48.5;35.9,47;35.9,47;39.25,49.6;39.25,49.6;37.65,49.6;37.65,49.6;40.15,49.6;40.15,49.6;37.5,49.6;37.5,49.6;38,50.15;38,50.15;35.5,50.95;35.5,50.95;36,52.45;36,52.45;34.15,52.4;34.15,52.4;31.665,52.557;31.665,52.557;29.023,52.607;29.023,52.607;26.411,52.678;26.411,52.678;23.794,52.798;23.794,52.798;23.813,52.804;23.813,52.804;23.794,52.798;23.794,52.798;27.01,51.562;27.01,51.562;29.975,50.303;29.975,50.303;33.113,49.006;33.113,49.006;36.1,47.7;36.1,47.7" calcMode="discrete"/><animateTransform attributeName="transform" additive="sum" type="rotate" repeatCount="indefinite" dur="3s" keyTimes="0;.52799;.528;.54199;.542;.55599;.556;.56899;.569;.58299;.583;.77799;.778;.79199;.792;.80599;.806;.81899;.819;.83299;.833;1" values="0,0,0;0,0,0;-1.797,0,0;-1.797,0,0;-3.781,0,0;-3.781,0,0;-5.767,0,0;-5.767,0,0;-7.745,0,0;-7.745,0,0;-7.564,0,0;-7.564,0,0;-7.745,0,0;-7.745,0,0;-5.767,0,0;-5.767,0,0;-3.782,0,0;-3.782,0,0;-1.797,0,0;-1.797,0,0;0,0,0;0,0,0" calcMode="discrete"/><animateTransform attributeName="transform" additive="sum" type="scale" repeatCount="indefinite" dur="3s" keyTimes="0;.55599;.556;.56899;.569;.58299;.583;.77799;.778;.79199;.792;.80599;.806;1" values="1,1;1,1;1,.999;1,.999;1,1;1,1;1,.999;1,.999;1,1;1,1;1,.999;1,.999;1,1;1,1" calcMode="discrete"/><animateTransform attributeName="transform" additive="sum" type="translate" repeatCount="indefinite" dur="3s" keyTimes="0;.52799;.528;.54199;.542;.55599;.556;.79199;.792;.80599;.806;.81899;.819;.83299;.833;1" values="-18.5,-28.5;-18.5,-28.5;-18.65,-28.55;-18.65,-28.55;-18.6,-28.55;-18.6,-28.55;-18.55,-28.6;-18.55,-28.6;-18.7,-28.6;-18.7,-28.6;-18.65,-28.6;-18.65,-28.6;-18.65,-28.5;-18.65,-28.5;-18.5,-28.5;-18.5,-28.5" calcMode="discrete"/><path id="Layer2_0_1_STROKES" stroke="#FFF" stroke-width="2" stroke-linejoin="miter" stroke-linecap="butt" stroke-miterlimit="4" fill="none" d="M19.35 23Q17.5 23.35 15.95 22.3 14.45 21.25 14.05 19.4 13.7 17.55 14.75 16 15.75 14.5 17.6 14.1 19.45 13.75 21 14.8 22.55 15.85 22.9 17.7 23.25 19.55 22.2 21.1 21.2 22.65 19.35 23ZM6.95 40.05L16 40.05 16 47 7 47.05 6.95 40.05ZM27 33.95L10 33.95Q10.05 30.65 12.5 28.35 14.95 26.05 18.45 26.05 21.9 26 24.4 28.35 26.9 30.65 27 33.95ZM20.95 40.05L30 40.05 30 47 21 47.05 20.95 40.05Z"/><path id="Layer2_0_2_STROKES" stroke="#FFF" stroke-width="2" stroke-linejoin="round" stroke-linecap="round" fill="none" d="M4 5L33 5Q33.4 5 33.7 5.3 34 5.6 34 6L34 51Q34 52 33 52L4 52Q3 52 3 51L3 6Q3 5 4 5ZM4 0L33 0Q34.65 0 35.85 1.2 37 2.35 37 4L37 53Q37 54.7 35.85 55.85 34.65 57 33 57L4 57Q2.3 57 1.15 55.85 0 54.7 0 53L0 4Q0 2.35 1.15 1.2 2.3 0 4 0Z"/></g><g display="none"><g id="bubble" transform="matrix(.214 0 0 .214 32.75 46.1)"><animateTransform attributeName="transform" additive="replace" type="translate" repeatCount="indefinite" dur="3s" keyTimes="0;.52799;.528;.54199;.542;.55599;.556;.56899;.569;.77799;.778;.79199;.792;.80599;.806;.81899;.819;.83299;.833;1" values="32.753,46.103;32.753,46.103;38.356,44.256;38.356,44.256;43.795,42.395;43.795,42.395;49.362,40.562;49.362,40.562;54.889,38.73;54.889,38.73;54.889,38.659;54.889,38.659;49.935,41.085;49.935,41.085;45.026,43.425;45.026,43.425;39.955,45.654;39.955,45.654;35.008,48.008;35.008,48.008" calcMode="discrete"/><animateTransform attributeName="transform" additive="sum" type="scale" repeatCount="indefinite" dur="3s" keyTimes="0;.52799;.528;.54199;.542;.55599;.556;.56899;.569;.77799;.778;.79199;.792;.80599;.806;.81899;.819;.83299;.833;1" values=".214,.214;.214,.214;.558,.558;.558,.558;.903,.903;.903,.903;1.247,1.247;1.247,1.247;1.592,1.592;1.592,1.592;1.592,1.587;1.592,1.587;1.235,1.232;1.235,1.232;.879,.877;.879,.877;.523,.522;.523,.522;.167,.167;.167,.167" calcMode="discrete"/><animateTransform attributeName="transform" additive="sum" type="translate" repeatCount="indefinite" dur="3s" keyTimes="0;.52799;.528;.54199;.542;.56899;.569;.77799;.778;.79199;.792;.80599;.806;.83299;.833;1" values="-.25,-.25;-.25,-.25;-.1,-.1;-.1,-.1;-.05,-.05;-.05,-.05;-.15,-.05;-.15,-.05;-.15,-.1;-.15,-.1;-.15,-.15;-.15,-.15;-.2,-.2;-.2,-.2;-.05,-.05;-.05,-.05" calcMode="discrete"/><path fill="#FFF" stroke="none" d="M11.65 -20.95Q7.4 -24.3 1.4 -24.3 -4.6 -24.3 -8.85 -20.95 -13.1 -17.6 -13.1 -12.9 -13.1 -8.55 -9.45 -5.3 -5.85 -2.1 -.45 -1.55 -1.25 .1 -2.8 1 -.9 2.25 1.1 1.4 3.15 .6 3.55 -1.6 8.8 -2.2 12.35 -5.4 15.9 -8.6 15.9 -12.9 15.9 -17.6 11.65 -20.95Z"/></g><animate attributeName="display" repeatCount="indefinite" dur="3s" keyTimes="0;.514;.847;1" values="none;inline;none;none"/></g></g></svg>