<?xml version="1.0" encoding="UTF-8"?>
<svg width="121px" height="113px" viewBox="0 0 121 113" version="1.1" xmlns="http://www.w3.org/2000/svg" xmlns:xlink="http://www.w3.org/1999/xlink">
    <!-- Generator: Sketch 48.1 (47250) - http://www.bohemiancoding.com/sketch -->
    <title>idea</title>
    <desc>Created with Sketch.</desc>
    <defs>
        <path d="M51,96 L69,96 C70.1045695,96 71,96.8954305 71,98 L71,105 C71,108.865993 67.8659932,112 64,112 L56,112 C52.1340068,112 49,108.865993 49,105 L49,98 C49,96.8954305 49.8954305,96 51,96 Z" id="path-1"></path>
    </defs>
    <g id="iconos" stroke="none" stroke-width="1" fill="none" fill-rule="evenodd" transform="translate(-57.000000, -110.000000)">
        <g id="idea" transform="translate(58.000000, 111.000000)">
            <path d="M58.821089,0.5 L58.821089,13.7180444 M100.576477,17.1873043 L91.229908,26.5338731 M118.302289,58.5125282 L105.084244,58.5125282 M101.614985,100.267916 L92.2684157,90.9213473 M18.5343727,101.306424 L27.8809415,91.9598549 M0.808560732,59.9811998 L14.0266051,59.9811998 M17.495865,18.2258119 L26.8424338,27.5723808" id="Line" stroke="#4A4A4A" stroke-width="3" stroke-linecap="round" stroke-linejoin="round"></path>
            <g id="Combined-Shape">
                <use fill="#DBD6C6" fill-rule="evenodd" xlink:href="#path-1"></use>
                <path stroke="#4A4A4A" stroke-width="3" d="M51,97.5 C50.7238576,97.5 50.5,97.7238576 50.5,98 L50.5,105 C50.5,108.037566 52.9624339,110.5 56,110.5 L64,110.5 C67.0375661,110.5 69.5,108.037566 69.5,105 L69.5,98 C69.5,97.7238576 69.2761424,97.5 69,97.5 L51,97.5 Z"></path>
            </g>
            <path d="M41.5578302,69.6198411 C36.890933,64.9984202 34,58.5868169 34,51.5 C34,37.4167389 45.4167389,26 59.5,26 C73.5832611,26 85,37.4167389 85,51.5 C85,57.8166131 82.7033006,63.5968032 78.8994197,68.0510527 C78.914802,68.0619261 78.9300997,68.0728219 78.9453125,68.0837402 C72.5340169,75.5277507 69.3283691,82.1665039 69.3283691,88 L50.4902344,88 C50.4902344,82.6907081 47.5127673,76.5639894 41.5578332,69.6198441 Z" id="Combined-Shape" stroke="#4A4A4A" stroke-width="3" fill="#FDD289" stroke-linecap="round" stroke-linejoin="round"></path>
        </g>
    </g>
</svg>