<?xml version="1.0" encoding="UTF-8"?>
<svg width="35px" height="46px" viewBox="0 0 35 46" version="1.1" xmlns="http://www.w3.org/2000/svg" xmlns:xlink="http://www.w3.org/1999/xlink">
    <!-- Generator: Sketch 50.2 (55047) - http://www.bohemiancoding.com/sketch -->
    <title>leap</title>
    <desc>Created with Sketch.</desc>
    <defs></defs>
    <g id="metafora" stroke="none" stroke-width="1" fill="none" fill-rule="evenodd">
        <g id="Desktop-HD" transform="translate(-1380.000000, -964.000000)" fill="#FFFFFF" fill-rule="nonzero">
            <g id="leap" transform="translate(1375.000000, 962.000000)">
                <path d="M32.0871308,7.26223822 C31.6822013,5.10330964 29.7649839,3.46496143 27.4516912,3.46496143 C25.1360374,3.46496143 23.2182298,5.10679179 22.8156614,7.26862214 C13.2112761,8.16353286 5.70001055,16.1237114 5.72952436,25.8075507 C5.7360174,27.8341579 8.72685289,26.5392407 3.84119738,35.5221509 L6.14486264,44.0734115 C6.66666687,44.0734115 10.0716979,46.6169694 10.2066698,45.5071061 C10.3319018,44.4773336 7.32679248,38.2913204 6.65721007,36.926086 L8.2667742,33.1571229 L15.4203557,31.3829302 C16.8452826,29.2802963 18.0211129,26.5384839 15.4203557,25.4752696 C14.0101856,24.8989749 19.4657991,24.5021692 20.9774846,23.6158403 C22.48917,22.7295114 22.1481669,21.1339763 22.8976323,20.7434533 C23.4464954,20.4574578 23.2562957,22.5145156 23.7260197,22.1559436 C25.6622393,22.2730293 27.0461937,22.5420428 27.877883,22.962984 L36.9642532,24.7291955 L40.0785735,21.6439897 C40.6003777,21.6439897 41.1802702,20.3623418 41.1802702,19.8493061 C41.1802702,18.823815 40.7323297,18.8676267 39.6893115,18.8676267 L36.648395,22.4038043 L28.789008,20.8760942 C27.3854984,19.2407622 26.7728067,18.2444756 26.950933,17.8872343 C27.3753819,17.0359805 30.4243788,17.517472 31.0087346,17.1802935 C32.0980215,16.551765 34.4203523,16.0167585 37.9757269,15.5752739 C39.0588832,14.9779938 39.7295113,13.8521349 39.7294377,12.6311221 C39.7294377,11.3891579 39.0376339,10.2545596 37.9302756,9.6579525 C35.536115,8.36839893 32.0871308,7.26223822 32.0871308,7.26223822 Z M27.2294377,9.46496143 C26.4006877,9.46496143 25.7294377,8.79308643 25.7294377,7.96496143 C25.7294377,7.13621143 26.4006877,6.46496143 27.2294377,6.46496143 C28.0575627,6.46496143 28.7294377,7.13621143 28.7294377,7.96496143 C28.7294377,8.79308643 28.0575627,9.46496143 27.2294377,9.46496143 Z" id="Shape" transform="translate(22.510734, 24.626214) rotate(-11.000000) translate(-22.510734, -24.626214) "></path>
            </g>
        </g>
    </g>
</svg>