<?xml version="1.0" encoding="UTF-8"?>
<svg width="19px" height="20px" viewBox="0 0 19 20" version="1.1" xmlns="http://www.w3.org/2000/svg" xmlns:xlink="http://www.w3.org/1999/xlink">
    <!-- Generator: Sketch 51 (57462) - http://www.bohemiancoding.com/sketch -->
    <title>lupa</title>
    <desc>Created with Sketch.</desc>
    <defs></defs>
    <g id="Symbols" stroke="none" stroke-width="1" fill="none" fill-rule="evenodd">
        <g id="buscar" transform="translate(-215.000000, -8.000000)" fill="#A39C87" fill-rule="nonzero">
            <g id="lupa">
                <path d="M223.767578,7.70898433 C222.485849,7.61754883 221.164533,7.89288017 219.972005,8.58138017 C216.791931,10.4173802 215.694591,14.5094532 217.530599,17.6894532 C219.223951,20.6225097 222.827826,21.750575 225.873698,20.4726563 L230.916015,29.20638 L232.358073,28.3730467 L227.315755,19.639323 C229.946817,17.6407892 230.770582,13.9565478 229.076823,11.0227865 C227.929318,9.0352865 225.903794,7.861377 223.767578,7.70898433 Z M223.653646,9.36263017 C225.253307,9.474235 226.76874,10.3561198 227.634766,11.8561198 C229.019188,14.2541613 228.206937,17.2949192 225.811849,18.6822917 C225.809727,18.6835212 225.807464,18.68432 225.805339,18.6855468 L225.798828,18.688802 C223.399808,20.0692987 220.360323,19.254141 218.975912,16.8561198 C217.59027,14.4561198 218.405322,11.4123593 220.805339,10.0266927 C221.705345,9.50706767 222.69385,9.29566733 223.653646,9.36263017 Z" transform="translate(224.499383, 18.449178) rotate(-10.000000) translate(-224.499383, -18.449178) "></path>
            </g>
        </g>
    </g>
</svg>