<?xml version="1.0" encoding="UTF-8"?>
<svg width="21px" height="21px" viewBox="0 0 21 21" version="1.1" xmlns="http://www.w3.org/2000/svg" xmlns:xlink="http://www.w3.org/1999/xlink">
    <!-- Generator: Sketch 50.2 (55047) - http://www.bohemiancoding.com/sketch -->
    <title>lupa</title>
    <desc>Created with Sketch.</desc>
    <defs></defs>
    <g id="interfaz-2.1" stroke="none" stroke-width="1" fill="none" fill-rule="evenodd">
        <g id="Desktop-HD-home" transform="translate(-1090.000000, -872.000000)" fill="#9B9B9B" fill-rule="nonzero">
            <g id="buscar" transform="translate(875.000000, 864.000000)">
                <g id="lupa" transform="translate(215.166667, 8.000000)">
                    <g id="svg2">
                        <g id="layer1" transform="translate(0.000000, 0.063000)">
                            <path d="M6.6147663,0.0918167326 C8.88535697,-0.264542703 11.2868079,0.474001403 12.9665435,2.27526824 C15.4459271,4.93414919 15.4739609,8.98555954 13.2051847,11.710565 L19.9767858,18.9723425 C20.313445,19.3333715 20.2938049,19.8989283 19.9329119,20.2357334 L19.9329119,20.2357334 C19.5722074,20.5723625 19.0069069,20.5528456 18.6702777,20.1921412 C18.6701956,20.1920532 18.6701135,20.1919652 18.6700314,20.1918772 L11.8984315,12.9300994 C9.02192886,15.0017125 4.98109321,14.6921437 2.50230499,12.0339016 C-0.185272342,9.15187474 -0.0256900689,4.60795747 2.85641635,1.92037094 C3.93720628,0.912525988 5.25241195,0.30563249 6.6147663,0.0918167326 Z M6.8948435,1.84850784 C5.87503681,2.01019483 4.8924111,2.46989157 4.07673667,3.23052815 C1.90160516,5.25889231 1.78412809,8.63846063 3.81246221,10.8135813 C5.83903206,12.9869297 9.21415514,13.1055489 11.3894933,11.0828313 C13.5711033,9.04392208 13.6863765,5.66816975 11.6597898,3.49480279 C10.3920809,2.13535242 8.59452145,1.57902962 6.8948435,1.84850784 Z" id="path5097"></path>
                        </g>
                    </g>
                </g>
            </g>
        </g>
    </g>
</svg>