<?xml version="1.0" encoding="UTF-8"?>
<svg width="96px" height="97px" viewBox="0 0 96 97" version="1.1" xmlns="http://www.w3.org/2000/svg" xmlns:xlink="http://www.w3.org/1999/xlink">
    <!-- Generator: Sketch 50 (54983) - http://www.bohemiancoding.com/sketch -->
    <title>nota</title>
    <desc>Created with Sketch.</desc>
    <defs></defs>
    <g id="metafora" stroke="none" stroke-width="1" fill="none" fill-rule="evenodd">
        <g id="iconos" transform="translate(-425.000000, -494.000000)">
            <g id="nota" transform="translate(410.000000, 478.000000)">
                <circle id="Oval-2-Copy-2" stroke="#41423F" stroke-width="3" fill="#B0F7E7" stroke-linecap="round" stroke-linejoin="round" cx="63.5" cy="65.5" r="45.5"></circle>
                <g id="postit" transform="translate(61.082054, 61.082054) rotate(-12.000000) translate(-61.082054, -61.082054) translate(9.582054, 9.582054)">
                    <path d="M8.74256087,24.4224511 C8.20234486,24.5372775 7.8574985,25.0682943 7.97232496,25.6085104 L19.9491525,81.9550536 C20.0639789,82.4952696 20.5949957,82.840116 21.1352118,82.7252896 L42.8807618,78.1031302 C42.983242,78.0813474 43.0872754,78.0676508 43.1919014,78.062167 C44.2949568,78.0043517 45.2360284,78.8516863 45.2938436,79.9547416 L45.9948955,93.330089 C46.0082501,93.5848815 46.1184904,93.8249332 46.303049,94.0011027 C46.7025472,94.3824419 47.335541,94.3677211 47.7168803,93.9682229 L66.9156581,73.8552176 C67.3244487,73.4269607 67.8508149,73.1292332 68.4284738,72.9995265 L93.7621442,67.3111412 C94.2966594,67.191122 94.6351071,66.6633766 94.5212083,66.1275238 L82.5396753,9.75872993 C82.4248489,9.21851393 81.8938321,8.87366756 81.3536161,8.98849402 L8.74256088,24.4224511 Z" id="Combined-Shape" stroke="#41423F" stroke-width="2" fill="#FFFFFF" transform="translate(51.246759, 51.621991) rotate(10.000000) translate(-51.246759, -51.621991) "></path>
                    <path d="M27.2045825,50.2191206 L75.3712427,50.2191206" id="Line-4-Copy-3" stroke="#F8E71C" stroke-width="9" stroke-linecap="round" stroke-linejoin="round"></path>
                    <path d="M26.7642913,62.014217 L52.7962125,62.014217" id="Line-4-Copy-4" stroke="#F8E71C" stroke-width="9" stroke-linecap="round" stroke-linejoin="round"></path>
                    <path d="M27.6448736,38.4240242 L75.8115339,38.4240242" id="Line-4" stroke="#41423F" stroke-width="2" stroke-linecap="round" stroke-linejoin="round" stroke-dasharray="2,4,4,3"></path>
                    <path d="M27.6448736,50.3763195 L75.8115339,50.3763195" id="Line-4-Copy" stroke="#41423F" stroke-width="2" stroke-linecap="round" stroke-linejoin="round" stroke-dasharray="2,4,4,3"></path>
                    <path d="M27.6448736,62.3286147 L49.2226335,62.3286147" id="Line-4-Copy-2" stroke="#41423F" stroke-width="2" stroke-linecap="round" stroke-linejoin="round" stroke-dasharray="2,4,4,3"></path>
                </g>
            </g>
        </g>
    </g>
</svg>