<?xml version="1.0" encoding="UTF-8"?>
<svg width="314px" height="220px" viewBox="0 0 314 220" version="1.1" xmlns="http://www.w3.org/2000/svg" xmlns:xlink="http://www.w3.org/1999/xlink">
    <!-- Generator: Sketch 48.2 (47327) - http://www.bohemiancoding.com/sketch -->
    <title>rana404</title>
    <desc>Created with Sketch.</desc>
    <defs>
        <path d="M51.9995143,0 L103.999029,57.8542505 C86.6658572,72.4720752 69.3326858,79.7809875 51.9995143,79.7809875 C34.6663429,79.7809875 17.3331714,72.4720752 0,57.8542505 L51.9995143,0 Z" id="path-1"></path>
        <path d="M35.3225102,48.3276721 L54.4821715,40.3655791 C58.4585528,41.082311 58.75635,45.4066452 55.3755632,53.3385818 C49.8932185,53.3385818 43.2088675,51.6682786 35.3225102,48.3276721 Z" id="path-3"></path>
        <path d="M0,13.8236432 C15.6233568,6.15241825 33.9761266,1.5445372 55.0583093,0 C54.0927564,2.99108687 48.6342677,18.5013139 38.6828432,46.5306811 L35.3625162,48.0047237 L41.4754431,13.8236432 L14.0536585,29.5342788 L0,13.8236432 Z" id="path-4"></path>
        <path d="M0.261223679,14.2595268 C16.2524646,6.29771279 34.8102376,1.5445372 55.9345425,0 C54.9670604,2.99108687 49.4976656,18.5013139 39.5263582,46.5306811 L36.1993972,48.0047237 L42.3245377,13.8236432 L14.4555984,29.960545 L0.261223679,14.2595268 Z" id="path-6"></path>
        <polygon id="path-8" points="54.4759374 37.819255 21.306477 40.1734162 3.08076391 8.7787071 0.598091308 18.2792485 16.8978986 45.9794787 54.2574396 42.0015654"></polygon>
        <path d="M13.2600499,22.7835892 C11.6420696,20.3655336 10.6591474,17.1797954 10.6591474,13.688847 C10.6591474,6.12870555 15.2690538,0 20.9556614,0 C24.9491513,0 28.4116419,3.02250755 30.1194563,7.44068786 L33.1355404,4.69590081 C36.9978526,4.10757854 40.9536206,3.80245749 44.9808608,3.80245749 C49.008101,3.80245749 52.963869,4.10757854 56.8261812,4.69590081 L57.7056109,5.49622576 C59.58339,2.15958727 62.5796156,0 65.9552412,0 C71.6418488,0 76.2517552,6.12870555 76.2517552,13.688847 C76.2517552,16.3557956 75.678086,18.8446124 74.6858515,20.9490923 L89.6913984,34.604889 C89.2810646,37.3003952 88.6322258,39.9178065 87.7670147,42.4350547 L55.5763626,71.7301548 C52.1302396,72.5648067 48.5302448,73.0071839 44.8266265,73.0071839 C41.2721996,73.0071839 37.8132159,72.5997291 34.4940924,71.8291077 L1.74898089,42.0294218 C0.977793535,39.7139684 0.389130644,37.3154738 8.43769499e-15,34.8508965 L13.2600499,22.7835892 Z" id="path-9"></path>
        <ellipse id="path-11" cx="8.30500718" cy="11.1104683" rx="7.62704741" ry="10.2666352"></ellipse>
        <ellipse id="path-13" cx="7.64399641" cy="11.1104683" rx="7.62704741" ry="10.2666352"></ellipse>
    </defs>
    <g id="Desktop-HD" stroke="none" stroke-width="1" fill="none" fill-rule="evenodd" transform="translate(-171.000000, -530.000000)">
        <g id="rana404" transform="translate(171.000000, 514.000000)">
            <g id="Group-2">
                <ellipse id="Oval-9-Copy" fill="#B0F7E7" cx="156.998534" cy="185.048286" rx="156.998534" ry="50.3810218"></ellipse>
                <g id="body-copy" transform="translate(104.767022, 80.196664)">
                    <mask id="mask-2" fill="white">
                        <use xlink:href="#path-1"></use>
                    </mask>
                    <g id="Polygon" stroke-linecap="round" stroke-linejoin="round">
                        <use fill="#393A38" fill-rule="evenodd" xlink:href="#path-1"></use>
                        <path stroke="#41423F" stroke-width="2" d="M51.9995143,-1.49594828 L105.432658,57.9533473 L104.643718,58.618695 C87.1413385,73.3792204 69.587961,80.7809875 51.9995143,80.7809875 C34.4110677,80.7809875 16.8576902,73.3792204 -0.644689585,58.618695 L-1.43362959,57.9533473 L51.9995143,-1.49594828 Z"></path>
                    </g>
                    <path d="M16.2020546,35.291183 C27.0736114,36.505485 -20.9927442,54.1848084 22.6138743,45.986346 C35.332965,43.5950349 35.3770248,52.4473183 44.5063628,52.4473183 C53.6357008,52.4473183 56.5959213,44.1968069 60.6748125,43.9563986 C66.6908896,43.6018134 77.6114004,48.9028458 79.2045682,49.2942135 C82.3229233,50.0602494 83.5332163,58.644627 79.2045682,59.0645559 C72.5250244,59.712549 68.4101254,54.6934978 61.740462,55.4373961 C54.863366,56.2044304 52.4587817,65.2167539 44.5063628,65.2167539 C41.9328239,65.2167539 26.1507082,66.6652824 29.0047843,62.1568073 C29.8670639,60.7946971 34.3062671,57.6328151 33.428686,54.2593956 C33.2618159,53.6179478 32.7234598,52.8976105 32.0695534,52.8146921 C27.7912945,52.2721891 23.2933683,51.2869596 19.1383782,52.4473183 C18.507694,52.6234486 18.8180801,58.1093473 16.2304321,57.8640171 C3.54228188,56.6610766 2.68492401,40.9813531 13.1529677,36.3324513 L16.2020546,35.291183 Z" id="Path-7" fill="#DDBE59" mask="url(#mask-2)"></path>
                    <path d="M71.9478616,16.6062014 C67.9563433,16.2864083 66.4463488,15.0789276 62.741142,16.6062014 C60.5855681,17.4947217 63.4835338,25.7006439 58.8855369,25.5621607 C57.2799412,25.5138032 42.0785937,17.4018025 41.3109078,23.0791941 C36.4661251,28.1866208 45.9252374,29.8301588 49.8398378,37.3932528 C54.289948,45.9909634 60.2567776,38.2762184 68.341216,40.558378 C87.7185626,46.0284174 79.7265647,54.9896357 92.3717246,54.9896357 C98.9048345,54.9896357 99.7513452,51.8552226 98.3683368,46.0284174 C95.7657961,35.0635542 89.6913837,26.3958325 78.6863055,23.8342263 L71.9478616,16.6062014 Z" id="Path-8" fill="#DDBE59" mask="url(#mask-2)"></path>
                    <path d="M101.595156,63.0170182 C86.4184254,52.5832992 88.2988077,65.2099924 73.3132514,70.3652732 C65.7654046,72.9618581 61.8589346,68.0233485 52.5118028,68.3052489 C45.4027607,68.5196506 53.1002298,70.0216341 44.5115903,72.8144065 C37.0767852,75.231986 30.8369879,69.8662288 33.1852369,80.7268437 C33.2547529,81.048354 37.5244017,82.8408869 52.1466292,82.9235743 C66.3111061,83.0036732 88.0038796,76.206146 96.9405009,66.5607863 L101.595156,63.0170182 Z" id="Path-9" fill="#DDBE59" mask="url(#mask-2)"></path>
                    <path d="M30.6693482,17.7188409 C44.5309843,22.5715633 37.6539452,18.558016 36.417284,30.4091536 C36.049775,33.9310548 42.1286277,30.8705691 47.3747299,39.2977371 L39.435753,41.2796028 C24.8258251,46.8728515 33.8558419,33.6684272 17.4066044,30.8373809 C20.1509368,25.6447669 24.1788681,27.6910261 27.8062086,23.0791941 L30.6693482,17.7188409 Z" id="Path-11" fill="#D96C70" mask="url(#mask-2)"></path>
                </g>
                <g id="pata-copy-2" transform="translate(247.487538, 156.306724) rotate(16.000000) translate(-247.487538, -156.306724) translate(188.746590, 124.266207)">
                    <g id="Path-17" stroke-linecap="round" stroke-linejoin="round">
                        <use fill="#41423F" fill-rule="evenodd" xlink:href="#path-3"></use>
                        <path stroke="#41423F" stroke-width="2" d="M32.7378657,48.3188507 L54.3700632,39.3292572 L54.6595603,39.3814382 C59.5489225,40.2627325 59.8948472,45.2859296 56.2954881,53.7306765 L56.0363838,54.3385818 L55.3755632,54.3385818 C49.7413325,54.3385818 42.9321858,52.6370943 34.9324671,49.2484687 L32.7378657,48.3188507 Z"></path>
                    </g>
                    <path d="M81.9903122,41.4500019 L75.6969406,37.7061858 L56.2001091,42.6464791 L52.7642131,40.9969656 L75.6969406,33.5271086 L84.8048577,34.6327376 C84.885342,34.6284632 84.9664233,34.6262972 85.0480404,34.6262972 C87.4014115,34.6262972 89.3091958,36.4271352 89.3091958,38.6485814 C89.3091958,40.8700275 87.4014115,42.6708655 85.0480404,42.6708655 C83.8484803,42.6708655 82.76469,42.2029818 81.9903122,41.4500019 Z" id="Combined-Shape" stroke="#41423F" stroke-width="2" fill="#41423F" stroke-linecap="round" stroke-linejoin="round"></path>
                    <path d="M106.050506,51.4046624 L106.041461,51.4254472 L95.5384875,44.3881675 L55.8230081,47.8256191 L58.1049766,44.2025822 L102.665335,36.5750275 L110.554651,38.5253191 C114.164769,38.8324995 116.998907,41.8549219 116.998907,45.5381088 C116.998907,49.4253613 113.842021,52.5766021 109.947804,52.5766021 C108.506902,52.5766021 107.166947,52.1451725 106.050506,51.4046624 Z" id="Combined-Shape" stroke="#41423F" stroke-width="2" fill="#41423F" stroke-linecap="round" stroke-linejoin="round"></path>
                    <path d="M91.6791464,62.9315565 L91.6713565,62.9476751 L85.9559157,57.8712967 L55.1516563,53.3787672 L57.0089573,49.5286831 L85.9559157,51.9855077 L94.7060553,53.1645457 C94.7564376,53.1631072 94.8069952,53.1623831 94.8577187,53.1623831 C97.7946675,53.1623831 100.175535,55.5898762 100.175535,58.5843406 C100.175535,61.5788051 97.7946675,64.0062982 94.8577187,64.0062982 C93.6660002,64.0062982 92.5658391,63.6066181 91.6791464,62.9315565 Z" id="Combined-Shape" stroke="#41423F" stroke-width="2" fill="#41423F" stroke-linecap="round" stroke-linejoin="round"></path>
                    <mask id="mask-5" fill="white">
                        <use xlink:href="#path-4"></use>
                    </mask>
                    <use id="Path-16" stroke="#41423F" stroke-width="2" fill="#393A38" stroke-linecap="round" stroke-linejoin="round" xlink:href="#path-4"></use>
                    <path d="M21.8690514,3.50521433 C14.3569432,17.2970948 17.6837072,5.32143701 27.8980883,16.7352424 C29.3566837,18.3651134 28.0005323,21.2119344 28.8767203,23.2135891 C29.8506554,25.4385473 40.0737204,19.3329515 39.7865232,16.7297789 C39.4201625,13.4090628 36.0574555,11.0811939 35.0203265,7.90433663 C31.383732,-3.23501297 40.6017259,-1.94089055 23.0139434,3.20750526 L21.8690514,3.50521433 Z" id="Path-10" fill="#D96C70" mask="url(#mask-5)"></path>
                    <path d="M37.115437,23.8453115 C42.7616302,22.0618357 45.3526054,15.4407305 50.7186222,14.0381485 C53.8665103,13.2153461 54.338365,20.287856 54.2429799,20.5756099 C53.2162825,23.6729071 46.1050692,25.2035993 44.4756201,26.4535414 C37.6703624,31.6738198 49.3277218,31.208688 34.9370962,34.5682873 C32.8474894,35.0561216 32.9999119,25.6063637 35.9985462,24.1404387 L37.115437,23.8453115 Z" id="Path-15" fill="#DDBE59" mask="url(#mask-5)"></path>
                </g>
                <g id="pata-copy-3" transform="translate(70.533424, 164.355240) scale(-1, 1) rotate(25.000000) translate(-70.533424, -164.355240) translate(11.258468, 132.314723)">
                    <path d="M83.0812333,39.1640627 L76.7752875,35.4202466 L57.2395013,40.3605398 L54.4020893,38.7479273 L76.7752875,31.2411694 L85.9014023,32.3467984 C85.9820474,32.342524 86.0632906,32.340358 86.1450709,32.340358 C88.503144,32.340358 90.41474,34.141196 90.41474,36.3626421 C90.41474,38.5840883 88.503144,40.3849263 86.1450709,40.3849263 C84.943114,40.3849263 83.8571583,39.9170426 83.0812333,39.1640627 Z" id="Combined-Shape" stroke="#41423F" stroke-width="2" fill="#41423F" stroke-linecap="round" stroke-linejoin="round"></path>
                    <path d="M105.750626,50.3213266 L96.4956002,44.3881675 L57.0874227,45.9472421 L58.0635625,42.6884049 L97.995832,37.4941276 L110.662095,38.5047209 C110.75221,38.5013275 110.842758,38.4996156 110.933706,38.4996156 C111.413912,38.4996156 111.882928,38.5473424 112.336237,38.6382943 L112.51045,38.6521941 L112.5029,38.6738349 C115.649674,39.384769 117.998898,42.1881303 117.998898,45.5381088 C117.998898,49.4253613 114.835704,52.5766021 110.933706,52.5766021 C108.885608,52.5766021 107.041053,51.7084234 105.750626,50.3213266 Z" id="Combined-Shape" stroke="#41423F" stroke-width="2" fill="#41423F" stroke-linecap="round" stroke-linejoin="round"></path>
                    <path d="M92.6285482,62.9315565 L92.6207427,62.9476751 L86.8938824,57.8712967 L57.3664008,51.1458454 L58.1267345,48.1969795 L86.8938824,51.9855077 L95.6615048,53.1645457 C95.7119878,53.1631072 95.7626464,53.1623831 95.8134712,53.1623831 C98.7562881,53.1623831 101.141913,55.5898762 101.141913,58.5843406 C101.141913,61.5788051 98.7562881,64.0062982 95.8134712,64.0062982 C94.6193717,64.0062982 93.5170124,63.6066181 92.6285482,62.9315565 Z" id="Combined-Shape" stroke="#41423F" stroke-width="2" fill="#41423F" stroke-linecap="round" stroke-linejoin="round"></path>
                    <path d="M36.4271525,48.0670098 L54.313718,38.8523213 C56.0465822,40.0053559 57.1273151,41.2439247 57.5559168,42.5680277 C58.5053882,45.5012821 57.9990665,48.8579258 57.0654827,51.0282895 C51.5721843,51.0282895 44.6927409,50.0411963 36.4271525,48.0670098 Z" id="Path-17" stroke="#41423F" stroke-width="2" fill="#41423F" stroke-linecap="round" stroke-linejoin="round"></path>
                    <mask id="mask-7" fill="white">
                        <use xlink:href="#path-6"></use>
                    </mask>
                    <g id="Path-16" stroke-linecap="round" stroke-linejoin="round">
                        <use fill="#393A38" fill-rule="evenodd" xlink:href="#path-6"></use>
                        <path stroke="#41423F" stroke-width="2" d="M40.9599501,15.7693183 L14.2564389,31.2314045 L-1.3648365,13.9520291 L-0.184475297,13.3643439 C15.9286857,5.34182762 34.6127382,0.556308222 55.8616206,-0.997337652 L57.3431859,-1.10566466 L56.8860078,0.307756221 C55.9138174,3.31339941 50.4472861,18.815506 40.4685165,46.8658492 L40.324444,47.2708372 L34.8829517,49.6817436 L40.9599501,15.7693183 Z"></path>
                    </g>
                    <path d="M9.95604713,7.51082875 C10.3375115,8.024435 10.6738977,8.57439446 11.1004404,9.0516475 L11.2950983,15.1257972 C12.9682498,16.9978646 16.6078587,15.708332 18.5134688,17.3459884 C19.9307229,18.563958 18.9462578,21.2455197 20.1123922,22.7032641 C22.4382221,25.6107038 29.0085402,23.7821344 30.3017552,20.7566423 C34.9563922,9.86706265 27.5626747,12.88304 22.3467504,8.86784657 C21.0010884,7.83196241 21.5349544,4.69693507 19.853316,4.43770932 C16.777239,3.96352986 13.8899189,6.21562914 10.9082203,7.10458905 L9.95604713,7.51082875 Z" id="Path-27" fill="#D96C70" mask="url(#mask-7)"></path>
                    <path d="M52.3414105,12.6653184 C43.7356303,16.208326 48.1355249,12.4779294 46.5500926,21.9118689 C46.4374395,22.5821988 46.0876822,23.7514166 45.4187518,23.6122364 C40.1891946,22.5241551 41.8326274,14.0727144 34.9075089,25.6383324 C34.4486022,26.404751 33.0707433,33.6441634 36.2916593,34.8285017 C46.751463,38.6745961 55.3720364,20.5032705 51.290182,13.2652807" id="Path-28" fill="#DDBE59" mask="url(#mask-7)"></path>
                </g>
                <g id="delantera-copy-2" transform="translate(226.091280, 67.712123) rotate(-58.000000) translate(-226.091280, -67.712123) translate(168.418349, 33.535572)" stroke-linecap="round">
                    <g id="hand" transform="translate(80.907723, 34.248573) rotate(-136.000000) translate(-80.907723, -34.248573) translate(64.887464, 2.742065)" fill="#41423F" stroke="#41423F" stroke-width="2">
                        <polygon id="Path-21" stroke-linejoin="round" points="28.3139564 7.88097268 16.9866975 16.192013 27.4901658 23.668662 31.780437 12.6094521"></polygon>
                        <path d="M14.6911046,53.5625006 L21.9350319,44.0416422 L22.1733888,22.002165 L26.9357836,23.9825617 L25.9746764,45.0489472 L21.9133143,57.105906 C21.9621439,57.3841703 21.9875995,57.6704032 21.9875995,57.962538 C21.9875995,60.7003916 19.7517741,62.9198604 16.9937437,62.9198604 C14.2357133,62.9198604 11.9998879,60.7003916 11.9998879,57.962538 C11.9998879,56.0491001 13.0919473,54.3888603 14.6911046,53.5625006 Z" id="Combined-Shape" stroke-linejoin="round"></path>
                        <path d="M15.5576321,10.8584396 L5.24351908,14.9341768 L17.6665045,16.458659 L19.1781242,18.4088384 L2.24516289,16.8604425 L0.324336255,13.7075546 L13.4405326,8.80251705 C13.3647891,8.54083467 13.3242148,8.26437957 13.3242148,7.97851718 C13.3242148,6.33379932 14.667348,5.00049205 16.3241868,5.00049205 C17.9810256,5.00049205 19.3241588,6.33379932 19.3241588,7.97851718 C19.3241588,9.62323505 17.9810256,10.9565423 16.3241868,10.9565423 C16.0592438,10.9565423 15.8023224,10.9224486 15.5576321,10.8584396 Z" id="Combined-Shape-Copy-4" stroke-linejoin="bevel"></path>
                        <path d="M2.73739923,4.24945843 C3.09623504,1.86141435 5.17081102,0.0297071969 7.67635798,0.0297071969 C10.4343884,0.0297071969 12.6702138,2.24917601 12.6702138,4.98702953 C12.6702138,5.43452292 12.610484,5.86816775 12.498507,6.28053628 L12.8388593,6.35135632 L5.63111519,24.273905 L19.426229,19.4857612 L21.520081,21.1862278 L4.2024038,28.5921027 L1.99998132,25.6543566 L2.51482362,4.2031452 L2.73739923,4.24945843 Z" id="Combined-Shape" stroke-linejoin="round"></path>
                    </g>
                    <g id="Path-26" stroke-linejoin="round">
                        <use fill="#50514E" fill-rule="evenodd" xlink:href="#path-8"></use>
                        <path stroke="#41423F" stroke-width="2" d="M21.8580517,39.1317534 L55.5335976,36.7416734 L55.2115722,42.9056253 L16.3628978,47.0420964 L-0.474452783,18.4283539 L2.72694144,6.17745201 L21.8580517,39.1317534 Z"></path>
                    </g>
                </g>
                <g id="delantera-copy-3" transform="translate(135.317757, 170.814265) scale(-1, 1) translate(-135.317757, -170.814265) translate(96.869136, 106.199222)" fill="#41423F" stroke="#41423F" stroke-linecap="round" stroke-linejoin="round" stroke-width="2">
                    <g id="Group" transform="translate(38.653832, 91.498618) rotate(-36.000000) translate(-38.653832, -91.498618) translate(9.283358, 67.468230)">
                        <polygon id="Path-21" points="53.3942693 -1.70530257e-13 39.9188191 6.83113625 53.3942693 13.6622725 57.797874 2.27567303"></polygon>
                        <path d="M45.0313929,39.1230316 L47.8653989,29.619681 L48.9265672,11.4981374 L53.6851441,13.4886027 L52.7248074,34.6620934 L53.4500637,40.7798428 C53.6357747,41.3016073 53.7368719,41.8634086 53.7368719,42.4487877 C53.7368719,45.200561 51.5028389,47.4313139 48.7470195,47.4313139 C45.9912001,47.4313139 43.7571671,45.200561 43.7571671,42.4487877 C43.7571671,41.1707064 44.2390941,40.0050199 45.0313929,39.1230316 Z" id="Combined-Shape"></path>
                        <path d="M12.7656912,38.4779054 L26.6945108,17.6701519 L44.3486625,8.43196743 L47.4103448,10.3842553 L29.2179247,19.2855803 L22.0907422,34.1807586 L20.7199677,42.2126679 C20.7246887,42.3015067 20.7270791,42.3909629 20.7270791,42.4809765 C20.7270791,45.2327498 18.4930461,47.4635027 15.7372268,47.4635027 C12.9814074,47.4635027 10.7473744,45.2327498 10.7473744,42.4809765 C10.7473744,40.8408654 11.5409912,39.3858412 12.7656912,38.4779054 Z" id="Combined-Shape"></path>
                        <path d="M1.17435928,24.871027 L7.09269733,15.6654636 L40.3611287,6.89888244 L44.4213812,8.35411546 L10.6371718,17.5515025 L8.44185493,27.9354338 C8.36440539,30.1958924 6.50483322,32.0046463 4.22218279,32.0046463 C1.89033562,32.0046463 0,30.1170861 0,27.7886625 C0,26.6564247 0.446982307,25.6284318 1.17435928,24.871027 Z" id="Combined-Shape"></path>
                    </g>
                    <polygon id="Path-25" points="49.2331085 59.0314855 57.3111136 36.771186 41.1002878 0.0358977312 38.3355077 8.85356929 51.8167578 37.4448176 44.2463994 56.9232382"></polygon>
                </g>
                <g id="cabeza" transform="translate(154.685366, 65.057712) rotate(-10.000000) translate(-154.685366, -65.057712) translate(109.828642, 28.211118)">
                    <mask id="mask-10" fill="white">
                        <use xlink:href="#path-9"></use>
                    </mask>
                    <g id="Combined-Shape" stroke-linecap="round" stroke-linejoin="round">
                        <use fill="#393A38" fill-rule="evenodd" xlink:href="#path-9"></use>
                        <path stroke="#41423F" stroke-width="2" d="M11.9691304,22.6062844 C10.4812115,20.0708751 9.65914744,16.9601251 9.65914744,13.688847 C9.65914744,5.62831648 14.6448525,-1 20.9556614,-1 C24.9062041,-1 28.443199,1.62710074 30.4763625,5.76377937 L32.6860754,3.7528303 L32.9849535,3.70730403 C36.9301648,3.10635424 40.9365407,2.80245749 44.9808608,2.80245749 C49.0251809,2.80245749 53.0315568,3.10635424 56.9767681,3.70730403 L57.2756462,3.7528303 L57.4893858,3.94734401 C59.5945095,0.850678526 62.6395082,-1 65.9552412,-1 C72.2660501,-1 77.2517552,5.62831648 77.2517552,13.688847 C77.2517552,16.1710939 76.7793746,18.5655389 75.8923059,20.6949199 L90.7606226,34.2258302 L90.6800092,34.755384 C90.2639958,37.4881994 89.6047567,40.1647856 88.712712,42.7601032 L88.6294723,43.0022814 L56.0602943,72.641859 L55.811757,72.7020548 C52.2436783,73.5662443 48.5637079,74.0071839 44.8266265,74.0071839 C41.2385418,74.0071839 37.7028671,73.6007078 34.2679319,72.8031978 L34.0139043,72.7442186 L0.882752593,42.5932169 L0.80022012,42.3454171 C0.00566879516,39.9598144 -0.592983026,37.5072165 -0.987763777,35.0068539 L-1.07185862,34.4742353 L11.9691304,22.6062844 Z"></path>
                    </g>
                    <path d="M50.3414268,26.8719698 C50.6874322,26.7085905 51.0742976,26.6172025 51.48257,26.6172025 C52.9568757,26.6172025 54.1520366,27.8088952 54.1520366,29.2789227 C54.1520366,29.3209838 54.1510582,29.3628171 54.1491227,29.4044011 C53.8031174,29.5677804 53.4162519,29.6591685 53.0079795,29.6591685 C51.5336738,29.6591685 50.3385129,28.4674757 50.3385129,26.9974482 C50.3385129,26.9553871 50.3394914,26.9135538 50.3414268,26.8719698 Z" id="Combined-Shape" fill="#41423F" mask="url(#mask-10)"></path>
                    <path d="M35.087332,26.8719698 C35.4333373,26.7085905 35.8202028,26.6172025 36.2284752,26.6172025 C37.7027809,26.6172025 38.8979418,27.8088952 38.8979418,29.2789227 C38.8979418,29.3209838 38.8969633,29.3628171 38.8950279,29.4044011 C38.5490226,29.5677804 38.1621571,29.6591685 37.7538847,29.6591685 C36.279579,29.6591685 35.0844181,28.4674757 35.0844181,26.9974482 C35.0844181,26.9553871 35.0853965,26.9135538 35.087332,26.8719698 Z" id="Combined-Shape-Copy" fill="#41423F" mask="url(#mask-10)" transform="translate(36.991180, 28.138185) scale(-1, 1) translate(-36.991180, -28.138185) "></path>
                    <path d="M52.4374278,14.611383 C33.2182887,9.97952373 48.6627649,12.7521509 51.7030266,4.53338527 C52.9148557,1.25743723 47.5609675,-3.37194524 50.0644031,-5.81345806 C53.0994184,-8.77340184 59.6373613,-9.11416212 62.7920385,-6.28133857 C65.2512446,-4.07303117 59.6986301,0.0044487777 60.1791789,3.26936522 C60.4244432,4.93572591 63.6181489,4.40107744 64.5692001,5.79294931 C65.3619461,6.95314003 66.0714521,9.44544456 64.7777522,9.99941791 C49.9498703,16.3488436 56.4406901,5.12856325 52.4553037,13.5181764 L52.4374278,14.611383 Z" id="Path-3" fill="#D96C70" mask="url(#mask-10)" transform="translate(54.223965, 3.190569) rotate(46.000000) translate(-54.223965, -3.190569) "></path>
                    <path d="M34.1855319,15.20983 C36.0448897,17.4441074 37.7418861,17.0209398 39.2574268,19.5129269 C41.1924429,22.6946527 46.3258881,19.2340809 49.5808949,21.469854 C50.6713026,22.2188245 48.7528835,26.2423816 47.4218777,26.0929454 C32.4091305,24.407417 32.2916432,27.362629 23.2985892,29.0505657 C14.9274921,30.6217652 21.6322837,40.820318 14.1492357,43.6293153 C3.71076103,47.5477248 10.1428975,31.5185977 12.7357656,28.171496 C15.286862,24.8783168 22.1784022,22.9003326 24.6022288,19.5129269 C26.1952291,17.286638 26.7696497,17.5159869 28.2439436,15.20983 L34.1855319,15.20983 Z" id="Path-4" fill="#D96C70" mask="url(#mask-10)" transform="translate(29.146456, 29.725907) rotate(-11.000000) translate(-29.146456, -29.725907) "></path>
                    <path d="M74.38044,24.2777861 C69.297111,29.0546341 65.9227129,28.7435566 71.5986091,35.7198306 C73.8911152,38.537562 68.66889,42.4163605 71.0563127,45.1546047 C71.9449469,46.1738198 76.7925715,46.3013726 77.5079616,45.1546047 C79.411379,42.1034333 80.003927,36.0598776 82.8116568,33.8073261 C85.3336811,31.783987 89.9450312,34.6495504 92.4472,32.6018491 C93.8068867,31.4891215 91.1100581,29.2837296 89.9463009,27.9685434 C88.0761866,25.8550886 86.1804988,23.3570621 83.4932543,22.4828099 C80.8943938,21.637312 78.0476179,22.968717 75.3247997,23.2116706 L74.38044,24.2777861 Z" id="Path-5" fill="#D96C70" mask="url(#mask-10)"></path>
                    <path d="M93.5951931,39.6978048 L44.9995797,81.7528361 L-3.49399213,39.6978048 C10.0226629,41.3805059 19.2647254,42.6389135 24.2321956,43.4730277 C33.1982851,44.9785713 46.9165397,49.5624941 54.2485168,49.5624941 C64.2327582,49.5624941 67.6802209,41.3999262 76.9934215,39.6978048 C81.4765885,38.8784415 87.0105123,38.8784415 93.5951931,39.6978048 Z" id="Combined-Shape" stroke="#41423F" stroke-width="2" fill="#DDBE59" stroke-linecap="round" stroke-linejoin="round" mask="url(#mask-10)"></path>
                    <g id="ojo-i" transform="translate(14.999860, 3.000295)">
                        <mask id="mask-12" fill="white">
                            <use xlink:href="#path-11"></use>
                        </mask>
                        <g id="Oval" stroke-linecap="round" stroke-linejoin="round">
                            <use fill="#FFFFFF" fill-rule="evenodd" xlink:href="#path-11"></use>
                            <ellipse stroke="#41423F" stroke-width="2" cx="8.30500718" cy="11.1104683" rx="8.62704741" ry="11.2666352"></ellipse>
                        </g>
                        <ellipse id="Oval" stroke="#41423F" stroke-width="2" fill="#41423F" stroke-linecap="round" stroke-linejoin="round" mask="url(#mask-12)" cx="12.3049698" cy="8.49041879" rx="7.62704741" ry="5.32344049"></ellipse>
                    </g>
                    <g id="ojo-d" transform="translate(63.999402, 3.000295)">
                        <mask id="mask-14" fill="white">
                            <use xlink:href="#path-13"></use>
                        </mask>
                        <g id="Oval-Copy" stroke-linecap="round" stroke-linejoin="round">
                            <use fill="#FFFFFF" fill-rule="evenodd" xlink:href="#path-13"></use>
                            <ellipse stroke="#41423F" stroke-width="2" cx="7.64399641" cy="11.1104683" rx="8.62704741" ry="11.2666352"></ellipse>
                        </g>
                        <ellipse id="Oval-Copy" stroke="#41423F" stroke-width="2" fill="#41423F" stroke-linecap="round" stroke-linejoin="round" mask="url(#mask-14)" cx="10.6439684" cy="9.4905172" rx="7.62704741" ry="5.32344049"></ellipse>
                    </g>
                </g>
            </g>
        </g>
    </g>
</svg>