<?xml version="1.0" encoding="UTF-8"?>
<svg width="495px" height="161px" viewBox="0 0 495 161" version="1.1" xmlns="http://www.w3.org/2000/svg" xmlns:xlink="http://www.w3.org/1999/xlink">
    <!-- Generator: Sketch 51.2 (57519) - http://www.bohemiancoding.com/sketch -->
    <title>rana-mirando</title>
    <desc>Created with Sketch.</desc>
    <defs>
        <path d="M21.797925,79.2427273 C8.99367271,73.0128495 0,58.3332813 0,41.2168548 C0,18.4534145 15.9069414,0 35.529148,0 C55.1513546,0 71.058296,18.4534145 71.058296,41.2168548 C71.058296,58.3332813 62.0646233,73.0128495 49.260371,79.2427273 L21.797925,79.2427273 Z" id="path-1"></path>
        <path d="M0,34.125 C83.7539659,11.4917211 165.587299,0.175081623 245.5,0.175081623 C325.412701,0.175081623 407.246034,11.4917211 491,34.125 L0,34.125 Z" id="path-3"></path>
    </defs>
    <g id="rana-mirando" stroke="none" stroke-width="1" fill="none" fill-rule="evenodd">
        <g id="Group" transform="translate(-2.000000, 18.000000)">
            <g id="Group-4" transform="translate(36.000000, 0.000000)">
                <g id="Group-3" transform="translate(63.090733, 57.110991) rotate(5.000000) translate(-63.090733, -57.110991) translate(27.090733, 3.110991)">
                    <polygon id="Rectangle-4" stroke="#41423F" stroke-width="2" fill="#B4CF7E" stroke-linecap="round" points="21.3709161 79.2427273 49.153107 79.2427273 42.9895958 85.0928616 27.5344273 85.0928616"></polygon>
                    <polygon id="Rectangle-4-Copy" stroke="#41423F" stroke-width="2" stroke-linecap="round" points="27.2813101 85.0928616 43.242713 85.0928616 38.9922816 98.379792 31.5317414 98.379792"></polygon>
                    <polygon id="Path" fill="#D96C70" points="28.8507367 97.8567908 42.2075593 97.8567908 41.1786665 107.961568 29.8796294 107.961568"></polygon>
                    <mask id="mask-2" fill="white">
                        <use xlink:href="#path-1"></use>
                    </mask>
                    <use id="Combined-Shape" stroke="#41423F" stroke-width="2" fill="#DDBE59" stroke-linecap="round" xlink:href="#path-1"></use>
                    <ellipse id="Oval-12-Copy-2" fill="#D96C70" mask="url(#mask-2)" cx="36.0634209" cy="41.2168548" rx="29.6521461" ry="41.2168548"></ellipse>
                    <ellipse id="Oval-12-Copy-2" fill="#B4CF7E" mask="url(#mask-2)" cx="36.3305573" cy="41.2168548" rx="15.4939142" ry="41.2168548"></ellipse>
                </g>
                <path d="M1.70164097,50.1432876 C0.615804984,48.1402843 0,45.8509729 0,43.4194689 C0,35.5469284 6.45539806,29.1649734 14.4185351,29.1649734 C21.3346239,29.1649734 27.1134025,33.9789777 28.5134991,40.4024914 C30.333742,39.2478914 32.498839,38.5783195 34.8221226,38.5783195 C41.2827809,38.5783195 46.5201794,43.7561321 46.5201794,50.1432876 L1.70164097,50.1432876 Z" id="Combined-Shape" fill="#DDBE59"></path>
                <path d="M82.9717811,70.0982693 C82.2200485,68.7303647 81.793722,67.1669325 81.793722,65.5063932 C81.793722,60.1300241 86.2628437,55.7716158 91.7757848,55.7716158 C96.5638462,55.7716158 100.564539,59.0592284 101.533837,63.4460183 C102.794005,62.657511 104.292918,62.2002424 105.901345,62.2002424 C110.374109,62.2002424 114,65.7363095 114,70.0982693 L82.9717811,70.0982693 Z" id="Combined-Shape-Copy-3" fill="#DDBE59" transform="translate(97.896861, 62.934943) scale(-1, 1) translate(-97.896861, -62.934943) "></path>
            </g>
            <g id="H-Copy" transform="translate(191.000000, 46.000000)">
                <path d="M14.6362412,37.2779333 C12.8503391,34.5951494 11.7654047,31.0606369 11.7654047,27.1875 C11.7654047,18.7996754 16.8537491,12 23.13054,12 C27.5384933,12 31.3603378,15.3534112 33.2453973,20.2552933 L36.574505,17.2100074 C40.8376663,16.5572757 45.2039828,16.21875 49.6491893,16.21875 C54.0943957,16.21875 58.4607122,16.5572757 62.7238736,17.2100074 L63.6945747,18.0979518 C65.7672387,14.3960186 69.0744269,12 72.800391,12 C79.0771819,12 84.1655264,18.7996754 84.1655264,27.1875 C84.1655264,30.1464257 83.532319,32.9077179 82.4371058,35.2425959 L99,50.3934273 C98.5470797,53.3840371 97.8309014,56.2880023 96.8758945,59.0808384 L61.3443429,91.583162 C57.5405647,92.5091914 53.5669453,93 49.4789479,93 C45.5556256,93 41.7376519,92.5479371 38.074054,91.6929482 L1.93049848,58.6307969 C1.07927362,56.061848 0.42951648,53.4007666 0,50.6663677 L14.6362412,37.2779333 Z" id="Combined-Shape" stroke="#41423F" stroke-width="2" fill="#41423F" stroke-linecap="round" stroke-linejoin="round"></path>
                <path d="M55.6268307,41.522068 C55.9972383,41.3293294 56.4113876,41.221519 56.8484536,41.221519 C58.4267354,41.221519 59.7061856,42.627359 59.7061856,44.3615506 C59.7061856,44.4111702 59.7051381,44.4605209 59.7030662,44.5095775 C59.3326586,44.7023161 58.9185093,44.8101266 58.4814433,44.8101266 C56.9031615,44.8101266 55.6237113,43.4042865 55.6237113,41.6700949 C55.6237113,41.6204754 55.6247588,41.5711247 55.6268307,41.522068 Z" id="Combined-Shape" fill="#000000"></path>
                <path d="M42.86286,41.522068 C42.8649319,41.5711247 42.8659794,41.6204754 42.8659794,41.6700949 C42.8659794,43.4042865 41.5865292,44.8101266 40.0082474,44.8101266 C39.5711814,44.8101266 39.1570321,44.7023161 38.7866245,44.5095775 C38.7845526,44.4605209 38.7835052,44.4111702 38.7835052,44.3615506 C38.7835052,42.627359 40.0629553,41.221519 41.6412371,41.221519 C42.0783031,41.221519 42.4924525,41.3293294 42.86286,41.522068 Z" id="Combined-Shape-Copy" fill="#000000"></path>
                <path d="M56.8436668,30.5658593 C43.9559154,28.8995005 53.6094307,25.4913538 60.2759863,18.5879334 C66.9131379,11.7149617 61.7339164,9.82251661 64.5117472,7.13744445 C67.8794229,3.88222393 64.7581358,3.09006595 68.2585891,6.20548504 C70.9873426,8.63408778 64.8261201,13.1183271 65.3593406,16.7089436 C65.6314877,18.5415364 69.1752474,17.9535527 70.230541,19.4842743 C71.1101778,20.7602028 71.897451,23.5011335 70.4619519,24.1103699 C54.0088232,31.0931988 61.2110854,18.7536107 56.7888709,27.9801512 L56.8436668,30.5658593 Z" id="Path-3" fill="#D96C70" transform="translate(60.875900, 17.402514) rotate(46.000000) translate(-60.875900, -17.402514) "></path>
                <path d="M37.7244021,28.9177215 C39.7814791,31.4032934 41.6589296,30.9325311 43.335629,33.7047979 C45.4764095,37.2443798 51.1557318,33.3945894 54.7568675,35.8818251 C55.9632263,36.7150341 53.8408075,41.1911302 52.3682661,41.0248865 C35.7591028,39.1497827 35.6291222,42.4373744 25.6797705,44.3151573 C16.418513,46.0630732 23.8362745,57.4086812 15.5574989,60.533613 C4.00902428,64.8927352 11.1251373,47.0607747 13.9937241,43.3372165 C16.8160974,39.6736457 24.4404658,37.473193 27.1220357,33.7047979 C28.8844315,31.228113 29.5199345,31.4832573 31.151001,28.9177215 L37.7244021,28.9177215 Z" id="Path-4" fill="#D96C70" transform="translate(32.149485, 45.066456) rotate(-11.000000) translate(-32.149485, -45.066456) "></path>
                <path d="M81.8223405,38.8882385 C77.2167969,42.7070312 67.3378906,35.0844727 78.7691864,51.4777498 C81.052493,54.7521711 75.55372,58.8458421 78.1739977,61.8586915 C79.1493039,62.9801187 84.4697368,63.1204631 85.2549018,61.8586915 C87.3439672,58.501533 87.4189094,53.9561987 90.5004883,51.4777498 C93.2684957,49.2514999 94.1229252,53.7308051 96.8691406,51.4777498 C98.3614431,50.2534322 95.1859546,48.1497165 93.9086914,46.7026367 C91.8561774,44.3772338 89.9292562,43.0977112 87.8161058,41.5107422 C85.7029554,39.9237732 86.8179755,37.1565099 83.8295898,37.4238281 L81.8223405,38.8882385 Z" id="Path-5" fill="#D96C70"></path>
                <ellipse id="Oval" stroke="#41423F" stroke-width="2" fill="#DBD6C6" stroke-linecap="round" stroke-linejoin="round" cx="21.1778351" cy="30.4556962" rx="9.42010309" ry="12.278481"></ellipse>
                <ellipse id="Oval" stroke="#41423F" stroke-width="2" fill="#41423F" stroke-linecap="round" stroke-linejoin="round" cx="17.6056701" cy="27.1234177" rx="5.8685567" ry="5.89556962"></ellipse>
                <ellipse id="Oval-Copy-4" fill="#EAEAEA" cx="20.1572165" cy="25.0727848" rx="1.78608247" ry="1.7943038"></ellipse>
                <ellipse id="Oval-Copy" stroke="#41423F" stroke-width="2" fill="#DBD6C6" stroke-linecap="round" stroke-linejoin="round" cx="75.2706186" cy="29.4303797" rx="9.42010309" ry="12.278481"></ellipse>
                <ellipse id="Oval-Copy" stroke="#41423F" stroke-width="2" fill="#41423F" stroke-linecap="round" stroke-linejoin="round" cx="72.2087629" cy="27.1234177" rx="5.8685567" ry="5.89556962"></ellipse>
                <ellipse id="Oval-Copy-3" fill="#EAEAEA" cx="74.7603093" cy="25.585443" rx="2.29639175" ry="2.30696203"></ellipse>
                <path d="M96.6308594,60.7056485 L67.5048828,85.9960937 C54.398763,90.0358073 42.7402344,90.0358073 32.5292969,85.9960937 C22.3183594,81.9563802 11.6464844,72.4238281 0.513671875,57.3984375 C17.2546407,62.6877956 33.5646449,63.7901993 49.4436844,60.7056485 C66.7719085,57.3395893 82.5009668,57.3395893 96.6308594,60.7056485 Z" id="Combined-Shape" stroke="#41423F" stroke-width="2" fill="#DDBE59" stroke-linecap="round" stroke-linejoin="round"></path>
            </g>
            <g id="horizonte" transform="translate(0.000000, 111.000000)">
                <mask id="mask-4" fill="white">
                    <use xlink:href="#path-3"></use>
                </mask>
                <use id="Path-32" fill="#B4CF7E" fill-rule="nonzero" xlink:href="#path-3"></use>
                <g id="delantera-copy-2" opacity="0.372265625" style="mix-blend-mode: multiply;" mask="url(#mask-4)" fill="#41423F" stroke="#41423F" stroke-linecap="round" stroke-linejoin="round" stroke-width="2">
                    <g transform="translate(321.886548, 13.497136) rotate(-24.000000) translate(-321.886548, -13.497136) translate(278.886548, -23.502864)">
                        <path d="M69.9568988,57.8834038 C72.9118158,54.5236483 74.8474606,51.9397842 75.7638334,50.1318114 C79.06109,43.6264346 78.0207993,37.6235444 77.1920132,36.3208839 C75.8924519,34.2782733 70.6201141,31.9406531 61.375,29.3080232 L66.0061165,24.4477612 C75.1053949,24.8768206 81.0143438,27.496698 83.7329632,32.3073934 C86.4515825,37.1180888 86.0368801,44.0534627 82.4888558,53.113515 L81.590143,63.861806 C81.6485877,64.2496152 81.6788701,64.6465034 81.6788701,65.0503767 C81.6788701,65.9145208 81.5402353,66.7466864 81.2837329,67.5263638 L81.2077145,68.4355173 L80.9696546,68.3299676 C79.7012234,71.1160148 76.8663913,73.0559773 73.5727684,73.0559773 C69.095892,73.0559773 65.4666667,69.4717478 65.4666667,65.0503767 C65.4666667,61.9122599 67.2949278,59.1958621 69.9568988,57.8834038 Z" id="Combined-Shape"></path>
                        <path d="M24.6555355,33.9893774 C27.6104524,30.6296219 29.5460973,28.0457577 30.4624701,26.237785 C33.7597267,19.7324082 32.719436,13.729518 31.8906499,12.4268575 C30.5910885,10.3842469 25.3187507,8.04662667 16.0736366,5.41399681 L15.7748155,-0.747199358 C28.160719,0.54914944 35.7129805,3.60267156 38.4315998,8.413367 C41.1502191,13.2240624 40.7355167,20.1594363 37.1874925,29.2194886 L36.2887797,39.9677796 C36.3472244,40.3555888 36.3775068,40.752477 36.3775068,41.1563503 C36.3775068,42.0204944 36.238872,42.85266 35.9823696,43.6323374 L35.9063512,44.5414909 L35.6682912,44.4359412 C34.3998601,47.2219884 31.5650279,49.1619509 28.271405,49.1619509 C23.7945287,49.1619509 20.1653033,45.5777214 20.1653033,41.1563503 C20.1653033,38.0182335 21.9935644,35.3018357 24.6555355,33.9893774 Z" id="Combined-Shape-Copy-5" transform="translate(27.987759, 24.207376) scale(-1, 1) rotate(-56.000000) translate(-27.987759, -24.207376) "></path>
                        <path d="M24.0725095,43.196997 L23.8303701,43.0896385 C24.0079771,42.9124291 24.1831007,42.7366674 24.3557407,42.5623535 C25.0639678,41.145942 26.1839483,39.9662508 27.5612831,39.175765 C30.0567434,36.3938694 31.7462906,34.0817737 32.6299248,32.2394779 C42.0741195,12.5492017 42.6670636,3.77680295 47.0724662,2.44055182 C52.3661842,0.834855933 58.1147381,8.17142916 64.3181277,24.4502715 L56.0440937,25.5599424 C55.2812281,16.2885955 53.585817,11.9138798 50.9578603,12.4357954 C48.3299037,12.9577109 44.8057634,20.7051376 40.3854396,35.6780756 L39.879799,45.4831682 C39.9832108,45.9987815 40.0376782,46.5205283 40.0376782,47.0408713 C40.0376782,47.8229241 39.9146431,48.5494231 39.6873229,49.2155533 L39.6417135,50.0999854 L39.3689552,49.9790513 C38.0617675,52.607837 34.9993511,54.1079722 31.6282827,54.1079722 C27.1514064,54.1079722 23.522181,50.5237427 23.522181,46.1023716 C23.522181,45.077532 23.7171708,44.09767 24.0725095,43.196997 Z" id="Combined-Shape"></path>
                    </g>
                </g>
                <g id="delantera-copy-5" opacity="0.252957589" style="mix-blend-mode: multiply;" mask="url(#mask-4)" fill="#41423F" stroke="#41423F" stroke-linecap="round" stroke-linejoin="round" stroke-width="2">
                    <g transform="translate(169.226330, 14.782575) scale(-1, 1) rotate(-18.000000) translate(-169.226330, -14.782575) translate(126.226330, -22.217425)">
                        <path d="M69.9568988,57.8834038 C72.9118158,54.5236483 74.8474606,51.9397842 75.7638334,50.1318114 C79.06109,43.6264346 78.0207993,37.6235444 77.1920132,36.3208839 C75.8924519,34.2782733 70.6201141,31.9406531 61.375,29.3080232 L66.0061165,24.4477612 C75.1053949,24.8768206 81.0143438,27.496698 83.7329632,32.3073934 C86.4515825,37.1180888 86.0368801,44.0534627 82.4888558,53.113515 L81.590143,63.861806 C81.6485877,64.2496152 81.6788701,64.6465034 81.6788701,65.0503767 C81.6788701,65.9145208 81.5402353,66.7466864 81.2837329,67.5263638 L81.2077145,68.4355173 L80.9696546,68.3299676 C79.7012234,71.1160148 76.8663913,73.0559773 73.5727684,73.0559773 C69.095892,73.0559773 65.4666667,69.4717478 65.4666667,65.0503767 C65.4666667,61.9122599 67.2949278,59.1958621 69.9568988,57.8834038 Z" id="Combined-Shape"></path>
                        <path d="M24.6555355,33.9893774 C27.6104524,30.6296219 29.5460973,28.0457577 30.4624701,26.237785 C33.7597267,19.7324082 32.719436,13.729518 31.8906499,12.4268575 C30.5910885,10.3842469 25.3187507,8.04662667 16.0736366,5.41399681 L15.7748155,-0.747199358 C28.160719,0.54914944 35.7129805,3.60267156 38.4315998,8.413367 C41.1502191,13.2240624 40.7355167,20.1594363 37.1874925,29.2194886 L36.2887797,39.9677796 C36.3472244,40.3555888 36.3775068,40.752477 36.3775068,41.1563503 C36.3775068,42.0204944 36.238872,42.85266 35.9823696,43.6323374 L35.9063512,44.5414909 L35.6682912,44.4359412 C34.3998601,47.2219884 31.5650279,49.1619509 28.271405,49.1619509 C23.7945287,49.1619509 20.1653033,45.5777214 20.1653033,41.1563503 C20.1653033,38.0182335 21.9935644,35.3018357 24.6555355,33.9893774 Z" id="Combined-Shape-Copy-5" transform="translate(27.987759, 24.207376) scale(-1, 1) rotate(-56.000000) translate(-27.987759, -24.207376) "></path>
                        <path d="M24.0725095,43.196997 L23.8303701,43.0896385 C24.0079771,42.9124291 24.1831007,42.7366674 24.3557407,42.5623535 C25.0639678,41.145942 26.1839483,39.9662508 27.5612831,39.175765 C30.0567434,36.3938694 31.7462906,34.0817737 32.6299248,32.2394779 C42.0741195,12.5492017 42.6670636,3.77680295 47.0724662,2.44055182 C52.3661842,0.834855933 58.1147381,8.17142916 64.3181277,24.4502715 L56.0440937,25.5599424 C55.2812281,16.2885955 53.585817,11.9138798 50.9578603,12.4357954 C48.3299037,12.9577109 44.8057634,20.7051376 40.3854396,35.6780756 L39.879799,45.4831682 C39.9832108,45.9987815 40.0376782,46.5205283 40.0376782,47.0408713 C40.0376782,47.8229241 39.9146431,48.5494231 39.6873229,49.2155533 L39.6417135,50.0999854 L39.3689552,49.9790513 C38.0617675,52.607837 34.9993511,54.1079722 31.6282827,54.1079722 C27.1514064,54.1079722 23.522181,50.5237427 23.522181,46.1023716 C23.522181,45.077532 23.7171708,44.09767 24.0725095,43.196997 Z" id="Combined-Shape"></path>
                    </g>
                </g>
            </g>
            <g id="delantera-copy-4" transform="translate(319.000000, 122.000000) rotate(-24.000000) translate(-319.000000, -122.000000) translate(276.000000, 85.000000)" fill="#41423F" stroke="#41423F" stroke-linecap="round" stroke-linejoin="round" stroke-width="2">
                <polygon id="Path-21" points="50.2983393 18.0710635 48.9277188 31.5589233 62.1035107 39.0904198 73.4788968 28.4317151"></polygon>
                <path d="M70.017961,58.4016923 C72.9754572,55.0118535 74.9127916,52.4048534 75.8299642,50.5806921 C79.1300988,44.0170661 78.0889001,37.960426 77.2593906,36.6461015 C75.9586949,34.5852013 70.6817552,32.22665 61.4285714,29.5704475 L66.0637302,24.6666667 C75.170951,25.0995678 81.0850575,27.7429036 83.8060498,32.5966741 C86.5270421,37.4504445 86.1119777,44.4479178 82.5608566,53.5890939 L81.6613593,64.4336252 C81.7198551,64.8249069 81.7501639,65.2253488 81.7501639,65.6328384 C81.7501639,66.50472 81.6114081,67.3443368 81.3546818,68.1309955 L81.278597,69.0482896 L81.0403293,68.9417947 C79.770791,71.7527882 76.9334844,73.7101212 73.6369867,73.7101212 C69.1562027,73.7101212 65.5238095,70.0937985 65.5238095,65.6328384 C65.5238095,62.4666228 67.3536664,59.7259024 70.017961,58.4016923 Z" id="Combined-Shape"></path>
                <path d="M24.6770562,34.2937186 C27.6345523,30.9038798 29.5718867,28.2968797 30.4890594,26.4727183 C33.789194,19.9090924 32.7479953,13.8524522 31.9184858,12.5381277 C30.6177901,10.4772275 25.3408503,8.11867623 16.0876666,5.46247378 L15.7885846,-0.753889788 C28.1852992,0.554066529 35.7441527,3.63492991 38.465145,8.48870036 C41.1861373,13.3424708 40.7710729,20.3399441 37.2199517,29.4811201 L36.3204545,40.3256515 C36.3789502,40.7169331 36.409259,41.117375 36.409259,41.5248646 C36.409259,42.3967462 36.2705032,43.2363631 36.0137769,44.0230217 L35.9376922,44.9403158 L35.6994244,44.833821 C34.4298861,47.6448145 31.5925796,49.6021474 28.2960819,49.6021474 C23.8152978,49.6021474 20.1829047,45.9858248 20.1829047,41.5248646 C20.1829047,38.3586491 22.0127616,35.6179286 24.6770562,34.2937186 Z" id="Combined-Shape-Copy-5" transform="translate(28.012188, 24.424129) scale(-1, 1) rotate(-56.000000) translate(-28.012188, -24.424129) "></path>
                <path d="M24.0935213,43.5837833 L23.8511705,43.4754635 C24.0289326,43.2966674 24.204209,43.1193319 24.3769997,42.9434572 C25.085845,41.5143631 26.2068031,40.324109 27.5853401,39.5265452 C30.0829785,36.7197405 31.7740005,34.3869422 32.6584059,32.5281504 C42.1108441,12.6615674 42.7043057,3.81062048 47.1135536,2.46240454 C52.4118923,0.842331241 58.1654638,8.24459621 64.3742681,24.6691994 L56.0930121,25.7888064 C55.3294806,16.4344438 53.6325896,12.0205568 51.0023391,12.5471456 C48.3720886,13.0737343 44.8448723,20.8905316 40.4206902,35.9975374 L39.9146082,45.8904249 C40.0181104,46.410655 40.0726253,46.9370735 40.0726253,47.4620757 C40.0726253,48.2511309 39.9494828,48.984135 39.7219642,49.6562298 L39.6763149,50.5485811 L39.4033186,50.4265641 C38.0949898,53.0788881 35.0299004,54.5924555 31.6558896,54.5924555 C27.1751056,54.5924555 23.5427124,50.9761328 23.5427124,46.5151726 C23.5427124,45.4811566 23.7378724,44.4925209 24.0935213,43.5837833 Z" id="Combined-Shape"></path>
            </g>
            <g id="delantera-copy-3" transform="translate(166.000000, 125.000000) scale(-1, 1) rotate(-18.000000) translate(-166.000000, -125.000000) translate(123.000000, 88.000000)" fill="#41423F" stroke="#41423F" stroke-linecap="round" stroke-linejoin="round" stroke-width="2">
                <polygon id="Path-21" points="50.2983393 18.0710635 51.117263 29.9006014 66.8719818 36.9928978 73.4788968 28.4317151"></polygon>
                <path d="M70.017961,58.4016923 C72.9754572,55.0118535 74.9127916,52.4048534 75.8299642,50.5806921 C79.1300988,44.0170661 78.0889001,37.960426 77.2593906,36.6461015 C75.9586949,34.5852013 70.6817552,32.22665 61.4285714,29.5704475 L66.0637302,24.6666667 C75.170951,25.0995678 81.0850575,27.7429036 83.8060498,32.5966741 C86.5270421,37.4504445 86.1119777,44.4479178 82.5608566,53.5890939 L81.6613593,64.4336252 C81.7198551,64.8249069 81.7501639,65.2253488 81.7501639,65.6328384 C81.7501639,66.50472 81.6114081,67.3443368 81.3546818,68.1309955 L81.278597,69.0482896 L81.0403293,68.9417947 C79.770791,71.7527882 76.9334844,73.7101212 73.6369867,73.7101212 C69.1562027,73.7101212 65.5238095,70.0937985 65.5238095,65.6328384 C65.5238095,62.4666228 67.3536664,59.7259024 70.017961,58.4016923 Z" id="Combined-Shape"></path>
                <path d="M24.6770562,34.2937186 C27.6345523,30.9038798 29.5718867,28.2968797 30.4890594,26.4727183 C33.789194,19.9090924 32.7479953,13.8524522 31.9184858,12.5381277 C30.6177901,10.4772275 25.3408503,8.11867623 16.0876666,5.46247378 L15.7885846,-0.753889788 C28.1852992,0.554066529 35.7441527,3.63492991 38.465145,8.48870036 C41.1861373,13.3424708 40.7710729,20.3399441 37.2199517,29.4811201 L36.3204545,40.3256515 C36.3789502,40.7169331 36.409259,41.117375 36.409259,41.5248646 C36.409259,42.3967462 36.2705032,43.2363631 36.0137769,44.0230217 L35.9376922,44.9403158 L35.6994244,44.833821 C34.4298861,47.6448145 31.5925796,49.6021474 28.2960819,49.6021474 C23.8152978,49.6021474 20.1829047,45.9858248 20.1829047,41.5248646 C20.1829047,38.3586491 22.0127616,35.6179286 24.6770562,34.2937186 Z" id="Combined-Shape-Copy-5" transform="translate(28.012188, 24.424129) scale(-1, 1) rotate(-56.000000) translate(-28.012188, -24.424129) "></path>
                <path d="M24.0935213,43.5837833 L23.8511705,43.4754635 C24.0289326,43.2966674 24.204209,43.1193319 24.3769997,42.9434572 C25.085845,41.5143631 26.2068031,40.324109 27.5853401,39.5265452 C30.0829785,36.7197405 31.7740005,34.3869422 32.6584059,32.5281504 C42.1108441,12.6615674 42.7043057,3.81062048 47.1135536,2.46240454 C52.4118923,0.842331241 58.1654638,8.24459621 64.3742681,24.6691994 L56.0930121,25.7888064 C55.3294806,16.4344438 53.6325896,12.0205568 51.0023391,12.5471456 C48.3720886,13.0737343 44.8448723,20.8905316 40.4206902,35.9975374 L39.9146082,45.8904249 C40.0181104,46.410655 40.0726253,46.9370735 40.0726253,47.4620757 C40.0726253,48.2511309 39.9494828,48.984135 39.7219642,49.6562298 L39.6763149,50.5485811 L39.4033186,50.4265641 C38.0949898,53.0788881 35.0299004,54.5924555 31.6558896,54.5924555 C27.1751056,54.5924555 23.5427124,50.9761328 23.5427124,46.5151726 C23.5427124,45.4811566 23.7378724,44.4925209 24.0935213,43.5837833 Z" id="Combined-Shape"></path>
            </g>
            <g id="Group-3-Copy" opacity="0.559263393" transform="translate(313.000000, 43.500000) rotate(-3.000000) translate(-313.000000, -43.500000) translate(291.000000, 11.000000)">
                <polygon id="Rectangle-4" stroke="#41423F" stroke-width="2" fill="#FFFFFF" stroke-linecap="round" points="13.4444444 48.36 30.037037 48.36 26.3559512 51.48 17.1255303 51.48"></polygon>
                <polygon id="Rectangle-4-Copy" stroke="#41423F" stroke-width="2" stroke-linecap="round" points="17.5925926 50.96 26.9259259 50.96 24.440512 58.76 20.0780065 58.76"></polygon>
                <polygon id="Path" fill="#D96C70" points="19.1481481 58.76 26.4074074 58.76 25.8482176 65 19.707338 65"></polygon>
                <path d="M13.4350665,49.253581 C5.34284789,45.1883494 2.00088834e-11,35.7458186 2.00088834e-11,25.1536913 C2.00088834e-11,10.7453098 9.80577773,-1 22,-1 C34.1942223,-1 44,10.7453098 44,25.1536913 C44,35.7458186 38.6571521,45.1883494 30.5649335,49.253581 L30.3530966,49.36 L13.6469034,49.36 L13.4350665,49.253581 Z" id="Combined-Shape" stroke="#41423F" stroke-width="2" fill="#E6E3E3" stroke-linecap="round"></path>
                <path d="M34.4895754,2.76253553 C29.9089855,1.00840149 25.6368351,1.69691589e-15 22.1939121,0 C19.143759,0 15.4309174,0.791447588 11.4202385,2.19170452 C2.11027829,5.44211091 -1.16081192,26.4201495 3.29222686,37.8872052 C8.71818452,38.6078339 14.9633923,39 21.9015466,39 C28.6883091,39 36.5907547,39.4141496 40.1704954,37.9339081 C45.8050796,26.2118533 41.6451991,9.79488527 34.4895754,2.76253553 Z" id="Oval-12-Copy-2" fill="#D96C70"></path>
                <path d="M39.9714804,11.03861 C34.4054181,9.97775502 28.4239924,9.36 22.6962948,9.36 C16.3765936,9.36 9.75797816,10.1120543 3.73607859,11.3815615 C1.08272246,18.3926269 0.925655652,21.3896402 0.55731413,28.4180151 C6.74457677,29.1973607 14.3043373,29.64 22.8307732,29.64 C30.4457343,29.64 37.2849657,29.2869385 43.0603761,28.6562783 C43.4918193,20.4238516 43.6439299,17.5214078 39.9714804,11.03861 Z" id="Oval-12-Copy-2" fill="#69CFC8"></path>
            </g>
            <path d="M376.376668,80 C375.497504,78.2935872 375,76.3503267 375,74.2884615 C375,67.5017316 380.390102,62 387.03913,62 C392.7726,62 397.569977,66.090893 398.782446,71.5690057 C400.328946,70.5526 402.178271,69.9615385 404.165217,69.9615385 C409.596818,69.9615385 414,74.3784216 414,79.8269231 C414,79.8847329 413.999504,79.9424265 413.998517,80 L376.376668,80 Z" id="Combined-Shape-Copy-4" fill="#DDBE59" opacity="0.658426339"></path>
            <g id="Group-3-Copy-2" opacity="0.768805804" transform="translate(438.500000, 29.500000) rotate(-9.000000) translate(-438.500000, -29.500000) translate(421.000000, 3.000000)">
                <polygon id="Rectangle-4" stroke="#41423F" stroke-width="2" stroke-linecap="round" points="10.8088235 38.7307692 24.7058824 38.7307692 21.6228038 40.2596154 13.8919021 40.2596154"></polygon>
                <polygon id="Rectangle-4-Copy" stroke="#41423F" stroke-width="2" stroke-linecap="round" points="13.3823529 40.2596154 21.6176471 40.2596154 19.4246348 48.4134615 15.5753652 48.4134615"></polygon>
                <polygon id="Path" fill="#D96C70" points="14.4117647 47.9038462 21.1029412 47.9038462 20.5875115 53 14.9271944 53"></polygon>
                <path d="M10.7366404,38.7307692 C4.42986341,35.6858468 0,28.5110436 0,20.1451988 C0,9.0193127 7.83501688,0 17.5,0 C27.1649831,0 35,9.0193127 35,20.1451988 C35,28.5110436 30.5701366,35.6858468 24.2633596,38.7307692 L10.7366404,38.7307692 Z" id="Combined-Shape" stroke="#41423F" stroke-width="2" fill="#DD59A0" stroke-linecap="round"></path>
                <ellipse id="Oval-12-Copy-2" fill="#CDC7D0" cx="17.7573529" cy="20.1298077" rx="14.6691176" ry="20.1298077"></ellipse>
                <ellipse id="Oval-12-Copy-2" fill="#7EB3CF" cx="18.0147059" cy="20.1298077" rx="7.72058824" ry="20.1298077"></ellipse>
            </g>
        </g>
    </g>
</svg>