<?xml version="1.0" encoding="UTF-8"?>
<svg width="495px" height="161px" viewBox="0 0 495 161" version="1.1" xmlns="http://www.w3.org/2000/svg" xmlns:xlink="http://www.w3.org/1999/xlink">
    <!-- Generator: Sketch 51.2 (57519) - http://www.bohemiancoding.com/sketch -->
    <title>rana-mirando</title>
    <desc>Created with Sketch.</desc>
    <defs></defs>
    <g id="rana-mirando" stroke="none" stroke-width="1" fill="none" fill-rule="evenodd">
        <path d="M203.636241,101.277933 C201.850339,98.5951494 200.765405,95.0606369 200.765405,91.1875 C200.765405,82.7996754 205.853749,76 212.13054,76 C216.538493,76 220.360338,79.3534112 222.245397,84.2552933 L225.574505,81.2100074 C229.837666,80.5572757 234.203983,80.21875 238.649189,80.21875 C243.094396,80.21875 247.460712,80.5572757 251.723874,81.2100074 L252.694575,82.0979518 C254.767239,78.3960186 258.074427,76 261.800391,76 C268.077182,76 273.165526,82.7996754 273.165526,91.1875 C273.165526,94.1464257 272.532319,96.9077179 271.437106,99.2425959 L288,114.393427 C287.54708,117.384037 286.830901,120.288002 285.875895,123.080838 L250.344343,155.583162 C246.540565,156.509191 242.566945,157 238.478948,157 C234.555626,157 230.737652,156.547937 227.074054,155.692948 L190.930498,122.630797 C190.079274,120.061848 189.429516,117.400767 189,114.666368 L203.636241,101.277933 Z" id="Combined-Shape" stroke="#41423F" stroke-width="2" fill="#41423F" stroke-linecap="round" stroke-linejoin="round"></path>
        <path d="M244.626831,105.522068 C244.997238,105.329329 245.411388,105.221519 245.848454,105.221519 C247.426735,105.221519 248.706186,106.627359 248.706186,108.361551 C248.706186,108.41117 248.705138,108.460521 248.703066,108.509578 C248.332659,108.702316 247.918509,108.810127 247.481443,108.810127 C245.903162,108.810127 244.623711,107.404287 244.623711,105.670095 C244.623711,105.620475 244.624759,105.571125 244.626831,105.522068 Z" id="Combined-Shape" fill="#000000"></path>
        <path d="M231.86286,105.522068 C231.864932,105.571125 231.865979,105.620475 231.865979,105.670095 C231.865979,107.404287 230.586529,108.810127 229.008247,108.810127 C228.571181,108.810127 228.157032,108.702316 227.786625,108.509578 C227.784553,108.460521 227.783505,108.41117 227.783505,108.361551 C227.783505,106.627359 229.062955,105.221519 230.641237,105.221519 C231.078303,105.221519 231.492452,105.329329 231.86286,105.522068 Z" id="Combined-Shape-Copy" fill="#000000"></path>
        <path d="M245.843667,94.5658593 C232.955915,92.8995005 242.609431,89.4913538 249.275986,82.5879334 C255.913138,75.7149617 250.733916,73.8225166 253.511747,71.1374445 C256.879423,67.8822239 253.758136,67.090066 257.258589,70.205485 C259.987343,72.6340878 253.82612,77.1183271 254.359341,80.7089436 C254.631488,82.5415364 258.175247,81.9535527 259.230541,83.4842743 C260.110178,84.7602028 260.897451,87.5011335 259.461952,88.1103699 C243.008823,95.0931988 250.211085,82.7536107 245.788871,91.9801512 L245.843667,94.5658593 Z" id="Path-3" fill="#D96C70" transform="translate(249.875900, 81.402514) rotate(46.000000) translate(-249.875900, -81.402514) "></path>
        <path d="M226.724402,92.9177215 C228.781479,95.4032934 230.65893,94.9325311 232.335629,97.7047979 C234.47641,101.24438 240.155732,97.3945894 243.756867,99.8818251 C244.963226,100.715034 242.840808,105.19113 241.368266,105.024887 C224.759103,103.149783 224.629122,106.437374 214.679771,108.315157 C205.418513,110.063073 212.836275,121.408681 204.557499,124.533613 C193.009024,128.892735 200.125137,111.060775 202.993724,107.337216 C205.816097,103.673646 213.440466,101.473193 216.122036,97.7047979 C217.884431,95.228113 218.519935,95.4832573 220.151001,92.9177215 L226.724402,92.9177215 Z" id="Path-4" fill="#D96C70" transform="translate(221.149485, 109.066456) rotate(-11.000000) translate(-221.149485, -109.066456) "></path>
        <path d="M270.82234,102.888239 C266.216797,106.707031 256.337891,99.0844727 267.769186,115.47775 C270.052493,118.752171 264.55372,122.845842 267.173998,125.858692 C268.149304,126.980119 273.469737,127.120463 274.254902,125.858692 C276.343967,122.501533 276.418909,117.956199 279.500488,115.47775 C282.268496,113.2515 283.122925,117.730805 285.869141,115.47775 C287.361443,114.253432 284.185955,112.149716 282.908691,110.702637 C280.856177,108.377234 278.929256,107.097711 276.816106,105.510742 C274.702955,103.923773 275.817975,101.15651 272.82959,101.423828 L270.82234,102.888239 Z" id="Path-5" fill="#D96C70"></path>
        <ellipse id="Oval" stroke="#41423F" stroke-width="2" fill="#DBD6C6" stroke-linecap="round" stroke-linejoin="round" cx="210.177835" cy="94.4556962" rx="9.42010309" ry="12.278481"></ellipse>
        <ellipse id="Oval" stroke="#41423F" stroke-width="2" fill="#41423F" stroke-linecap="round" stroke-linejoin="round" cx="206.60567" cy="91.1234177" rx="5.8685567" ry="5.89556962"></ellipse>
        <ellipse id="Oval-Copy-4" fill="#EAEAEA" cx="209.157216" cy="89.0727848" rx="1.78608247" ry="1.7943038"></ellipse>
        <ellipse id="Oval-Copy" stroke="#41423F" stroke-width="2" fill="#DBD6C6" stroke-linecap="round" stroke-linejoin="round" cx="264.270619" cy="93.4303797" rx="9.42010309" ry="12.278481"></ellipse>
        <ellipse id="Oval-Copy" stroke="#41423F" stroke-width="2" fill="#41423F" stroke-linecap="round" stroke-linejoin="round" cx="261.208763" cy="91.1234177" rx="5.8685567" ry="5.89556962"></ellipse>
        <ellipse id="Oval-Copy-3" fill="#EAEAEA" cx="263.760309" cy="89.585443" rx="2.29639175" ry="2.30696203"></ellipse>
        <path d="M285.630859,124.705649 C283.00293,129.835802 273.294271,138.265951 256.504883,149.996094 C243.398763,154.035807 231.740234,154.035807 221.529297,149.996094 C211.318359,145.95638 200.646484,136.423828 189.513672,121.398438 C203.917611,127.271858 220.833139,128.374262 240.260254,124.705649 C270.296062,119.033691 277.17041,129.466797 285.630859,124.705649 Z" id="Combined-Shape" stroke="#41423F" stroke-width="2" fill="#DDBE59" stroke-linecap="round" stroke-linejoin="round"></path>
        <g id="horizonte" transform="translate(-2.000000, 129.000000)" fill="#B4CF7E" fill-rule="nonzero">
            <path d="M0,34.125 C83.7539659,11.4917211 165.587299,0.175081623 245.5,0.175081623 C325.412701,0.175081623 407.246034,11.4917211 491,34.125 L0,34.125 Z" id="Path-32"></path>
        </g>
        <g id="delantera-copy-4" transform="translate(317.000000, 140.000000) rotate(-24.000000) translate(-317.000000, -140.000000) translate(274.000000, 103.000000)" fill="#41423F" stroke="#41423F" stroke-linecap="round" stroke-linejoin="round" stroke-width="2">
            <polygon id="Path-21" points="50.2983393 18.0710635 48.9277188 31.5589233 62.1035107 39.0904198 73.4788968 28.4317151"></polygon>
            <path d="M70.017961,58.4016923 C72.9754572,55.0118535 74.9127916,52.4048534 75.8299642,50.5806921 C79.1300988,44.0170661 78.0889001,37.960426 77.2593906,36.6461015 C75.9586949,34.5852013 70.6817552,32.22665 61.4285714,29.5704475 L66.0637302,24.6666667 C75.170951,25.0995678 81.0850575,27.7429036 83.8060498,32.5966741 C86.5270421,37.4504445 86.1119777,44.4479178 82.5608566,53.5890939 L81.6613593,64.4336252 C81.7198551,64.8249069 81.7501639,65.2253488 81.7501639,65.6328384 C81.7501639,66.50472 81.6114081,67.3443368 81.3546818,68.1309955 L81.278597,69.0482896 L81.0403293,68.9417947 C79.770791,71.7527882 76.9334844,73.7101212 73.6369867,73.7101212 C69.1562027,73.7101212 65.5238095,70.0937985 65.5238095,65.6328384 C65.5238095,62.4666228 67.3536664,59.7259024 70.017961,58.4016923 Z" id="Combined-Shape"></path>
            <path d="M24.6770562,34.2937186 C27.6345523,30.9038798 29.5718867,28.2968797 30.4890594,26.4727183 C33.789194,19.9090924 32.7479953,13.8524522 31.9184858,12.5381277 C30.6177901,10.4772275 25.3408503,8.11867623 16.0876666,5.46247378 L15.7885846,-0.753889788 C28.1852992,0.554066529 35.7441527,3.63492991 38.465145,8.48870036 C41.1861373,13.3424708 40.7710729,20.3399441 37.2199517,29.4811201 L36.3204545,40.3256515 C36.3789502,40.7169331 36.409259,41.117375 36.409259,41.5248646 C36.409259,42.3967462 36.2705032,43.2363631 36.0137769,44.0230217 L35.9376922,44.9403158 L35.6994244,44.833821 C34.4298861,47.6448145 31.5925796,49.6021474 28.2960819,49.6021474 C23.8152978,49.6021474 20.1829047,45.9858248 20.1829047,41.5248646 C20.1829047,38.3586491 22.0127616,35.6179286 24.6770562,34.2937186 Z" id="Combined-Shape-Copy-5" transform="translate(28.012188, 24.424129) scale(-1, 1) rotate(-56.000000) translate(-28.012188, -24.424129) "></path>
            <path d="M24.0935213,43.5837833 L23.8511705,43.4754635 C24.0289326,43.2966674 24.204209,43.1193319 24.3769997,42.9434572 C25.085845,41.5143631 26.2068031,40.324109 27.5853401,39.5265452 C30.0829785,36.7197405 31.7740005,34.3869422 32.6584059,32.5281504 C42.1108441,12.6615674 42.7043057,3.81062048 47.1135536,2.46240454 C52.4118923,0.842331241 58.1654638,8.24459621 64.3742681,24.6691994 L56.0930121,25.7888064 C55.3294806,16.4344438 53.6325896,12.0205568 51.0023391,12.5471456 C48.3720886,13.0737343 44.8448723,20.8905316 40.4206902,35.9975374 L39.9146082,45.8904249 C40.0181104,46.410655 40.0726253,46.9370735 40.0726253,47.4620757 C40.0726253,48.2511309 39.9494828,48.984135 39.7219642,49.6562298 L39.6763149,50.5485811 L39.4033186,50.4265641 C38.0949898,53.0788881 35.0299004,54.5924555 31.6558896,54.5924555 C27.1751056,54.5924555 23.5427124,50.9761328 23.5427124,46.5151726 C23.5427124,45.4811566 23.7378724,44.4925209 24.0935213,43.5837833 Z" id="Combined-Shape"></path>
        </g>
        <g id="delantera-copy-3" transform="translate(164.000000, 143.000000) scale(-1, 1) rotate(-18.000000) translate(-164.000000, -143.000000) translate(121.000000, 106.000000)" fill="#41423F" stroke="#41423F" stroke-linecap="round" stroke-linejoin="round" stroke-width="2">
            <polygon id="Path-21" points="50.2983393 18.0710635 51.117263 29.9006014 66.8719818 36.9928978 73.4788968 28.4317151"></polygon>
            <path d="M70.017961,58.4016923 C72.9754572,55.0118535 74.9127916,52.4048534 75.8299642,50.5806921 C79.1300988,44.0170661 78.0889001,37.960426 77.2593906,36.6461015 C75.9586949,34.5852013 70.6817552,32.22665 61.4285714,29.5704475 L66.0637302,24.6666667 C75.170951,25.0995678 81.0850575,27.7429036 83.8060498,32.5966741 C86.5270421,37.4504445 86.1119777,44.4479178 82.5608566,53.5890939 L81.6613593,64.4336252 C81.7198551,64.8249069 81.7501639,65.2253488 81.7501639,65.6328384 C81.7501639,66.50472 81.6114081,67.3443368 81.3546818,68.1309955 L81.278597,69.0482896 L81.0403293,68.9417947 C79.770791,71.7527882 76.9334844,73.7101212 73.6369867,73.7101212 C69.1562027,73.7101212 65.5238095,70.0937985 65.5238095,65.6328384 C65.5238095,62.4666228 67.3536664,59.7259024 70.017961,58.4016923 Z" id="Combined-Shape"></path>
            <path d="M24.6770562,34.2937186 C27.6345523,30.9038798 29.5718867,28.2968797 30.4890594,26.4727183 C33.789194,19.9090924 32.7479953,13.8524522 31.9184858,12.5381277 C30.6177901,10.4772275 25.3408503,8.11867623 16.0876666,5.46247378 L15.7885846,-0.753889788 C28.1852992,0.554066529 35.7441527,3.63492991 38.465145,8.48870036 C41.1861373,13.3424708 40.7710729,20.3399441 37.2199517,29.4811201 L36.3204545,40.3256515 C36.3789502,40.7169331 36.409259,41.117375 36.409259,41.5248646 C36.409259,42.3967462 36.2705032,43.2363631 36.0137769,44.0230217 L35.9376922,44.9403158 L35.6994244,44.833821 C34.4298861,47.6448145 31.5925796,49.6021474 28.2960819,49.6021474 C23.8152978,49.6021474 20.1829047,45.9858248 20.1829047,41.5248646 C20.1829047,38.3586491 22.0127616,35.6179286 24.6770562,34.2937186 Z" id="Combined-Shape-Copy-5" transform="translate(28.012188, 24.424129) scale(-1, 1) rotate(-56.000000) translate(-28.012188, -24.424129) "></path>
            <path d="M24.0935213,43.5837833 L23.8511705,43.4754635 C24.0289326,43.2966674 24.204209,43.1193319 24.3769997,42.9434572 C25.085845,41.5143631 26.2068031,40.324109 27.5853401,39.5265452 C30.0829785,36.7197405 31.7740005,34.3869422 32.6584059,32.5281504 C42.1108441,12.6615674 42.7043057,3.81062048 47.1135536,2.46240454 C52.4118923,0.842331241 58.1654638,8.24459621 64.3742681,24.6691994 L56.0930121,25.7888064 C55.3294806,16.4344438 53.6325896,12.0205568 51.0023391,12.5471456 C48.3720886,13.0737343 44.8448723,20.8905316 40.4206902,35.9975374 L39.9146082,45.8904249 C40.0181104,46.410655 40.0726253,46.9370735 40.0726253,47.4620757 C40.0726253,48.2511309 39.9494828,48.984135 39.7219642,49.6562298 L39.6763149,50.5485811 L39.4033186,50.4265641 C38.0949898,53.0788881 35.0299004,54.5924555 31.6558896,54.5924555 C27.1751056,54.5924555 23.5427124,50.9761328 23.5427124,46.5151726 C23.5427124,45.4811566 23.7378724,44.4925209 24.0935213,43.5837833 Z" id="Combined-Shape"></path>
        </g>
    </g>
</svg>