<?xml version="1.0" encoding="UTF-8"?>
<svg width="314px" height="218px" viewBox="0 0 314 218" version="1.1" xmlns="http://www.w3.org/2000/svg" xmlns:xlink="http://www.w3.org/1999/xlink">
    <!-- Generator: Sketch 48.2 (47327) - http://www.bohemiancoding.com/sketch -->
    <title>rana404</title>
    <desc>Created with Sketch.</desc>
    <defs>
        <path d="M52,0 L104,57.8485577 C86.6666667,72.4649439 69.3333333,79.773137 52,79.773137 C34.6666667,79.773137 17.3333333,72.4649439 0,57.8485577 L52,0 Z" id="path-1"></path>
        <path d="M35.3228401,48.3229167 L54.4826804,40.3616071 C58.4590987,41.0782685 58.7568987,45.4021772 55.3760804,53.3333333 C49.8936844,53.3333333 43.209271,51.6631944 35.3228401,48.3229167 Z" id="path-3"></path>
        <path d="M0,13.8222829 C15.6235027,6.15181286 33.9764439,1.54438522 55.0588235,0 C54.0932616,2.99079255 48.6347219,18.4994934 38.6832045,46.5261025 L35.3628465,48 L41.4758305,13.8222829 L14.0537898,29.5313727 L0,13.8222829 Z" id="path-4"></path>
        <path d="M0.261226119,14.2581236 C16.2526164,6.2970931 34.8105627,1.54438522 55.9350649,0 C54.9675738,2.99079255 49.4981279,18.4994934 39.5267273,46.5261025 L36.1997353,48 L42.324933,13.8222829 L14.4557335,29.9575969 L0.261226119,14.2581236 Z" id="path-6"></path>
        <polygon id="path-8" points="54.4764462 37.6267612 21.306676 39.9806908 3.08079268 8.58907093 0.598096894 18.0886775 16.8980564 45.786182 54.2579463 41.8086601"></polygon>
        <path d="M13.2601738,22.7813473 C11.6421783,20.3635297 10.659247,17.1781049 10.659247,13.6875 C10.659247,6.12810249 15.2691964,0 20.9558572,0 C24.9493843,0 28.4119073,3.02221013 30.1197376,7.43995569 L33.1358499,4.69543874 C36.9981981,4.10717435 40.954003,3.80208333 44.9812809,3.80208333 C49.0085587,3.80208333 52.9643637,4.10717435 56.8267119,4.69543874 L57.7061498,5.49568493 C59.5839465,2.15937477 62.5802001,0 65.9558572,0 C71.6425179,0 76.2524673,6.12810249 76.2524673,13.6875 C76.2524673,16.3541862 75.6787927,18.8427581 74.686549,20.9470309 L89.6922361,34.6014838 C89.2818984,37.2967248 88.6330536,39.9138786 87.7678344,42.4308791 L55.5768817,71.7230966 C52.1307264,72.5576664 48.530698,73 44.8270452,73 C41.2725851,73 37.813569,72.5925853 34.4944146,71.8220398 L1.74899722,42.0252861 C0.977802667,39.7100605 0.389134279,37.311802 -1.36834988e-14,34.8474672 L13.2601738,22.7813473 Z" id="path-9"></path>
        <ellipse id="path-11" cx="8.30508475" cy="11.109375" rx="7.62711864" ry="10.265625"></ellipse>
        <ellipse id="path-13" cx="7.6440678" cy="11.109375" rx="7.62711864" ry="10.265625"></ellipse>
    </defs>
    <g id="metafora" stroke="none" stroke-width="1" fill="none" fill-rule="evenodd">
        <g id="rana404" transform="translate(0.000000, -16.000000)">
            <g id="Group-2">
                <ellipse id="Oval-9-Copy" fill="#DBD6C6" cx="157" cy="192.5" rx="157" ry="41.5"></ellipse>
                <g id="body-copy" transform="translate(101.000000, 80.000000)">
                    <mask id="mask-2" fill="white">
                        <use xlink:href="#path-1"></use>
                    </mask>
                    <g id="Polygon" stroke-linecap="round" stroke-linejoin="round">
                        <use fill="#656662" fill-rule="evenodd" xlink:href="#path-1"></use>
                        <path stroke="#41423F" stroke-width="2" d="M52,-1.49585913 L105.433709,57.9476595 L104.644649,58.6130364 C87.1421113,73.3721047 69.588585,80.773137 52,80.773137 C34.411415,80.773137 16.8578887,73.3721047 -0.644648993,58.6130364 L-1.43370852,57.9476595 L52,-1.49585913 Z"></path>
                    </g>
                    <path d="M16.2022059,35.2877103 C27.0738642,36.5018929 -20.9929402,54.1794766 22.6140855,45.9818209 C35.333295,43.5907452 35.3773552,52.4421575 44.5067785,52.4421575 C53.6362017,52.4421575 56.5964499,44.1924579 60.6753791,43.9520733 C66.6915124,43.5975229 77.6121252,48.8980337 79.2053079,49.289363 C82.3236921,50.0553234 83.5339965,58.6388563 79.2053079,59.058744 C72.5257017,59.7066733 68.4107643,54.688116 61.7410386,55.4319411 C54.8638784,56.1988999 52.4592716,65.2103365 44.5067785,65.2103365 C41.9332156,65.2103365 26.1509525,66.6587226 29.0050551,62.1506911 C29.8673428,60.7887149 34.3065875,57.6271441 33.4289982,54.2540565 C33.2621266,53.6126718 32.7237654,52.8924054 32.0698529,52.8094952 C27.7915541,52.2670455 23.2935858,51.281913 19.138557,52.4421575 C18.5078669,52.6182705 18.8182559,58.1036294 16.2305836,57.8583233 C3.54231497,56.6555012 2.68494908,40.9773205 13.1530905,36.3288762 L16.2022059,35.2877103 Z" id="Path-7" fill="#DDBE59" mask="url(#mask-2)"></path>
                    <path d="M71.9485336,16.6045673 C67.956978,16.2848057 66.4469694,15.0774438 62.7417279,16.6045673 C60.5861339,17.4930002 63.4841267,25.6981149 58.8860869,25.5596454 C57.2804762,25.5112926 42.0789867,17.4000901 41.3112937,23.0769231 C36.4664657,28.1838472 45.9256664,29.8272236 49.8403033,37.3895733 C54.290455,45.9864379 60.2573403,38.272452 68.3418543,40.554387 C87.7193819,46.0238882 79.7273093,54.9842248 92.3725873,54.9842248 C98.9057582,54.9842248 99.7522768,51.85012 98.3692555,46.0238882 C95.7666905,35.0601039 89.6922214,26.3932352 78.6870404,23.831881 L71.9485336,16.6045673 Z" id="Path-8" fill="#DDBE59" mask="url(#mask-2)"></path>
                    <path d="M101.596105,63.0108173 C86.4192325,52.578125 88.2996324,65.2035757 73.3139361,70.3583493 C65.7660189,72.9546787 61.8595123,68.0166551 52.5122932,68.2985276 C45.4031848,68.5129083 53.1007257,70.0147439 44.512006,72.8072416 C37.0771315,75.2245832 30.8372759,69.859354 33.1855469,80.7189002 C33.2550635,81.0403789 37.5247521,82.8327354 52.1471163,82.9154147 C66.3117255,82.9955057 88.0047015,76.1986474 96.9414063,66.5542368 L101.596105,63.0108173 Z" id="Path-9" fill="#DDBE59" mask="url(#mask-2)"></path>
                    <path d="M30.6696347,17.7170974 C44.5314002,22.5693423 37.6542969,18.5561899 36.4176241,30.4061614 C36.0501117,33.927716 42.1290211,30.8675314 47.3751723,39.2938702 L39.4361213,41.2755409 C24.826057,46.8682392 33.8561581,33.6651142 17.406767,30.8343465 C20.151125,25.6422434 24.1790939,27.6883013 27.8064683,23.0769231 L30.6696347,17.7170974 Z" id="Path-11" fill="#D96C70" mask="url(#mask-2)"></path>
                </g>
                <g id="pata-copy-2" transform="translate(243.500000, 156.000000) rotate(16.000000) translate(-243.500000, -156.000000) translate(185.000000, 124.000000)">
                    <g id="Path-17" stroke-linecap="round" stroke-linejoin="round">
                        <use fill="#41423F" fill-rule="evenodd" xlink:href="#path-3"></use>
                        <path stroke="#41423F" stroke-width="2" d="M32.7379588,48.3140952 L54.370583,39.3252928 L54.6600506,39.3774629 C59.5494671,40.258672 59.8954036,45.281499 56.29599,53.7254637 L56.0368731,54.3333333 L55.3760804,54.3333333 C49.7418141,54.3333333 42.932616,52.6320163 34.9328326,49.2437284 L32.7379588,48.3140952 Z"></path>
                    </g>
                    <path d="M81.991078,41.4459232 L75.6976476,37.7024756 L56.2006339,42.6422827 L52.7647059,40.9929315 L75.6976476,33.5238095 L84.8056498,34.6293298 C84.8861348,34.6250558 84.9672168,34.62289 85.0488348,34.62289 C87.4022278,34.62289 89.3100299,36.4235507 89.3100299,38.6447783 C89.3100299,40.8660059 87.4022278,42.6666667 85.0488348,42.6666667 C83.8492634,42.6666667 82.765463,42.1988291 81.991078,41.4459232 Z" id="Combined-Shape" stroke="#41423F" stroke-width="2" fill="#41423F" stroke-linecap="round" stroke-linejoin="round"></path>
                    <path d="M106.051496,51.3996042 L106.042452,51.4203869 L95.5393798,44.3837997 L55.8235294,47.8209131 L58.1055193,44.1982327 L102.666294,36.5714286 L110.555684,38.5215282 C114.165835,38.8286784 117,41.8508033 117,45.5336279 C117,49.4204979 113.843084,52.5714286 109.94883,52.5714286 C108.507915,52.5714286 107.167948,52.1400414 106.051496,51.3996042 Z" id="Combined-Shape" stroke="#41423F" stroke-width="2" fill="#41423F" stroke-linecap="round" stroke-linejoin="round"></path>
                    <path d="M91.6800027,62.9253641 L91.6722127,62.9414811 L85.9567185,57.8656022 L55.1521714,53.3735147 L57.0094897,49.5238095 L85.9567185,51.9803923 L94.7069398,53.1593143 C94.7573226,53.1578759 94.8078806,53.1571519 94.8586046,53.1571519 C97.7955809,53.1571519 100.176471,55.5844061 100.176471,58.578576 C100.176471,61.5727458 97.7955809,64 94.8586046,64 C93.666875,64 92.5667036,63.6003592 91.6800027,62.9253641 Z" id="Combined-Shape" stroke="#41423F" stroke-width="2" fill="#41423F" stroke-linecap="round" stroke-linejoin="round"></path>
                    <mask id="mask-5" fill="white">
                        <use xlink:href="#path-4"></use>
                    </mask>
                    <use id="Path-16" stroke="#41423F" stroke-width="2" fill="#656662" stroke-linecap="round" stroke-linejoin="round" xlink:href="#path-4"></use>
                    <path d="M21.8692557,3.50486942 C14.3570773,17.2953928 17.6838724,5.32091338 27.8983489,16.7335957 C29.3569579,18.3633063 28.0007938,21.2098471 28.87699,23.2113049 C29.8509342,25.4360441 40.0740947,19.3310491 39.7868948,16.7281327 C39.4205307,13.4077434 36.0577922,11.0801035 35.0206536,7.90355884 C31.3840251,-3.23469465 40.6021051,-1.94069957 23.0141583,3.20718964 L21.8692557,3.50486942 Z" id="Path-10" fill="#D96C70" mask="url(#mask-5)"></path>
                    <path d="M37.1157836,23.8429651 C42.7620295,22.0596648 45.353029,15.4392112 50.7190959,14.0367672 C53.8670134,13.2140458 54.3388725,20.2858597 54.2434865,20.5735852 C53.2167795,23.6705777 46.1054998,25.2011193 44.4760355,26.4509384 C37.6707142,31.6707031 49.3281825,31.2056171 34.9374225,34.5648858 C32.8477962,35.0526721 33.0002202,25.603844 35.9988824,24.1380632 L37.1157836,23.8429651 Z" id="Path-15" fill="#DDBE59" mask="url(#mask-5)"></path>
                </g>
                <g id="pata-copy-3" transform="translate(67.000000, 164.000000) scale(-1, 1) rotate(25.000000) translate(-67.000000, -164.000000) translate(8.000000, 132.000000)">
                    <path d="M83.0820092,39.160209 L76.7760046,35.4167613 L57.2400359,40.3565684 L54.4025974,38.7441145 L76.7760046,31.2380952 L85.9022046,32.3436155 C85.9828504,32.3393415 86.0640944,32.3371757 86.1458754,32.3371757 C88.5039706,32.3371757 90.4155844,34.1378365 90.4155844,36.3590641 C90.4155844,38.5802916 88.5039706,40.3809524 86.1458754,40.3809524 C84.9439073,40.3809524 83.8579415,39.9131148 83.0820092,39.160209 Z" id="Combined-Shape" stroke="#41423F" stroke-width="2" fill="#41423F" stroke-linecap="round" stroke-linejoin="round"></path>
                    <path d="M105.751614,50.316375 L96.4965014,44.3837997 L57.0879559,45.9427209 L58.0641048,42.6842043 L97.9967472,37.4904382 L110.663129,38.5009321 C110.753245,38.497539 110.843793,38.4958272 110.934742,38.4958272 C111.414953,38.4958272 111.883973,38.5435493 112.337286,38.6344923 L112.511501,38.6483908 L112.503951,38.6700294 C115.650754,39.3808936 118,42.183979 118,45.5336279 C118,49.4204979 114.836776,52.5714286 110.934742,52.5714286 C108.886625,52.5714286 107.042053,51.7033353 105.751614,50.316375 Z" id="Combined-Shape" stroke="#41423F" stroke-width="2" fill="#41423F" stroke-linecap="round" stroke-linejoin="round"></path>
                    <path d="M92.6294133,62.9253641 L92.6216077,62.9414811 L86.894694,57.8656022 L57.3669366,51.1408126 L58.1272774,48.192237 L86.894694,51.9803923 L95.6623982,53.1593143 C95.7128817,53.1578759 95.7635408,53.1571519 95.814366,53.1571519 C98.7572104,53.1571519 101.142857,55.5844061 101.142857,58.578576 C101.142857,61.5727458 98.7572104,64 95.814366,64 C94.6202554,64 93.5178858,63.6003592 92.6294133,62.9253641 Z" id="Combined-Shape" stroke="#41423F" stroke-width="2" fill="#41423F" stroke-linecap="round" stroke-linejoin="round"></path>
                    <path d="M36.4274927,48.06228 L54.3142252,38.8484982 C56.0471056,40.0014194 57.1278487,41.2398663 57.5564544,42.563839 C58.5059346,45.4968047 57.9996082,48.8531181 57.0660157,51.0232683 C51.5726659,51.0232683 44.6931583,50.0362722 36.4274927,48.06228 Z" id="Path-17" stroke="#41423F" stroke-width="2" fill="#41423F" stroke-linecap="round" stroke-linejoin="round"></path>
                    <mask id="mask-7" fill="white">
                        <use xlink:href="#path-6"></use>
                    </mask>
                    <g id="Path-16" stroke-linecap="round" stroke-linejoin="round">
                        <use fill="#656662" fill-rule="evenodd" xlink:href="#path-6"></use>
                        <path stroke="#41423F" stroke-width="2" d="M40.9603229,15.7678547 L14.2565863,31.2284055 L-1.36493925,13.950615 L-0.184434376,13.3629216 C15.9288682,5.34119919 34.6130829,0.556153826 55.8621508,-0.997338223 L57.3437549,-1.10565639 L56.8865205,0.307786241 C55.9143202,3.3131362 50.4477384,18.8137159 40.4688743,46.8613027 L40.3247869,47.2662891 L34.8832669,49.6769479 L40.9603229,15.7678547 Z"></path>
                    </g>
                    <path d="M9.95614011,7.51008969 C10.3376081,8.0236454 10.6739974,8.57355074 11.100544,9.05075681 L11.2952038,15.1243089 C12.9683709,16.996192 16.6080138,15.7067863 18.5136417,17.3442815 C19.9309091,18.5621313 18.9464348,21.2434292 20.11258,22.7010301 C22.4384316,25.6081837 29.0088112,23.7797943 30.3020382,20.7545999 C34.9567187,9.86609173 27.5629322,12.8817723 22.3469591,8.86697397 C21.0012845,7.83119175 21.5351556,4.69647289 19.8535014,4.43727265 C16.7773957,3.96313985 13.8900486,6.21501752 10.9083222,7.10388996 L9.95614011,7.51008969 Z" id="Path-27" fill="#D96C70" mask="url(#mask-7)"></path>
                    <path d="M52.3418993,12.6640721 C43.7360388,16.2067311 48.1359744,12.4767016 46.5505273,21.9097128 C46.4378732,22.5799767 46.0881126,23.7490794 45.419176,23.609913 C40.1895699,22.5219387 41.8330181,14.0713297 34.9078349,25.6358095 C34.4489239,26.4021528 33.0710521,33.6408528 36.2919982,34.8250746 C46.7518996,38.6707906 55.3725536,20.501253 51.290661,13.2639754" id="Path-28" fill="#DDBE59" mask="url(#mask-7)"></path>
                </g>
                <g id="delantera-copy-2" transform="translate(222.246298, 67.672193) rotate(-58.000000) translate(-222.246298, -67.672193) translate(164.746298, 33.672193)" stroke-linecap="round">
                    <g id="hand" transform="translate(80.921038, 34.073207) rotate(-136.000000) translate(-80.921038, -34.073207) translate(64.921038, 2.573207)" fill="#41423F" stroke="#41423F" stroke-width="2">
                        <polygon id="Path-21" stroke-linejoin="round" points="28.3142209 7.8801972 16.9868562 16.1904197 27.4904226 23.666333 31.7807338 12.6082114"></polygon>
                        <path d="M14.6912418,53.55723 L21.9352368,44.0373085 L22.1735959,22 L26.9360352,23.9802018 L25.974919,45.0445144 L21.913519,57.1002868 C21.962349,57.3785237 21.9878049,57.6647284 21.9878049,57.9568345 C21.9878049,60.6944187 19.7519586,62.9136691 16.9939024,62.9136691 C14.2358463,62.9136691 12,60.6944187 12,57.9568345 C12,56.0435849 13.0920695,54.3835084 14.6912418,53.55723 Z" id="Combined-Shape" stroke-linejoin="round"></path>
                        <path d="M15.5577774,10.8573711 L5.24356806,14.9327072 L17.6666695,16.4570395 L19.1783034,18.407027 L2.24518385,16.8587834 L0.324339284,13.7062057 L13.4406581,8.80165089 C13.3649139,8.53999425 13.3243393,8.26356636 13.3243393,7.9777321 C13.3243393,6.33317607 14.667485,5 16.3243393,5 C17.9811935,5 19.3243393,6.33317607 19.3243393,7.9777321 C19.3243393,9.62228813 17.9811935,10.9554642 16.3243393,10.9554642 C16.0593937,10.9554642 15.80247,10.9213738 15.5577774,10.8573711 Z" id="Combined-Shape-Copy-4" stroke-linejoin="bevel"></path>
                        <path d="M2.7374248,4.24904028 C3.09626395,1.86123119 5.17085931,0.0297042737 7.67642967,0.0297042737 C10.4344858,0.0297042737 12.6703321,2.24895469 12.6703321,4.98653881 C12.6703321,5.43398817 12.6106018,5.86759032 12.4986237,6.27991828 L12.8389792,6.35073135 L5.63116778,24.2715165 L19.4264104,19.4838438 L21.520282,21.1841431 L4.20244305,28.5892893 L2,25.6518322 L2.51484711,4.20273161 L2.7374248,4.24904028 Z" id="Combined-Shape" stroke-linejoin="round"></path>
                    </g>
                    <g id="Path-26" stroke-linejoin="round">
                        <use fill="#50514E" fill-rule="evenodd" xlink:href="#path-8"></use>
                        <path stroke="#41423F" stroke-width="2" d="M21.858221,38.9390349 L55.5341123,36.5491878 L55.2120736,42.7127303 L16.3630847,46.8487892 L-0.474462016,18.2377963 L2.72697505,5.98805034 L21.858221,38.9390349 Z"></path>
                    </g>
                </g>
                <g id="delantera-copy-3" transform="translate(132.000000, 170.500000) scale(-1, 1) translate(-132.000000, -170.500000) translate(94.000000, 106.000000)" stroke="#41423F" stroke-linecap="round" stroke-linejoin="round" stroke-width="2">
                    <g id="Group" transform="translate(38.337731, 91.685038) rotate(-36.000000) translate(-38.337731, -91.685038) translate(9.337731, 67.685038)" fill="#41423F">
                        <polygon id="Path-21" points="53.394768 -1.70530257e-13 39.9191919 6.83046407 53.394768 13.6609281 57.7984138 2.2754491"></polygon>
                        <path d="M45.0318135,39.1191819 L47.865846,29.6167665 L48.9270241,11.497006 L53.6856455,13.4872754 L52.7252999,34.6586826 L53.4505629,40.77583 C53.6362757,41.2975432 53.7373737,41.8592893 53.7373737,42.4446108 C53.7373737,45.1961132 51.5033199,47.4266467 48.7474747,47.4266467 C45.9916296,47.4266467 43.7575758,45.1961132 43.7575758,42.4446108 C43.7575758,41.1666552 44.2395073,40.0010835 45.0318135,39.1191819 Z" id="Combined-Shape"></path>
                        <path d="M12.7658105,38.4741191 L26.6947601,17.6684132 L44.3490767,8.43113772 L47.4107876,10.3832335 L29.2181976,19.2836826 L22.0909485,34.1773952 L20.7201612,42.2085142 C20.7248822,42.2973442 20.7272727,42.3867916 20.7272727,42.4767964 C20.7272727,45.2282989 18.4932189,47.4588323 15.7373737,47.4588323 C12.9815286,47.4588323 10.7474747,45.2282989 10.7474747,42.4767964 C10.7474747,40.8368466 11.541099,39.3819657 12.7658105,38.4741191 Z" id="Combined-Shape"></path>
                        <path d="M1.17437025,24.8685797 L7.09276357,15.6639222 L40.3615057,6.89820359 L44.4217961,8.35329341 L10.6372711,17.5497754 L8.44193378,27.9326849 C8.36448351,30.1929212 6.50489397,32.001497 4.22222222,32.001497 C1.89035328,32.001497 0,30.1141225 0,27.7859281 C0,26.6538017 0.446986481,25.62591 1.17437025,24.8685797 Z" id="Combined-Shape"></path>
                    </g>
                    <polygon id="Path-25" fill="#50514E" points="49.2335684 59.0256768 57.3116489 36.7675678 41.1006717 0.0358941989 38.3358658 8.8526981 51.8172417 37.4411331 44.2468126 56.917637"></polygon>
                </g>
                <g id="cabeza" transform="translate(151.000000, 64.500000) rotate(-10.000000) translate(-151.000000, -64.500000) translate(106.000000, 28.000000)">
                    <mask id="mask-10" fill="white">
                        <use xlink:href="#path-9"></use>
                    </mask>
                    <g id="Combined-Shape" stroke-linecap="round" stroke-linejoin="round">
                        <use fill="#656662" fill-rule="evenodd" xlink:href="#path-9"></use>
                        <path stroke="#41423F" stroke-width="2" d="M11.9692027,22.6040288 C10.4813011,20.0688675 9.65924699,16.9584384 9.65924699,13.6875 C9.65924699,5.62769893 14.6450247,-1 20.9558572,-1 C24.9064119,-1 28.4434447,1.62685324 30.4766333,5.76315772 L32.6864203,3.75235792 L32.9852788,3.70683954 C36.9305214,3.10594974 40.9369289,2.80208333 44.9812809,2.80208333 C49.0256329,2.80208333 53.0320404,3.10594974 56.9772829,3.70683954 L57.2761415,3.75235792 L57.4899324,3.94689735 C59.5950811,0.850506719 62.6401107,-1 65.9558572,-1 C72.2666896,-1 77.2524673,5.62769893 77.2524673,13.6875 C77.2524673,16.1694835 76.7800947,18.5636759 75.8930402,20.6928396 L90.7614731,34.2223979 L90.6808445,34.7519948 C90.2648254,37.4845527 89.6055774,40.1608865 88.713521,42.755959 L88.6302696,42.9981446 L56.0607758,72.6348163 L55.8122522,72.6950023 C52.2441483,73.5591049 48.5641523,74 44.8270452,74 C41.2389357,74 37.7032365,73.5935649 34.2682772,72.7961352 L34.0142637,72.7371657 L0.882790741,42.58912 L0.800246663,42.341312 C0.00568477893,39.9559347 -0.592975089,37.503568 -0.987761188,35.003441 L-1.07187194,34.470779 L11.9692027,22.6040288 Z"></path>
                    </g>
                    <path d="M50.341897,26.8693256 C50.6879055,26.7059624 51.0747746,26.6145833 51.4830508,26.6145833 C52.9573703,26.6145833 54.1525424,27.8061588 54.1525424,29.2760417 C54.1525424,29.3180987 54.1515639,29.3599278 54.1496285,29.4015077 C53.8036199,29.564871 53.4167508,29.65625 53.0084746,29.65625 C51.5341551,29.65625 50.3389831,28.4646745 50.3389831,26.9947917 C50.3389831,26.9527347 50.3399615,26.9109055 50.341897,26.8693256 Z" id="Combined-Shape" fill="#41423F" mask="url(#mask-10)"></path>
                    <path d="M35.0876597,26.8693256 C35.4336683,26.7059624 35.8205373,26.6145833 36.2288136,26.6145833 C37.703133,26.6145833 38.8983051,27.8061588 38.8983051,29.2760417 C38.8983051,29.3180987 38.8973266,29.3599278 38.8953912,29.4015077 C38.5493826,29.564871 38.1625135,29.65625 37.7542373,29.65625 C36.2799178,29.65625 35.0847458,28.4646745 35.0847458,26.9947917 C35.0847458,26.9527347 35.0857242,26.9109055 35.0876597,26.8693256 Z" id="Combined-Shape-Copy" fill="#41423F" mask="url(#mask-10)" transform="translate(36.991525, 28.135417) scale(-1, 1) translate(-36.991525, -28.135417) "></path>
                    <path d="M52.4379176,14.6099452 C33.2185989,9.97854175 48.6632194,12.7508961 51.7035095,4.53293918 C52.9153499,1.2573135 47.5614117,-3.37161344 50.0648707,-5.81288601 C53.0999143,-8.77253854 59.6379183,-9.11326529 62.7926249,-6.28072049 C65.251854,-4.07263039 59.6991877,0.00444833995 60.1797409,3.26904351 C60.4250076,4.93524023 63.6187431,4.40064437 64.5698032,5.79237929 C65.3625565,6.95245585 66.0720692,9.44451513 64.7783572,9.99843397 C49.9503368,16.3472349 56.4412172,5.12805861 52.4557936,13.5168462 L52.4379176,14.6099452 Z" id="Path-3" fill="#D96C70" mask="url(#mask-10)" transform="translate(54.224472, 3.190255) rotate(46.000000) translate(-54.224472, -3.190255) "></path>
                    <path d="M34.1858512,15.2083333 C36.0452263,17.4423909 37.7422386,17.0192649 39.2577935,19.5110068 C41.1928276,22.6924196 46.3263207,19.2321883 49.581358,21.4677414 C50.6717759,22.2166382 48.7533389,26.2397994 47.4223206,26.0903779 C32.4094332,24.4050153 32.2919448,27.3599365 23.2988068,29.0477071 C14.9276315,30.618752 21.6324858,40.8163013 14.1493678,43.6250221 C3.71079568,47.5430461 10.1429923,31.5154963 12.7358846,28.1687239 C15.2870048,24.8758688 22.1786093,22.8980792 24.6024586,19.5110068 C26.1954737,17.284937 26.7698997,17.5142633 28.2442074,15.2083333 L34.1858512,15.2083333 Z" id="Path-4" fill="#D96C70" mask="url(#mask-10)" transform="translate(29.146729, 29.722982) rotate(-11.000000) translate(-29.146729, -29.722982) "></path>
                    <path d="M74.3811347,24.2753972 C69.2977582,29.0517752 65.9233286,28.7407282 71.5992778,35.7163157 C73.8918053,38.5337699 68.6695313,42.4121867 71.0569764,45.1501615 C71.9456188,46.1692763 76.7932887,46.2968166 77.5086855,45.1501615 C79.4121207,42.0992904 80.0046742,36.0563293 82.8124302,33.8039995 C85.334478,31.7808595 89.9458712,34.6461409 92.4480634,32.5986411 C93.8077628,31.4860229 91.110909,29.280848 89.9471409,27.9657913 C88.0770092,25.8525445 86.1813037,23.3547638 83.4940341,22.4805976 C80.8951493,21.6351829 78.0483468,22.9664569 75.3255032,23.2093866 L74.3811347,24.2753972 Z" id="Path-5" fill="#D96C70" mask="url(#mask-10)"></path>
                    <path d="M93.5960673,39.6938985 L45,81.7447917 L-3.49402476,39.6938985 C10.0227565,41.376434 19.2649053,42.6347179 24.2324219,43.46875 C33.1985951,44.9741454 46.9169778,49.5576172 54.2490234,49.5576172 C64.2333581,49.5576172 67.680853,41.3958524 76.9941406,39.6938985 C81.4773494,38.8746159 87.011325,38.8746159 93.5960673,39.6938985 Z" id="Combined-Shape" stroke="#41423F" stroke-width="2" fill="#DDBE59" stroke-linecap="round" stroke-linejoin="round" mask="url(#mask-10)"></path>
                    <g id="ojo-i" transform="translate(15.000000, 3.000000)">
                        <mask id="mask-12" fill="white">
                            <use xlink:href="#path-11"></use>
                        </mask>
                        <g id="Oval" stroke-linecap="round" stroke-linejoin="round">
                            <use fill="#DBD6C6" fill-rule="evenodd" xlink:href="#path-11"></use>
                            <ellipse stroke="#41423F" stroke-width="2" cx="8.30508475" cy="11.109375" rx="8.62711864" ry="11.265625"></ellipse>
                        </g>
                        <ellipse id="Oval" stroke="#41423F" stroke-width="2" fill="#41423F" stroke-linecap="round" stroke-linejoin="round" mask="url(#mask-12)" cx="12.3050847" cy="8.48958333" rx="7.62711864" ry="5.32291667"></ellipse>
                    </g>
                    <g id="ojo-d" transform="translate(64.000000, 3.000000)">
                        <mask id="mask-14" fill="white">
                            <use xlink:href="#path-13"></use>
                        </mask>
                        <g id="Oval-Copy" stroke-linecap="round" stroke-linejoin="round">
                            <use fill="#DBD6C6" fill-rule="evenodd" xlink:href="#path-13"></use>
                            <ellipse stroke="#41423F" stroke-width="2" cx="7.6440678" cy="11.109375" rx="8.62711864" ry="11.265625"></ellipse>
                        </g>
                        <ellipse id="Oval-Copy" stroke="#41423F" stroke-width="2" fill="#41423F" stroke-linecap="round" stroke-linejoin="round" mask="url(#mask-14)" cx="10.6440678" cy="9.48958333" rx="7.62711864" ry="5.32291667"></ellipse>
                    </g>
                </g>
            </g>
        </g>
    </g>
</svg>