<?xml version="1.0" encoding="UTF-8"?>
<svg width="194px" height="162px" viewBox="0 0 194 162" version="1.1" xmlns="http://www.w3.org/2000/svg" xmlns:xlink="http://www.w3.org/1999/xlink">
    <!-- Generator: Sketch 48.2 (47327) - http://www.bohemiancoding.com/sketch -->
    <title>ranita-recuadro</title>
    <desc>Created with Sketch.</desc>
    <defs>
        <path d="M142.491342,0.0548312551 L205.035942,151.218976 L208.956861,215.144283 L141.550134,102.96065 C140.127896,100.593648 137.05611,99.8277659 134.689107,101.250004 L2.16868946,180.876305 L70.734526,34.9523709 L142.491342,0.0548312551 Z" id="path-1"></path>
        <path d="M44.8637912,0 L89.7275823,49.9890562 C74.7729853,62.6196105 59.8183882,68.9348877 44.8637912,68.9348877 C29.9091941,68.9348877 14.9545971,62.6196105 0,49.9890562 L44.8637912,0 Z" id="path-3"></path>
        <path d="M30.4753177,41.7576011 L47.0057614,34.8779421 C50.4364769,35.4972354 50.6934084,39.2336832 47.7765559,46.0872855 C43.0465354,46.0872855 37.279456,44.6440574 30.4753177,41.7576011 Z" id="path-5"></path>
        <path d="M0,11.9443406 C13.4794147,5.31600667 29.3136939,1.3345598 47.5028377,0 C46.6697844,2.58445331 41.9603463,15.9860894 33.3745232,40.2049082 L30.5098338,41.478557 L35.7839038,11.9443406 L12.125121,25.5191401 L0,11.9443406 Z" id="path-6"></path>
        <path d="M0.225376809,12.3209665 C14.0221921,5.44154864 30.0333426,1.3345598 48.2588283,0 C47.4241106,2.58445331 42.705263,15.9860894 34.1022854,40.2049082 L31.2318724,41.478557 L36.5164799,11.9443406 L12.471904,25.8874561 L0.225376809,12.3209665 Z" id="path-8"></path>
        <polygon id="path-10" points="171.029756 50.742299 178.895083 29.316634 157.597281 6.28938663 155.455298 14.4983444 175.332837 29.7540227 166.317675 46.0587673"></polygon>
        <path d="M11.4404167,19.6861961 C10.0444665,17.5968714 9.19642752,14.8442292 9.19642752,11.8278698 C9.19642752,5.29551767 13.1737315,0 18.0799846,0 C21.5254609,0 24.5128053,2.6116024 25.9862619,6.42913805 L28.5884586,4.05750049 C31.9207583,3.5491597 35.3336892,3.28551938 38.8082845,3.28551938 C42.2828797,3.28551938 45.6958106,3.5491597 49.0281103,4.05750049 L49.7868588,4.74902251 C51.4069564,1.86599478 53.9920197,0 56.9044193,0 C61.8106724,0 65.7879763,5.29551767 65.7879763,11.8278698 C65.7879763,14.1322509 65.2930299,16.282717 64.4369565,18.1010961 L77.3833414,29.9004087 C77.0293163,32.2294651 76.4695155,34.4910435 75.7230345,36.6660758 L47.9498003,61.9785531 C44.9765774,62.6997354 41.8705981,63.0819721 38.6752153,63.0819721 C35.6085507,63.0819721 32.624232,62.7299101 29.760581,62.0640535 L1.50897396,36.315588 C0.843614128,34.3149169 0.335731519,32.2424938 -2.02338146e-14,30.1129719 L11.4404167,19.6861961 Z" id="path-11"></path>
        <ellipse id="path-13" cx="15.7929904" cy="14.7848372" rx="6.58041265" ry="8.87090233"></ellipse>
        <ellipse id="path-14" cx="59.2237139" cy="14.7848372" rx="6.58041265" ry="8.87090233"></ellipse>
    </defs>
    <g id="iconos" stroke="none" stroke-width="1" fill="none" fill-rule="evenodd" transform="translate(-424.000000, -430.000000)">
        <g id="ranita-recuadro" transform="translate(536.500000, 509.500000) rotate(31.000000) translate(-536.500000, -509.500000) translate(432.000000, 393.000000)">
            <mask id="mask-2" fill="white">
                <use xlink:href="#path-1"></use>
            </mask>
            <g id="Combined-Shape"></g>
            <g id="body-copy" mask="url(#mask-2)">
                <g transform="translate(81.768263, 77.782836)">
                    <mask id="mask-4" fill="white">
                        <use xlink:href="#path-3"></use>
                    </mask>
                    <g id="Polygon" stroke="none" fill="none" stroke-linecap="round" stroke-linejoin="round">
                        <use fill="#656662" fill-rule="evenodd" xlink:href="#path-3"></use>
                        <path stroke="#41423F" stroke-width="1" d="M44.8637912,-0.748587344 L90.4438554,50.0385694 L90.050206,50.3710431 C75.010978,63.0730761 59.9461873,69.4348877 44.8637912,69.4348877 C29.781395,69.4348877 14.7166043,63.0730761 -0.322623628,50.3710431 L-0.716273072,50.0385694 L44.8637912,-0.748587344 Z"></path>
                    </g>
                    <path d="M13.9786996,30.4934022 C23.3583883,31.5426217 -18.1119786,46.8184689 19.5106463,39.7345746 C30.4843379,37.6683585 30.5223515,45.3171878 38.3989003,45.3171878 C46.2754491,45.3171878 48.8294483,38.1883205 52.3486065,37.9805954 C57.539117,37.6742154 66.9610419,42.2545808 68.3355845,42.5927427 C71.0260179,43.2546372 72.0702264,50.6719822 68.3355845,51.0348225 C62.5726526,51.5947219 59.0224277,47.2580028 53.2680204,47.9007693 C47.3346458,48.5635265 45.2600347,56.3506388 38.3989003,56.3506388 C36.1785197,56.3506388 22.5621321,57.6022422 25.0245526,53.7066871 C25.7685044,52.5297537 29.5985303,49.7977246 28.8413768,46.8829161 C28.6974058,46.3286721 28.2329265,45.7062636 27.6687536,45.6346178 C23.9775861,45.1658672 20.0968956,44.3145781 16.5120812,45.3171878 C15.9679437,45.4693736 16.2357366,50.209473 14.003183,49.997495 C3.05618613,48.9580924 2.31648067,35.4100026 11.348029,31.3931117 L13.9786996,30.4934022 Z" id="Path-7" stroke="none" fill="#DDBE59" fill-rule="evenodd" mask="url(#mask-4)"></path>
                    <path d="M62.074692,14.3486144 C58.6309167,14.0722967 57.3281338,13.0289711 54.1313804,14.3486144 C52.2716088,15.1163418 54.7718962,22.2066818 50.8048674,22.0870252 C49.4196023,22.0452418 36.304286,15.0360548 35.6419471,19.9416139 C31.4619981,24.354694 39.6230674,25.7747957 43.00048,32.3096989 C46.8399161,39.7385643 51.9879372,33.0726267 58.9629746,35.0445303 C75.6812314,39.7709265 68.7859491,47.5138813 79.6958551,47.5138813 C85.3324477,47.5138813 86.0627945,44.8055866 84.8695719,39.7709265 C82.6241693,30.2967191 77.3833287,22.8073606 67.8884413,20.5940007 L62.074692,14.3486144 Z" id="Path-8" stroke="none" fill="#DDBE59" fill-rule="evenodd" mask="url(#mask-4)"></path>
                    <path d="M87.6535856,54.4499537 C74.5595077,45.4346824 76.1818513,56.3447965 63.2527138,60.799225 C56.7406334,63.0428083 53.3702354,58.7756813 45.3057799,59.0192577 C39.1722885,59.2045119 45.813459,60.5023031 38.4034104,62.9154025 C31.9888593,65.0043158 26.6053289,60.3680249 28.6313355,69.7521563 C28.691312,70.0299578 32.3750508,71.5787986 44.990718,71.6502448 C57.2114501,71.7194544 75.9273952,65.8460404 83.6376732,57.5119522 L87.6535856,54.4499537 Z" id="Path-9" stroke="none" fill="#DDBE59" fill-rule="evenodd" mask="url(#mask-4)"></path>
                    <path d="M26.4606939,15.3099923 C38.420143,19.5029948 32.4868175,16.0350829 31.4198593,26.275077 C31.1027824,29.3181813 36.347454,26.6737638 40.8736507,33.9552715 L34.0241137,35.6677057 C21.4190584,40.500561 29.2099155,29.0912574 15.0179531,26.6450875 C17.3856897,22.1584011 20.8608811,23.9264746 23.9904536,19.9416139 L26.4606939,15.3099923 Z" id="Path-11" stroke="none" fill="#D96C70" fill-rule="evenodd" mask="url(#mask-4)"></path>
                </g>
            </g>
            <g id="pata-copy-2" mask="url(#mask-2)">
                <g transform="translate(177.503182, 170.776385) rotate(60.000000) translate(-177.503182, -170.776385) translate(127.003182, 142.776385)">
                    <g id="Path-17" stroke="none" fill="none" stroke-linecap="round" stroke-linejoin="round">
                        <use fill="#41423F" fill-rule="evenodd" xlink:href="#path-5"></use>
                        <path stroke="#41423F" stroke-width="1" d="M29.184621,41.7531914 L46.9496318,34.3597289 L47.0945831,34.3858947 C50.9816712,35.0875698 51.2626046,39.1730687 48.2366229,46.2830873 L48.1071579,46.5872855 L47.7765559,46.5872855 C42.9704852,46.5872855 37.1409316,45.128423 30.2800513,42.2178956 L29.184621,41.7531914 Z"></path>
                    </g>
                    <path d="M70.73905,35.8149394 L65.3092972,32.5800892 L48.487952,36.8487573 L45.5235528,35.4234927 L65.3092972,28.9691509 L73.1673646,29.9244714 C73.2368043,29.9207781 73.3067591,29.9189066 73.3771762,29.9189066 C75.4076019,29.9189066 77.0535871,31.4749235 77.0535871,33.3943675 C77.0535871,35.3138116 75.4076019,36.8698284 73.3771762,36.8698284 C72.3422277,36.8698284 71.4071625,36.4655528 70.73905,35.8149394 Z" id="Combined-Shape" stroke="#41423F" stroke-width="1" fill="#41423F" fill-rule="evenodd" stroke-linecap="round" stroke-linejoin="round"></path>
                    <path d="M91.4975421,44.4162795 L91.4897386,44.4342385 L82.4280535,38.353666 L48.1625993,41.3238015 L50.1314208,38.1933107 L88.5769075,31.6027101 L95.3835981,33.2878626 C98.4983115,33.5532823 100.94353,36.1648111 100.94353,39.3472746 C100.94353,42.7060612 98.2198527,45.4288958 94.8600263,45.4288958 C93.6168549,45.4288958 92.4607773,45.0561183 91.4975421,44.4162795 Z" id="Combined-Shape" stroke="#41423F" stroke-width="1" fill="#41423F" fill-rule="evenodd" stroke-linecap="round" stroke-linejoin="round"></path>
                    <path d="M79.0983172,54.3761104 L79.0915963,54.3900377 L74.1604667,50.003785 L47.583375,46.1220078 L49.1858046,42.7953366 L74.1604667,44.9181597 L81.7098532,45.9369094 C81.7533218,45.9356664 81.7969415,45.9350407 81.8407044,45.9350407 C84.3746253,45.9350407 86.4287742,48.03252 86.4287742,50.6198917 C86.4287742,53.2072634 84.3746253,55.3047427 81.8407044,55.3047427 C80.8125215,55.3047427 79.8633319,54.9593984 79.0983172,54.3761104 Z" id="Combined-Shape" stroke="#41423F" stroke-width="1" fill="#41423F" fill-rule="evenodd" stroke-linecap="round" stroke-linejoin="round"></path>
                    <mask id="mask-7" fill="white">
                        <use xlink:href="#path-6"></use>
                    </mask>
                    <use id="Path-16" stroke="#41423F" stroke-width="1" fill="#656662" fill-rule="evenodd" stroke-linecap="round" stroke-linejoin="round" xlink:href="#path-6"></use>
                    <path d="M18.8680331,3.02868596 C12.3867869,14.945582 15.2570299,4.59799602 24.069725,14.4601125 C25.3281621,15.8684051 24.1581109,18.3282052 24.9140625,20.0577382 C25.7543476,21.9802168 34.5745349,16.7046671 34.3267489,14.4553918 C34.0106626,11.5861218 31.1094088,9.574723 30.2146017,6.8297545 C27.0770452,-2.79521805 35.030084,-1.67702953 19.8558153,2.77144996 L18.8680331,3.02868596 Z" id="Path-10" stroke="none" fill="#D96C70" fill-rule="evenodd" mask="url(#mask-7)"></path>
                    <path d="M32.022207,20.6035789 C36.8935916,19.0625639 39.1290158,13.3415875 43.7586716,12.1296843 C46.4745854,11.4187406 46.881689,17.5297539 46.7993933,17.7783881 C45.9135862,20.4546126 39.7782214,21.7772096 38.3723763,22.8572241 C32.5009818,27.3678139 42.55864,26.965916 30.1427929,29.868783 C28.3399359,30.290297 28.471442,22.1252188 31.0585835,20.858584 L32.022207,20.6035789 Z" id="Path-15" stroke="none" fill="#DDBE59" fill-rule="evenodd" mask="url(#mask-7)"></path>
                </g>
            </g>
            <g id="pata-copy-3" mask="url(#mask-2)">
                <g transform="translate(73.552210, 133.182762) scale(-1, 1) rotate(25.000000) translate(-73.552210, -133.182762) translate(49.052210, 112.182762)">
                    <mask id="mask-9" fill="white">
                        <use xlink:href="#path-8"></use>
                    </mask>
                    <g id="Path-16" stroke="none" fill="none" stroke-linecap="round" stroke-linejoin="round">
                        <use fill="#656662" fill-rule="evenodd" xlink:href="#path-8"></use>
                        <path stroke="#41423F" stroke-width="1" d="M35.8343401,12.9178893 L12.3722386,26.5232359 L-0.586931384,12.167293 L0.00226284843,11.8735069 C13.8600917,4.96366617 29.9344582,0.84046192 48.2223136,-0.498664894 L48.9628302,-0.552889165 L48.7346276,0.153671978 C47.8975616,2.7453959 43.1801421,16.1429761 34.5734428,40.3722721 L34.5015093,40.5747771 L30.5738066,42.3175624 L35.8343401,12.9178893 Z"></path>
                    </g>
                    <path d="M8.58981136,6.4897434 C8.91892866,6.93352569 9.20915364,7.40871902 9.57716325,7.82109026 L9.74510896,13.0694689 C11.1886593,14.6870316 14.3288166,13.572809 15.9729261,14.9878285 C17.195695,16.0402171 16.3463249,18.3572248 17.3524344,19.616791 C19.3590983,22.1289689 25.0277932,20.5489907 26.1435445,17.9348094 C30.1594409,8.52565101 23.7803391,11.131611 19.280179,7.66227678 C18.1191778,6.76721945 18.5797831,4.05839414 17.1289104,3.83440972 C14.4749534,3.42469421 11.9838508,5.37062413 9.41132092,6.13873134 L8.58981136,6.4897434 Z" id="Path-27" stroke="none" fill="#D96C70" fill-rule="evenodd" mask="url(#mask-9)"></path>
                    <path d="M45.15877,10.9434883 C37.7339329,14.0048296 41.5300443,10.7815745 40.1621757,18.9329848 C40.0649816,19.5121844 39.7632204,20.5224489 39.1860851,20.40219 C34.6741629,19.4620317 36.0920728,12.1595511 30.1172657,22.1528414 C29.7213332,22.8150667 28.5325534,29.0702923 31.3114736,30.0936217 C40.3359127,33.4168456 47.7735131,17.7158831 44.2517981,11.4618867" id="Path-28" stroke="none" fill="#DDBE59" fill-rule="evenodd" mask="url(#mask-9)"></path>
                </g>
            </g>
            <g id="delantera-copy-2" transform="translate(98.733842, 159.210750) rotate(-24.000000) translate(-98.733842, -159.210750) translate(9.233842, 118.710750)" stroke-linecap="round" stroke-linejoin="round">
                <g id="Group-3" transform="translate(37.509313, 20.440216) scale(-1, 1) rotate(9.000000) translate(-37.509313, -20.440216) translate(2.009313, 5.940216)" fill="#41423F" stroke="#41423F">
                    <path d="M40.7209119,6.94079902 L35.2803104,3.70594885 L18.4253562,7.97461698 L15.977313,6.58123659 L35.2803104,0.095010571 L43.1540783,1.05033109 C43.2236568,1.04663778 43.2937513,1.04476625 43.3643091,1.04476625 C45.3987915,1.04476625 47.0480655,2.60078311 47.0480655,4.52022717 C47.0480655,6.43967124 45.3987915,7.99568809 43.3643091,7.99568809 C42.3272928,7.99568809 41.3903593,7.59141249 40.7209119,6.94079902 Z" id="Combined-Shape"></path>
                    <path d="M60.2794584,16.5812505 L52.2944691,11.454695 L18.2941469,12.8018158 L19.1363342,9.98601243 L53.588829,5.49788899 L64.5169426,6.37109371 C64.5946914,6.36816166 64.6728131,6.36668242 64.751281,6.36668242 C65.1655898,6.36668242 65.5702447,6.40792086 65.9613468,6.48650801 L66.1116536,6.49851819 L66.1051399,6.51721693 C68.8200923,7.13150067 70.8469397,9.55374943 70.8469397,12.4483036 C70.8469397,15.8070902 68.1178203,18.5299248 64.751281,18.5299248 C62.9842366,18.5299248 61.3928038,17.7797736 60.2794584,16.5812505 Z" id="Combined-Shape"></path>
                    <path d="M48.95808,27.4771394 L48.9513456,27.4910667 L44.0103637,23.104814 L18.5348417,17.2936772 L19.1908373,14.745705 L44.0103637,18.0191887 L51.5748339,19.0379384 C51.6183893,19.0366954 51.6620962,19.0360698 51.7059465,19.0360698 C54.2449302,19.0360698 56.3031832,21.133549 56.3031832,23.7209207 C56.3031832,26.3082925 54.2449302,28.4057717 51.7059465,28.4057717 C50.6757093,28.4057717 49.7246232,28.0604274 48.95808,27.4771394 Z" id="Combined-Shape"></path>
                    <path d="M0.469017945,14.6334044 L15.9010686,6.67143836 C17.3961375,7.66771975 18.328565,8.73790707 18.6983511,9.88200029 C19.5175296,12.4164834 19.0806888,15.3167966 18.2752176,17.1921029 C13.5357466,17.1921029 7.60034666,16.3392034 0.469017945,14.6334044 Z" id="Path-17"></path>
                </g>
                <g id="Group-2" transform="translate(140.038860, 48.392517) rotate(41.000000) translate(-140.038860, -48.392517) translate(114.538860, 27.892517)" fill="#41423F" stroke="#41423F">
                    <polygon id="Path-21" points="46.8922839 0.114610269 35.3619271 6.09008412 47.0009944 11.9241889 50.7025257 2.36846118"></polygon>
                    <path d="M39.6712288,33.7479297 L42.1182951,25.5780816 L43.0345773,9.99933833 L47.1434442,11.7105032 L46.3142267,29.9129467 L46.9404604,35.1722585 C47.1008155,35.6208094 47.1881094,36.1037792 47.1881094,36.6070184 C47.1881094,38.9726651 45.259099,40.8904006 42.879544,40.8904006 C40.4999891,40.8904006 38.5709787,38.9726651 38.5709787,36.6070184 C38.5709787,35.5082765 38.9871061,34.5061582 39.6712288,33.7479297 Z" id="Combined-Shape"></path>
                    <path d="M11.810909,33.1933271 L23.8379639,15.3053008 L39.0817146,7.36341085 L41.7253716,9.0417553 L26.0168448,16.6940536 L19.8627687,29.4991525 L18.6791522,36.4040307 C18.6832286,36.4804038 18.6852927,36.5573075 18.6852927,36.6346905 C18.6852927,39.0003372 16.7562823,40.9180727 14.3767274,40.9180727 C11.9971725,40.9180727 10.0681621,39.0003372 10.0681621,36.6346905 C10.0681621,35.2247184 10.7534228,33.9738621 11.810909,33.1933271 Z" id="Combined-Shape"></path>
                    <path d="M1.80219395,21.4957549 L6.91247458,13.5819087 L35.6386168,6.04544711 L39.1445047,7.296483 L9.97300595,15.2033001 L8.0774256,24.1301665 C8.0105506,26.0734395 6.40487421,27.6283904 4.43388435,27.6283904 C2.42041481,27.6283904 0.788175243,26.0056912 0.788175243,24.0039902 C0.788175243,23.030627 1.17412904,22.1468812 1.80219395,21.4957549 Z" id="Combined-Shape"></path>
                </g>
                <g id="Path-26">
                    <use fill="#50514E" fill-rule="evenodd" xlink:href="#path-10"></use>
                    <path stroke="#41423F" stroke-width="1" d="M174.687047,29.8886733 L154.887752,14.6930466 L157.34411,5.27928041 L179.469887,29.2017376 L171.230385,51.6466804 L165.697419,46.1472371 L174.687047,29.8886733 Z"></path>
                </g>
            </g>
            <g id="delantera-copy-3" transform="translate(97.531841, 124.272382) scale(-1, 1) rotate(5.000000) translate(-97.531841, -124.272382) translate(66.031841, 81.772382)" stroke="#41423F" stroke-linecap="round" stroke-linejoin="round">
                <g id="Group" transform="translate(29.151357, 59.167444) rotate(11.000000) translate(-29.151357, -59.167444) translate(4.151357, 38.167444)" fill="#41423F">
                    <polygon id="Path-21" points="46.0671485 -1.70530257e-13 34.4408902 5.90245403 46.0671485 11.8049081 49.8664609 1.96629886"></polygon>
                    <path d="M38.8518822,33.804317 L41.2969869,25.592932 L42.2125345,9.93498371 L46.3181075,11.6548484 L45.4895547,29.9498363 L46.1152863,35.2358873 C46.2755129,35.6867188 46.3627368,36.1721441 46.3627368,36.6779418 C46.3627368,39.0556158 44.4352728,40.9831014 42.0576255,40.9831014 C39.6799782,40.9831014 37.7525142,39.0556158 37.7525142,36.6779418 C37.7525142,35.5736137 38.168308,34.5664004 38.8518822,33.804317 Z" id="Combined-Shape"></path>
                    <path d="M11.0138972,33.2468947 L23.0313104,15.2679226 L38.2628407,7.28565472 L40.9043783,8.97253216 L25.2084445,16.663736 L19.059302,29.5339382 L17.8766343,36.4739221 C17.8807075,36.5506834 17.8827699,36.6279781 17.8827699,36.7057546 C17.8827699,39.0834286 15.9553059,41.0109142 13.5776586,41.0109142 C11.2000113,41.0109142 9.27254736,39.0834286 9.27254736,36.7057546 C9.27254736,35.288614 9.95725874,34.0313981 11.0138972,33.2468947 Z" id="Combined-Shape"></path>
                    <path d="M1.0132058,21.48985 L6.11938969,13.5357685 L34.8225031,5.96099023 L38.3255804,7.2183866 L9.17746753,15.1654034 L7.28340681,24.1376555 C7.21658541,26.0908084 5.61219625,27.6536649 3.64278646,27.6536649 C1.63093105,27.6536649 0,26.0227156 0,24.0108376 C0,23.0325257 0.385644388,22.1442868 1.0132058,21.48985 Z" id="Combined-Shape"></path>
                </g>
                <polygon id="Path-25" fill="#50514E" transform="translate(38.664030, 26.423542) rotate(-41.000000) translate(-38.664030, -26.423542) " points="40.6229256 52.9974206 47.6950024 35.5541039 29.6330583 -0.150336257 30.8025739 12.3716129 42.954619 36.1361563 39.0278529 47.3331724"></polygon>
            </g>
            <g id="H-Copy" transform="translate(117.126560, 57.586715) rotate(-26.000000) translate(-117.126560, -57.586715) translate(78.126560, 25.586715)">
                <mask id="mask-12" fill="white">
                    <use xlink:href="#path-11"></use>
                </mask>
                <g id="Combined-Shape" stroke-linecap="round" stroke-linejoin="round">
                    <use fill="#656662" fill-rule="evenodd" xlink:href="#path-11"></use>
                    <path stroke="#41423F" stroke-width="1" d="M10.7914594,19.6011477 C9.44521691,17.4234858 8.69642752,14.7006269 8.69642752,11.8278698 C8.69642752,5.04542244 12.8614275,-0.5 18.0799846,-0.5 C21.4733523,-0.5 24.5162487,1.86897901 26.1747965,5.58080097 L28.3634828,3.58603606 L28.5130562,3.56321871 C31.8988502,3.04671738 35.3372195,2.78551938 38.8082845,2.78551938 C42.2793494,2.78551938 45.7177187,3.04671738 49.1035128,3.56321871 L49.2530861,3.58603606 L49.6706894,3.96663899 C51.428543,1.17349081 54.0511959,-0.5 56.9044193,-0.5 C62.1229764,-0.5 66.2879763,5.04542244 66.2879763,11.8278698 C66.2879763,14.0170581 65.8540185,16.1236504 65.0426149,17.9765851 L77.9178654,29.7110661 L77.8776633,29.9755475 C77.5220363,32.3151423 76.9585011,34.6065497 76.195957,36.8283849 L76.1544166,36.9494218 L48.1920236,62.4342982 L48.0676622,62.4644632 C45.0170763,63.2044105 41.8707045,63.5819721 38.6752153,63.5819721 C35.6071214,63.5819721 32.5841068,63.2339187 29.6473418,62.5510616 L29.5202308,62.5215058 L1.07571008,36.5972191 L1.03452354,36.4733752 C0.355319925,34.4310772 -0.156423876,32.3314237 -0.493899648,30.1908381 L-0.535837895,29.9248267 L10.7914594,19.6011477 Z"></path>
                </g>
                <path d="M43.4332375,23.2187678 C43.7317617,23.0775996 44.0655389,22.9986357 44.4177854,22.9986357 C45.689777,22.9986357 46.7209298,24.0283197 46.7209298,25.2984992 C46.7209298,25.3348422 46.7200857,25.3709883 46.7184158,25.4069191 C46.4198917,25.5480872 46.0861145,25.6270512 45.7338679,25.6270512 C44.4618764,25.6270512 43.4307235,24.5973672 43.4307235,23.3271876 C43.4307235,23.2908446 43.4315677,23.2546985 43.4332375,23.2187678 Z" id="Combined-Shape" fill="#41423F" mask="url(#mask-12)"></path>
                <path d="M30.2724122,23.2187678 C30.5709364,23.0775996 30.9047136,22.9986357 31.2569601,22.9986357 C32.5289517,22.9986357 33.5601045,24.0283197 33.5601045,25.2984992 C33.5601045,25.3348422 33.5592604,25.3709883 33.5575905,25.4069191 C33.2590663,25.5480872 32.9252892,25.6270512 32.5730426,25.6270512 C31.3010511,25.6270512 30.2698982,24.5973672 30.2698982,23.3271876 C30.2698982,23.2908446 30.2707424,23.2546985 30.2724122,23.2187678 Z" id="Combined-Shape-Copy" fill="#41423F" mask="url(#mask-12)" transform="translate(31.915001, 24.312843) scale(-1, 1) translate(-31.915001, -24.312843) "></path>
                <path d="M45.2416112,12.6249884 C28.6598516,8.62282318 41.9849329,11.018516 44.6079895,3.91707867 C45.6535232,1.08649062 41.0343316,-2.91353459 43.1942289,-5.02312758 C45.812759,-7.58067166 51.4535214,-7.87510612 54.1752925,-5.42740047 C56.2970298,-3.51930899 51.5063825,0.00384397337 51.9209871,2.82490016 C52.1325946,4.26472173 54.8880385,3.80275789 55.7085801,5.00540697 C56.3925401,6.00787158 57.004683,8.16135123 55.8885133,8.64001278 C43.095413,14.1262441 48.6955189,4.43134315 45.2570341,11.6804016 L45.2416112,12.6249884 Z" id="Path-3" fill="#D96C70" mask="url(#mask-12)" transform="translate(46.782988, 2.756816) rotate(46.000000) translate(-46.782988, -2.756816) "></path>
                <path d="M29.4943632,13.1420775 C31.0985674,15.0726085 32.5626906,14.7069698 33.8702586,16.8601752 C35.5397387,19.6093504 39.9687381,16.6192379 42.777071,18.5510611 C43.7178456,19.1982103 42.0626849,22.6747711 40.9143286,22.5456505 C27.9617316,21.0892671 27.8603667,23.6427226 20.1014,25.101187 C12.8790412,26.4587844 18.6637562,35.27086 12.2075824,37.6979785 C3.20154543,41.0836864 8.75102091,27.233694 10.9880782,24.3416254 C13.189096,21.4961488 19.1349327,19.7870684 21.2261454,16.8601752 C22.6005435,14.9365468 23.0961383,15.134716 24.3681197,13.1420775 L29.4943632,13.1420775 Z" id="Path-4" fill="#D96C70" mask="url(#mask-12)" transform="translate(25.146784, 25.684717) rotate(-11.000000) translate(-25.146784, -25.684717) "></path>
                <path d="M64.1734557,20.9772593 C59.7876952,25.1047023 56.8763548,24.8359153 61.7733662,30.8637758 C63.7512793,33.2984411 59.2456829,36.649923 61.3054875,39.0159073 C62.0721773,39.8965617 66.2545782,40.0067738 66.8717977,39.0159073 C68.5140153,36.3795378 69.0252499,31.1575939 71.4476841,29.2112733 C73.6236193,27.463004 77.6021689,29.9389985 79.7609733,28.169679 C80.9340746,27.2082249 78.607323,25.3026526 77.6032643,24.1662639 C75.9897797,22.34013 74.354231,20.1817063 72.0357483,19.4263073 C69.7935209,18.6957534 67.3373987,19.8461561 64.9882239,20.0560805 L64.1734557,20.9772593 Z" id="Path-5" fill="#D96C70" mask="url(#mask-12)"></path>
                <g id="Oval" stroke-linecap="round" stroke-linejoin="round" mask="url(#mask-12)">
                    <use fill="#DBD6C6" fill-rule="evenodd" xlink:href="#path-13"></use>
                    <ellipse stroke="#41423F" stroke-width="1" cx="15.7929904" cy="14.7848372" rx="7.08041265" ry="9.37090233"></ellipse>
                </g>
                <ellipse id="Oval" stroke="#41423F" fill="#41423F" stroke-linecap="round" stroke-linejoin="round" mask="url(#mask-12)" cx="15.7929904" cy="15.1133891" rx="6.58041265" ry="4.59972713"></ellipse>
                <g id="Oval-Copy" stroke-linecap="round" stroke-linejoin="round" mask="url(#mask-12)">
                    <use fill="#DBD6C6" fill-rule="evenodd" xlink:href="#path-14"></use>
                    <ellipse stroke="#41423F" stroke-width="1" cx="59.2237139" cy="14.7848372" rx="7.08041265" ry="9.37090233"></ellipse>
                </g>
                <ellipse id="Oval-Copy" stroke="#41423F" fill="#41423F" stroke-linecap="round" stroke-linejoin="round" mask="url(#mask-12)" cx="59.2237139" cy="15.1133891" rx="6.58041265" ry="4.59972713"></ellipse>
                <path d="M80.7514311,34.3009507 L38.8244347,70.6386667 L-3.01452302,34.3009507 C12.4661943,39.0842068 26.4125135,40.2734964 38.8244347,37.8688194 C52.3691174,35.2446819 66.3447828,34.0553923 80.7514311,34.3009507 Z" id="Combined-Shape" stroke="#41423F" fill="#DDBE59" stroke-linecap="round" stroke-linejoin="round" mask="url(#mask-12)"></path>
            </g>
        </g>
    </g>
</svg>