<?xml version="1.0" encoding="UTF-8"?>
<svg width="95px" height="102px" viewBox="0 0 95 102" version="1.1" xmlns="http://www.w3.org/2000/svg" xmlns:xlink="http://www.w3.org/1999/xlink">
    <!-- Generator: Sketch 50.2 (55047) - http://www.bohemiancoding.com/sketch -->
    <title>resumen</title>
    <desc>Created with Sketch.</desc>
	<style>
	@keyframes balancea {
		to {
			-ms-transform: rotate(5deg); /* IE 9 */
			-webkit-transform: rotate(5deg); /* Safari */
			transform: rotate(5deg);
		}
	  }
	.lapiz {
		animation: balancea 1s ease-in-out .5s infinite alternate;
		transform-origin: 72px 58px;
		
		-ms-transform: rotate(-15deg); /* IE 9 */
		-webkit-transform: rotate(-15deg); /* Safari */
		transform: rotate(-15deg);
		
	} 
	</style>
    <defs></defs>
    <g id="Page-1" stroke="none" stroke-width="1" fill="none" fill-rule="evenodd">
        <g id="resumen" transform="translate(2.000000, 1.000000)" stroke="#41423F">
            <circle id="oval" stroke-width="3" fill="#D96C70" fill-rule="nonzero" stroke-linecap="round" stroke-linejoin="round" cx="45.5" cy="53.5" r="45.5"></circle>
            <path d="M85.2066746,73.6121997 L70.9830958,6.69552259 C70.8682693,6.15530659 70.3372525,5.81046022 69.7970365,5.92528668 L3.28299964,20.0632817 C2.74278364,20.1781081 2.39793728,20.7091249 2.51276373,21.2493409 L16.5519299,87.2984247 C24.5562927,94.161203 34.7295184,98 45.5,98 C62.4466235,98 77.6810656,88.4426789 85.2066746,73.6121997 Z" id="hoja" stroke-width="2" fill="#FFFFFF" fill-rule="nonzero"></path>
            <g id="rayas" stroke-linecap="round" stroke-linejoin="round" transform="translate(42.460442, 40.609262) rotate(-12.000000) translate(-42.460442, -40.609262) translate(19.960442, 29.109262)" stroke-width="3">
                <path d="M0,0 L44.3289973,0" id="line1"></path>
                <path d="M0,11 L44.3289973,11" id="line2"></path>
                <path d="M0,22 L19.8585589,22" id="line3"></path>
            </g>
            <path d="M77,3.55271368e-15 L77,45.0713155 L73.555419,58.7841615 C73.4756316,59.1017944 73.2943884,59.3524476 73.0630115,59.4651443 C72.6431853,59.669629 72.1816163,59.370037 72.0320683,58.7959866 L69.3769204,48.604015 L68.8468562,42.2957575 L68.6399546,42.2957575 L68.6399546,3.55271368e-15 L77,3.55271368e-15 Z" id="lapiz" class="lapiz" stroke-width="2" fill="#4A79AF" fill-rule="nonzero"></path>
        </g>
    </g>
</svg>