<?xml version="1.0" encoding="UTF-8"?>
<svg width="106px" height="97px" viewBox="0 0 106 97" version="1.1" xmlns="http://www.w3.org/2000/svg" xmlns:xlink="http://www.w3.org/1999/xlink">
    <!-- Generator: Sketch 48.1 (47250) - http://www.bohemiancoding.com/sketch -->
    <title>resumen</title>
    <desc>Created with Sketch.</desc>
    <defs>
        <path d="M86.2577988,69.7476161 C78.807625,84.7156755 63.3548288,95 45.5,95 C34.0753881,95 23.6342221,90.7893679 15.6437077,83.8353095 L1.53461613,17.4572526 C1.30496322,16.3768206 1.99465595,15.314787 3.07508795,15.0851341 L69.5891248,0.947139078 C70.6695568,0.717486166 71.7315905,1.40717889 71.9612434,2.4876109 L86.2577988,69.7476161 Z" id="path-1"></path>
        <polygon id="path-2" points="7.10542736e-14 0 44.2957575 0 44.2957575 12.3600454 7.10542736e-14 12.3600454"></polygon>
        <path d="M47.592969,0 L42.7361818,0 L42.7361818,12.3600454 L50.8555054,11.4271793 L60.2002686,8.09844436 C61.2407938,7.72779478 61.7838352,6.5838116 61.4131857,5.54328641 C61.2089113,4.96982653 60.7545767,4.5206214 60.1788345,4.32287106 L47.592969,0 Z" id="path-3"></path>
    </defs>
    <g id="iconos" stroke="none" stroke-width="1" fill="none" fill-rule="evenodd" transform="translate(-426.000000, -312.000000)">
        <g id="resumen" transform="translate(428.000000, 312.000000)">
            <circle id="Oval-2-Copy-2" stroke="#41423F" stroke-width="3" fill="#D96C70" stroke-linecap="round" stroke-linejoin="round" cx="45.5" cy="49.5" r="45.5"></circle>
            <g id="Combined-Shape">
                <use fill="#FFFFFF" fill-rule="evenodd" xlink:href="#path-1"></use>
                <path stroke="#41423F" stroke-width="2" d="M85.2066746,69.6121997 L70.9830958,2.69552259 C70.8682693,2.15530659 70.3372525,1.81046022 69.7970365,1.92528668 L3.28299964,16.0632817 C2.74278364,16.1781081 2.39793728,16.7091249 2.51276373,17.2493409 L16.5519299,83.2984247 C24.5562927,90.161203 34.7295184,94 45.5,94 C62.4466235,94 77.6810656,84.4426789 85.2066746,69.6121997 Z"></path>
            </g>
            <g id="pencil" transform="translate(77.573490, 41.386839) rotate(-228.000000) translate(-77.573490, -41.386839) translate(46.573490, 34.886839)">
                <g id="Rectangle-4">
                    <use fill="#4A79AF" fill-rule="evenodd" xlink:href="#path-2"></use>
                    <path stroke="#41423F" stroke-width="2" d="M1,1 L1,11.3600454 L43.2957575,11.3600454 L43.2957575,1 L1,1 Z"></path>
                </g>
                <mask id="mask-4" fill="white">
                    <use xlink:href="#path-3"></use>
                </mask>
                <g id="Rectangle-4-Copy">
                    <use fill="#F1E1AE" fill-rule="evenodd" xlink:href="#path-3"></use>
                    <path stroke="#41423F" stroke-width="2" d="M47.4260205,1 L43.7361818,1 L43.7361818,11.2385721 L50.6277108,10.4467729 L59.8647084,7.1564256 C60.384971,6.97110081 60.6564917,6.39910922 60.4711669,5.87884663 C60.3690297,5.59211668 60.1418624,5.36751412 59.8539913,5.26863895 L47.4260205,1 Z"></path>
                </g>
                <polygon id="Path-34" fill="#4A4A4A" mask="url(#mask-4)" points="58.4284213 18.3240802 53.7088288 2.69613096 71.1419368 -1.1824752 74.5445753 6.48803242"></polygon>
            </g>
            <g id="Group" transform="translate(42.356486, 36.120188) rotate(-12.000000) translate(-42.356486, -36.120188) translate(19.856486, 24.120188)" stroke="#41423F" stroke-linecap="round" stroke-linejoin="round" stroke-width="3">
                <path d="M0,1 L44.3289973,1" id="Line-4"></path>
                <path d="M0,12 L44.3289973,12" id="Line-4-Copy"></path>
                <path d="M0,23 L19.8585589,23" id="Line-4-Copy-2"></path>
            </g>
        </g>
    </g>
</svg>