<?xml version="1.0" encoding="UTF-8"?>
<svg width="37px" height="36px" viewBox="0 0 37 36" version="1.1" xmlns="http://www.w3.org/2000/svg" xmlns:xlink="http://www.w3.org/1999/xlink">
    <!-- Generator: Sketch 50.2 (55047) - http://www.bohemiancoding.com/sketch -->
    <title>spinner</title>
    <desc>Created with Sketch.</desc>
    <defs></defs>
    <g id="metafora" stroke="none" stroke-width="1" fill="none" fill-rule="evenodd">
        <g id="Desktop-HD" transform="translate(-1302.000000, -967.000000)" fill="#FFFFFF">
            <path d="M1320.86266,975.097859 C1318.67025,975.097859 1316.89295,973.285092 1316.89295,971.04893 C1316.89295,968.812768 1318.67025,967 1320.86266,967 C1323.05507,967 1324.83237,968.812768 1324.83237,971.04893 C1324.83237,973.285092 1323.05507,975.097859 1320.86266,975.097859 Z M1329.02833,979.123183 C1327.6486,977.385359 1327.91133,974.835762 1329.61515,973.4285 C1331.31897,972.021237 1333.81869,972.289211 1335.19842,974.027035 C1336.57814,975.76486 1336.31541,978.314456 1334.61159,979.721719 C1332.90777,981.128981 1330.40806,980.861008 1329.02833,979.123183 Z M1331.0241,988.081511 C1331.51729,985.902661 1333.64884,984.544139 1335.78506,985.047166 C1337.92128,985.550193 1339.25322,987.724283 1338.76003,989.903133 C1338.26685,992.081982 1336.1353,993.440505 1333.99908,992.937478 C1331.86286,992.434451 1330.53092,990.26036 1331.0241,988.081511 Z M1325.36613,995.310999 C1327.33665,994.33073 1329.7132,995.16537 1330.67429,997.175219 C1331.63537,999.185068 1330.81707,1001.60904 1328.84654,1002.58931 C1326.87601,1003.56958 1324.49947,1002.73494 1323.53838,1000.72509 C1322.57729,998.715238 1323.3956,996.291268 1325.36613,995.310999 Z M1316.35919,995.310999 C1318.32972,996.291268 1319.14803,998.715238 1318.18694,1000.72509 C1317.22585,1002.73494 1314.8493,1003.56958 1312.87878,1002.58931 C1310.90825,1001.60904 1310.08994,999.185068 1311.05103,997.175219 C1312.01212,995.16537 1314.38866,994.33073 1316.35919,995.310999 Z M1310.70122,988.081511 C1311.1944,990.26036 1309.86246,992.434451 1307.72624,992.937478 C1305.59002,993.440505 1303.45847,992.081982 1302.96528,989.903133 C1302.4721,987.724283 1303.80404,985.550193 1305.94026,985.047166 C1308.07648,984.544139 1310.20803,985.902661 1310.70122,988.081511 Z M1312.69699,979.123183 C1311.31726,980.861008 1308.81755,981.128981 1307.11373,979.721719 C1305.4099,978.314456 1305.14717,975.76486 1306.5269,974.027035 C1307.90663,972.289211 1310.40634,972.021237 1312.11017,973.4285 C1313.81399,974.835762 1314.07672,977.385359 1312.69699,979.123183 Z" id="spinner"></path>
        </g>
    </g>
</svg>